%TF.GenerationSoftware,KiCad,Pcbnew,8.0.8*%
%TF.CreationDate,2026-01-13T22:41:46+09:00*%
%TF.ProjectId,robomas_f103_bridge_NHK2026,726f626f-6d61-4735-9f66-3130335f6272,rev?*%
%TF.SameCoordinates,Original*%
%TF.FileFunction,Drillmap*%
%TF.FilePolarity,Positive*%
%FSLAX45Y45*%
G04 Gerber Fmt 4.5, Leading zero omitted, Abs format (unit mm)*
G04 Created by KiCad (PCBNEW 8.0.8) date 2026-01-13 22:41:46*
%MOMM*%
%LPD*%
G01*
G04 APERTURE LIST*
%ADD10C,0.050000*%
%ADD11C,0.200000*%
%ADD12C,0.100000*%
%ADD13C,0.162560*%
G04 APERTURE END LIST*
D10*
X12220190Y-8175190D02*
G75*
G02*
X11895190Y-8500190I-325000J0D01*
G01*
X2825000Y-2500000D02*
X11895190Y-2499810D01*
X11895190Y-8500190D02*
X2825000Y-8500000D01*
X2825000Y-8500000D02*
G75*
G02*
X2500000Y-8175000I0J325000D01*
G01*
X11895190Y-2499810D02*
G75*
G02*
X12220190Y-2824810I0J-325000D01*
G01*
X12220190Y-2824810D02*
X12220190Y-8175190D01*
X2500000Y-8175000D02*
X2500000Y-2825000D01*
X2500000Y-2825000D02*
G75*
G02*
X2825000Y-2500000I325000J0D01*
G01*
D11*
D12*
X2642360Y-2987920D02*
X2672360Y-3017920D01*
X2672360Y-2987920D02*
X2642360Y-3017920D01*
X2649980Y-6902060D02*
X2679980Y-6932060D01*
X2679980Y-6902060D02*
X2649980Y-6932060D01*
X2649980Y-7476100D02*
X2679980Y-7506100D01*
X2679980Y-7476100D02*
X2649980Y-7506100D01*
X2650000Y-2650000D02*
X2680000Y-2680000D01*
X2680000Y-2650000D02*
X2650000Y-2680000D01*
X2650000Y-8320000D02*
X2680000Y-8350000D01*
X2680000Y-8320000D02*
X2650000Y-8350000D01*
X2685540Y-6145140D02*
X2715540Y-6175140D01*
X2715540Y-6145140D02*
X2685540Y-6175140D01*
X2718560Y-5530460D02*
X2748560Y-5560460D01*
X2748560Y-5530460D02*
X2718560Y-5560460D01*
X2726180Y-6508360D02*
X2756180Y-6538360D01*
X2756180Y-6508360D02*
X2726180Y-6538360D01*
X2964940Y-5256140D02*
X2994940Y-5286140D01*
X2994940Y-5256140D02*
X2964940Y-5286140D01*
X2985260Y-4054720D02*
X3015260Y-4084720D01*
X3015260Y-4054720D02*
X2985260Y-4084720D01*
X2985260Y-6246740D02*
X3015260Y-6276740D01*
X3015260Y-6246740D02*
X2985260Y-6276740D01*
X2995420Y-4417940D02*
X3025420Y-4447940D01*
X3025420Y-4417940D02*
X2995420Y-4447940D01*
X3005580Y-4811640D02*
X3035580Y-4841640D01*
X3035580Y-4811640D02*
X3005580Y-4841640D01*
X3107180Y-7534520D02*
X3137180Y-7564520D01*
X3137180Y-7534520D02*
X3107180Y-7564520D01*
X3191000Y-8403200D02*
X3221000Y-8433200D01*
X3221000Y-8403200D02*
X3191000Y-8433200D01*
X3196080Y-6866500D02*
X3226080Y-6896500D01*
X3226080Y-6866500D02*
X3196080Y-6896500D01*
X3208780Y-4390000D02*
X3238780Y-4420000D01*
X3238780Y-4390000D02*
X3208780Y-4420000D01*
X3208780Y-7951080D02*
X3238780Y-7981080D01*
X3238780Y-7951080D02*
X3208780Y-7981080D01*
X3211320Y-6300080D02*
X3241320Y-6330080D01*
X3241320Y-6300080D02*
X3211320Y-6330080D01*
X3231640Y-3610220D02*
X3261640Y-3640220D01*
X3261640Y-3610220D02*
X3231640Y-3640220D01*
X3328160Y-2589140D02*
X3358160Y-2619140D01*
X3358160Y-2589140D02*
X3328160Y-2619140D01*
X3328160Y-3094600D02*
X3358160Y-3124600D01*
X3358160Y-3094600D02*
X3328160Y-3124600D01*
X3378891Y-5582669D02*
X3408891Y-5612669D01*
X3408891Y-5582669D02*
X3378891Y-5612669D01*
X3391940Y-5503740D02*
X3421940Y-5533740D01*
X3421940Y-5503740D02*
X3391940Y-5533740D01*
X3427220Y-6068940D02*
X3457220Y-6098940D01*
X3457220Y-6068940D02*
X3427220Y-6098940D01*
X3437380Y-7415140D02*
X3467380Y-7445140D01*
X3467380Y-7415140D02*
X3437380Y-7445140D01*
X3445000Y-4296020D02*
X3475000Y-4326020D01*
X3475000Y-4296020D02*
X3445000Y-4326020D01*
X3452620Y-7283060D02*
X3482620Y-7313060D01*
X3482620Y-7283060D02*
X3452620Y-7313060D01*
X3495800Y-4390000D02*
X3525800Y-4420000D01*
X3525800Y-4390000D02*
X3495800Y-4420000D01*
X3498340Y-5677780D02*
X3528340Y-5707780D01*
X3528340Y-5677780D02*
X3498340Y-5707780D01*
X3505960Y-4951340D02*
X3535960Y-4981340D01*
X3535960Y-4951340D02*
X3505960Y-4981340D01*
X3518660Y-5456800D02*
X3548660Y-5486800D01*
X3548660Y-5456800D02*
X3518660Y-5486800D01*
X3551680Y-7785980D02*
X3581680Y-7815980D01*
X3581680Y-7785980D02*
X3551680Y-7815980D01*
X3589780Y-3920100D02*
X3619780Y-3950100D01*
X3619780Y-3920100D02*
X3589780Y-3950100D01*
X3605020Y-5896220D02*
X3635020Y-5926220D01*
X3635020Y-5896220D02*
X3605020Y-5926220D01*
X3617720Y-4720200D02*
X3647720Y-4750200D01*
X3647720Y-4720200D02*
X3617720Y-4750200D01*
X3681220Y-6381360D02*
X3711220Y-6411360D01*
X3711220Y-6381360D02*
X3681220Y-6411360D01*
X3696460Y-4796400D02*
X3726460Y-4826400D01*
X3726460Y-4796400D02*
X3696460Y-4826400D01*
X3704080Y-8073000D02*
X3734080Y-8103000D01*
X3734080Y-8073000D02*
X3704080Y-8103000D01*
X3724400Y-5451720D02*
X3754400Y-5481720D01*
X3754400Y-5451720D02*
X3724400Y-5481720D01*
X3732020Y-7366880D02*
X3762020Y-7396880D01*
X3762020Y-7366880D02*
X3732020Y-7396880D01*
X3742180Y-8403200D02*
X3772180Y-8433200D01*
X3772180Y-8403200D02*
X3742180Y-8433200D01*
X3762500Y-4372220D02*
X3792500Y-4402220D01*
X3792500Y-4372220D02*
X3762500Y-4402220D01*
X3780280Y-5680320D02*
X3810280Y-5710320D01*
X3810280Y-5680320D02*
X3780280Y-5710320D01*
X3856480Y-4633840D02*
X3886480Y-4663840D01*
X3886480Y-4633840D02*
X3856480Y-4663840D01*
X3859020Y-6142600D02*
X3889020Y-6172600D01*
X3889020Y-6142600D02*
X3859020Y-6172600D01*
X3879340Y-5263760D02*
X3909340Y-5293760D01*
X3909340Y-5263760D02*
X3879340Y-5293760D01*
X3886960Y-4141080D02*
X3916960Y-4171080D01*
X3916960Y-4141080D02*
X3886960Y-4171080D01*
X3904740Y-7554840D02*
X3934740Y-7584840D01*
X3934740Y-7554840D02*
X3904740Y-7584840D01*
X3907280Y-6830940D02*
X3937280Y-6860940D01*
X3937280Y-6830940D02*
X3907280Y-6860940D01*
X3909820Y-3280020D02*
X3939820Y-3310020D01*
X3939820Y-3280020D02*
X3909820Y-3310020D01*
X3914900Y-4369680D02*
X3944900Y-4399680D01*
X3944900Y-4369680D02*
X3914900Y-4399680D01*
X3932680Y-4964040D02*
X3962680Y-4994040D01*
X3962680Y-4964040D02*
X3932680Y-4994040D01*
X3960620Y-5451720D02*
X3990620Y-5481720D01*
X3990620Y-5451720D02*
X3960620Y-5481720D01*
X4013960Y-2599300D02*
X4043960Y-2629300D01*
X4043960Y-2599300D02*
X4013960Y-2629300D01*
X4016500Y-5680320D02*
X4046500Y-5710320D01*
X4046500Y-5680320D02*
X4016500Y-5710320D01*
X4046980Y-5969880D02*
X4076980Y-5999880D01*
X4076980Y-5969880D02*
X4046980Y-5999880D01*
X4105400Y-5352660D02*
X4135400Y-5382660D01*
X4135400Y-5352660D02*
X4105400Y-5382660D01*
X4105400Y-7770740D02*
X4135400Y-7800740D01*
X4135400Y-7770740D02*
X4105400Y-7800740D01*
X4113020Y-4359520D02*
X4143020Y-4389520D01*
X4143020Y-4359520D02*
X4113020Y-4389520D01*
X4142000Y-6450150D02*
X4172000Y-6480150D01*
X4172000Y-6450150D02*
X4142000Y-6480150D01*
X4156200Y-4837040D02*
X4186200Y-4867040D01*
X4186200Y-4837040D02*
X4156200Y-4867040D01*
X4204460Y-6533760D02*
X4234460Y-6563760D01*
X4234460Y-6533760D02*
X4204460Y-6563760D01*
X4245100Y-6142600D02*
X4275100Y-6172600D01*
X4275100Y-6142600D02*
X4245100Y-6172600D01*
X4252720Y-5428860D02*
X4282720Y-5458860D01*
X4282720Y-5428860D02*
X4252720Y-5458860D01*
X4255260Y-7029060D02*
X4285260Y-7059060D01*
X4285260Y-7029060D02*
X4255260Y-7059060D01*
X4267000Y-5930150D02*
X4297000Y-5960150D01*
X4297000Y-5930150D02*
X4267000Y-5960150D01*
X4267000Y-6445150D02*
X4297000Y-6475150D01*
X4297000Y-6445150D02*
X4267000Y-6475150D01*
X4267960Y-4616060D02*
X4297960Y-4646060D01*
X4297960Y-4616060D02*
X4267960Y-4646060D01*
X4267960Y-4999600D02*
X4297960Y-5029600D01*
X4297960Y-4999600D02*
X4267960Y-5029600D01*
X4267960Y-8050140D02*
X4297960Y-8080140D01*
X4297960Y-8050140D02*
X4267960Y-8080140D01*
X4270000Y-7216000D02*
X4300000Y-7246000D01*
X4300000Y-7216000D02*
X4270000Y-7246000D01*
X4290820Y-3018400D02*
X4320820Y-3048400D01*
X4320820Y-3018400D02*
X4290820Y-3048400D01*
X4293360Y-4138540D02*
X4323360Y-4168540D01*
X4323360Y-4138540D02*
X4293360Y-4168540D01*
X4295900Y-8403200D02*
X4325900Y-8433200D01*
X4325900Y-8403200D02*
X4295900Y-8433200D01*
X4304880Y-3750000D02*
X4334880Y-3780000D01*
X4334880Y-3750000D02*
X4304880Y-3780000D01*
X4318760Y-4504300D02*
X4348760Y-4534300D01*
X4348760Y-4504300D02*
X4318760Y-4534300D01*
X4331460Y-6523600D02*
X4361460Y-6553600D01*
X4361460Y-6523600D02*
X4331460Y-6553600D01*
X4349240Y-3541640D02*
X4379240Y-3571640D01*
X4379240Y-3541640D02*
X4349240Y-3571640D01*
X4377180Y-5914000D02*
X4407180Y-5944000D01*
X4407180Y-5914000D02*
X4377180Y-5944000D01*
X4397000Y-6450150D02*
X4427000Y-6480150D01*
X4427000Y-6450150D02*
X4397000Y-6480150D01*
X4422900Y-6549000D02*
X4452900Y-6579000D01*
X4452900Y-6549000D02*
X4422900Y-6579000D01*
X4486400Y-7722480D02*
X4516400Y-7752480D01*
X4516400Y-7722480D02*
X4486400Y-7752480D01*
X4501640Y-3203820D02*
X4531640Y-3233820D01*
X4531640Y-3203820D02*
X4501640Y-3233820D01*
X4522000Y-6450150D02*
X4552000Y-6480150D01*
X4552000Y-6450150D02*
X4522000Y-6480150D01*
X4542280Y-3744840D02*
X4572280Y-3774840D01*
X4572280Y-3744840D02*
X4542280Y-3774840D01*
X4545000Y-3470000D02*
X4575000Y-3500000D01*
X4575000Y-3470000D02*
X4545000Y-3500000D01*
X4560060Y-7046840D02*
X4590060Y-7076840D01*
X4590060Y-7046840D02*
X4560060Y-7076840D01*
X4562600Y-6150220D02*
X4592600Y-6180220D01*
X4592600Y-6150220D02*
X4562600Y-6180220D01*
X4574400Y-7216000D02*
X4604400Y-7246000D01*
X4604400Y-7216000D02*
X4574400Y-7246000D01*
X4595620Y-2571360D02*
X4625620Y-2601360D01*
X4625620Y-2571360D02*
X4595620Y-2601360D01*
X4604373Y-4352959D02*
X4634373Y-4382959D01*
X4634373Y-4352959D02*
X4604373Y-4382959D01*
X4609214Y-4232959D02*
X4639214Y-4262959D01*
X4639214Y-4232959D02*
X4609214Y-4262959D01*
X4647000Y-6450150D02*
X4677000Y-6480150D01*
X4677000Y-6450150D02*
X4647000Y-6480150D01*
X4674360Y-4412959D02*
X4704360Y-4442959D01*
X4704360Y-4412959D02*
X4674360Y-4442959D01*
X4690881Y-4292959D02*
X4720881Y-4322959D01*
X4720881Y-4292959D02*
X4690881Y-4322959D01*
X4727700Y-5921620D02*
X4757700Y-5951620D01*
X4757700Y-5921620D02*
X4727700Y-5951620D01*
X4730240Y-5167240D02*
X4760240Y-5197240D01*
X4760240Y-5167240D02*
X4730240Y-5197240D01*
X4732780Y-3930260D02*
X4762780Y-3960260D01*
X4762780Y-3930260D02*
X4732780Y-3960260D01*
X4742940Y-3117460D02*
X4772940Y-3147460D01*
X4772940Y-3117460D02*
X4742940Y-3147460D01*
X4750560Y-6942700D02*
X4780560Y-6972700D01*
X4780560Y-6942700D02*
X4750560Y-6972700D01*
X4777000Y-6450150D02*
X4807000Y-6480150D01*
X4807000Y-6450150D02*
X4777000Y-6480150D01*
X4793740Y-3732140D02*
X4823740Y-3762140D01*
X4823740Y-3732140D02*
X4793740Y-3762140D01*
X4816600Y-8060300D02*
X4846600Y-8090300D01*
X4846600Y-8060300D02*
X4816600Y-8090300D01*
X4862320Y-8403200D02*
X4892320Y-8433200D01*
X4892320Y-8403200D02*
X4862320Y-8433200D01*
X4879200Y-7216000D02*
X4909200Y-7246000D01*
X4909200Y-7216000D02*
X4879200Y-7246000D01*
X4902000Y-6450150D02*
X4932000Y-6480150D01*
X4932000Y-6450150D02*
X4902000Y-6480150D01*
X4913120Y-3120000D02*
X4943120Y-3150000D01*
X4943120Y-3120000D02*
X4913120Y-3150000D01*
X4951220Y-4801480D02*
X4981220Y-4831480D01*
X4981220Y-4801480D02*
X4951220Y-4831480D01*
X4976620Y-2573900D02*
X5006620Y-2603900D01*
X5006620Y-2573900D02*
X4976620Y-2603900D01*
X5009640Y-5220580D02*
X5039640Y-5250580D01*
X5039640Y-5220580D02*
X5009640Y-5250580D01*
X5009640Y-7686920D02*
X5039640Y-7716920D01*
X5039640Y-7686920D02*
X5009640Y-7716920D01*
X5024880Y-6152760D02*
X5054880Y-6182760D01*
X5054880Y-6152760D02*
X5024880Y-6182760D01*
X5062980Y-4809100D02*
X5092980Y-4839100D01*
X5092980Y-4809100D02*
X5062980Y-4839100D01*
X5073140Y-3127620D02*
X5103140Y-3157620D01*
X5103140Y-3127620D02*
X5073140Y-3157620D01*
X5118919Y-4591075D02*
X5148919Y-4621075D01*
X5148919Y-4591075D02*
X5118919Y-4621075D01*
X5121692Y-4511123D02*
X5151692Y-4541123D01*
X5151692Y-4511123D02*
X5121692Y-4541123D01*
X5122464Y-4672384D02*
X5152464Y-4702384D01*
X5152464Y-4672384D02*
X5122464Y-4702384D01*
X5164580Y-2891400D02*
X5194580Y-2921400D01*
X5194580Y-2891400D02*
X5164580Y-2921400D01*
X5184000Y-7216200D02*
X5214000Y-7246200D01*
X5214000Y-7216200D02*
X5184000Y-7246200D01*
X5215380Y-4087740D02*
X5245380Y-4117740D01*
X5245380Y-4087740D02*
X5215380Y-4117740D01*
X5253480Y-5273920D02*
X5283480Y-5303920D01*
X5283480Y-5273920D02*
X5253480Y-5303920D01*
X5281420Y-4356980D02*
X5311420Y-4386980D01*
X5311420Y-4356980D02*
X5281420Y-4386980D01*
X5305000Y-3465000D02*
X5335000Y-3495000D01*
X5335000Y-3465000D02*
X5305000Y-3495000D01*
X5319520Y-5357740D02*
X5349520Y-5387740D01*
X5349520Y-5357740D02*
X5319520Y-5387740D01*
X5322060Y-5906380D02*
X5352060Y-5936380D01*
X5352060Y-5906380D02*
X5322060Y-5936380D01*
X5332220Y-3760080D02*
X5362220Y-3790080D01*
X5362220Y-3760080D02*
X5332220Y-3790080D01*
X5367780Y-8042520D02*
X5397780Y-8072520D01*
X5397780Y-8042520D02*
X5367780Y-8072520D01*
X5372860Y-4438260D02*
X5402860Y-4468260D01*
X5402860Y-4438260D02*
X5372860Y-4468260D01*
X5380480Y-4864980D02*
X5410480Y-4894980D01*
X5410480Y-4864980D02*
X5380480Y-4894980D01*
X5388100Y-2581520D02*
X5418100Y-2611520D01*
X5418100Y-2581520D02*
X5388100Y-2611520D01*
X5410960Y-8403200D02*
X5440960Y-8433200D01*
X5440960Y-8403200D02*
X5410960Y-8433200D01*
X5426200Y-5916540D02*
X5456200Y-5946540D01*
X5456200Y-5916540D02*
X5426200Y-5946540D01*
X5456680Y-3269860D02*
X5486680Y-3299860D01*
X5486680Y-3269860D02*
X5456680Y-3299860D01*
X5485043Y-4771294D02*
X5515043Y-4801294D01*
X5515043Y-4771294D02*
X5485043Y-4801294D01*
X5488800Y-7216200D02*
X5518800Y-7246200D01*
X5518800Y-7216200D02*
X5488800Y-7246200D01*
X5489700Y-6482960D02*
X5519700Y-6512960D01*
X5519700Y-6482960D02*
X5489700Y-6512960D01*
X5497440Y-4692260D02*
X5527440Y-4722260D01*
X5527440Y-4692260D02*
X5497440Y-4722260D01*
X5499860Y-7643740D02*
X5529860Y-7673740D01*
X5529860Y-7643740D02*
X5499860Y-7673740D01*
X5537960Y-5370440D02*
X5567960Y-5400440D01*
X5567960Y-5370440D02*
X5537960Y-5400440D01*
X5540500Y-7115420D02*
X5570500Y-7145420D01*
X5570500Y-7115420D02*
X5540500Y-7145420D01*
X5550660Y-3587360D02*
X5580660Y-3617360D01*
X5580660Y-3587360D02*
X5550660Y-3617360D01*
X5604000Y-4692260D02*
X5634000Y-4722260D01*
X5634000Y-4692260D02*
X5604000Y-4722260D01*
X5609080Y-5040240D02*
X5639080Y-5070240D01*
X5639080Y-5040240D02*
X5609080Y-5070240D01*
X5672580Y-5914000D02*
X5702580Y-5944000D01*
X5702580Y-5914000D02*
X5672580Y-5944000D01*
X5695440Y-6477880D02*
X5725440Y-6507880D01*
X5725440Y-6477880D02*
X5695440Y-6507880D01*
X5697980Y-4341740D02*
X5727980Y-4371740D01*
X5727980Y-4341740D02*
X5697980Y-4371740D01*
X5731000Y-4966580D02*
X5761000Y-4996580D01*
X5761000Y-4966580D02*
X5731000Y-4996580D01*
X5738620Y-3437500D02*
X5768620Y-3467500D01*
X5768620Y-3437500D02*
X5738620Y-3467500D01*
X5743700Y-3864220D02*
X5773700Y-3894220D01*
X5773700Y-3864220D02*
X5743700Y-3894220D01*
X5751320Y-7041760D02*
X5781320Y-7071760D01*
X5781320Y-7041760D02*
X5751320Y-7071760D01*
X5756400Y-4125840D02*
X5786400Y-4155840D01*
X5786400Y-4125840D02*
X5756400Y-4155840D01*
X5758940Y-4281740D02*
X5788940Y-4311740D01*
X5788940Y-4281740D02*
X5758940Y-4311740D01*
X5793600Y-7216200D02*
X5823600Y-7246200D01*
X5823600Y-7216200D02*
X5793600Y-7246200D01*
X5824980Y-5352660D02*
X5854980Y-5382660D01*
X5854980Y-5352660D02*
X5824980Y-5382660D01*
X5868160Y-5190100D02*
X5898160Y-5220100D01*
X5898160Y-5190100D02*
X5868160Y-5220100D01*
X5875780Y-6521060D02*
X5905780Y-6551060D01*
X5905780Y-6521060D02*
X5875780Y-6551060D01*
X5878320Y-3244460D02*
X5908320Y-3274460D01*
X5908320Y-3244460D02*
X5878320Y-3274460D01*
X5891648Y-4194954D02*
X5921648Y-4224954D01*
X5921648Y-4194954D02*
X5891648Y-4224954D01*
X5896100Y-5578720D02*
X5926100Y-5608720D01*
X5926100Y-5578720D02*
X5896100Y-5608720D01*
X5931660Y-4608440D02*
X5961660Y-4638440D01*
X5961660Y-4608440D02*
X5931660Y-4638440D01*
X5941820Y-8050140D02*
X5971820Y-8080140D01*
X5971820Y-8050140D02*
X5941820Y-8080140D01*
X5948217Y-4251523D02*
X5978217Y-4281523D01*
X5978217Y-4251523D02*
X5948217Y-4281523D01*
X5953732Y-4331333D02*
X5983732Y-4361333D01*
X5983732Y-4331333D02*
X5953732Y-4361333D01*
X5967220Y-3917560D02*
X5997220Y-3947560D01*
X5997220Y-3917560D02*
X5967220Y-3947560D01*
X5974840Y-3023480D02*
X6004840Y-3053480D01*
X6004840Y-3023480D02*
X5974840Y-3053480D01*
X5974840Y-6942700D02*
X6004840Y-6972700D01*
X6004840Y-6942700D02*
X5974840Y-6972700D01*
X5987540Y-8403200D02*
X6017540Y-8433200D01*
X6017540Y-8403200D02*
X5987540Y-8433200D01*
X5995160Y-3423600D02*
X6025160Y-3453600D01*
X6025160Y-3423600D02*
X5995160Y-3453600D01*
X5997700Y-4423020D02*
X6027700Y-4453020D01*
X6027700Y-4423020D02*
X5997700Y-4453020D01*
X6038340Y-5941940D02*
X6068340Y-5971940D01*
X6068340Y-5941940D02*
X6038340Y-5971940D01*
X6043420Y-2576440D02*
X6073420Y-2606440D01*
X6073420Y-2576440D02*
X6043420Y-2606440D01*
X6053580Y-3564500D02*
X6083580Y-3594500D01*
X6083580Y-3564500D02*
X6053580Y-3594500D01*
X6061200Y-7610720D02*
X6091200Y-7640720D01*
X6091200Y-7610720D02*
X6061200Y-7640720D01*
X6071360Y-3175880D02*
X6101360Y-3205880D01*
X6101360Y-3175880D02*
X6071360Y-3205880D01*
X6078980Y-4737980D02*
X6108980Y-4767980D01*
X6108980Y-4737980D02*
X6078980Y-4767980D01*
X6089140Y-5619360D02*
X6119140Y-5649360D01*
X6119140Y-5619360D02*
X6089140Y-5649360D01*
X6098400Y-7216000D02*
X6128400Y-7246000D01*
X6128400Y-7216000D02*
X6098400Y-7246000D01*
X6112000Y-4153780D02*
X6142000Y-4183780D01*
X6142000Y-4153780D02*
X6112000Y-4183780D01*
X6112000Y-4550020D02*
X6142000Y-4580020D01*
X6142000Y-4550020D02*
X6112000Y-4580020D01*
X6175500Y-6564800D02*
X6205500Y-6594800D01*
X6205500Y-6564800D02*
X6175500Y-6594800D01*
X6221220Y-4793860D02*
X6251220Y-4823860D01*
X6251220Y-4793860D02*
X6221220Y-4823860D01*
X6244080Y-6383900D02*
X6274080Y-6413900D01*
X6274080Y-6383900D02*
X6244080Y-6413900D01*
X6252198Y-5039040D02*
X6282198Y-5069040D01*
X6282198Y-5039040D02*
X6252198Y-5069040D01*
X6272020Y-4415400D02*
X6302020Y-4445400D01*
X6302020Y-4415400D02*
X6272020Y-4445400D01*
X6284720Y-3975980D02*
X6314720Y-4005980D01*
X6314720Y-3975980D02*
X6284720Y-4005980D01*
X6320000Y-3535000D02*
X6350000Y-3565000D01*
X6350000Y-3535000D02*
X6320000Y-3565000D01*
X6332980Y-2914260D02*
X6362980Y-2944260D01*
X6362980Y-2914260D02*
X6332980Y-2944260D01*
X6340600Y-3231760D02*
X6370600Y-3261760D01*
X6370600Y-3231760D02*
X6340600Y-3261760D01*
X6348220Y-7023980D02*
X6378220Y-7053980D01*
X6378220Y-7023980D02*
X6348220Y-7053980D01*
X6383780Y-5124060D02*
X6413780Y-5154060D01*
X6413780Y-5124060D02*
X6383780Y-5154060D01*
X6403200Y-7216000D02*
X6433200Y-7246000D01*
X6433200Y-7216000D02*
X6403200Y-7246000D01*
X6409180Y-4036940D02*
X6439180Y-4066940D01*
X6439180Y-4036940D02*
X6409180Y-4066940D01*
X6419340Y-5581260D02*
X6449340Y-5611260D01*
X6449340Y-5581260D02*
X6419340Y-5611260D01*
X6495540Y-8029820D02*
X6525540Y-8059820D01*
X6525540Y-8029820D02*
X6495540Y-8059820D01*
X6523480Y-7379580D02*
X6553480Y-7409580D01*
X6553480Y-7379580D02*
X6523480Y-7409580D01*
X6535000Y-6800000D02*
X6565000Y-6830000D01*
X6565000Y-6800000D02*
X6535000Y-6830000D01*
X6566660Y-8403200D02*
X6596660Y-8433200D01*
X6596660Y-8403200D02*
X6566660Y-8433200D01*
X6599680Y-7572620D02*
X6629680Y-7602620D01*
X6629680Y-7572620D02*
X6599680Y-7602620D01*
X6625080Y-3996300D02*
X6655080Y-4026300D01*
X6655080Y-3996300D02*
X6625080Y-4026300D01*
X6670800Y-3213980D02*
X6700800Y-3243980D01*
X6700800Y-3213980D02*
X6670800Y-3243980D01*
X6675000Y-6185000D02*
X6705000Y-6215000D01*
X6705000Y-6185000D02*
X6675000Y-6215000D01*
X6675880Y-3506080D02*
X6705880Y-3536080D01*
X6705880Y-3506080D02*
X6675880Y-3536080D01*
X6680000Y-7010000D02*
X6710000Y-7040000D01*
X6710000Y-7010000D02*
X6680000Y-7040000D01*
X6680960Y-5134220D02*
X6710960Y-5164220D01*
X6710960Y-5134220D02*
X6680960Y-5164220D01*
X6734300Y-3615300D02*
X6764300Y-3645300D01*
X6764300Y-3615300D02*
X6734300Y-3645300D01*
X6755000Y-5570000D02*
X6785000Y-5600000D01*
X6785000Y-5570000D02*
X6755000Y-5600000D01*
X6757160Y-4798940D02*
X6787160Y-4828940D01*
X6787160Y-4798940D02*
X6757160Y-4828940D01*
X6769860Y-4456040D02*
X6799860Y-4486040D01*
X6799860Y-4456040D02*
X6769860Y-4486040D01*
X6780020Y-4105520D02*
X6810020Y-4135520D01*
X6810020Y-4105520D02*
X6780020Y-4135520D01*
X6945000Y-5405000D02*
X6975000Y-5435000D01*
X6975000Y-5405000D02*
X6945000Y-5435000D01*
X6959880Y-3425000D02*
X6989880Y-3455000D01*
X6989880Y-3425000D02*
X6959880Y-3455000D01*
X6995920Y-3226680D02*
X7025920Y-3256680D01*
X7025920Y-3226680D02*
X6995920Y-3256680D01*
X7006080Y-4773540D02*
X7036080Y-4803540D01*
X7036080Y-4773540D02*
X7006080Y-4803540D01*
X7016240Y-7366880D02*
X7046240Y-7396880D01*
X7046240Y-7366880D02*
X7016240Y-7396880D01*
X7026400Y-6815700D02*
X7056400Y-6845700D01*
X7056400Y-6815700D02*
X7026400Y-6845700D01*
X7110000Y-6150000D02*
X7140000Y-6180000D01*
X7140000Y-6150000D02*
X7110000Y-6180000D01*
X7133080Y-3625460D02*
X7163080Y-3655460D01*
X7163080Y-3625460D02*
X7133080Y-3655460D01*
X7145780Y-8060300D02*
X7175780Y-8090300D01*
X7175780Y-8060300D02*
X7145780Y-8090300D01*
X7161020Y-4707500D02*
X7191020Y-4737500D01*
X7191020Y-4707500D02*
X7161020Y-4737500D01*
X7181340Y-8403200D02*
X7211340Y-8433200D01*
X7211340Y-8403200D02*
X7181340Y-8433200D01*
X7265160Y-3020940D02*
X7295160Y-3050940D01*
X7295160Y-3020940D02*
X7265160Y-3050940D01*
X7323580Y-3851520D02*
X7353580Y-3881520D01*
X7353580Y-3851520D02*
X7323580Y-3881520D01*
X7364220Y-7714860D02*
X7394220Y-7744860D01*
X7394220Y-7714860D02*
X7364220Y-7744860D01*
X7420100Y-5075800D02*
X7450100Y-5105800D01*
X7450100Y-5075800D02*
X7420100Y-5105800D01*
X7440420Y-4694800D02*
X7470420Y-4724800D01*
X7470420Y-4694800D02*
X7440420Y-4724800D01*
X7449880Y-3425000D02*
X7479880Y-3455000D01*
X7479880Y-3425000D02*
X7449880Y-3455000D01*
X7486140Y-7316080D02*
X7516140Y-7346080D01*
X7516140Y-7316080D02*
X7486140Y-7346080D01*
X7516620Y-8019660D02*
X7546620Y-8049660D01*
X7546620Y-8019660D02*
X7516620Y-8049660D01*
X7519160Y-4100440D02*
X7549160Y-4130440D01*
X7549160Y-4100440D02*
X7519160Y-4130440D01*
X7557260Y-4814180D02*
X7587260Y-4844180D01*
X7587260Y-4814180D02*
X7557260Y-4844180D01*
X7587740Y-4346820D02*
X7617740Y-4376820D01*
X7617740Y-4346820D02*
X7587740Y-4376820D01*
X7669020Y-6930000D02*
X7699020Y-6960000D01*
X7699020Y-6930000D02*
X7669020Y-6960000D01*
X7684260Y-4410320D02*
X7714260Y-4440320D01*
X7714260Y-4410320D02*
X7684260Y-4440320D01*
X7712200Y-3188580D02*
X7742200Y-3218580D01*
X7742200Y-3188580D02*
X7712200Y-3218580D01*
X7737600Y-8390500D02*
X7767600Y-8420500D01*
X7767600Y-8390500D02*
X7737600Y-8420500D01*
X7864600Y-5903840D02*
X7894600Y-5933840D01*
X7894600Y-5903840D02*
X7864600Y-5933840D01*
X7865000Y-5070000D02*
X7895000Y-5100000D01*
X7895000Y-5070000D02*
X7865000Y-5100000D01*
X7894880Y-3740000D02*
X7924880Y-3770000D01*
X7924880Y-3740000D02*
X7894880Y-3770000D01*
X7940000Y-4490540D02*
X7970000Y-4520540D01*
X7970000Y-4490540D02*
X7940000Y-4520540D01*
X7995000Y-4090000D02*
X8025000Y-4120000D01*
X8025000Y-4090000D02*
X7995000Y-4120000D01*
X8014460Y-2754240D02*
X8044460Y-2784240D01*
X8044460Y-2754240D02*
X8014460Y-2784240D01*
X8027160Y-7727560D02*
X8057160Y-7757560D01*
X8057160Y-7727560D02*
X8027160Y-7757560D01*
X8065000Y-4330000D02*
X8095000Y-4360000D01*
X8095000Y-4330000D02*
X8065000Y-4360000D01*
X8150000Y-4735000D02*
X8180000Y-4765000D01*
X8180000Y-4735000D02*
X8150000Y-4765000D01*
X8156700Y-3788020D02*
X8186700Y-3818020D01*
X8186700Y-3788020D02*
X8156700Y-3818020D01*
X8255000Y-5185000D02*
X8285000Y-5215000D01*
X8285000Y-5185000D02*
X8255000Y-5215000D01*
X8265920Y-7084940D02*
X8295920Y-7114940D01*
X8295920Y-7084940D02*
X8265920Y-7114940D01*
X8268460Y-4110600D02*
X8298460Y-4140600D01*
X8298460Y-4110600D02*
X8268460Y-4140600D01*
X8301480Y-8380340D02*
X8331480Y-8410340D01*
X8331480Y-8380340D02*
X8301480Y-8410340D01*
X8380220Y-4989440D02*
X8410220Y-5019440D01*
X8410220Y-4989440D02*
X8380220Y-5019440D01*
X8428480Y-3686420D02*
X8458480Y-3716420D01*
X8458480Y-3686420D02*
X8428480Y-3716420D01*
X8451340Y-7181460D02*
X8481340Y-7211460D01*
X8481340Y-7181460D02*
X8451340Y-7211460D01*
X8517380Y-5159620D02*
X8547380Y-5189620D01*
X8547380Y-5159620D02*
X8517380Y-5189620D01*
X8520000Y-5435000D02*
X8550000Y-5465000D01*
X8550000Y-5435000D02*
X8520000Y-5465000D01*
X8540000Y-4345000D02*
X8570000Y-4375000D01*
X8570000Y-4345000D02*
X8540000Y-4375000D01*
X8595000Y-4810000D02*
X8625000Y-4840000D01*
X8625000Y-4810000D02*
X8595000Y-4840000D01*
X8652000Y-6678540D02*
X8682000Y-6708540D01*
X8682000Y-6678540D02*
X8652000Y-6708540D01*
X8690100Y-3696580D02*
X8720100Y-3726580D01*
X8720100Y-3696580D02*
X8690100Y-3726580D01*
X8773920Y-7519280D02*
X8803920Y-7549280D01*
X8803920Y-7519280D02*
X8773920Y-7549280D01*
X8776460Y-4981820D02*
X8806460Y-5011820D01*
X8806460Y-4981820D02*
X8776460Y-5011820D01*
X8790000Y-5990000D02*
X8820000Y-6020000D01*
X8820000Y-5990000D02*
X8790000Y-6020000D01*
X8815000Y-5460000D02*
X8845000Y-5490000D01*
X8845000Y-5460000D02*
X8815000Y-5490000D01*
X8837420Y-4694800D02*
X8867420Y-4724800D01*
X8867420Y-4694800D02*
X8837420Y-4724800D01*
X8860280Y-3445120D02*
X8890280Y-3475120D01*
X8890280Y-3445120D02*
X8860280Y-3475120D01*
X8926320Y-8395580D02*
X8956320Y-8425580D01*
X8956320Y-8395580D02*
X8926320Y-8425580D01*
X8954260Y-5167240D02*
X8984260Y-5197240D01*
X8984260Y-5167240D02*
X8954260Y-5197240D01*
X8974580Y-4826880D02*
X9004580Y-4856880D01*
X9004580Y-4826880D02*
X8974580Y-4856880D01*
X8977120Y-7438000D02*
X9007120Y-7468000D01*
X9007120Y-7438000D02*
X8977120Y-7468000D01*
X9015220Y-2772020D02*
X9045220Y-2802020D01*
X9045220Y-2772020D02*
X9015220Y-2802020D01*
X9043160Y-3170800D02*
X9073160Y-3200800D01*
X9073160Y-3170800D02*
X9043160Y-3200800D01*
X9119360Y-4974200D02*
X9149360Y-5004200D01*
X9149360Y-4974200D02*
X9119360Y-5004200D01*
X9140000Y-4105000D02*
X9170000Y-4135000D01*
X9170000Y-4105000D02*
X9140000Y-4135000D01*
X9142220Y-3793100D02*
X9172220Y-3823100D01*
X9172220Y-3793100D02*
X9142220Y-3823100D01*
X9193020Y-4351900D02*
X9223020Y-4381900D01*
X9223020Y-4351900D02*
X9193020Y-4381900D01*
X9195000Y-4620000D02*
X9225000Y-4650000D01*
X9225000Y-4620000D02*
X9195000Y-4650000D01*
X9264140Y-7940920D02*
X9294140Y-7970920D01*
X9294140Y-7940920D02*
X9264140Y-7970920D01*
X9294620Y-5159620D02*
X9324620Y-5189620D01*
X9324620Y-5159620D02*
X9294620Y-5189620D01*
X9355000Y-5955000D02*
X9385000Y-5985000D01*
X9385000Y-5955000D02*
X9355000Y-5985000D01*
X9385000Y-2925000D02*
X9415000Y-2955000D01*
X9415000Y-2925000D02*
X9385000Y-2955000D01*
X9401300Y-7097640D02*
X9431300Y-7127640D01*
X9431300Y-7097640D02*
X9401300Y-7127640D01*
X9440000Y-6500000D02*
X9470000Y-6530000D01*
X9470000Y-6500000D02*
X9440000Y-6530000D01*
X9465000Y-4355000D02*
X9495000Y-4385000D01*
X9495000Y-4355000D02*
X9465000Y-4385000D01*
X9530000Y-3230000D02*
X9560000Y-3260000D01*
X9560000Y-3230000D02*
X9530000Y-3260000D01*
X9575000Y-4155000D02*
X9605000Y-4185000D01*
X9605000Y-4155000D02*
X9575000Y-4185000D01*
X9716260Y-4585580D02*
X9746260Y-4615580D01*
X9746260Y-4585580D02*
X9716260Y-4615580D01*
X9719880Y-6350000D02*
X9749880Y-6380000D01*
X9749880Y-6350000D02*
X9719880Y-6380000D01*
X9725000Y-3360000D02*
X9755000Y-3390000D01*
X9755000Y-3360000D02*
X9725000Y-3390000D01*
X9730000Y-5140000D02*
X9760000Y-5170000D01*
X9760000Y-5140000D02*
X9730000Y-5170000D01*
X9745000Y-7050000D02*
X9775000Y-7080000D01*
X9775000Y-7050000D02*
X9745000Y-7080000D01*
X9795000Y-5600000D02*
X9825000Y-5630000D01*
X9825000Y-5600000D02*
X9795000Y-5630000D01*
X9840720Y-3996300D02*
X9870720Y-4026300D01*
X9870720Y-3996300D02*
X9840720Y-4026300D01*
X9850880Y-2926960D02*
X9880880Y-2956960D01*
X9880880Y-2926960D02*
X9850880Y-2956960D01*
X9865000Y-7290000D02*
X9895000Y-7320000D01*
X9895000Y-7290000D02*
X9865000Y-7320000D01*
X9890000Y-3675000D02*
X9920000Y-3705000D01*
X9920000Y-3675000D02*
X9890000Y-3705000D01*
X9910000Y-3165000D02*
X9940000Y-3195000D01*
X9940000Y-3165000D02*
X9910000Y-3195000D01*
X9919460Y-2578980D02*
X9949460Y-2608980D01*
X9949460Y-2578980D02*
X9919460Y-2608980D01*
X9920000Y-5350000D02*
X9950000Y-5380000D01*
X9950000Y-5350000D02*
X9920000Y-5380000D01*
X9935000Y-7560000D02*
X9965000Y-7590000D01*
X9965000Y-7560000D02*
X9935000Y-7590000D01*
X9940000Y-3415000D02*
X9970000Y-3445000D01*
X9970000Y-3415000D02*
X9940000Y-3445000D01*
X9975340Y-6602340D02*
X10005340Y-6632340D01*
X10005340Y-6602340D02*
X9975340Y-6632340D01*
X10060000Y-5875000D02*
X10090000Y-5905000D01*
X10090000Y-5875000D02*
X10060000Y-5905000D01*
X10061700Y-2934580D02*
X10091700Y-2964580D01*
X10091700Y-2934580D02*
X10061700Y-2964580D01*
X10069320Y-8210160D02*
X10099320Y-8240160D01*
X10099320Y-8210160D02*
X10069320Y-8240160D01*
X10105000Y-6230000D02*
X10135000Y-6260000D01*
X10135000Y-6230000D02*
X10105000Y-6260000D01*
X10125000Y-7045000D02*
X10155000Y-7075000D01*
X10155000Y-7045000D02*
X10125000Y-7075000D01*
X10145000Y-7600000D02*
X10175000Y-7630000D01*
X10175000Y-7600000D02*
X10145000Y-7630000D01*
X10150000Y-3380000D02*
X10180000Y-3410000D01*
X10180000Y-3380000D02*
X10150000Y-3410000D01*
X10160000Y-5655000D02*
X10190000Y-5685000D01*
X10190000Y-5655000D02*
X10160000Y-5685000D01*
X10280140Y-6902060D02*
X10310140Y-6932060D01*
X10310140Y-6902060D02*
X10280140Y-6932060D01*
X10295380Y-4890380D02*
X10325380Y-4920380D01*
X10325380Y-4890380D02*
X10295380Y-4920380D01*
X10303000Y-2901560D02*
X10333000Y-2931560D01*
X10333000Y-2901560D02*
X10303000Y-2931560D01*
X10310620Y-3102220D02*
X10340620Y-3132220D01*
X10340620Y-3102220D02*
X10310620Y-3132220D01*
X10365000Y-7260000D02*
X10395000Y-7290000D01*
X10395000Y-7260000D02*
X10365000Y-7290000D01*
X10402060Y-4331580D02*
X10432060Y-4361580D01*
X10432060Y-4331580D02*
X10402060Y-4361580D01*
X10455000Y-7830000D02*
X10485000Y-7860000D01*
X10485000Y-7830000D02*
X10455000Y-7860000D01*
X10521440Y-3340980D02*
X10551440Y-3370980D01*
X10551440Y-3340980D02*
X10521440Y-3370980D01*
X10525000Y-4840000D02*
X10555000Y-4870000D01*
X10555000Y-4840000D02*
X10525000Y-4870000D01*
X10534140Y-2901560D02*
X10564140Y-2931560D01*
X10564140Y-2901560D02*
X10534140Y-2931560D01*
X10575000Y-6180000D02*
X10605000Y-6210000D01*
X10605000Y-6180000D02*
X10575000Y-6210000D01*
X10579860Y-6292460D02*
X10609860Y-6322460D01*
X10609860Y-6292460D02*
X10579860Y-6322460D01*
X10585000Y-3100000D02*
X10615000Y-3130000D01*
X10615000Y-3100000D02*
X10585000Y-3130000D01*
X10585000Y-5075000D02*
X10615000Y-5105000D01*
X10615000Y-5075000D02*
X10585000Y-5105000D01*
X10585000Y-7665000D02*
X10615000Y-7695000D01*
X10615000Y-7665000D02*
X10585000Y-7695000D01*
X10585000Y-7815000D02*
X10615000Y-7845000D01*
X10615000Y-7815000D02*
X10585000Y-7845000D01*
X10605000Y-4255000D02*
X10635000Y-4285000D01*
X10635000Y-4255000D02*
X10605000Y-4285000D01*
X10607800Y-4961500D02*
X10637800Y-4991500D01*
X10637800Y-4961500D02*
X10607800Y-4991500D01*
X10653520Y-2998080D02*
X10683520Y-3028080D01*
X10683520Y-2998080D02*
X10653520Y-3028080D01*
X10653520Y-6927460D02*
X10683520Y-6957460D01*
X10683520Y-6927460D02*
X10653520Y-6957460D01*
X10700000Y-6848720D02*
X10730000Y-6878720D01*
X10730000Y-6848720D02*
X10700000Y-6878720D01*
X10740000Y-5310000D02*
X10770000Y-5340000D01*
X10770000Y-5310000D02*
X10740000Y-5340000D01*
X10750000Y-7265000D02*
X10780000Y-7295000D01*
X10780000Y-7265000D02*
X10750000Y-7295000D01*
X10755120Y-3239380D02*
X10785120Y-3269380D01*
X10785120Y-3239380D02*
X10755120Y-3269380D01*
X10760000Y-5820000D02*
X10790000Y-5850000D01*
X10790000Y-5820000D02*
X10760000Y-5850000D01*
X10775440Y-2985380D02*
X10805440Y-3015380D01*
X10805440Y-2985380D02*
X10775440Y-3015380D01*
X10798300Y-3808340D02*
X10828300Y-3838340D01*
X10828300Y-3808340D02*
X10798300Y-3838340D01*
X10825000Y-6735000D02*
X10855000Y-6765000D01*
X10855000Y-6735000D02*
X10825000Y-6765000D01*
X10830000Y-8125000D02*
X10860000Y-8155000D01*
X10860000Y-8125000D02*
X10830000Y-8155000D01*
X10833860Y-2741540D02*
X10863860Y-2771540D01*
X10863860Y-2741540D02*
X10833860Y-2771540D01*
X10835000Y-4755000D02*
X10865000Y-4785000D01*
X10865000Y-4755000D02*
X10835000Y-4785000D01*
X10879580Y-6053700D02*
X10909580Y-6083700D01*
X10909580Y-6053700D02*
X10879580Y-6083700D01*
X10882120Y-4100440D02*
X10912120Y-4130440D01*
X10912120Y-4100440D02*
X10882120Y-4130440D01*
X10940540Y-7272900D02*
X10970540Y-7302900D01*
X10970540Y-7272900D02*
X10940540Y-7302900D01*
X10948160Y-8316840D02*
X10978160Y-8346840D01*
X10978160Y-8316840D02*
X10948160Y-8346840D01*
X10988800Y-5162160D02*
X11018800Y-5192160D01*
X11018800Y-5162160D02*
X10988800Y-5192160D01*
X11062460Y-3191120D02*
X11092460Y-3221120D01*
X11092460Y-3191120D02*
X11062460Y-3221120D01*
X11087860Y-7092560D02*
X11117860Y-7122560D01*
X11117860Y-7092560D02*
X11087860Y-7122560D01*
X11100000Y-2730000D02*
X11130000Y-2760000D01*
X11130000Y-2730000D02*
X11100000Y-2760000D01*
X11100560Y-6061320D02*
X11130560Y-6091320D01*
X11130560Y-6061320D02*
X11100560Y-6091320D01*
X11103100Y-8009500D02*
X11133100Y-8039500D01*
X11133100Y-8009500D02*
X11103100Y-8039500D01*
X11108180Y-4110600D02*
X11138180Y-4140600D01*
X11138180Y-4110600D02*
X11108180Y-4140600D01*
X11123420Y-7590400D02*
X11153420Y-7620400D01*
X11153420Y-7590400D02*
X11123420Y-7620400D01*
X11140000Y-6765000D02*
X11170000Y-6795000D01*
X11170000Y-6765000D02*
X11140000Y-6795000D01*
X11145000Y-4820000D02*
X11175000Y-4850000D01*
X11175000Y-4820000D02*
X11145000Y-4850000D01*
X11149880Y-5595000D02*
X11179880Y-5625000D01*
X11179880Y-5595000D02*
X11149880Y-5625000D01*
X11161520Y-3084440D02*
X11191520Y-3114440D01*
X11191520Y-3084440D02*
X11161520Y-3114440D01*
X11204700Y-3374000D02*
X11234700Y-3404000D01*
X11234700Y-3374000D02*
X11204700Y-3404000D01*
X11247880Y-5327260D02*
X11277880Y-5357260D01*
X11277880Y-5327260D02*
X11247880Y-5357260D01*
X11316460Y-2888860D02*
X11346460Y-2918860D01*
X11346460Y-2888860D02*
X11316460Y-2918860D01*
X11339320Y-7290680D02*
X11369320Y-7320680D01*
X11369320Y-7290680D02*
X11339320Y-7320680D01*
X11360000Y-2577200D02*
X11390000Y-2607200D01*
X11390000Y-2577200D02*
X11360000Y-2607200D01*
X11420600Y-6990960D02*
X11450600Y-7020960D01*
X11450600Y-6990960D02*
X11420600Y-7020960D01*
X11425680Y-5042780D02*
X11455680Y-5072780D01*
X11455680Y-5042780D02*
X11425680Y-5072780D01*
X11440920Y-3097140D02*
X11470920Y-3127140D01*
X11470920Y-3097140D02*
X11440920Y-3127140D01*
X11578080Y-4141080D02*
X11608080Y-4171080D01*
X11608080Y-4141080D02*
X11578080Y-4171080D01*
X11600940Y-6104500D02*
X11630940Y-6134500D01*
X11630940Y-6104500D02*
X11600940Y-6134500D01*
X11618720Y-4979280D02*
X11648720Y-5009280D01*
X11648720Y-4979280D02*
X11618720Y-5009280D01*
X11626340Y-6927460D02*
X11656340Y-6957460D01*
X11656340Y-6927460D02*
X11626340Y-6957460D01*
X11735560Y-7369420D02*
X11765560Y-7399420D01*
X11765560Y-7369420D02*
X11735560Y-7399420D01*
X11760331Y-7599931D02*
X11790331Y-7629931D01*
X11790331Y-7599931D02*
X11760331Y-7629931D01*
X11793980Y-6589640D02*
X11823980Y-6619640D01*
X11823980Y-6589640D02*
X11793980Y-6619640D01*
X11801600Y-5880980D02*
X11831600Y-5910980D01*
X11831600Y-5880980D02*
X11801600Y-5910980D01*
X11839880Y-5300000D02*
X11869880Y-5330000D01*
X11869880Y-5300000D02*
X11839880Y-5330000D01*
X11874880Y-3130000D02*
X11904880Y-3160000D01*
X11904880Y-3130000D02*
X11874880Y-3160000D01*
X11877800Y-3409560D02*
X11907800Y-3439560D01*
X11907800Y-3409560D02*
X11877800Y-3439560D01*
X11913360Y-7166220D02*
X11943360Y-7196220D01*
X11943360Y-7166220D02*
X11913360Y-7196220D01*
X11936220Y-3793100D02*
X11966220Y-3823100D01*
X11966220Y-3793100D02*
X11936220Y-3823100D01*
X11966700Y-4504300D02*
X11996700Y-4534300D01*
X11996700Y-4504300D02*
X11966700Y-4534300D01*
X11999880Y-5450000D02*
X12029880Y-5480000D01*
X12029880Y-5450000D02*
X11999880Y-5480000D01*
X12004880Y-5055000D02*
X12034880Y-5085000D01*
X12034880Y-5055000D02*
X12004880Y-5085000D01*
X12004880Y-5920000D02*
X12034880Y-5950000D01*
X12034880Y-5920000D02*
X12004880Y-5950000D01*
X12004880Y-6330000D02*
X12034880Y-6360000D01*
X12034880Y-6330000D02*
X12004880Y-6360000D01*
X12004880Y-6600000D02*
X12034880Y-6630000D01*
X12034880Y-6600000D02*
X12004880Y-6630000D01*
X12040000Y-8310000D02*
X12070000Y-8340000D01*
X12070000Y-8310000D02*
X12040000Y-8340000D01*
X12060000Y-2660000D02*
X12090000Y-2690000D01*
X12090000Y-2660000D02*
X12060000Y-2690000D01*
X12079880Y-7815000D02*
X12109880Y-7845000D01*
X12109880Y-7815000D02*
X12079880Y-7845000D01*
X12094880Y-3640000D02*
X12124880Y-3670000D01*
X12124880Y-3640000D02*
X12094880Y-3670000D01*
X12099880Y-7310000D02*
X12129880Y-7340000D01*
X12129880Y-7310000D02*
X12099880Y-7340000D01*
X2744360Y-5110920D02*
G75*
G02*
X2679360Y-5110920I-32500J0D01*
G01*
X2679360Y-5110920D02*
G75*
G02*
X2744360Y-5110920I32500J0D01*
G01*
X2751860Y-5078420D02*
X2671860Y-5078420D01*
X2671860Y-5143420D02*
G75*
G02*
X2671860Y-5078420I0J32500D01*
G01*
X2671860Y-5143420D02*
X2751860Y-5143420D01*
X2751860Y-5143420D02*
G75*
G03*
X2751860Y-5078420I0J32500D01*
G01*
X2744360Y-5974920D02*
G75*
G02*
X2679360Y-5974920I-32500J0D01*
G01*
X2679360Y-5974920D02*
G75*
G02*
X2744360Y-5974920I32500J0D01*
G01*
X2751860Y-5942420D02*
X2671860Y-5942420D01*
X2671860Y-6007420D02*
G75*
G02*
X2671860Y-5942420I0J32500D01*
G01*
X2671860Y-6007420D02*
X2751860Y-6007420D01*
X2751860Y-6007420D02*
G75*
G03*
X2751860Y-5942420I0J32500D01*
G01*
X3162360Y-5110920D02*
G75*
G02*
X3097360Y-5110920I-32500J0D01*
G01*
X3097360Y-5110920D02*
G75*
G02*
X3162360Y-5110920I32500J0D01*
G01*
X3184860Y-5078420D02*
X3074860Y-5078420D01*
X3074860Y-5143420D02*
G75*
G02*
X3074860Y-5078420I0J32500D01*
G01*
X3074860Y-5143420D02*
X3184860Y-5143420D01*
X3184860Y-5143420D02*
G75*
G03*
X3184860Y-5078420I0J32500D01*
G01*
X3162360Y-5974920D02*
G75*
G02*
X3097360Y-5974920I-32500J0D01*
G01*
X3097360Y-5974920D02*
G75*
G02*
X3162360Y-5974920I32500J0D01*
G01*
X3184860Y-5942420D02*
X3074860Y-5942420D01*
X3074860Y-6007420D02*
G75*
G02*
X3074860Y-5942420I0J32500D01*
G01*
X3074860Y-6007420D02*
X3184860Y-6007420D01*
X3184860Y-6007420D02*
G75*
G03*
X3184860Y-5942420I0J32500D01*
G01*
X11001900Y-4769750D02*
X11001900Y-4858650D01*
X10957450Y-4814200D02*
X11046350Y-4814200D01*
X11001900Y-4998350D02*
X11001900Y-5087250D01*
X10957450Y-5042800D02*
X11046350Y-5042800D01*
X11001900Y-5912750D02*
X11001900Y-6001650D01*
X10957450Y-5957200D02*
X11046350Y-5957200D01*
X11001900Y-6141350D02*
X11001900Y-6230250D01*
X10957450Y-6185800D02*
X11046350Y-6185800D01*
X11002400Y-6720350D02*
X11002400Y-6809250D01*
X10957950Y-6764800D02*
X11046850Y-6764800D01*
X11002400Y-6948950D02*
X11002400Y-7037850D01*
X10957950Y-6993400D02*
X11046850Y-6993400D01*
X11002400Y-7863350D02*
X11002400Y-7952250D01*
X10957950Y-7907800D02*
X11046850Y-7907800D01*
X11002400Y-8091950D02*
X11002400Y-8180850D01*
X10957950Y-8136400D02*
X11046850Y-8136400D01*
X11003500Y-2817550D02*
X11003500Y-2906450D01*
X10959050Y-2862000D02*
X11047950Y-2862000D01*
X11003500Y-3046150D02*
X11003500Y-3135050D01*
X10959050Y-3090600D02*
X11047950Y-3090600D01*
X11003500Y-3960550D02*
X11003500Y-4049450D01*
X10959050Y-4005000D02*
X11047950Y-4005000D01*
X11003500Y-4189150D02*
X11003500Y-4278050D01*
X10959050Y-4233600D02*
X11047950Y-4233600D01*
X11484500Y-5201550D02*
X11484500Y-5290450D01*
X11440050Y-5246000D02*
X11528950Y-5246000D01*
X11484500Y-5404750D02*
X11484500Y-5493650D01*
X11440050Y-5449200D02*
X11528950Y-5449200D01*
X11484500Y-5607950D02*
X11484500Y-5696850D01*
X11440050Y-5652400D02*
X11528950Y-5652400D01*
X11484500Y-5811150D02*
X11484500Y-5900050D01*
X11440050Y-5855600D02*
X11528950Y-5855600D01*
X11485000Y-7152150D02*
X11485000Y-7241050D01*
X11440550Y-7196600D02*
X11529450Y-7196600D01*
X11485000Y-7355350D02*
X11485000Y-7444250D01*
X11440550Y-7399800D02*
X11529450Y-7399800D01*
X11485000Y-7558550D02*
X11485000Y-7647450D01*
X11440550Y-7603000D02*
X11529450Y-7603000D01*
X11485000Y-7761750D02*
X11485000Y-7850650D01*
X11440550Y-7806200D02*
X11529450Y-7806200D01*
X11486100Y-3249350D02*
X11486100Y-3338250D01*
X11441650Y-3293800D02*
X11530550Y-3293800D01*
X11486100Y-3452550D02*
X11486100Y-3541450D01*
X11441650Y-3497000D02*
X11530550Y-3497000D01*
X11486100Y-3655750D02*
X11486100Y-3744650D01*
X11441650Y-3700200D02*
X11530550Y-3700200D01*
X11486100Y-3858950D02*
X11486100Y-3947850D01*
X11441650Y-3903400D02*
X11530550Y-3903400D01*
X11662300Y-5099950D02*
X11662300Y-5188850D01*
X11617850Y-5144400D02*
X11706750Y-5144400D01*
X11662300Y-5303150D02*
X11662300Y-5392050D01*
X11617850Y-5347600D02*
X11706750Y-5347600D01*
X11662300Y-5506350D02*
X11662300Y-5595250D01*
X11617850Y-5550800D02*
X11706750Y-5550800D01*
X11662300Y-5709550D02*
X11662300Y-5798450D01*
X11617850Y-5754000D02*
X11706750Y-5754000D01*
X11662800Y-7050550D02*
X11662800Y-7139450D01*
X11618350Y-7095000D02*
X11707250Y-7095000D01*
X11662800Y-7253750D02*
X11662800Y-7342650D01*
X11618350Y-7298200D02*
X11707250Y-7298200D01*
X11662800Y-7456950D02*
X11662800Y-7545850D01*
X11618350Y-7501400D02*
X11707250Y-7501400D01*
X11662800Y-7660150D02*
X11662800Y-7749050D01*
X11618350Y-7704600D02*
X11707250Y-7704600D01*
X11663900Y-3147750D02*
X11663900Y-3236650D01*
X11619450Y-3192200D02*
X11708350Y-3192200D01*
X11663900Y-3350950D02*
X11663900Y-3439850D01*
X11619450Y-3395400D02*
X11708350Y-3395400D01*
X11663900Y-3554150D02*
X11663900Y-3643050D01*
X11619450Y-3598600D02*
X11708350Y-3598600D01*
X11663900Y-3757350D02*
X11663900Y-3846250D01*
X11619450Y-3801800D02*
X11708350Y-3801800D01*
X2885356Y-3515356D02*
X2885356Y-3444644D01*
X2814644Y-3444644D01*
X2814644Y-3515356D01*
X2885356Y-3515356D01*
X3135356Y-3515356D02*
X3135356Y-3444644D01*
X3064644Y-3444644D01*
X3064644Y-3515356D01*
X3135356Y-3515356D01*
X3917856Y-2835356D02*
X3917856Y-2764644D01*
X3847144Y-2764644D01*
X3847144Y-2835356D01*
X3917856Y-2835356D01*
X3917856Y-3085356D02*
X3917856Y-3014644D01*
X3847144Y-3014644D01*
X3847144Y-3085356D01*
X3917856Y-3085356D01*
X4730856Y-3340356D02*
X4730856Y-3269644D01*
X4660144Y-3269644D01*
X4660144Y-3340356D01*
X4730856Y-3340356D01*
X4984856Y-3340356D02*
X4984856Y-3269644D01*
X4914144Y-3269644D01*
X4914144Y-3340356D01*
X4984856Y-3340356D01*
X5238856Y-3340356D02*
X5238856Y-3269644D01*
X5168144Y-3269644D01*
X5168144Y-3340356D01*
X5238856Y-3340356D01*
X6563356Y-2747856D02*
X6563356Y-2677144D01*
X6492644Y-2677144D01*
X6492644Y-2747856D01*
X6563356Y-2747856D01*
X6817356Y-2747856D02*
X6817356Y-2677144D01*
X6746644Y-2677144D01*
X6746644Y-2747856D01*
X6817356Y-2747856D01*
X6891456Y-6884876D02*
X6891456Y-6814164D01*
X6820744Y-6814164D01*
X6820744Y-6884876D01*
X6891456Y-6884876D01*
X6891456Y-7138876D02*
X6891456Y-7068164D01*
X6820744Y-7068164D01*
X6820744Y-7138876D01*
X6891456Y-7138876D01*
X6891456Y-7392876D02*
X6891456Y-7322164D01*
X6820744Y-7322164D01*
X6820744Y-7392876D01*
X6891456Y-7392876D01*
X7071356Y-2747856D02*
X7071356Y-2677144D01*
X7000644Y-2677144D01*
X7000644Y-2747856D01*
X7071356Y-2747856D01*
X7325356Y-2747856D02*
X7325356Y-2677144D01*
X7254644Y-2677144D01*
X7254644Y-2747856D01*
X7325356Y-2747856D01*
X8000356Y-3577856D02*
X8000356Y-3507144D01*
X7929644Y-3507144D01*
X7929644Y-3577856D01*
X8000356Y-3577856D01*
X8009336Y-7480036D02*
X8009336Y-7409324D01*
X7938624Y-7409324D01*
X7938624Y-7480036D01*
X8009336Y-7480036D01*
X7923980Y-7384680D02*
X7923980Y-7504680D01*
X8023980Y-7504680D02*
G75*
G02*
X7923980Y-7504680I-50000J0D01*
G01*
X8023980Y-7504680D02*
X8023980Y-7384680D01*
X8023980Y-7384680D02*
G75*
G03*
X7923980Y-7384680I-50000J0D01*
G01*
X8254356Y-3577856D02*
X8254356Y-3507144D01*
X8183644Y-3507144D01*
X8183644Y-3577856D01*
X8254356Y-3577856D01*
X8415336Y-8230036D02*
X8415336Y-8159324D01*
X8344624Y-8159324D01*
X8344624Y-8230036D01*
X8415336Y-8230036D01*
X8508356Y-3577856D02*
X8508356Y-3507144D01*
X8437644Y-3507144D01*
X8437644Y-3577856D01*
X8508356Y-3577856D01*
X8669336Y-8230036D02*
X8669336Y-8159324D01*
X8598624Y-8159324D01*
X8598624Y-8230036D01*
X8669336Y-8230036D01*
X8762356Y-3577856D02*
X8762356Y-3507144D01*
X8691644Y-3507144D01*
X8691644Y-3577856D01*
X8762356Y-3577856D01*
X8923336Y-8230036D02*
X8923336Y-8159324D01*
X8852624Y-8159324D01*
X8852624Y-8230036D01*
X8923336Y-8230036D01*
X9329336Y-7480036D02*
X9329336Y-7409324D01*
X9258624Y-7409324D01*
X9258624Y-7480036D01*
X9329336Y-7480036D01*
X9243980Y-7384680D02*
X9243980Y-7504680D01*
X9343980Y-7504680D02*
G75*
G02*
X9243980Y-7504680I-50000J0D01*
G01*
X9343980Y-7504680D02*
X9343980Y-7384680D01*
X9343980Y-7384680D02*
G75*
G03*
X9243980Y-7384680I-50000J0D01*
G01*
X10200156Y-6749356D02*
X10200156Y-6678644D01*
X10129444Y-6678644D01*
X10129444Y-6749356D01*
X10200156Y-6749356D01*
X10201256Y-2812556D02*
X10201256Y-2741844D01*
X10130544Y-2741844D01*
X10130544Y-2812556D01*
X10201256Y-2812556D01*
X10203556Y-4775156D02*
X10203556Y-4704444D01*
X10132844Y-4704444D01*
X10132844Y-4775156D01*
X10203556Y-4775156D01*
X10454156Y-6749356D02*
X10454156Y-6678644D01*
X10383444Y-6678644D01*
X10383444Y-6749356D01*
X10454156Y-6749356D01*
X10455256Y-2812556D02*
X10455256Y-2741844D01*
X10384544Y-2741844D01*
X10384544Y-2812556D01*
X10455256Y-2812556D01*
X10457556Y-4775156D02*
X10457556Y-4704444D01*
X10386844Y-4704444D01*
X10386844Y-4775156D01*
X10457556Y-4775156D01*
X10708156Y-6749356D02*
X10708156Y-6678644D01*
X10637444Y-6678644D01*
X10637444Y-6749356D01*
X10708156Y-6749356D01*
X10709256Y-2812556D02*
X10709256Y-2741844D01*
X10638544Y-2741844D01*
X10638544Y-2812556D01*
X10709256Y-2812556D01*
X10711556Y-4775156D02*
X10711556Y-4704444D01*
X10640844Y-4704444D01*
X10640844Y-4775156D01*
X10711556Y-4775156D01*
D13*
X11573400Y-4768480D02*
X11654680Y-4687200D01*
X11573400Y-4605920D01*
X11492120Y-4687200D01*
X11573400Y-4768480D01*
X11573400Y-6394080D02*
X11654680Y-6312800D01*
X11573400Y-6231520D01*
X11492120Y-6312800D01*
X11573400Y-6394080D01*
X11573900Y-6719080D02*
X11655180Y-6637800D01*
X11573900Y-6556520D01*
X11492620Y-6637800D01*
X11573900Y-6719080D01*
X11573900Y-8344680D02*
X11655180Y-8263400D01*
X11573900Y-8182120D01*
X11492620Y-8263400D01*
X11573900Y-8344680D01*
X11575000Y-2816280D02*
X11656280Y-2735000D01*
X11575000Y-2653720D01*
X11493720Y-2735000D01*
X11575000Y-2816280D01*
X11575000Y-4441880D02*
X11656280Y-4360600D01*
X11575000Y-4279320D01*
X11493720Y-4360600D01*
X11575000Y-4441880D01*
D11*
X2758277Y-8814174D02*
X2758277Y-8614174D01*
X2758277Y-8614174D02*
X2805896Y-8614174D01*
X2805896Y-8614174D02*
X2834467Y-8623698D01*
X2834467Y-8623698D02*
X2853515Y-8642746D01*
X2853515Y-8642746D02*
X2863039Y-8661793D01*
X2863039Y-8661793D02*
X2872562Y-8699888D01*
X2872562Y-8699888D02*
X2872562Y-8728460D01*
X2872562Y-8728460D02*
X2863039Y-8766555D01*
X2863039Y-8766555D02*
X2853515Y-8785603D01*
X2853515Y-8785603D02*
X2834467Y-8804650D01*
X2834467Y-8804650D02*
X2805896Y-8814174D01*
X2805896Y-8814174D02*
X2758277Y-8814174D01*
X2958277Y-8814174D02*
X2958277Y-8680841D01*
X2958277Y-8718936D02*
X2967801Y-8699888D01*
X2967801Y-8699888D02*
X2977324Y-8690365D01*
X2977324Y-8690365D02*
X2996372Y-8680841D01*
X2996372Y-8680841D02*
X3015420Y-8680841D01*
X3082086Y-8814174D02*
X3082086Y-8680841D01*
X3082086Y-8614174D02*
X3072562Y-8623698D01*
X3072562Y-8623698D02*
X3082086Y-8633222D01*
X3082086Y-8633222D02*
X3091610Y-8623698D01*
X3091610Y-8623698D02*
X3082086Y-8614174D01*
X3082086Y-8614174D02*
X3082086Y-8633222D01*
X3205896Y-8814174D02*
X3186848Y-8804650D01*
X3186848Y-8804650D02*
X3177324Y-8785603D01*
X3177324Y-8785603D02*
X3177324Y-8614174D01*
X3310658Y-8814174D02*
X3291610Y-8804650D01*
X3291610Y-8804650D02*
X3282086Y-8785603D01*
X3282086Y-8785603D02*
X3282086Y-8614174D01*
X3539229Y-8814174D02*
X3539229Y-8614174D01*
X3539229Y-8614174D02*
X3605896Y-8757031D01*
X3605896Y-8757031D02*
X3672562Y-8614174D01*
X3672562Y-8614174D02*
X3672562Y-8814174D01*
X3853515Y-8814174D02*
X3853515Y-8709412D01*
X3853515Y-8709412D02*
X3843991Y-8690365D01*
X3843991Y-8690365D02*
X3824943Y-8680841D01*
X3824943Y-8680841D02*
X3786848Y-8680841D01*
X3786848Y-8680841D02*
X3767801Y-8690365D01*
X3853515Y-8804650D02*
X3834467Y-8814174D01*
X3834467Y-8814174D02*
X3786848Y-8814174D01*
X3786848Y-8814174D02*
X3767801Y-8804650D01*
X3767801Y-8804650D02*
X3758277Y-8785603D01*
X3758277Y-8785603D02*
X3758277Y-8766555D01*
X3758277Y-8766555D02*
X3767801Y-8747507D01*
X3767801Y-8747507D02*
X3786848Y-8737984D01*
X3786848Y-8737984D02*
X3834467Y-8737984D01*
X3834467Y-8737984D02*
X3853515Y-8728460D01*
X3948753Y-8680841D02*
X3948753Y-8880841D01*
X3948753Y-8690365D02*
X3967801Y-8680841D01*
X3967801Y-8680841D02*
X4005896Y-8680841D01*
X4005896Y-8680841D02*
X4024943Y-8690365D01*
X4024943Y-8690365D02*
X4034467Y-8699888D01*
X4034467Y-8699888D02*
X4043991Y-8718936D01*
X4043991Y-8718936D02*
X4043991Y-8776079D01*
X4043991Y-8776079D02*
X4034467Y-8795126D01*
X4034467Y-8795126D02*
X4024943Y-8804650D01*
X4024943Y-8804650D02*
X4005896Y-8814174D01*
X4005896Y-8814174D02*
X3967801Y-8814174D01*
X3967801Y-8814174D02*
X3948753Y-8804650D01*
X4129705Y-8795126D02*
X4139229Y-8804650D01*
X4139229Y-8804650D02*
X4129705Y-8814174D01*
X4129705Y-8814174D02*
X4120182Y-8804650D01*
X4120182Y-8804650D02*
X4129705Y-8795126D01*
X4129705Y-8795126D02*
X4129705Y-8814174D01*
X4129705Y-8690365D02*
X4139229Y-8699888D01*
X4139229Y-8699888D02*
X4129705Y-8709412D01*
X4129705Y-8709412D02*
X4120182Y-8699888D01*
X4120182Y-8699888D02*
X4129705Y-8690365D01*
X4129705Y-8690365D02*
X4129705Y-8709412D01*
D12*
X2467500Y-9127690D02*
X2497500Y-9157690D01*
X2497500Y-9127690D02*
X2467500Y-9157690D01*
D11*
X2796372Y-9034174D02*
X2815420Y-9034174D01*
X2815420Y-9034174D02*
X2834467Y-9043698D01*
X2834467Y-9043698D02*
X2843991Y-9053222D01*
X2843991Y-9053222D02*
X2853515Y-9072269D01*
X2853515Y-9072269D02*
X2863039Y-9110365D01*
X2863039Y-9110365D02*
X2863039Y-9157984D01*
X2863039Y-9157984D02*
X2853515Y-9196079D01*
X2853515Y-9196079D02*
X2843991Y-9215126D01*
X2843991Y-9215126D02*
X2834467Y-9224650D01*
X2834467Y-9224650D02*
X2815420Y-9234174D01*
X2815420Y-9234174D02*
X2796372Y-9234174D01*
X2796372Y-9234174D02*
X2777324Y-9224650D01*
X2777324Y-9224650D02*
X2767801Y-9215126D01*
X2767801Y-9215126D02*
X2758277Y-9196079D01*
X2758277Y-9196079D02*
X2748753Y-9157984D01*
X2748753Y-9157984D02*
X2748753Y-9110365D01*
X2748753Y-9110365D02*
X2758277Y-9072269D01*
X2758277Y-9072269D02*
X2767801Y-9053222D01*
X2767801Y-9053222D02*
X2777324Y-9043698D01*
X2777324Y-9043698D02*
X2796372Y-9034174D01*
X2948753Y-9215126D02*
X2958277Y-9224650D01*
X2958277Y-9224650D02*
X2948753Y-9234174D01*
X2948753Y-9234174D02*
X2939229Y-9224650D01*
X2939229Y-9224650D02*
X2948753Y-9215126D01*
X2948753Y-9215126D02*
X2948753Y-9234174D01*
X3024943Y-9034174D02*
X3148753Y-9034174D01*
X3148753Y-9034174D02*
X3082086Y-9110365D01*
X3082086Y-9110365D02*
X3110658Y-9110365D01*
X3110658Y-9110365D02*
X3129705Y-9119888D01*
X3129705Y-9119888D02*
X3139229Y-9129412D01*
X3139229Y-9129412D02*
X3148753Y-9148460D01*
X3148753Y-9148460D02*
X3148753Y-9196079D01*
X3148753Y-9196079D02*
X3139229Y-9215126D01*
X3139229Y-9215126D02*
X3129705Y-9224650D01*
X3129705Y-9224650D02*
X3110658Y-9234174D01*
X3110658Y-9234174D02*
X3053515Y-9234174D01*
X3053515Y-9234174D02*
X3034467Y-9224650D01*
X3034467Y-9224650D02*
X3024943Y-9215126D01*
X3272562Y-9034174D02*
X3291610Y-9034174D01*
X3291610Y-9034174D02*
X3310658Y-9043698D01*
X3310658Y-9043698D02*
X3320182Y-9053222D01*
X3320182Y-9053222D02*
X3329705Y-9072269D01*
X3329705Y-9072269D02*
X3339229Y-9110365D01*
X3339229Y-9110365D02*
X3339229Y-9157984D01*
X3339229Y-9157984D02*
X3329705Y-9196079D01*
X3329705Y-9196079D02*
X3320182Y-9215126D01*
X3320182Y-9215126D02*
X3310658Y-9224650D01*
X3310658Y-9224650D02*
X3291610Y-9234174D01*
X3291610Y-9234174D02*
X3272562Y-9234174D01*
X3272562Y-9234174D02*
X3253515Y-9224650D01*
X3253515Y-9224650D02*
X3243991Y-9215126D01*
X3243991Y-9215126D02*
X3234467Y-9196079D01*
X3234467Y-9196079D02*
X3224943Y-9157984D01*
X3224943Y-9157984D02*
X3224943Y-9110365D01*
X3224943Y-9110365D02*
X3234467Y-9072269D01*
X3234467Y-9072269D02*
X3243991Y-9053222D01*
X3243991Y-9053222D02*
X3253515Y-9043698D01*
X3253515Y-9043698D02*
X3272562Y-9034174D01*
X3463039Y-9034174D02*
X3482086Y-9034174D01*
X3482086Y-9034174D02*
X3501134Y-9043698D01*
X3501134Y-9043698D02*
X3510658Y-9053222D01*
X3510658Y-9053222D02*
X3520182Y-9072269D01*
X3520182Y-9072269D02*
X3529705Y-9110365D01*
X3529705Y-9110365D02*
X3529705Y-9157984D01*
X3529705Y-9157984D02*
X3520182Y-9196079D01*
X3520182Y-9196079D02*
X3510658Y-9215126D01*
X3510658Y-9215126D02*
X3501134Y-9224650D01*
X3501134Y-9224650D02*
X3482086Y-9234174D01*
X3482086Y-9234174D02*
X3463039Y-9234174D01*
X3463039Y-9234174D02*
X3443991Y-9224650D01*
X3443991Y-9224650D02*
X3434467Y-9215126D01*
X3434467Y-9215126D02*
X3424943Y-9196079D01*
X3424943Y-9196079D02*
X3415420Y-9157984D01*
X3415420Y-9157984D02*
X3415420Y-9110365D01*
X3415420Y-9110365D02*
X3424943Y-9072269D01*
X3424943Y-9072269D02*
X3434467Y-9053222D01*
X3434467Y-9053222D02*
X3443991Y-9043698D01*
X3443991Y-9043698D02*
X3463039Y-9034174D01*
X3615420Y-9234174D02*
X3615420Y-9100841D01*
X3615420Y-9119888D02*
X3624943Y-9110365D01*
X3624943Y-9110365D02*
X3643991Y-9100841D01*
X3643991Y-9100841D02*
X3672563Y-9100841D01*
X3672563Y-9100841D02*
X3691610Y-9110365D01*
X3691610Y-9110365D02*
X3701134Y-9129412D01*
X3701134Y-9129412D02*
X3701134Y-9234174D01*
X3701134Y-9129412D02*
X3710658Y-9110365D01*
X3710658Y-9110365D02*
X3729705Y-9100841D01*
X3729705Y-9100841D02*
X3758277Y-9100841D01*
X3758277Y-9100841D02*
X3777324Y-9110365D01*
X3777324Y-9110365D02*
X3786848Y-9129412D01*
X3786848Y-9129412D02*
X3786848Y-9234174D01*
X3882086Y-9234174D02*
X3882086Y-9100841D01*
X3882086Y-9119888D02*
X3891610Y-9110365D01*
X3891610Y-9110365D02*
X3910658Y-9100841D01*
X3910658Y-9100841D02*
X3939229Y-9100841D01*
X3939229Y-9100841D02*
X3958277Y-9110365D01*
X3958277Y-9110365D02*
X3967801Y-9129412D01*
X3967801Y-9129412D02*
X3967801Y-9234174D01*
X3967801Y-9129412D02*
X3977324Y-9110365D01*
X3977324Y-9110365D02*
X3996372Y-9100841D01*
X3996372Y-9100841D02*
X4024943Y-9100841D01*
X4024943Y-9100841D02*
X4043991Y-9110365D01*
X4043991Y-9110365D02*
X4053515Y-9129412D01*
X4053515Y-9129412D02*
X4053515Y-9234174D01*
X4443991Y-9024650D02*
X4272563Y-9281793D01*
X4701134Y-9034174D02*
X4720182Y-9034174D01*
X4720182Y-9034174D02*
X4739229Y-9043698D01*
X4739229Y-9043698D02*
X4748753Y-9053222D01*
X4748753Y-9053222D02*
X4758277Y-9072269D01*
X4758277Y-9072269D02*
X4767801Y-9110365D01*
X4767801Y-9110365D02*
X4767801Y-9157984D01*
X4767801Y-9157984D02*
X4758277Y-9196079D01*
X4758277Y-9196079D02*
X4748753Y-9215126D01*
X4748753Y-9215126D02*
X4739229Y-9224650D01*
X4739229Y-9224650D02*
X4720182Y-9234174D01*
X4720182Y-9234174D02*
X4701134Y-9234174D01*
X4701134Y-9234174D02*
X4682087Y-9224650D01*
X4682087Y-9224650D02*
X4672563Y-9215126D01*
X4672563Y-9215126D02*
X4663039Y-9196079D01*
X4663039Y-9196079D02*
X4653515Y-9157984D01*
X4653515Y-9157984D02*
X4653515Y-9110365D01*
X4653515Y-9110365D02*
X4663039Y-9072269D01*
X4663039Y-9072269D02*
X4672563Y-9053222D01*
X4672563Y-9053222D02*
X4682087Y-9043698D01*
X4682087Y-9043698D02*
X4701134Y-9034174D01*
X4853515Y-9215126D02*
X4863039Y-9224650D01*
X4863039Y-9224650D02*
X4853515Y-9234174D01*
X4853515Y-9234174D02*
X4843991Y-9224650D01*
X4843991Y-9224650D02*
X4853515Y-9215126D01*
X4853515Y-9215126D02*
X4853515Y-9234174D01*
X4986848Y-9034174D02*
X5005896Y-9034174D01*
X5005896Y-9034174D02*
X5024944Y-9043698D01*
X5024944Y-9043698D02*
X5034468Y-9053222D01*
X5034468Y-9053222D02*
X5043991Y-9072269D01*
X5043991Y-9072269D02*
X5053515Y-9110365D01*
X5053515Y-9110365D02*
X5053515Y-9157984D01*
X5053515Y-9157984D02*
X5043991Y-9196079D01*
X5043991Y-9196079D02*
X5034468Y-9215126D01*
X5034468Y-9215126D02*
X5024944Y-9224650D01*
X5024944Y-9224650D02*
X5005896Y-9234174D01*
X5005896Y-9234174D02*
X4986848Y-9234174D01*
X4986848Y-9234174D02*
X4967801Y-9224650D01*
X4967801Y-9224650D02*
X4958277Y-9215126D01*
X4958277Y-9215126D02*
X4948753Y-9196079D01*
X4948753Y-9196079D02*
X4939229Y-9157984D01*
X4939229Y-9157984D02*
X4939229Y-9110365D01*
X4939229Y-9110365D02*
X4948753Y-9072269D01*
X4948753Y-9072269D02*
X4958277Y-9053222D01*
X4958277Y-9053222D02*
X4967801Y-9043698D01*
X4967801Y-9043698D02*
X4986848Y-9034174D01*
X5243991Y-9234174D02*
X5129706Y-9234174D01*
X5186848Y-9234174D02*
X5186848Y-9034174D01*
X5186848Y-9034174D02*
X5167801Y-9062746D01*
X5167801Y-9062746D02*
X5148753Y-9081793D01*
X5148753Y-9081793D02*
X5129706Y-9091317D01*
X5434468Y-9234174D02*
X5320182Y-9234174D01*
X5377325Y-9234174D02*
X5377325Y-9034174D01*
X5377325Y-9034174D02*
X5358277Y-9062746D01*
X5358277Y-9062746D02*
X5339229Y-9081793D01*
X5339229Y-9081793D02*
X5320182Y-9091317D01*
X5548753Y-9119888D02*
X5529706Y-9110365D01*
X5529706Y-9110365D02*
X5520182Y-9100841D01*
X5520182Y-9100841D02*
X5510658Y-9081793D01*
X5510658Y-9081793D02*
X5510658Y-9072269D01*
X5510658Y-9072269D02*
X5520182Y-9053222D01*
X5520182Y-9053222D02*
X5529706Y-9043698D01*
X5529706Y-9043698D02*
X5548753Y-9034174D01*
X5548753Y-9034174D02*
X5586849Y-9034174D01*
X5586849Y-9034174D02*
X5605896Y-9043698D01*
X5605896Y-9043698D02*
X5615420Y-9053222D01*
X5615420Y-9053222D02*
X5624944Y-9072269D01*
X5624944Y-9072269D02*
X5624944Y-9081793D01*
X5624944Y-9081793D02*
X5615420Y-9100841D01*
X5615420Y-9100841D02*
X5605896Y-9110365D01*
X5605896Y-9110365D02*
X5586849Y-9119888D01*
X5586849Y-9119888D02*
X5548753Y-9119888D01*
X5548753Y-9119888D02*
X5529706Y-9129412D01*
X5529706Y-9129412D02*
X5520182Y-9138936D01*
X5520182Y-9138936D02*
X5510658Y-9157984D01*
X5510658Y-9157984D02*
X5510658Y-9196079D01*
X5510658Y-9196079D02*
X5520182Y-9215126D01*
X5520182Y-9215126D02*
X5529706Y-9224650D01*
X5529706Y-9224650D02*
X5548753Y-9234174D01*
X5548753Y-9234174D02*
X5586849Y-9234174D01*
X5586849Y-9234174D02*
X5605896Y-9224650D01*
X5605896Y-9224650D02*
X5615420Y-9215126D01*
X5615420Y-9215126D02*
X5624944Y-9196079D01*
X5624944Y-9196079D02*
X5624944Y-9157984D01*
X5624944Y-9157984D02*
X5615420Y-9138936D01*
X5615420Y-9138936D02*
X5605896Y-9129412D01*
X5605896Y-9129412D02*
X5586849Y-9119888D01*
X5701134Y-9034174D02*
X5701134Y-9072269D01*
X5777325Y-9034174D02*
X5777325Y-9072269D01*
X6072563Y-9310365D02*
X6063039Y-9300841D01*
X6063039Y-9300841D02*
X6043991Y-9272269D01*
X6043991Y-9272269D02*
X6034468Y-9253222D01*
X6034468Y-9253222D02*
X6024944Y-9224650D01*
X6024944Y-9224650D02*
X6015420Y-9177031D01*
X6015420Y-9177031D02*
X6015420Y-9138936D01*
X6015420Y-9138936D02*
X6024944Y-9091317D01*
X6024944Y-9091317D02*
X6034468Y-9062746D01*
X6034468Y-9062746D02*
X6043991Y-9043698D01*
X6043991Y-9043698D02*
X6063039Y-9015126D01*
X6063039Y-9015126D02*
X6072563Y-9005603D01*
X6129706Y-9034174D02*
X6253515Y-9034174D01*
X6253515Y-9034174D02*
X6186848Y-9110365D01*
X6186848Y-9110365D02*
X6215420Y-9110365D01*
X6215420Y-9110365D02*
X6234468Y-9119888D01*
X6234468Y-9119888D02*
X6243991Y-9129412D01*
X6243991Y-9129412D02*
X6253515Y-9148460D01*
X6253515Y-9148460D02*
X6253515Y-9196079D01*
X6253515Y-9196079D02*
X6243991Y-9215126D01*
X6243991Y-9215126D02*
X6234468Y-9224650D01*
X6234468Y-9224650D02*
X6215420Y-9234174D01*
X6215420Y-9234174D02*
X6158277Y-9234174D01*
X6158277Y-9234174D02*
X6139229Y-9224650D01*
X6139229Y-9224650D02*
X6129706Y-9215126D01*
X6367801Y-9119888D02*
X6348753Y-9110365D01*
X6348753Y-9110365D02*
X6339229Y-9100841D01*
X6339229Y-9100841D02*
X6329706Y-9081793D01*
X6329706Y-9081793D02*
X6329706Y-9072269D01*
X6329706Y-9072269D02*
X6339229Y-9053222D01*
X6339229Y-9053222D02*
X6348753Y-9043698D01*
X6348753Y-9043698D02*
X6367801Y-9034174D01*
X6367801Y-9034174D02*
X6405896Y-9034174D01*
X6405896Y-9034174D02*
X6424944Y-9043698D01*
X6424944Y-9043698D02*
X6434468Y-9053222D01*
X6434468Y-9053222D02*
X6443991Y-9072269D01*
X6443991Y-9072269D02*
X6443991Y-9081793D01*
X6443991Y-9081793D02*
X6434468Y-9100841D01*
X6434468Y-9100841D02*
X6424944Y-9110365D01*
X6424944Y-9110365D02*
X6405896Y-9119888D01*
X6405896Y-9119888D02*
X6367801Y-9119888D01*
X6367801Y-9119888D02*
X6348753Y-9129412D01*
X6348753Y-9129412D02*
X6339229Y-9138936D01*
X6339229Y-9138936D02*
X6329706Y-9157984D01*
X6329706Y-9157984D02*
X6329706Y-9196079D01*
X6329706Y-9196079D02*
X6339229Y-9215126D01*
X6339229Y-9215126D02*
X6348753Y-9224650D01*
X6348753Y-9224650D02*
X6367801Y-9234174D01*
X6367801Y-9234174D02*
X6405896Y-9234174D01*
X6405896Y-9234174D02*
X6424944Y-9224650D01*
X6424944Y-9224650D02*
X6434468Y-9215126D01*
X6434468Y-9215126D02*
X6443991Y-9196079D01*
X6443991Y-9196079D02*
X6443991Y-9157984D01*
X6443991Y-9157984D02*
X6434468Y-9138936D01*
X6434468Y-9138936D02*
X6424944Y-9129412D01*
X6424944Y-9129412D02*
X6405896Y-9119888D01*
X6558277Y-9119888D02*
X6539229Y-9110365D01*
X6539229Y-9110365D02*
X6529706Y-9100841D01*
X6529706Y-9100841D02*
X6520182Y-9081793D01*
X6520182Y-9081793D02*
X6520182Y-9072269D01*
X6520182Y-9072269D02*
X6529706Y-9053222D01*
X6529706Y-9053222D02*
X6539229Y-9043698D01*
X6539229Y-9043698D02*
X6558277Y-9034174D01*
X6558277Y-9034174D02*
X6596372Y-9034174D01*
X6596372Y-9034174D02*
X6615420Y-9043698D01*
X6615420Y-9043698D02*
X6624944Y-9053222D01*
X6624944Y-9053222D02*
X6634468Y-9072269D01*
X6634468Y-9072269D02*
X6634468Y-9081793D01*
X6634468Y-9081793D02*
X6624944Y-9100841D01*
X6624944Y-9100841D02*
X6615420Y-9110365D01*
X6615420Y-9110365D02*
X6596372Y-9119888D01*
X6596372Y-9119888D02*
X6558277Y-9119888D01*
X6558277Y-9119888D02*
X6539229Y-9129412D01*
X6539229Y-9129412D02*
X6529706Y-9138936D01*
X6529706Y-9138936D02*
X6520182Y-9157984D01*
X6520182Y-9157984D02*
X6520182Y-9196079D01*
X6520182Y-9196079D02*
X6529706Y-9215126D01*
X6529706Y-9215126D02*
X6539229Y-9224650D01*
X6539229Y-9224650D02*
X6558277Y-9234174D01*
X6558277Y-9234174D02*
X6596372Y-9234174D01*
X6596372Y-9234174D02*
X6615420Y-9224650D01*
X6615420Y-9224650D02*
X6624944Y-9215126D01*
X6624944Y-9215126D02*
X6634468Y-9196079D01*
X6634468Y-9196079D02*
X6634468Y-9157984D01*
X6634468Y-9157984D02*
X6624944Y-9138936D01*
X6624944Y-9138936D02*
X6615420Y-9129412D01*
X6615420Y-9129412D02*
X6596372Y-9119888D01*
X6872563Y-9234174D02*
X6872563Y-9034174D01*
X6958277Y-9234174D02*
X6958277Y-9129412D01*
X6958277Y-9129412D02*
X6948753Y-9110365D01*
X6948753Y-9110365D02*
X6929706Y-9100841D01*
X6929706Y-9100841D02*
X6901134Y-9100841D01*
X6901134Y-9100841D02*
X6882087Y-9110365D01*
X6882087Y-9110365D02*
X6872563Y-9119888D01*
X7082087Y-9234174D02*
X7063039Y-9224650D01*
X7063039Y-9224650D02*
X7053515Y-9215126D01*
X7053515Y-9215126D02*
X7043991Y-9196079D01*
X7043991Y-9196079D02*
X7043991Y-9138936D01*
X7043991Y-9138936D02*
X7053515Y-9119888D01*
X7053515Y-9119888D02*
X7063039Y-9110365D01*
X7063039Y-9110365D02*
X7082087Y-9100841D01*
X7082087Y-9100841D02*
X7110658Y-9100841D01*
X7110658Y-9100841D02*
X7129706Y-9110365D01*
X7129706Y-9110365D02*
X7139230Y-9119888D01*
X7139230Y-9119888D02*
X7148753Y-9138936D01*
X7148753Y-9138936D02*
X7148753Y-9196079D01*
X7148753Y-9196079D02*
X7139230Y-9215126D01*
X7139230Y-9215126D02*
X7129706Y-9224650D01*
X7129706Y-9224650D02*
X7110658Y-9234174D01*
X7110658Y-9234174D02*
X7082087Y-9234174D01*
X7263039Y-9234174D02*
X7243991Y-9224650D01*
X7243991Y-9224650D02*
X7234468Y-9205603D01*
X7234468Y-9205603D02*
X7234468Y-9034174D01*
X7415420Y-9224650D02*
X7396372Y-9234174D01*
X7396372Y-9234174D02*
X7358277Y-9234174D01*
X7358277Y-9234174D02*
X7339230Y-9224650D01*
X7339230Y-9224650D02*
X7329706Y-9205603D01*
X7329706Y-9205603D02*
X7329706Y-9129412D01*
X7329706Y-9129412D02*
X7339230Y-9110365D01*
X7339230Y-9110365D02*
X7358277Y-9100841D01*
X7358277Y-9100841D02*
X7396372Y-9100841D01*
X7396372Y-9100841D02*
X7415420Y-9110365D01*
X7415420Y-9110365D02*
X7424944Y-9129412D01*
X7424944Y-9129412D02*
X7424944Y-9148460D01*
X7424944Y-9148460D02*
X7329706Y-9167507D01*
X7501134Y-9224650D02*
X7520182Y-9234174D01*
X7520182Y-9234174D02*
X7558277Y-9234174D01*
X7558277Y-9234174D02*
X7577325Y-9224650D01*
X7577325Y-9224650D02*
X7586849Y-9205603D01*
X7586849Y-9205603D02*
X7586849Y-9196079D01*
X7586849Y-9196079D02*
X7577325Y-9177031D01*
X7577325Y-9177031D02*
X7558277Y-9167507D01*
X7558277Y-9167507D02*
X7529706Y-9167507D01*
X7529706Y-9167507D02*
X7510658Y-9157984D01*
X7510658Y-9157984D02*
X7501134Y-9138936D01*
X7501134Y-9138936D02*
X7501134Y-9129412D01*
X7501134Y-9129412D02*
X7510658Y-9110365D01*
X7510658Y-9110365D02*
X7529706Y-9100841D01*
X7529706Y-9100841D02*
X7558277Y-9100841D01*
X7558277Y-9100841D02*
X7577325Y-9110365D01*
X7653515Y-9310365D02*
X7663039Y-9300841D01*
X7663039Y-9300841D02*
X7682087Y-9272269D01*
X7682087Y-9272269D02*
X7691611Y-9253222D01*
X7691611Y-9253222D02*
X7701134Y-9224650D01*
X7701134Y-9224650D02*
X7710658Y-9177031D01*
X7710658Y-9177031D02*
X7710658Y-9138936D01*
X7710658Y-9138936D02*
X7701134Y-9091317D01*
X7701134Y-9091317D02*
X7691611Y-9062746D01*
X7691611Y-9062746D02*
X7682087Y-9043698D01*
X7682087Y-9043698D02*
X7663039Y-9015126D01*
X7663039Y-9015126D02*
X7653515Y-9005603D01*
D12*
X2497500Y-9406690D02*
G75*
G02*
X2432500Y-9406690I-32500J0D01*
G01*
X2432500Y-9406690D02*
G75*
G02*
X2497500Y-9406690I32500J0D01*
G01*
D11*
X2796372Y-9298174D02*
X2815420Y-9298174D01*
X2815420Y-9298174D02*
X2834467Y-9307698D01*
X2834467Y-9307698D02*
X2843991Y-9317222D01*
X2843991Y-9317222D02*
X2853515Y-9336269D01*
X2853515Y-9336269D02*
X2863039Y-9374365D01*
X2863039Y-9374365D02*
X2863039Y-9421984D01*
X2863039Y-9421984D02*
X2853515Y-9460079D01*
X2853515Y-9460079D02*
X2843991Y-9479126D01*
X2843991Y-9479126D02*
X2834467Y-9488650D01*
X2834467Y-9488650D02*
X2815420Y-9498174D01*
X2815420Y-9498174D02*
X2796372Y-9498174D01*
X2796372Y-9498174D02*
X2777324Y-9488650D01*
X2777324Y-9488650D02*
X2767801Y-9479126D01*
X2767801Y-9479126D02*
X2758277Y-9460079D01*
X2758277Y-9460079D02*
X2748753Y-9421984D01*
X2748753Y-9421984D02*
X2748753Y-9374365D01*
X2748753Y-9374365D02*
X2758277Y-9336269D01*
X2758277Y-9336269D02*
X2767801Y-9317222D01*
X2767801Y-9317222D02*
X2777324Y-9307698D01*
X2777324Y-9307698D02*
X2796372Y-9298174D01*
X2948753Y-9479126D02*
X2958277Y-9488650D01*
X2958277Y-9488650D02*
X2948753Y-9498174D01*
X2948753Y-9498174D02*
X2939229Y-9488650D01*
X2939229Y-9488650D02*
X2948753Y-9479126D01*
X2948753Y-9479126D02*
X2948753Y-9498174D01*
X3129705Y-9298174D02*
X3091610Y-9298174D01*
X3091610Y-9298174D02*
X3072562Y-9307698D01*
X3072562Y-9307698D02*
X3063039Y-9317222D01*
X3063039Y-9317222D02*
X3043991Y-9345793D01*
X3043991Y-9345793D02*
X3034467Y-9383888D01*
X3034467Y-9383888D02*
X3034467Y-9460079D01*
X3034467Y-9460079D02*
X3043991Y-9479126D01*
X3043991Y-9479126D02*
X3053515Y-9488650D01*
X3053515Y-9488650D02*
X3072562Y-9498174D01*
X3072562Y-9498174D02*
X3110658Y-9498174D01*
X3110658Y-9498174D02*
X3129705Y-9488650D01*
X3129705Y-9488650D02*
X3139229Y-9479126D01*
X3139229Y-9479126D02*
X3148753Y-9460079D01*
X3148753Y-9460079D02*
X3148753Y-9412460D01*
X3148753Y-9412460D02*
X3139229Y-9393412D01*
X3139229Y-9393412D02*
X3129705Y-9383888D01*
X3129705Y-9383888D02*
X3110658Y-9374365D01*
X3110658Y-9374365D02*
X3072562Y-9374365D01*
X3072562Y-9374365D02*
X3053515Y-9383888D01*
X3053515Y-9383888D02*
X3043991Y-9393412D01*
X3043991Y-9393412D02*
X3034467Y-9412460D01*
X3329705Y-9298174D02*
X3234467Y-9298174D01*
X3234467Y-9298174D02*
X3224943Y-9393412D01*
X3224943Y-9393412D02*
X3234467Y-9383888D01*
X3234467Y-9383888D02*
X3253515Y-9374365D01*
X3253515Y-9374365D02*
X3301134Y-9374365D01*
X3301134Y-9374365D02*
X3320182Y-9383888D01*
X3320182Y-9383888D02*
X3329705Y-9393412D01*
X3329705Y-9393412D02*
X3339229Y-9412460D01*
X3339229Y-9412460D02*
X3339229Y-9460079D01*
X3339229Y-9460079D02*
X3329705Y-9479126D01*
X3329705Y-9479126D02*
X3320182Y-9488650D01*
X3320182Y-9488650D02*
X3301134Y-9498174D01*
X3301134Y-9498174D02*
X3253515Y-9498174D01*
X3253515Y-9498174D02*
X3234467Y-9488650D01*
X3234467Y-9488650D02*
X3224943Y-9479126D01*
X3463039Y-9298174D02*
X3482086Y-9298174D01*
X3482086Y-9298174D02*
X3501134Y-9307698D01*
X3501134Y-9307698D02*
X3510658Y-9317222D01*
X3510658Y-9317222D02*
X3520182Y-9336269D01*
X3520182Y-9336269D02*
X3529705Y-9374365D01*
X3529705Y-9374365D02*
X3529705Y-9421984D01*
X3529705Y-9421984D02*
X3520182Y-9460079D01*
X3520182Y-9460079D02*
X3510658Y-9479126D01*
X3510658Y-9479126D02*
X3501134Y-9488650D01*
X3501134Y-9488650D02*
X3482086Y-9498174D01*
X3482086Y-9498174D02*
X3463039Y-9498174D01*
X3463039Y-9498174D02*
X3443991Y-9488650D01*
X3443991Y-9488650D02*
X3434467Y-9479126D01*
X3434467Y-9479126D02*
X3424943Y-9460079D01*
X3424943Y-9460079D02*
X3415420Y-9421984D01*
X3415420Y-9421984D02*
X3415420Y-9374365D01*
X3415420Y-9374365D02*
X3424943Y-9336269D01*
X3424943Y-9336269D02*
X3434467Y-9317222D01*
X3434467Y-9317222D02*
X3443991Y-9307698D01*
X3443991Y-9307698D02*
X3463039Y-9298174D01*
X3615420Y-9498174D02*
X3615420Y-9364841D01*
X3615420Y-9383888D02*
X3624943Y-9374365D01*
X3624943Y-9374365D02*
X3643991Y-9364841D01*
X3643991Y-9364841D02*
X3672563Y-9364841D01*
X3672563Y-9364841D02*
X3691610Y-9374365D01*
X3691610Y-9374365D02*
X3701134Y-9393412D01*
X3701134Y-9393412D02*
X3701134Y-9498174D01*
X3701134Y-9393412D02*
X3710658Y-9374365D01*
X3710658Y-9374365D02*
X3729705Y-9364841D01*
X3729705Y-9364841D02*
X3758277Y-9364841D01*
X3758277Y-9364841D02*
X3777324Y-9374365D01*
X3777324Y-9374365D02*
X3786848Y-9393412D01*
X3786848Y-9393412D02*
X3786848Y-9498174D01*
X3882086Y-9498174D02*
X3882086Y-9364841D01*
X3882086Y-9383888D02*
X3891610Y-9374365D01*
X3891610Y-9374365D02*
X3910658Y-9364841D01*
X3910658Y-9364841D02*
X3939229Y-9364841D01*
X3939229Y-9364841D02*
X3958277Y-9374365D01*
X3958277Y-9374365D02*
X3967801Y-9393412D01*
X3967801Y-9393412D02*
X3967801Y-9498174D01*
X3967801Y-9393412D02*
X3977324Y-9374365D01*
X3977324Y-9374365D02*
X3996372Y-9364841D01*
X3996372Y-9364841D02*
X4024943Y-9364841D01*
X4024943Y-9364841D02*
X4043991Y-9374365D01*
X4043991Y-9374365D02*
X4053515Y-9393412D01*
X4053515Y-9393412D02*
X4053515Y-9498174D01*
X4443991Y-9288650D02*
X4272563Y-9545793D01*
X4701134Y-9298174D02*
X4720182Y-9298174D01*
X4720182Y-9298174D02*
X4739229Y-9307698D01*
X4739229Y-9307698D02*
X4748753Y-9317222D01*
X4748753Y-9317222D02*
X4758277Y-9336269D01*
X4758277Y-9336269D02*
X4767801Y-9374365D01*
X4767801Y-9374365D02*
X4767801Y-9421984D01*
X4767801Y-9421984D02*
X4758277Y-9460079D01*
X4758277Y-9460079D02*
X4748753Y-9479126D01*
X4748753Y-9479126D02*
X4739229Y-9488650D01*
X4739229Y-9488650D02*
X4720182Y-9498174D01*
X4720182Y-9498174D02*
X4701134Y-9498174D01*
X4701134Y-9498174D02*
X4682087Y-9488650D01*
X4682087Y-9488650D02*
X4672563Y-9479126D01*
X4672563Y-9479126D02*
X4663039Y-9460079D01*
X4663039Y-9460079D02*
X4653515Y-9421984D01*
X4653515Y-9421984D02*
X4653515Y-9374365D01*
X4653515Y-9374365D02*
X4663039Y-9336269D01*
X4663039Y-9336269D02*
X4672563Y-9317222D01*
X4672563Y-9317222D02*
X4682087Y-9307698D01*
X4682087Y-9307698D02*
X4701134Y-9298174D01*
X4853515Y-9479126D02*
X4863039Y-9488650D01*
X4863039Y-9488650D02*
X4853515Y-9498174D01*
X4853515Y-9498174D02*
X4843991Y-9488650D01*
X4843991Y-9488650D02*
X4853515Y-9479126D01*
X4853515Y-9479126D02*
X4853515Y-9498174D01*
X4986848Y-9298174D02*
X5005896Y-9298174D01*
X5005896Y-9298174D02*
X5024944Y-9307698D01*
X5024944Y-9307698D02*
X5034468Y-9317222D01*
X5034468Y-9317222D02*
X5043991Y-9336269D01*
X5043991Y-9336269D02*
X5053515Y-9374365D01*
X5053515Y-9374365D02*
X5053515Y-9421984D01*
X5053515Y-9421984D02*
X5043991Y-9460079D01*
X5043991Y-9460079D02*
X5034468Y-9479126D01*
X5034468Y-9479126D02*
X5024944Y-9488650D01*
X5024944Y-9488650D02*
X5005896Y-9498174D01*
X5005896Y-9498174D02*
X4986848Y-9498174D01*
X4986848Y-9498174D02*
X4967801Y-9488650D01*
X4967801Y-9488650D02*
X4958277Y-9479126D01*
X4958277Y-9479126D02*
X4948753Y-9460079D01*
X4948753Y-9460079D02*
X4939229Y-9421984D01*
X4939229Y-9421984D02*
X4939229Y-9374365D01*
X4939229Y-9374365D02*
X4948753Y-9336269D01*
X4948753Y-9336269D02*
X4958277Y-9317222D01*
X4958277Y-9317222D02*
X4967801Y-9307698D01*
X4967801Y-9307698D02*
X4986848Y-9298174D01*
X5129706Y-9317222D02*
X5139229Y-9307698D01*
X5139229Y-9307698D02*
X5158277Y-9298174D01*
X5158277Y-9298174D02*
X5205896Y-9298174D01*
X5205896Y-9298174D02*
X5224944Y-9307698D01*
X5224944Y-9307698D02*
X5234468Y-9317222D01*
X5234468Y-9317222D02*
X5243991Y-9336269D01*
X5243991Y-9336269D02*
X5243991Y-9355317D01*
X5243991Y-9355317D02*
X5234468Y-9383888D01*
X5234468Y-9383888D02*
X5120182Y-9498174D01*
X5120182Y-9498174D02*
X5243991Y-9498174D01*
X5424944Y-9298174D02*
X5329706Y-9298174D01*
X5329706Y-9298174D02*
X5320182Y-9393412D01*
X5320182Y-9393412D02*
X5329706Y-9383888D01*
X5329706Y-9383888D02*
X5348753Y-9374365D01*
X5348753Y-9374365D02*
X5396372Y-9374365D01*
X5396372Y-9374365D02*
X5415420Y-9383888D01*
X5415420Y-9383888D02*
X5424944Y-9393412D01*
X5424944Y-9393412D02*
X5434468Y-9412460D01*
X5434468Y-9412460D02*
X5434468Y-9460079D01*
X5434468Y-9460079D02*
X5424944Y-9479126D01*
X5424944Y-9479126D02*
X5415420Y-9488650D01*
X5415420Y-9488650D02*
X5396372Y-9498174D01*
X5396372Y-9498174D02*
X5348753Y-9498174D01*
X5348753Y-9498174D02*
X5329706Y-9488650D01*
X5329706Y-9488650D02*
X5320182Y-9479126D01*
X5605896Y-9298174D02*
X5567801Y-9298174D01*
X5567801Y-9298174D02*
X5548753Y-9307698D01*
X5548753Y-9307698D02*
X5539229Y-9317222D01*
X5539229Y-9317222D02*
X5520182Y-9345793D01*
X5520182Y-9345793D02*
X5510658Y-9383888D01*
X5510658Y-9383888D02*
X5510658Y-9460079D01*
X5510658Y-9460079D02*
X5520182Y-9479126D01*
X5520182Y-9479126D02*
X5529706Y-9488650D01*
X5529706Y-9488650D02*
X5548753Y-9498174D01*
X5548753Y-9498174D02*
X5586849Y-9498174D01*
X5586849Y-9498174D02*
X5605896Y-9488650D01*
X5605896Y-9488650D02*
X5615420Y-9479126D01*
X5615420Y-9479126D02*
X5624944Y-9460079D01*
X5624944Y-9460079D02*
X5624944Y-9412460D01*
X5624944Y-9412460D02*
X5615420Y-9393412D01*
X5615420Y-9393412D02*
X5605896Y-9383888D01*
X5605896Y-9383888D02*
X5586849Y-9374365D01*
X5586849Y-9374365D02*
X5548753Y-9374365D01*
X5548753Y-9374365D02*
X5529706Y-9383888D01*
X5529706Y-9383888D02*
X5520182Y-9393412D01*
X5520182Y-9393412D02*
X5510658Y-9412460D01*
X5701134Y-9298174D02*
X5701134Y-9336269D01*
X5777325Y-9298174D02*
X5777325Y-9336269D01*
X6072563Y-9574365D02*
X6063039Y-9564841D01*
X6063039Y-9564841D02*
X6043991Y-9536269D01*
X6043991Y-9536269D02*
X6034468Y-9517222D01*
X6034468Y-9517222D02*
X6024944Y-9488650D01*
X6024944Y-9488650D02*
X6015420Y-9441031D01*
X6015420Y-9441031D02*
X6015420Y-9402936D01*
X6015420Y-9402936D02*
X6024944Y-9355317D01*
X6024944Y-9355317D02*
X6034468Y-9326746D01*
X6034468Y-9326746D02*
X6043991Y-9307698D01*
X6043991Y-9307698D02*
X6063039Y-9279126D01*
X6063039Y-9279126D02*
X6072563Y-9269603D01*
X6186848Y-9298174D02*
X6205896Y-9298174D01*
X6205896Y-9298174D02*
X6224944Y-9307698D01*
X6224944Y-9307698D02*
X6234468Y-9317222D01*
X6234468Y-9317222D02*
X6243991Y-9336269D01*
X6243991Y-9336269D02*
X6253515Y-9374365D01*
X6253515Y-9374365D02*
X6253515Y-9421984D01*
X6253515Y-9421984D02*
X6243991Y-9460079D01*
X6243991Y-9460079D02*
X6234468Y-9479126D01*
X6234468Y-9479126D02*
X6224944Y-9488650D01*
X6224944Y-9488650D02*
X6205896Y-9498174D01*
X6205896Y-9498174D02*
X6186848Y-9498174D01*
X6186848Y-9498174D02*
X6167801Y-9488650D01*
X6167801Y-9488650D02*
X6158277Y-9479126D01*
X6158277Y-9479126D02*
X6148753Y-9460079D01*
X6148753Y-9460079D02*
X6139229Y-9421984D01*
X6139229Y-9421984D02*
X6139229Y-9374365D01*
X6139229Y-9374365D02*
X6148753Y-9336269D01*
X6148753Y-9336269D02*
X6158277Y-9317222D01*
X6158277Y-9317222D02*
X6167801Y-9307698D01*
X6167801Y-9307698D02*
X6186848Y-9298174D01*
X6491610Y-9498174D02*
X6491610Y-9298174D01*
X6577325Y-9498174D02*
X6577325Y-9393412D01*
X6577325Y-9393412D02*
X6567801Y-9374365D01*
X6567801Y-9374365D02*
X6548753Y-9364841D01*
X6548753Y-9364841D02*
X6520182Y-9364841D01*
X6520182Y-9364841D02*
X6501134Y-9374365D01*
X6501134Y-9374365D02*
X6491610Y-9383888D01*
X6701134Y-9498174D02*
X6682087Y-9488650D01*
X6682087Y-9488650D02*
X6672563Y-9479126D01*
X6672563Y-9479126D02*
X6663039Y-9460079D01*
X6663039Y-9460079D02*
X6663039Y-9402936D01*
X6663039Y-9402936D02*
X6672563Y-9383888D01*
X6672563Y-9383888D02*
X6682087Y-9374365D01*
X6682087Y-9374365D02*
X6701134Y-9364841D01*
X6701134Y-9364841D02*
X6729706Y-9364841D01*
X6729706Y-9364841D02*
X6748753Y-9374365D01*
X6748753Y-9374365D02*
X6758277Y-9383888D01*
X6758277Y-9383888D02*
X6767801Y-9402936D01*
X6767801Y-9402936D02*
X6767801Y-9460079D01*
X6767801Y-9460079D02*
X6758277Y-9479126D01*
X6758277Y-9479126D02*
X6748753Y-9488650D01*
X6748753Y-9488650D02*
X6729706Y-9498174D01*
X6729706Y-9498174D02*
X6701134Y-9498174D01*
X6882087Y-9498174D02*
X6863039Y-9488650D01*
X6863039Y-9488650D02*
X6853515Y-9469603D01*
X6853515Y-9469603D02*
X6853515Y-9298174D01*
X7034468Y-9488650D02*
X7015420Y-9498174D01*
X7015420Y-9498174D02*
X6977325Y-9498174D01*
X6977325Y-9498174D02*
X6958277Y-9488650D01*
X6958277Y-9488650D02*
X6948753Y-9469603D01*
X6948753Y-9469603D02*
X6948753Y-9393412D01*
X6948753Y-9393412D02*
X6958277Y-9374365D01*
X6958277Y-9374365D02*
X6977325Y-9364841D01*
X6977325Y-9364841D02*
X7015420Y-9364841D01*
X7015420Y-9364841D02*
X7034468Y-9374365D01*
X7034468Y-9374365D02*
X7043991Y-9393412D01*
X7043991Y-9393412D02*
X7043991Y-9412460D01*
X7043991Y-9412460D02*
X6948753Y-9431507D01*
X7120182Y-9488650D02*
X7139230Y-9498174D01*
X7139230Y-9498174D02*
X7177325Y-9498174D01*
X7177325Y-9498174D02*
X7196372Y-9488650D01*
X7196372Y-9488650D02*
X7205896Y-9469603D01*
X7205896Y-9469603D02*
X7205896Y-9460079D01*
X7205896Y-9460079D02*
X7196372Y-9441031D01*
X7196372Y-9441031D02*
X7177325Y-9431507D01*
X7177325Y-9431507D02*
X7148753Y-9431507D01*
X7148753Y-9431507D02*
X7129706Y-9421984D01*
X7129706Y-9421984D02*
X7120182Y-9402936D01*
X7120182Y-9402936D02*
X7120182Y-9393412D01*
X7120182Y-9393412D02*
X7129706Y-9374365D01*
X7129706Y-9374365D02*
X7148753Y-9364841D01*
X7148753Y-9364841D02*
X7177325Y-9364841D01*
X7177325Y-9364841D02*
X7196372Y-9374365D01*
X7443992Y-9421984D02*
X7596373Y-9421984D01*
X7520182Y-9498174D02*
X7520182Y-9345793D01*
X7929706Y-9364841D02*
X7929706Y-9498174D01*
X7882087Y-9288650D02*
X7834468Y-9431507D01*
X7834468Y-9431507D02*
X7958277Y-9431507D01*
X8177325Y-9488650D02*
X8196373Y-9498174D01*
X8196373Y-9498174D02*
X8234468Y-9498174D01*
X8234468Y-9498174D02*
X8253515Y-9488650D01*
X8253515Y-9488650D02*
X8263039Y-9469603D01*
X8263039Y-9469603D02*
X8263039Y-9460079D01*
X8263039Y-9460079D02*
X8253515Y-9441031D01*
X8253515Y-9441031D02*
X8234468Y-9431507D01*
X8234468Y-9431507D02*
X8205896Y-9431507D01*
X8205896Y-9431507D02*
X8186849Y-9421984D01*
X8186849Y-9421984D02*
X8177325Y-9402936D01*
X8177325Y-9402936D02*
X8177325Y-9393412D01*
X8177325Y-9393412D02*
X8186849Y-9374365D01*
X8186849Y-9374365D02*
X8205896Y-9364841D01*
X8205896Y-9364841D02*
X8234468Y-9364841D01*
X8234468Y-9364841D02*
X8253515Y-9374365D01*
X8377325Y-9498174D02*
X8358277Y-9488650D01*
X8358277Y-9488650D02*
X8348754Y-9469603D01*
X8348754Y-9469603D02*
X8348754Y-9298174D01*
X8482087Y-9498174D02*
X8463039Y-9488650D01*
X8463039Y-9488650D02*
X8453516Y-9479126D01*
X8453516Y-9479126D02*
X8443992Y-9460079D01*
X8443992Y-9460079D02*
X8443992Y-9402936D01*
X8443992Y-9402936D02*
X8453516Y-9383888D01*
X8453516Y-9383888D02*
X8463039Y-9374365D01*
X8463039Y-9374365D02*
X8482087Y-9364841D01*
X8482087Y-9364841D02*
X8510658Y-9364841D01*
X8510658Y-9364841D02*
X8529706Y-9374365D01*
X8529706Y-9374365D02*
X8539230Y-9383888D01*
X8539230Y-9383888D02*
X8548754Y-9402936D01*
X8548754Y-9402936D02*
X8548754Y-9460079D01*
X8548754Y-9460079D02*
X8539230Y-9479126D01*
X8539230Y-9479126D02*
X8529706Y-9488650D01*
X8529706Y-9488650D02*
X8510658Y-9498174D01*
X8510658Y-9498174D02*
X8482087Y-9498174D01*
X8605897Y-9364841D02*
X8682087Y-9364841D01*
X8634468Y-9298174D02*
X8634468Y-9469603D01*
X8634468Y-9469603D02*
X8643992Y-9488650D01*
X8643992Y-9488650D02*
X8663039Y-9498174D01*
X8663039Y-9498174D02*
X8682087Y-9498174D01*
X8739230Y-9488650D02*
X8758277Y-9498174D01*
X8758277Y-9498174D02*
X8796373Y-9498174D01*
X8796373Y-9498174D02*
X8815420Y-9488650D01*
X8815420Y-9488650D02*
X8824944Y-9469603D01*
X8824944Y-9469603D02*
X8824944Y-9460079D01*
X8824944Y-9460079D02*
X8815420Y-9441031D01*
X8815420Y-9441031D02*
X8796373Y-9431507D01*
X8796373Y-9431507D02*
X8767801Y-9431507D01*
X8767801Y-9431507D02*
X8748754Y-9421984D01*
X8748754Y-9421984D02*
X8739230Y-9402936D01*
X8739230Y-9402936D02*
X8739230Y-9393412D01*
X8739230Y-9393412D02*
X8748754Y-9374365D01*
X8748754Y-9374365D02*
X8767801Y-9364841D01*
X8767801Y-9364841D02*
X8796373Y-9364841D01*
X8796373Y-9364841D02*
X8815420Y-9374365D01*
X8891611Y-9574365D02*
X8901135Y-9564841D01*
X8901135Y-9564841D02*
X8920182Y-9536269D01*
X8920182Y-9536269D02*
X8929706Y-9517222D01*
X8929706Y-9517222D02*
X8939230Y-9488650D01*
X8939230Y-9488650D02*
X8948754Y-9441031D01*
X8948754Y-9441031D02*
X8948754Y-9402936D01*
X8948754Y-9402936D02*
X8939230Y-9355317D01*
X8939230Y-9355317D02*
X8929706Y-9326746D01*
X8929706Y-9326746D02*
X8920182Y-9307698D01*
X8920182Y-9307698D02*
X8901135Y-9279126D01*
X8901135Y-9279126D02*
X8891611Y-9269603D01*
D12*
X2453050Y-9626240D02*
X2453050Y-9715140D01*
X2408600Y-9670690D02*
X2497500Y-9670690D01*
D11*
X2796372Y-9562174D02*
X2815420Y-9562174D01*
X2815420Y-9562174D02*
X2834467Y-9571698D01*
X2834467Y-9571698D02*
X2843991Y-9581222D01*
X2843991Y-9581222D02*
X2853515Y-9600269D01*
X2853515Y-9600269D02*
X2863039Y-9638365D01*
X2863039Y-9638365D02*
X2863039Y-9685984D01*
X2863039Y-9685984D02*
X2853515Y-9724079D01*
X2853515Y-9724079D02*
X2843991Y-9743126D01*
X2843991Y-9743126D02*
X2834467Y-9752650D01*
X2834467Y-9752650D02*
X2815420Y-9762174D01*
X2815420Y-9762174D02*
X2796372Y-9762174D01*
X2796372Y-9762174D02*
X2777324Y-9752650D01*
X2777324Y-9752650D02*
X2767801Y-9743126D01*
X2767801Y-9743126D02*
X2758277Y-9724079D01*
X2758277Y-9724079D02*
X2748753Y-9685984D01*
X2748753Y-9685984D02*
X2748753Y-9638365D01*
X2748753Y-9638365D02*
X2758277Y-9600269D01*
X2758277Y-9600269D02*
X2767801Y-9581222D01*
X2767801Y-9581222D02*
X2777324Y-9571698D01*
X2777324Y-9571698D02*
X2796372Y-9562174D01*
X2948753Y-9743126D02*
X2958277Y-9752650D01*
X2958277Y-9752650D02*
X2948753Y-9762174D01*
X2948753Y-9762174D02*
X2939229Y-9752650D01*
X2939229Y-9752650D02*
X2948753Y-9743126D01*
X2948753Y-9743126D02*
X2948753Y-9762174D01*
X3072562Y-9647888D02*
X3053515Y-9638365D01*
X3053515Y-9638365D02*
X3043991Y-9628841D01*
X3043991Y-9628841D02*
X3034467Y-9609793D01*
X3034467Y-9609793D02*
X3034467Y-9600269D01*
X3034467Y-9600269D02*
X3043991Y-9581222D01*
X3043991Y-9581222D02*
X3053515Y-9571698D01*
X3053515Y-9571698D02*
X3072562Y-9562174D01*
X3072562Y-9562174D02*
X3110658Y-9562174D01*
X3110658Y-9562174D02*
X3129705Y-9571698D01*
X3129705Y-9571698D02*
X3139229Y-9581222D01*
X3139229Y-9581222D02*
X3148753Y-9600269D01*
X3148753Y-9600269D02*
X3148753Y-9609793D01*
X3148753Y-9609793D02*
X3139229Y-9628841D01*
X3139229Y-9628841D02*
X3129705Y-9638365D01*
X3129705Y-9638365D02*
X3110658Y-9647888D01*
X3110658Y-9647888D02*
X3072562Y-9647888D01*
X3072562Y-9647888D02*
X3053515Y-9657412D01*
X3053515Y-9657412D02*
X3043991Y-9666936D01*
X3043991Y-9666936D02*
X3034467Y-9685984D01*
X3034467Y-9685984D02*
X3034467Y-9724079D01*
X3034467Y-9724079D02*
X3043991Y-9743126D01*
X3043991Y-9743126D02*
X3053515Y-9752650D01*
X3053515Y-9752650D02*
X3072562Y-9762174D01*
X3072562Y-9762174D02*
X3110658Y-9762174D01*
X3110658Y-9762174D02*
X3129705Y-9752650D01*
X3129705Y-9752650D02*
X3139229Y-9743126D01*
X3139229Y-9743126D02*
X3148753Y-9724079D01*
X3148753Y-9724079D02*
X3148753Y-9685984D01*
X3148753Y-9685984D02*
X3139229Y-9666936D01*
X3139229Y-9666936D02*
X3129705Y-9657412D01*
X3129705Y-9657412D02*
X3110658Y-9647888D01*
X3263039Y-9647888D02*
X3243991Y-9638365D01*
X3243991Y-9638365D02*
X3234467Y-9628841D01*
X3234467Y-9628841D02*
X3224943Y-9609793D01*
X3224943Y-9609793D02*
X3224943Y-9600269D01*
X3224943Y-9600269D02*
X3234467Y-9581222D01*
X3234467Y-9581222D02*
X3243991Y-9571698D01*
X3243991Y-9571698D02*
X3263039Y-9562174D01*
X3263039Y-9562174D02*
X3301134Y-9562174D01*
X3301134Y-9562174D02*
X3320182Y-9571698D01*
X3320182Y-9571698D02*
X3329705Y-9581222D01*
X3329705Y-9581222D02*
X3339229Y-9600269D01*
X3339229Y-9600269D02*
X3339229Y-9609793D01*
X3339229Y-9609793D02*
X3329705Y-9628841D01*
X3329705Y-9628841D02*
X3320182Y-9638365D01*
X3320182Y-9638365D02*
X3301134Y-9647888D01*
X3301134Y-9647888D02*
X3263039Y-9647888D01*
X3263039Y-9647888D02*
X3243991Y-9657412D01*
X3243991Y-9657412D02*
X3234467Y-9666936D01*
X3234467Y-9666936D02*
X3224943Y-9685984D01*
X3224943Y-9685984D02*
X3224943Y-9724079D01*
X3224943Y-9724079D02*
X3234467Y-9743126D01*
X3234467Y-9743126D02*
X3243991Y-9752650D01*
X3243991Y-9752650D02*
X3263039Y-9762174D01*
X3263039Y-9762174D02*
X3301134Y-9762174D01*
X3301134Y-9762174D02*
X3320182Y-9752650D01*
X3320182Y-9752650D02*
X3329705Y-9743126D01*
X3329705Y-9743126D02*
X3339229Y-9724079D01*
X3339229Y-9724079D02*
X3339229Y-9685984D01*
X3339229Y-9685984D02*
X3329705Y-9666936D01*
X3329705Y-9666936D02*
X3320182Y-9657412D01*
X3320182Y-9657412D02*
X3301134Y-9647888D01*
X3434467Y-9762174D02*
X3472562Y-9762174D01*
X3472562Y-9762174D02*
X3491610Y-9752650D01*
X3491610Y-9752650D02*
X3501134Y-9743126D01*
X3501134Y-9743126D02*
X3520182Y-9714555D01*
X3520182Y-9714555D02*
X3529705Y-9676460D01*
X3529705Y-9676460D02*
X3529705Y-9600269D01*
X3529705Y-9600269D02*
X3520182Y-9581222D01*
X3520182Y-9581222D02*
X3510658Y-9571698D01*
X3510658Y-9571698D02*
X3491610Y-9562174D01*
X3491610Y-9562174D02*
X3453515Y-9562174D01*
X3453515Y-9562174D02*
X3434467Y-9571698D01*
X3434467Y-9571698D02*
X3424943Y-9581222D01*
X3424943Y-9581222D02*
X3415420Y-9600269D01*
X3415420Y-9600269D02*
X3415420Y-9647888D01*
X3415420Y-9647888D02*
X3424943Y-9666936D01*
X3424943Y-9666936D02*
X3434467Y-9676460D01*
X3434467Y-9676460D02*
X3453515Y-9685984D01*
X3453515Y-9685984D02*
X3491610Y-9685984D01*
X3491610Y-9685984D02*
X3510658Y-9676460D01*
X3510658Y-9676460D02*
X3520182Y-9666936D01*
X3520182Y-9666936D02*
X3529705Y-9647888D01*
X3615420Y-9762174D02*
X3615420Y-9628841D01*
X3615420Y-9647888D02*
X3624943Y-9638365D01*
X3624943Y-9638365D02*
X3643991Y-9628841D01*
X3643991Y-9628841D02*
X3672563Y-9628841D01*
X3672563Y-9628841D02*
X3691610Y-9638365D01*
X3691610Y-9638365D02*
X3701134Y-9657412D01*
X3701134Y-9657412D02*
X3701134Y-9762174D01*
X3701134Y-9657412D02*
X3710658Y-9638365D01*
X3710658Y-9638365D02*
X3729705Y-9628841D01*
X3729705Y-9628841D02*
X3758277Y-9628841D01*
X3758277Y-9628841D02*
X3777324Y-9638365D01*
X3777324Y-9638365D02*
X3786848Y-9657412D01*
X3786848Y-9657412D02*
X3786848Y-9762174D01*
X3882086Y-9762174D02*
X3882086Y-9628841D01*
X3882086Y-9647888D02*
X3891610Y-9638365D01*
X3891610Y-9638365D02*
X3910658Y-9628841D01*
X3910658Y-9628841D02*
X3939229Y-9628841D01*
X3939229Y-9628841D02*
X3958277Y-9638365D01*
X3958277Y-9638365D02*
X3967801Y-9657412D01*
X3967801Y-9657412D02*
X3967801Y-9762174D01*
X3967801Y-9657412D02*
X3977324Y-9638365D01*
X3977324Y-9638365D02*
X3996372Y-9628841D01*
X3996372Y-9628841D02*
X4024943Y-9628841D01*
X4024943Y-9628841D02*
X4043991Y-9638365D01*
X4043991Y-9638365D02*
X4053515Y-9657412D01*
X4053515Y-9657412D02*
X4053515Y-9762174D01*
X4443991Y-9552650D02*
X4272563Y-9809793D01*
X4701134Y-9562174D02*
X4720182Y-9562174D01*
X4720182Y-9562174D02*
X4739229Y-9571698D01*
X4739229Y-9571698D02*
X4748753Y-9581222D01*
X4748753Y-9581222D02*
X4758277Y-9600269D01*
X4758277Y-9600269D02*
X4767801Y-9638365D01*
X4767801Y-9638365D02*
X4767801Y-9685984D01*
X4767801Y-9685984D02*
X4758277Y-9724079D01*
X4758277Y-9724079D02*
X4748753Y-9743126D01*
X4748753Y-9743126D02*
X4739229Y-9752650D01*
X4739229Y-9752650D02*
X4720182Y-9762174D01*
X4720182Y-9762174D02*
X4701134Y-9762174D01*
X4701134Y-9762174D02*
X4682087Y-9752650D01*
X4682087Y-9752650D02*
X4672563Y-9743126D01*
X4672563Y-9743126D02*
X4663039Y-9724079D01*
X4663039Y-9724079D02*
X4653515Y-9685984D01*
X4653515Y-9685984D02*
X4653515Y-9638365D01*
X4653515Y-9638365D02*
X4663039Y-9600269D01*
X4663039Y-9600269D02*
X4672563Y-9581222D01*
X4672563Y-9581222D02*
X4682087Y-9571698D01*
X4682087Y-9571698D02*
X4701134Y-9562174D01*
X4853515Y-9743126D02*
X4863039Y-9752650D01*
X4863039Y-9752650D02*
X4853515Y-9762174D01*
X4853515Y-9762174D02*
X4843991Y-9752650D01*
X4843991Y-9752650D02*
X4853515Y-9743126D01*
X4853515Y-9743126D02*
X4853515Y-9762174D01*
X4986848Y-9562174D02*
X5005896Y-9562174D01*
X5005896Y-9562174D02*
X5024944Y-9571698D01*
X5024944Y-9571698D02*
X5034468Y-9581222D01*
X5034468Y-9581222D02*
X5043991Y-9600269D01*
X5043991Y-9600269D02*
X5053515Y-9638365D01*
X5053515Y-9638365D02*
X5053515Y-9685984D01*
X5053515Y-9685984D02*
X5043991Y-9724079D01*
X5043991Y-9724079D02*
X5034468Y-9743126D01*
X5034468Y-9743126D02*
X5024944Y-9752650D01*
X5024944Y-9752650D02*
X5005896Y-9762174D01*
X5005896Y-9762174D02*
X4986848Y-9762174D01*
X4986848Y-9762174D02*
X4967801Y-9752650D01*
X4967801Y-9752650D02*
X4958277Y-9743126D01*
X4958277Y-9743126D02*
X4948753Y-9724079D01*
X4948753Y-9724079D02*
X4939229Y-9685984D01*
X4939229Y-9685984D02*
X4939229Y-9638365D01*
X4939229Y-9638365D02*
X4948753Y-9600269D01*
X4948753Y-9600269D02*
X4958277Y-9581222D01*
X4958277Y-9581222D02*
X4967801Y-9571698D01*
X4967801Y-9571698D02*
X4986848Y-9562174D01*
X5120182Y-9562174D02*
X5243991Y-9562174D01*
X5243991Y-9562174D02*
X5177325Y-9638365D01*
X5177325Y-9638365D02*
X5205896Y-9638365D01*
X5205896Y-9638365D02*
X5224944Y-9647888D01*
X5224944Y-9647888D02*
X5234468Y-9657412D01*
X5234468Y-9657412D02*
X5243991Y-9676460D01*
X5243991Y-9676460D02*
X5243991Y-9724079D01*
X5243991Y-9724079D02*
X5234468Y-9743126D01*
X5234468Y-9743126D02*
X5224944Y-9752650D01*
X5224944Y-9752650D02*
X5205896Y-9762174D01*
X5205896Y-9762174D02*
X5148753Y-9762174D01*
X5148753Y-9762174D02*
X5129706Y-9752650D01*
X5129706Y-9752650D02*
X5120182Y-9743126D01*
X5424944Y-9562174D02*
X5329706Y-9562174D01*
X5329706Y-9562174D02*
X5320182Y-9657412D01*
X5320182Y-9657412D02*
X5329706Y-9647888D01*
X5329706Y-9647888D02*
X5348753Y-9638365D01*
X5348753Y-9638365D02*
X5396372Y-9638365D01*
X5396372Y-9638365D02*
X5415420Y-9647888D01*
X5415420Y-9647888D02*
X5424944Y-9657412D01*
X5424944Y-9657412D02*
X5434468Y-9676460D01*
X5434468Y-9676460D02*
X5434468Y-9724079D01*
X5434468Y-9724079D02*
X5424944Y-9743126D01*
X5424944Y-9743126D02*
X5415420Y-9752650D01*
X5415420Y-9752650D02*
X5396372Y-9762174D01*
X5396372Y-9762174D02*
X5348753Y-9762174D01*
X5348753Y-9762174D02*
X5329706Y-9752650D01*
X5329706Y-9752650D02*
X5320182Y-9743126D01*
X5558277Y-9562174D02*
X5577325Y-9562174D01*
X5577325Y-9562174D02*
X5596372Y-9571698D01*
X5596372Y-9571698D02*
X5605896Y-9581222D01*
X5605896Y-9581222D02*
X5615420Y-9600269D01*
X5615420Y-9600269D02*
X5624944Y-9638365D01*
X5624944Y-9638365D02*
X5624944Y-9685984D01*
X5624944Y-9685984D02*
X5615420Y-9724079D01*
X5615420Y-9724079D02*
X5605896Y-9743126D01*
X5605896Y-9743126D02*
X5596372Y-9752650D01*
X5596372Y-9752650D02*
X5577325Y-9762174D01*
X5577325Y-9762174D02*
X5558277Y-9762174D01*
X5558277Y-9762174D02*
X5539229Y-9752650D01*
X5539229Y-9752650D02*
X5529706Y-9743126D01*
X5529706Y-9743126D02*
X5520182Y-9724079D01*
X5520182Y-9724079D02*
X5510658Y-9685984D01*
X5510658Y-9685984D02*
X5510658Y-9638365D01*
X5510658Y-9638365D02*
X5520182Y-9600269D01*
X5520182Y-9600269D02*
X5529706Y-9581222D01*
X5529706Y-9581222D02*
X5539229Y-9571698D01*
X5539229Y-9571698D02*
X5558277Y-9562174D01*
X5701134Y-9562174D02*
X5701134Y-9600269D01*
X5777325Y-9562174D02*
X5777325Y-9600269D01*
X6072563Y-9838365D02*
X6063039Y-9828841D01*
X6063039Y-9828841D02*
X6043991Y-9800269D01*
X6043991Y-9800269D02*
X6034468Y-9781222D01*
X6034468Y-9781222D02*
X6024944Y-9752650D01*
X6024944Y-9752650D02*
X6015420Y-9705031D01*
X6015420Y-9705031D02*
X6015420Y-9666936D01*
X6015420Y-9666936D02*
X6024944Y-9619317D01*
X6024944Y-9619317D02*
X6034468Y-9590746D01*
X6034468Y-9590746D02*
X6043991Y-9571698D01*
X6043991Y-9571698D02*
X6063039Y-9543126D01*
X6063039Y-9543126D02*
X6072563Y-9533603D01*
X6129706Y-9562174D02*
X6253515Y-9562174D01*
X6253515Y-9562174D02*
X6186848Y-9638365D01*
X6186848Y-9638365D02*
X6215420Y-9638365D01*
X6215420Y-9638365D02*
X6234468Y-9647888D01*
X6234468Y-9647888D02*
X6243991Y-9657412D01*
X6243991Y-9657412D02*
X6253515Y-9676460D01*
X6253515Y-9676460D02*
X6253515Y-9724079D01*
X6253515Y-9724079D02*
X6243991Y-9743126D01*
X6243991Y-9743126D02*
X6234468Y-9752650D01*
X6234468Y-9752650D02*
X6215420Y-9762174D01*
X6215420Y-9762174D02*
X6158277Y-9762174D01*
X6158277Y-9762174D02*
X6139229Y-9752650D01*
X6139229Y-9752650D02*
X6129706Y-9743126D01*
X6424944Y-9562174D02*
X6386848Y-9562174D01*
X6386848Y-9562174D02*
X6367801Y-9571698D01*
X6367801Y-9571698D02*
X6358277Y-9581222D01*
X6358277Y-9581222D02*
X6339229Y-9609793D01*
X6339229Y-9609793D02*
X6329706Y-9647888D01*
X6329706Y-9647888D02*
X6329706Y-9724079D01*
X6329706Y-9724079D02*
X6339229Y-9743126D01*
X6339229Y-9743126D02*
X6348753Y-9752650D01*
X6348753Y-9752650D02*
X6367801Y-9762174D01*
X6367801Y-9762174D02*
X6405896Y-9762174D01*
X6405896Y-9762174D02*
X6424944Y-9752650D01*
X6424944Y-9752650D02*
X6434468Y-9743126D01*
X6434468Y-9743126D02*
X6443991Y-9724079D01*
X6443991Y-9724079D02*
X6443991Y-9676460D01*
X6443991Y-9676460D02*
X6434468Y-9657412D01*
X6434468Y-9657412D02*
X6424944Y-9647888D01*
X6424944Y-9647888D02*
X6405896Y-9638365D01*
X6405896Y-9638365D02*
X6367801Y-9638365D01*
X6367801Y-9638365D02*
X6348753Y-9647888D01*
X6348753Y-9647888D02*
X6339229Y-9657412D01*
X6339229Y-9657412D02*
X6329706Y-9676460D01*
X6682087Y-9762174D02*
X6682087Y-9562174D01*
X6767801Y-9762174D02*
X6767801Y-9657412D01*
X6767801Y-9657412D02*
X6758277Y-9638365D01*
X6758277Y-9638365D02*
X6739230Y-9628841D01*
X6739230Y-9628841D02*
X6710658Y-9628841D01*
X6710658Y-9628841D02*
X6691610Y-9638365D01*
X6691610Y-9638365D02*
X6682087Y-9647888D01*
X6891610Y-9762174D02*
X6872563Y-9752650D01*
X6872563Y-9752650D02*
X6863039Y-9743126D01*
X6863039Y-9743126D02*
X6853515Y-9724079D01*
X6853515Y-9724079D02*
X6853515Y-9666936D01*
X6853515Y-9666936D02*
X6863039Y-9647888D01*
X6863039Y-9647888D02*
X6872563Y-9638365D01*
X6872563Y-9638365D02*
X6891610Y-9628841D01*
X6891610Y-9628841D02*
X6920182Y-9628841D01*
X6920182Y-9628841D02*
X6939230Y-9638365D01*
X6939230Y-9638365D02*
X6948753Y-9647888D01*
X6948753Y-9647888D02*
X6958277Y-9666936D01*
X6958277Y-9666936D02*
X6958277Y-9724079D01*
X6958277Y-9724079D02*
X6948753Y-9743126D01*
X6948753Y-9743126D02*
X6939230Y-9752650D01*
X6939230Y-9752650D02*
X6920182Y-9762174D01*
X6920182Y-9762174D02*
X6891610Y-9762174D01*
X7072563Y-9762174D02*
X7053515Y-9752650D01*
X7053515Y-9752650D02*
X7043991Y-9733603D01*
X7043991Y-9733603D02*
X7043991Y-9562174D01*
X7224944Y-9752650D02*
X7205896Y-9762174D01*
X7205896Y-9762174D02*
X7167801Y-9762174D01*
X7167801Y-9762174D02*
X7148753Y-9752650D01*
X7148753Y-9752650D02*
X7139230Y-9733603D01*
X7139230Y-9733603D02*
X7139230Y-9657412D01*
X7139230Y-9657412D02*
X7148753Y-9638365D01*
X7148753Y-9638365D02*
X7167801Y-9628841D01*
X7167801Y-9628841D02*
X7205896Y-9628841D01*
X7205896Y-9628841D02*
X7224944Y-9638365D01*
X7224944Y-9638365D02*
X7234468Y-9657412D01*
X7234468Y-9657412D02*
X7234468Y-9676460D01*
X7234468Y-9676460D02*
X7139230Y-9695507D01*
X7310658Y-9752650D02*
X7329706Y-9762174D01*
X7329706Y-9762174D02*
X7367801Y-9762174D01*
X7367801Y-9762174D02*
X7386849Y-9752650D01*
X7386849Y-9752650D02*
X7396372Y-9733603D01*
X7396372Y-9733603D02*
X7396372Y-9724079D01*
X7396372Y-9724079D02*
X7386849Y-9705031D01*
X7386849Y-9705031D02*
X7367801Y-9695507D01*
X7367801Y-9695507D02*
X7339230Y-9695507D01*
X7339230Y-9695507D02*
X7320182Y-9685984D01*
X7320182Y-9685984D02*
X7310658Y-9666936D01*
X7310658Y-9666936D02*
X7310658Y-9657412D01*
X7310658Y-9657412D02*
X7320182Y-9638365D01*
X7320182Y-9638365D02*
X7339230Y-9628841D01*
X7339230Y-9628841D02*
X7367801Y-9628841D01*
X7367801Y-9628841D02*
X7386849Y-9638365D01*
X7463039Y-9838365D02*
X7472563Y-9828841D01*
X7472563Y-9828841D02*
X7491611Y-9800269D01*
X7491611Y-9800269D02*
X7501134Y-9781222D01*
X7501134Y-9781222D02*
X7510658Y-9752650D01*
X7510658Y-9752650D02*
X7520182Y-9705031D01*
X7520182Y-9705031D02*
X7520182Y-9666936D01*
X7520182Y-9666936D02*
X7510658Y-9619317D01*
X7510658Y-9619317D02*
X7501134Y-9590746D01*
X7501134Y-9590746D02*
X7491611Y-9571698D01*
X7491611Y-9571698D02*
X7472563Y-9543126D01*
X7472563Y-9543126D02*
X7463039Y-9533603D01*
D12*
X2482856Y-9970046D02*
X2482856Y-9899335D01*
X2412144Y-9899335D01*
X2412144Y-9970046D01*
X2482856Y-9970046D01*
D11*
X2863039Y-10026174D02*
X2748753Y-10026174D01*
X2805896Y-10026174D02*
X2805896Y-9826174D01*
X2805896Y-9826174D02*
X2786848Y-9854746D01*
X2786848Y-9854746D02*
X2767801Y-9873793D01*
X2767801Y-9873793D02*
X2748753Y-9883317D01*
X2948753Y-10007126D02*
X2958277Y-10016650D01*
X2958277Y-10016650D02*
X2948753Y-10026174D01*
X2948753Y-10026174D02*
X2939229Y-10016650D01*
X2939229Y-10016650D02*
X2948753Y-10007126D01*
X2948753Y-10007126D02*
X2948753Y-10026174D01*
X3082086Y-9826174D02*
X3101134Y-9826174D01*
X3101134Y-9826174D02*
X3120182Y-9835698D01*
X3120182Y-9835698D02*
X3129705Y-9845222D01*
X3129705Y-9845222D02*
X3139229Y-9864269D01*
X3139229Y-9864269D02*
X3148753Y-9902365D01*
X3148753Y-9902365D02*
X3148753Y-9949984D01*
X3148753Y-9949984D02*
X3139229Y-9988079D01*
X3139229Y-9988079D02*
X3129705Y-10007126D01*
X3129705Y-10007126D02*
X3120182Y-10016650D01*
X3120182Y-10016650D02*
X3101134Y-10026174D01*
X3101134Y-10026174D02*
X3082086Y-10026174D01*
X3082086Y-10026174D02*
X3063039Y-10016650D01*
X3063039Y-10016650D02*
X3053515Y-10007126D01*
X3053515Y-10007126D02*
X3043991Y-9988079D01*
X3043991Y-9988079D02*
X3034467Y-9949984D01*
X3034467Y-9949984D02*
X3034467Y-9902365D01*
X3034467Y-9902365D02*
X3043991Y-9864269D01*
X3043991Y-9864269D02*
X3053515Y-9845222D01*
X3053515Y-9845222D02*
X3063039Y-9835698D01*
X3063039Y-9835698D02*
X3082086Y-9826174D01*
X3272562Y-9826174D02*
X3291610Y-9826174D01*
X3291610Y-9826174D02*
X3310658Y-9835698D01*
X3310658Y-9835698D02*
X3320182Y-9845222D01*
X3320182Y-9845222D02*
X3329705Y-9864269D01*
X3329705Y-9864269D02*
X3339229Y-9902365D01*
X3339229Y-9902365D02*
X3339229Y-9949984D01*
X3339229Y-9949984D02*
X3329705Y-9988079D01*
X3329705Y-9988079D02*
X3320182Y-10007126D01*
X3320182Y-10007126D02*
X3310658Y-10016650D01*
X3310658Y-10016650D02*
X3291610Y-10026174D01*
X3291610Y-10026174D02*
X3272562Y-10026174D01*
X3272562Y-10026174D02*
X3253515Y-10016650D01*
X3253515Y-10016650D02*
X3243991Y-10007126D01*
X3243991Y-10007126D02*
X3234467Y-9988079D01*
X3234467Y-9988079D02*
X3224943Y-9949984D01*
X3224943Y-9949984D02*
X3224943Y-9902365D01*
X3224943Y-9902365D02*
X3234467Y-9864269D01*
X3234467Y-9864269D02*
X3243991Y-9845222D01*
X3243991Y-9845222D02*
X3253515Y-9835698D01*
X3253515Y-9835698D02*
X3272562Y-9826174D01*
X3463039Y-9826174D02*
X3482086Y-9826174D01*
X3482086Y-9826174D02*
X3501134Y-9835698D01*
X3501134Y-9835698D02*
X3510658Y-9845222D01*
X3510658Y-9845222D02*
X3520182Y-9864269D01*
X3520182Y-9864269D02*
X3529705Y-9902365D01*
X3529705Y-9902365D02*
X3529705Y-9949984D01*
X3529705Y-9949984D02*
X3520182Y-9988079D01*
X3520182Y-9988079D02*
X3510658Y-10007126D01*
X3510658Y-10007126D02*
X3501134Y-10016650D01*
X3501134Y-10016650D02*
X3482086Y-10026174D01*
X3482086Y-10026174D02*
X3463039Y-10026174D01*
X3463039Y-10026174D02*
X3443991Y-10016650D01*
X3443991Y-10016650D02*
X3434467Y-10007126D01*
X3434467Y-10007126D02*
X3424943Y-9988079D01*
X3424943Y-9988079D02*
X3415420Y-9949984D01*
X3415420Y-9949984D02*
X3415420Y-9902365D01*
X3415420Y-9902365D02*
X3424943Y-9864269D01*
X3424943Y-9864269D02*
X3434467Y-9845222D01*
X3434467Y-9845222D02*
X3443991Y-9835698D01*
X3443991Y-9835698D02*
X3463039Y-9826174D01*
X3615420Y-10026174D02*
X3615420Y-9892841D01*
X3615420Y-9911888D02*
X3624943Y-9902365D01*
X3624943Y-9902365D02*
X3643991Y-9892841D01*
X3643991Y-9892841D02*
X3672563Y-9892841D01*
X3672563Y-9892841D02*
X3691610Y-9902365D01*
X3691610Y-9902365D02*
X3701134Y-9921412D01*
X3701134Y-9921412D02*
X3701134Y-10026174D01*
X3701134Y-9921412D02*
X3710658Y-9902365D01*
X3710658Y-9902365D02*
X3729705Y-9892841D01*
X3729705Y-9892841D02*
X3758277Y-9892841D01*
X3758277Y-9892841D02*
X3777324Y-9902365D01*
X3777324Y-9902365D02*
X3786848Y-9921412D01*
X3786848Y-9921412D02*
X3786848Y-10026174D01*
X3882086Y-10026174D02*
X3882086Y-9892841D01*
X3882086Y-9911888D02*
X3891610Y-9902365D01*
X3891610Y-9902365D02*
X3910658Y-9892841D01*
X3910658Y-9892841D02*
X3939229Y-9892841D01*
X3939229Y-9892841D02*
X3958277Y-9902365D01*
X3958277Y-9902365D02*
X3967801Y-9921412D01*
X3967801Y-9921412D02*
X3967801Y-10026174D01*
X3967801Y-9921412D02*
X3977324Y-9902365D01*
X3977324Y-9902365D02*
X3996372Y-9892841D01*
X3996372Y-9892841D02*
X4024943Y-9892841D01*
X4024943Y-9892841D02*
X4043991Y-9902365D01*
X4043991Y-9902365D02*
X4053515Y-9921412D01*
X4053515Y-9921412D02*
X4053515Y-10026174D01*
X4443991Y-9816650D02*
X4272563Y-10073793D01*
X4701134Y-9826174D02*
X4720182Y-9826174D01*
X4720182Y-9826174D02*
X4739229Y-9835698D01*
X4739229Y-9835698D02*
X4748753Y-9845222D01*
X4748753Y-9845222D02*
X4758277Y-9864269D01*
X4758277Y-9864269D02*
X4767801Y-9902365D01*
X4767801Y-9902365D02*
X4767801Y-9949984D01*
X4767801Y-9949984D02*
X4758277Y-9988079D01*
X4758277Y-9988079D02*
X4748753Y-10007126D01*
X4748753Y-10007126D02*
X4739229Y-10016650D01*
X4739229Y-10016650D02*
X4720182Y-10026174D01*
X4720182Y-10026174D02*
X4701134Y-10026174D01*
X4701134Y-10026174D02*
X4682087Y-10016650D01*
X4682087Y-10016650D02*
X4672563Y-10007126D01*
X4672563Y-10007126D02*
X4663039Y-9988079D01*
X4663039Y-9988079D02*
X4653515Y-9949984D01*
X4653515Y-9949984D02*
X4653515Y-9902365D01*
X4653515Y-9902365D02*
X4663039Y-9864269D01*
X4663039Y-9864269D02*
X4672563Y-9845222D01*
X4672563Y-9845222D02*
X4682087Y-9835698D01*
X4682087Y-9835698D02*
X4701134Y-9826174D01*
X4853515Y-10007126D02*
X4863039Y-10016650D01*
X4863039Y-10016650D02*
X4853515Y-10026174D01*
X4853515Y-10026174D02*
X4843991Y-10016650D01*
X4843991Y-10016650D02*
X4853515Y-10007126D01*
X4853515Y-10007126D02*
X4853515Y-10026174D01*
X4986848Y-9826174D02*
X5005896Y-9826174D01*
X5005896Y-9826174D02*
X5024944Y-9835698D01*
X5024944Y-9835698D02*
X5034468Y-9845222D01*
X5034468Y-9845222D02*
X5043991Y-9864269D01*
X5043991Y-9864269D02*
X5053515Y-9902365D01*
X5053515Y-9902365D02*
X5053515Y-9949984D01*
X5053515Y-9949984D02*
X5043991Y-9988079D01*
X5043991Y-9988079D02*
X5034468Y-10007126D01*
X5034468Y-10007126D02*
X5024944Y-10016650D01*
X5024944Y-10016650D02*
X5005896Y-10026174D01*
X5005896Y-10026174D02*
X4986848Y-10026174D01*
X4986848Y-10026174D02*
X4967801Y-10016650D01*
X4967801Y-10016650D02*
X4958277Y-10007126D01*
X4958277Y-10007126D02*
X4948753Y-9988079D01*
X4948753Y-9988079D02*
X4939229Y-9949984D01*
X4939229Y-9949984D02*
X4939229Y-9902365D01*
X4939229Y-9902365D02*
X4948753Y-9864269D01*
X4948753Y-9864269D02*
X4958277Y-9845222D01*
X4958277Y-9845222D02*
X4967801Y-9835698D01*
X4967801Y-9835698D02*
X4986848Y-9826174D01*
X5120182Y-9826174D02*
X5243991Y-9826174D01*
X5243991Y-9826174D02*
X5177325Y-9902365D01*
X5177325Y-9902365D02*
X5205896Y-9902365D01*
X5205896Y-9902365D02*
X5224944Y-9911888D01*
X5224944Y-9911888D02*
X5234468Y-9921412D01*
X5234468Y-9921412D02*
X5243991Y-9940460D01*
X5243991Y-9940460D02*
X5243991Y-9988079D01*
X5243991Y-9988079D02*
X5234468Y-10007126D01*
X5234468Y-10007126D02*
X5224944Y-10016650D01*
X5224944Y-10016650D02*
X5205896Y-10026174D01*
X5205896Y-10026174D02*
X5148753Y-10026174D01*
X5148753Y-10026174D02*
X5129706Y-10016650D01*
X5129706Y-10016650D02*
X5120182Y-10007126D01*
X5339229Y-10026174D02*
X5377325Y-10026174D01*
X5377325Y-10026174D02*
X5396372Y-10016650D01*
X5396372Y-10016650D02*
X5405896Y-10007126D01*
X5405896Y-10007126D02*
X5424944Y-9978555D01*
X5424944Y-9978555D02*
X5434468Y-9940460D01*
X5434468Y-9940460D02*
X5434468Y-9864269D01*
X5434468Y-9864269D02*
X5424944Y-9845222D01*
X5424944Y-9845222D02*
X5415420Y-9835698D01*
X5415420Y-9835698D02*
X5396372Y-9826174D01*
X5396372Y-9826174D02*
X5358277Y-9826174D01*
X5358277Y-9826174D02*
X5339229Y-9835698D01*
X5339229Y-9835698D02*
X5329706Y-9845222D01*
X5329706Y-9845222D02*
X5320182Y-9864269D01*
X5320182Y-9864269D02*
X5320182Y-9911888D01*
X5320182Y-9911888D02*
X5329706Y-9930936D01*
X5329706Y-9930936D02*
X5339229Y-9940460D01*
X5339229Y-9940460D02*
X5358277Y-9949984D01*
X5358277Y-9949984D02*
X5396372Y-9949984D01*
X5396372Y-9949984D02*
X5415420Y-9940460D01*
X5415420Y-9940460D02*
X5424944Y-9930936D01*
X5424944Y-9930936D02*
X5434468Y-9911888D01*
X5605896Y-9892841D02*
X5605896Y-10026174D01*
X5558277Y-9816650D02*
X5510658Y-9959507D01*
X5510658Y-9959507D02*
X5634467Y-9959507D01*
X5701134Y-9826174D02*
X5701134Y-9864269D01*
X5777325Y-9826174D02*
X5777325Y-9864269D01*
X6072563Y-10102365D02*
X6063039Y-10092841D01*
X6063039Y-10092841D02*
X6043991Y-10064269D01*
X6043991Y-10064269D02*
X6034468Y-10045222D01*
X6034468Y-10045222D02*
X6024944Y-10016650D01*
X6024944Y-10016650D02*
X6015420Y-9969031D01*
X6015420Y-9969031D02*
X6015420Y-9930936D01*
X6015420Y-9930936D02*
X6024944Y-9883317D01*
X6024944Y-9883317D02*
X6034468Y-9854746D01*
X6034468Y-9854746D02*
X6043991Y-9835698D01*
X6043991Y-9835698D02*
X6063039Y-9807126D01*
X6063039Y-9807126D02*
X6072563Y-9797603D01*
X6129706Y-9826174D02*
X6253515Y-9826174D01*
X6253515Y-9826174D02*
X6186848Y-9902365D01*
X6186848Y-9902365D02*
X6215420Y-9902365D01*
X6215420Y-9902365D02*
X6234468Y-9911888D01*
X6234468Y-9911888D02*
X6243991Y-9921412D01*
X6243991Y-9921412D02*
X6253515Y-9940460D01*
X6253515Y-9940460D02*
X6253515Y-9988079D01*
X6253515Y-9988079D02*
X6243991Y-10007126D01*
X6243991Y-10007126D02*
X6234468Y-10016650D01*
X6234468Y-10016650D02*
X6215420Y-10026174D01*
X6215420Y-10026174D02*
X6158277Y-10026174D01*
X6158277Y-10026174D02*
X6139229Y-10016650D01*
X6139229Y-10016650D02*
X6129706Y-10007126D01*
X6377325Y-9826174D02*
X6396372Y-9826174D01*
X6396372Y-9826174D02*
X6415420Y-9835698D01*
X6415420Y-9835698D02*
X6424944Y-9845222D01*
X6424944Y-9845222D02*
X6434468Y-9864269D01*
X6434468Y-9864269D02*
X6443991Y-9902365D01*
X6443991Y-9902365D02*
X6443991Y-9949984D01*
X6443991Y-9949984D02*
X6434468Y-9988079D01*
X6434468Y-9988079D02*
X6424944Y-10007126D01*
X6424944Y-10007126D02*
X6415420Y-10016650D01*
X6415420Y-10016650D02*
X6396372Y-10026174D01*
X6396372Y-10026174D02*
X6377325Y-10026174D01*
X6377325Y-10026174D02*
X6358277Y-10016650D01*
X6358277Y-10016650D02*
X6348753Y-10007126D01*
X6348753Y-10007126D02*
X6339229Y-9988079D01*
X6339229Y-9988079D02*
X6329706Y-9949984D01*
X6329706Y-9949984D02*
X6329706Y-9902365D01*
X6329706Y-9902365D02*
X6339229Y-9864269D01*
X6339229Y-9864269D02*
X6348753Y-9845222D01*
X6348753Y-9845222D02*
X6358277Y-9835698D01*
X6358277Y-9835698D02*
X6377325Y-9826174D01*
X6682087Y-10026174D02*
X6682087Y-9826174D01*
X6767801Y-10026174D02*
X6767801Y-9921412D01*
X6767801Y-9921412D02*
X6758277Y-9902365D01*
X6758277Y-9902365D02*
X6739230Y-9892841D01*
X6739230Y-9892841D02*
X6710658Y-9892841D01*
X6710658Y-9892841D02*
X6691610Y-9902365D01*
X6691610Y-9902365D02*
X6682087Y-9911888D01*
X6891610Y-10026174D02*
X6872563Y-10016650D01*
X6872563Y-10016650D02*
X6863039Y-10007126D01*
X6863039Y-10007126D02*
X6853515Y-9988079D01*
X6853515Y-9988079D02*
X6853515Y-9930936D01*
X6853515Y-9930936D02*
X6863039Y-9911888D01*
X6863039Y-9911888D02*
X6872563Y-9902365D01*
X6872563Y-9902365D02*
X6891610Y-9892841D01*
X6891610Y-9892841D02*
X6920182Y-9892841D01*
X6920182Y-9892841D02*
X6939230Y-9902365D01*
X6939230Y-9902365D02*
X6948753Y-9911888D01*
X6948753Y-9911888D02*
X6958277Y-9930936D01*
X6958277Y-9930936D02*
X6958277Y-9988079D01*
X6958277Y-9988079D02*
X6948753Y-10007126D01*
X6948753Y-10007126D02*
X6939230Y-10016650D01*
X6939230Y-10016650D02*
X6920182Y-10026174D01*
X6920182Y-10026174D02*
X6891610Y-10026174D01*
X7072563Y-10026174D02*
X7053515Y-10016650D01*
X7053515Y-10016650D02*
X7043991Y-9997603D01*
X7043991Y-9997603D02*
X7043991Y-9826174D01*
X7224944Y-10016650D02*
X7205896Y-10026174D01*
X7205896Y-10026174D02*
X7167801Y-10026174D01*
X7167801Y-10026174D02*
X7148753Y-10016650D01*
X7148753Y-10016650D02*
X7139230Y-9997603D01*
X7139230Y-9997603D02*
X7139230Y-9921412D01*
X7139230Y-9921412D02*
X7148753Y-9902365D01*
X7148753Y-9902365D02*
X7167801Y-9892841D01*
X7167801Y-9892841D02*
X7205896Y-9892841D01*
X7205896Y-9892841D02*
X7224944Y-9902365D01*
X7224944Y-9902365D02*
X7234468Y-9921412D01*
X7234468Y-9921412D02*
X7234468Y-9940460D01*
X7234468Y-9940460D02*
X7139230Y-9959507D01*
X7310658Y-10016650D02*
X7329706Y-10026174D01*
X7329706Y-10026174D02*
X7367801Y-10026174D01*
X7367801Y-10026174D02*
X7386849Y-10016650D01*
X7386849Y-10016650D02*
X7396372Y-9997603D01*
X7396372Y-9997603D02*
X7396372Y-9988079D01*
X7396372Y-9988079D02*
X7386849Y-9969031D01*
X7386849Y-9969031D02*
X7367801Y-9959507D01*
X7367801Y-9959507D02*
X7339230Y-9959507D01*
X7339230Y-9959507D02*
X7320182Y-9949984D01*
X7320182Y-9949984D02*
X7310658Y-9930936D01*
X7310658Y-9930936D02*
X7310658Y-9921412D01*
X7310658Y-9921412D02*
X7320182Y-9902365D01*
X7320182Y-9902365D02*
X7339230Y-9892841D01*
X7339230Y-9892841D02*
X7367801Y-9892841D01*
X7367801Y-9892841D02*
X7386849Y-9902365D01*
X7634468Y-9949984D02*
X7786849Y-9949984D01*
X7710658Y-10026174D02*
X7710658Y-9873793D01*
X8024944Y-9845222D02*
X8034468Y-9835698D01*
X8034468Y-9835698D02*
X8053515Y-9826174D01*
X8053515Y-9826174D02*
X8101134Y-9826174D01*
X8101134Y-9826174D02*
X8120182Y-9835698D01*
X8120182Y-9835698D02*
X8129706Y-9845222D01*
X8129706Y-9845222D02*
X8139230Y-9864269D01*
X8139230Y-9864269D02*
X8139230Y-9883317D01*
X8139230Y-9883317D02*
X8129706Y-9911888D01*
X8129706Y-9911888D02*
X8015420Y-10026174D01*
X8015420Y-10026174D02*
X8139230Y-10026174D01*
X8367801Y-10016650D02*
X8386849Y-10026174D01*
X8386849Y-10026174D02*
X8424944Y-10026174D01*
X8424944Y-10026174D02*
X8443992Y-10016650D01*
X8443992Y-10016650D02*
X8453516Y-9997603D01*
X8453516Y-9997603D02*
X8453516Y-9988079D01*
X8453516Y-9988079D02*
X8443992Y-9969031D01*
X8443992Y-9969031D02*
X8424944Y-9959507D01*
X8424944Y-9959507D02*
X8396373Y-9959507D01*
X8396373Y-9959507D02*
X8377325Y-9949984D01*
X8377325Y-9949984D02*
X8367801Y-9930936D01*
X8367801Y-9930936D02*
X8367801Y-9921412D01*
X8367801Y-9921412D02*
X8377325Y-9902365D01*
X8377325Y-9902365D02*
X8396373Y-9892841D01*
X8396373Y-9892841D02*
X8424944Y-9892841D01*
X8424944Y-9892841D02*
X8443992Y-9902365D01*
X8567801Y-10026174D02*
X8548754Y-10016650D01*
X8548754Y-10016650D02*
X8539230Y-9997603D01*
X8539230Y-9997603D02*
X8539230Y-9826174D01*
X8672563Y-10026174D02*
X8653516Y-10016650D01*
X8653516Y-10016650D02*
X8643992Y-10007126D01*
X8643992Y-10007126D02*
X8634468Y-9988079D01*
X8634468Y-9988079D02*
X8634468Y-9930936D01*
X8634468Y-9930936D02*
X8643992Y-9911888D01*
X8643992Y-9911888D02*
X8653516Y-9902365D01*
X8653516Y-9902365D02*
X8672563Y-9892841D01*
X8672563Y-9892841D02*
X8701135Y-9892841D01*
X8701135Y-9892841D02*
X8720182Y-9902365D01*
X8720182Y-9902365D02*
X8729706Y-9911888D01*
X8729706Y-9911888D02*
X8739230Y-9930936D01*
X8739230Y-9930936D02*
X8739230Y-9988079D01*
X8739230Y-9988079D02*
X8729706Y-10007126D01*
X8729706Y-10007126D02*
X8720182Y-10016650D01*
X8720182Y-10016650D02*
X8701135Y-10026174D01*
X8701135Y-10026174D02*
X8672563Y-10026174D01*
X8796373Y-9892841D02*
X8872563Y-9892841D01*
X8824944Y-9826174D02*
X8824944Y-9997603D01*
X8824944Y-9997603D02*
X8834468Y-10016650D01*
X8834468Y-10016650D02*
X8853516Y-10026174D01*
X8853516Y-10026174D02*
X8872563Y-10026174D01*
X8929706Y-10016650D02*
X8948754Y-10026174D01*
X8948754Y-10026174D02*
X8986849Y-10026174D01*
X8986849Y-10026174D02*
X9005897Y-10016650D01*
X9005897Y-10016650D02*
X9015420Y-9997603D01*
X9015420Y-9997603D02*
X9015420Y-9988079D01*
X9015420Y-9988079D02*
X9005897Y-9969031D01*
X9005897Y-9969031D02*
X8986849Y-9959507D01*
X8986849Y-9959507D02*
X8958277Y-9959507D01*
X8958277Y-9959507D02*
X8939230Y-9949984D01*
X8939230Y-9949984D02*
X8929706Y-9930936D01*
X8929706Y-9930936D02*
X8929706Y-9921412D01*
X8929706Y-9921412D02*
X8939230Y-9902365D01*
X8939230Y-9902365D02*
X8958277Y-9892841D01*
X8958277Y-9892841D02*
X8986849Y-9892841D01*
X8986849Y-9892841D02*
X9005897Y-9902365D01*
X9082087Y-10102365D02*
X9091611Y-10092841D01*
X9091611Y-10092841D02*
X9110658Y-10064269D01*
X9110658Y-10064269D02*
X9120182Y-10045222D01*
X9120182Y-10045222D02*
X9129706Y-10016650D01*
X9129706Y-10016650D02*
X9139230Y-9969031D01*
X9139230Y-9969031D02*
X9139230Y-9930936D01*
X9139230Y-9930936D02*
X9129706Y-9883317D01*
X9129706Y-9883317D02*
X9120182Y-9854746D01*
X9120182Y-9854746D02*
X9110658Y-9835698D01*
X9110658Y-9835698D02*
X9091611Y-9807126D01*
X9091611Y-9807126D02*
X9082087Y-9797603D01*
D13*
X2416220Y-10279970D02*
X2497500Y-10198690D01*
X2416220Y-10117410D01*
X2334940Y-10198690D01*
X2416220Y-10279970D01*
D11*
X2863039Y-10290174D02*
X2748753Y-10290174D01*
X2805896Y-10290174D02*
X2805896Y-10090174D01*
X2805896Y-10090174D02*
X2786848Y-10118746D01*
X2786848Y-10118746D02*
X2767801Y-10137793D01*
X2767801Y-10137793D02*
X2748753Y-10147317D01*
X2948753Y-10271126D02*
X2958277Y-10280650D01*
X2958277Y-10280650D02*
X2948753Y-10290174D01*
X2948753Y-10290174D02*
X2939229Y-10280650D01*
X2939229Y-10280650D02*
X2948753Y-10271126D01*
X2948753Y-10271126D02*
X2948753Y-10290174D01*
X3129705Y-10090174D02*
X3091610Y-10090174D01*
X3091610Y-10090174D02*
X3072562Y-10099698D01*
X3072562Y-10099698D02*
X3063039Y-10109222D01*
X3063039Y-10109222D02*
X3043991Y-10137793D01*
X3043991Y-10137793D02*
X3034467Y-10175888D01*
X3034467Y-10175888D02*
X3034467Y-10252079D01*
X3034467Y-10252079D02*
X3043991Y-10271126D01*
X3043991Y-10271126D02*
X3053515Y-10280650D01*
X3053515Y-10280650D02*
X3072562Y-10290174D01*
X3072562Y-10290174D02*
X3110658Y-10290174D01*
X3110658Y-10290174D02*
X3129705Y-10280650D01*
X3129705Y-10280650D02*
X3139229Y-10271126D01*
X3139229Y-10271126D02*
X3148753Y-10252079D01*
X3148753Y-10252079D02*
X3148753Y-10204460D01*
X3148753Y-10204460D02*
X3139229Y-10185412D01*
X3139229Y-10185412D02*
X3129705Y-10175888D01*
X3129705Y-10175888D02*
X3110658Y-10166365D01*
X3110658Y-10166365D02*
X3072562Y-10166365D01*
X3072562Y-10166365D02*
X3053515Y-10175888D01*
X3053515Y-10175888D02*
X3043991Y-10185412D01*
X3043991Y-10185412D02*
X3034467Y-10204460D01*
X3224943Y-10109222D02*
X3234467Y-10099698D01*
X3234467Y-10099698D02*
X3253515Y-10090174D01*
X3253515Y-10090174D02*
X3301134Y-10090174D01*
X3301134Y-10090174D02*
X3320182Y-10099698D01*
X3320182Y-10099698D02*
X3329705Y-10109222D01*
X3329705Y-10109222D02*
X3339229Y-10128269D01*
X3339229Y-10128269D02*
X3339229Y-10147317D01*
X3339229Y-10147317D02*
X3329705Y-10175888D01*
X3329705Y-10175888D02*
X3215420Y-10290174D01*
X3215420Y-10290174D02*
X3339229Y-10290174D01*
X3510658Y-10090174D02*
X3472562Y-10090174D01*
X3472562Y-10090174D02*
X3453515Y-10099698D01*
X3453515Y-10099698D02*
X3443991Y-10109222D01*
X3443991Y-10109222D02*
X3424943Y-10137793D01*
X3424943Y-10137793D02*
X3415420Y-10175888D01*
X3415420Y-10175888D02*
X3415420Y-10252079D01*
X3415420Y-10252079D02*
X3424943Y-10271126D01*
X3424943Y-10271126D02*
X3434467Y-10280650D01*
X3434467Y-10280650D02*
X3453515Y-10290174D01*
X3453515Y-10290174D02*
X3491610Y-10290174D01*
X3491610Y-10290174D02*
X3510658Y-10280650D01*
X3510658Y-10280650D02*
X3520182Y-10271126D01*
X3520182Y-10271126D02*
X3529705Y-10252079D01*
X3529705Y-10252079D02*
X3529705Y-10204460D01*
X3529705Y-10204460D02*
X3520182Y-10185412D01*
X3520182Y-10185412D02*
X3510658Y-10175888D01*
X3510658Y-10175888D02*
X3491610Y-10166365D01*
X3491610Y-10166365D02*
X3453515Y-10166365D01*
X3453515Y-10166365D02*
X3434467Y-10175888D01*
X3434467Y-10175888D02*
X3424943Y-10185412D01*
X3424943Y-10185412D02*
X3415420Y-10204460D01*
X3615420Y-10290174D02*
X3615420Y-10156841D01*
X3615420Y-10175888D02*
X3624943Y-10166365D01*
X3624943Y-10166365D02*
X3643991Y-10156841D01*
X3643991Y-10156841D02*
X3672563Y-10156841D01*
X3672563Y-10156841D02*
X3691610Y-10166365D01*
X3691610Y-10166365D02*
X3701134Y-10185412D01*
X3701134Y-10185412D02*
X3701134Y-10290174D01*
X3701134Y-10185412D02*
X3710658Y-10166365D01*
X3710658Y-10166365D02*
X3729705Y-10156841D01*
X3729705Y-10156841D02*
X3758277Y-10156841D01*
X3758277Y-10156841D02*
X3777324Y-10166365D01*
X3777324Y-10166365D02*
X3786848Y-10185412D01*
X3786848Y-10185412D02*
X3786848Y-10290174D01*
X3882086Y-10290174D02*
X3882086Y-10156841D01*
X3882086Y-10175888D02*
X3891610Y-10166365D01*
X3891610Y-10166365D02*
X3910658Y-10156841D01*
X3910658Y-10156841D02*
X3939229Y-10156841D01*
X3939229Y-10156841D02*
X3958277Y-10166365D01*
X3958277Y-10166365D02*
X3967801Y-10185412D01*
X3967801Y-10185412D02*
X3967801Y-10290174D01*
X3967801Y-10185412D02*
X3977324Y-10166365D01*
X3977324Y-10166365D02*
X3996372Y-10156841D01*
X3996372Y-10156841D02*
X4024943Y-10156841D01*
X4024943Y-10156841D02*
X4043991Y-10166365D01*
X4043991Y-10166365D02*
X4053515Y-10185412D01*
X4053515Y-10185412D02*
X4053515Y-10290174D01*
X4443991Y-10080650D02*
X4272563Y-10337793D01*
X4701134Y-10090174D02*
X4720182Y-10090174D01*
X4720182Y-10090174D02*
X4739229Y-10099698D01*
X4739229Y-10099698D02*
X4748753Y-10109222D01*
X4748753Y-10109222D02*
X4758277Y-10128269D01*
X4758277Y-10128269D02*
X4767801Y-10166365D01*
X4767801Y-10166365D02*
X4767801Y-10213984D01*
X4767801Y-10213984D02*
X4758277Y-10252079D01*
X4758277Y-10252079D02*
X4748753Y-10271126D01*
X4748753Y-10271126D02*
X4739229Y-10280650D01*
X4739229Y-10280650D02*
X4720182Y-10290174D01*
X4720182Y-10290174D02*
X4701134Y-10290174D01*
X4701134Y-10290174D02*
X4682087Y-10280650D01*
X4682087Y-10280650D02*
X4672563Y-10271126D01*
X4672563Y-10271126D02*
X4663039Y-10252079D01*
X4663039Y-10252079D02*
X4653515Y-10213984D01*
X4653515Y-10213984D02*
X4653515Y-10166365D01*
X4653515Y-10166365D02*
X4663039Y-10128269D01*
X4663039Y-10128269D02*
X4672563Y-10109222D01*
X4672563Y-10109222D02*
X4682087Y-10099698D01*
X4682087Y-10099698D02*
X4701134Y-10090174D01*
X4853515Y-10271126D02*
X4863039Y-10280650D01*
X4863039Y-10280650D02*
X4853515Y-10290174D01*
X4853515Y-10290174D02*
X4843991Y-10280650D01*
X4843991Y-10280650D02*
X4853515Y-10271126D01*
X4853515Y-10271126D02*
X4853515Y-10290174D01*
X4986848Y-10090174D02*
X5005896Y-10090174D01*
X5005896Y-10090174D02*
X5024944Y-10099698D01*
X5024944Y-10099698D02*
X5034468Y-10109222D01*
X5034468Y-10109222D02*
X5043991Y-10128269D01*
X5043991Y-10128269D02*
X5053515Y-10166365D01*
X5053515Y-10166365D02*
X5053515Y-10213984D01*
X5053515Y-10213984D02*
X5043991Y-10252079D01*
X5043991Y-10252079D02*
X5034468Y-10271126D01*
X5034468Y-10271126D02*
X5024944Y-10280650D01*
X5024944Y-10280650D02*
X5005896Y-10290174D01*
X5005896Y-10290174D02*
X4986848Y-10290174D01*
X4986848Y-10290174D02*
X4967801Y-10280650D01*
X4967801Y-10280650D02*
X4958277Y-10271126D01*
X4958277Y-10271126D02*
X4948753Y-10252079D01*
X4948753Y-10252079D02*
X4939229Y-10213984D01*
X4939229Y-10213984D02*
X4939229Y-10166365D01*
X4939229Y-10166365D02*
X4948753Y-10128269D01*
X4948753Y-10128269D02*
X4958277Y-10109222D01*
X4958277Y-10109222D02*
X4967801Y-10099698D01*
X4967801Y-10099698D02*
X4986848Y-10090174D01*
X5224944Y-10090174D02*
X5186848Y-10090174D01*
X5186848Y-10090174D02*
X5167801Y-10099698D01*
X5167801Y-10099698D02*
X5158277Y-10109222D01*
X5158277Y-10109222D02*
X5139229Y-10137793D01*
X5139229Y-10137793D02*
X5129706Y-10175888D01*
X5129706Y-10175888D02*
X5129706Y-10252079D01*
X5129706Y-10252079D02*
X5139229Y-10271126D01*
X5139229Y-10271126D02*
X5148753Y-10280650D01*
X5148753Y-10280650D02*
X5167801Y-10290174D01*
X5167801Y-10290174D02*
X5205896Y-10290174D01*
X5205896Y-10290174D02*
X5224944Y-10280650D01*
X5224944Y-10280650D02*
X5234468Y-10271126D01*
X5234468Y-10271126D02*
X5243991Y-10252079D01*
X5243991Y-10252079D02*
X5243991Y-10204460D01*
X5243991Y-10204460D02*
X5234468Y-10185412D01*
X5234468Y-10185412D02*
X5224944Y-10175888D01*
X5224944Y-10175888D02*
X5205896Y-10166365D01*
X5205896Y-10166365D02*
X5167801Y-10166365D01*
X5167801Y-10166365D02*
X5148753Y-10175888D01*
X5148753Y-10175888D02*
X5139229Y-10185412D01*
X5139229Y-10185412D02*
X5129706Y-10204460D01*
X5415420Y-10156841D02*
X5415420Y-10290174D01*
X5367801Y-10080650D02*
X5320182Y-10223507D01*
X5320182Y-10223507D02*
X5443991Y-10223507D01*
X5558277Y-10090174D02*
X5577325Y-10090174D01*
X5577325Y-10090174D02*
X5596372Y-10099698D01*
X5596372Y-10099698D02*
X5605896Y-10109222D01*
X5605896Y-10109222D02*
X5615420Y-10128269D01*
X5615420Y-10128269D02*
X5624944Y-10166365D01*
X5624944Y-10166365D02*
X5624944Y-10213984D01*
X5624944Y-10213984D02*
X5615420Y-10252079D01*
X5615420Y-10252079D02*
X5605896Y-10271126D01*
X5605896Y-10271126D02*
X5596372Y-10280650D01*
X5596372Y-10280650D02*
X5577325Y-10290174D01*
X5577325Y-10290174D02*
X5558277Y-10290174D01*
X5558277Y-10290174D02*
X5539229Y-10280650D01*
X5539229Y-10280650D02*
X5529706Y-10271126D01*
X5529706Y-10271126D02*
X5520182Y-10252079D01*
X5520182Y-10252079D02*
X5510658Y-10213984D01*
X5510658Y-10213984D02*
X5510658Y-10166365D01*
X5510658Y-10166365D02*
X5520182Y-10128269D01*
X5520182Y-10128269D02*
X5529706Y-10109222D01*
X5529706Y-10109222D02*
X5539229Y-10099698D01*
X5539229Y-10099698D02*
X5558277Y-10090174D01*
X5701134Y-10090174D02*
X5701134Y-10128269D01*
X5777325Y-10090174D02*
X5777325Y-10128269D01*
X6072563Y-10366365D02*
X6063039Y-10356841D01*
X6063039Y-10356841D02*
X6043991Y-10328269D01*
X6043991Y-10328269D02*
X6034468Y-10309222D01*
X6034468Y-10309222D02*
X6024944Y-10280650D01*
X6024944Y-10280650D02*
X6015420Y-10233031D01*
X6015420Y-10233031D02*
X6015420Y-10194936D01*
X6015420Y-10194936D02*
X6024944Y-10147317D01*
X6024944Y-10147317D02*
X6034468Y-10118746D01*
X6034468Y-10118746D02*
X6043991Y-10099698D01*
X6043991Y-10099698D02*
X6063039Y-10071126D01*
X6063039Y-10071126D02*
X6072563Y-10061603D01*
X6234468Y-10090174D02*
X6196372Y-10090174D01*
X6196372Y-10090174D02*
X6177325Y-10099698D01*
X6177325Y-10099698D02*
X6167801Y-10109222D01*
X6167801Y-10109222D02*
X6148753Y-10137793D01*
X6148753Y-10137793D02*
X6139229Y-10175888D01*
X6139229Y-10175888D02*
X6139229Y-10252079D01*
X6139229Y-10252079D02*
X6148753Y-10271126D01*
X6148753Y-10271126D02*
X6158277Y-10280650D01*
X6158277Y-10280650D02*
X6177325Y-10290174D01*
X6177325Y-10290174D02*
X6215420Y-10290174D01*
X6215420Y-10290174D02*
X6234468Y-10280650D01*
X6234468Y-10280650D02*
X6243991Y-10271126D01*
X6243991Y-10271126D02*
X6253515Y-10252079D01*
X6253515Y-10252079D02*
X6253515Y-10204460D01*
X6253515Y-10204460D02*
X6243991Y-10185412D01*
X6243991Y-10185412D02*
X6234468Y-10175888D01*
X6234468Y-10175888D02*
X6215420Y-10166365D01*
X6215420Y-10166365D02*
X6177325Y-10166365D01*
X6177325Y-10166365D02*
X6158277Y-10175888D01*
X6158277Y-10175888D02*
X6148753Y-10185412D01*
X6148753Y-10185412D02*
X6139229Y-10204460D01*
X6491610Y-10290174D02*
X6491610Y-10090174D01*
X6577325Y-10290174D02*
X6577325Y-10185412D01*
X6577325Y-10185412D02*
X6567801Y-10166365D01*
X6567801Y-10166365D02*
X6548753Y-10156841D01*
X6548753Y-10156841D02*
X6520182Y-10156841D01*
X6520182Y-10156841D02*
X6501134Y-10166365D01*
X6501134Y-10166365D02*
X6491610Y-10175888D01*
X6701134Y-10290174D02*
X6682087Y-10280650D01*
X6682087Y-10280650D02*
X6672563Y-10271126D01*
X6672563Y-10271126D02*
X6663039Y-10252079D01*
X6663039Y-10252079D02*
X6663039Y-10194936D01*
X6663039Y-10194936D02*
X6672563Y-10175888D01*
X6672563Y-10175888D02*
X6682087Y-10166365D01*
X6682087Y-10166365D02*
X6701134Y-10156841D01*
X6701134Y-10156841D02*
X6729706Y-10156841D01*
X6729706Y-10156841D02*
X6748753Y-10166365D01*
X6748753Y-10166365D02*
X6758277Y-10175888D01*
X6758277Y-10175888D02*
X6767801Y-10194936D01*
X6767801Y-10194936D02*
X6767801Y-10252079D01*
X6767801Y-10252079D02*
X6758277Y-10271126D01*
X6758277Y-10271126D02*
X6748753Y-10280650D01*
X6748753Y-10280650D02*
X6729706Y-10290174D01*
X6729706Y-10290174D02*
X6701134Y-10290174D01*
X6882087Y-10290174D02*
X6863039Y-10280650D01*
X6863039Y-10280650D02*
X6853515Y-10261603D01*
X6853515Y-10261603D02*
X6853515Y-10090174D01*
X7034468Y-10280650D02*
X7015420Y-10290174D01*
X7015420Y-10290174D02*
X6977325Y-10290174D01*
X6977325Y-10290174D02*
X6958277Y-10280650D01*
X6958277Y-10280650D02*
X6948753Y-10261603D01*
X6948753Y-10261603D02*
X6948753Y-10185412D01*
X6948753Y-10185412D02*
X6958277Y-10166365D01*
X6958277Y-10166365D02*
X6977325Y-10156841D01*
X6977325Y-10156841D02*
X7015420Y-10156841D01*
X7015420Y-10156841D02*
X7034468Y-10166365D01*
X7034468Y-10166365D02*
X7043991Y-10185412D01*
X7043991Y-10185412D02*
X7043991Y-10204460D01*
X7043991Y-10204460D02*
X6948753Y-10223507D01*
X7120182Y-10280650D02*
X7139230Y-10290174D01*
X7139230Y-10290174D02*
X7177325Y-10290174D01*
X7177325Y-10290174D02*
X7196372Y-10280650D01*
X7196372Y-10280650D02*
X7205896Y-10261603D01*
X7205896Y-10261603D02*
X7205896Y-10252079D01*
X7205896Y-10252079D02*
X7196372Y-10233031D01*
X7196372Y-10233031D02*
X7177325Y-10223507D01*
X7177325Y-10223507D02*
X7148753Y-10223507D01*
X7148753Y-10223507D02*
X7129706Y-10213984D01*
X7129706Y-10213984D02*
X7120182Y-10194936D01*
X7120182Y-10194936D02*
X7120182Y-10185412D01*
X7120182Y-10185412D02*
X7129706Y-10166365D01*
X7129706Y-10166365D02*
X7148753Y-10156841D01*
X7148753Y-10156841D02*
X7177325Y-10156841D01*
X7177325Y-10156841D02*
X7196372Y-10166365D01*
X7272563Y-10366365D02*
X7282087Y-10356841D01*
X7282087Y-10356841D02*
X7301134Y-10328269D01*
X7301134Y-10328269D02*
X7310658Y-10309222D01*
X7310658Y-10309222D02*
X7320182Y-10280650D01*
X7320182Y-10280650D02*
X7329706Y-10233031D01*
X7329706Y-10233031D02*
X7329706Y-10194936D01*
X7329706Y-10194936D02*
X7320182Y-10147317D01*
X7320182Y-10147317D02*
X7310658Y-10118746D01*
X7310658Y-10118746D02*
X7301134Y-10099698D01*
X7301134Y-10099698D02*
X7282087Y-10071126D01*
X7282087Y-10071126D02*
X7272563Y-10061603D01*
M02*
