%TF.GenerationSoftware,KiCad,Pcbnew,8.0.8*%
%TF.CreationDate,2026-01-13T22:41:42+09:00*%
%TF.ProjectId,robomas_f103_bridge_NHK2026,726f626f-6d61-4735-9f66-3130335f6272,rev?*%
%TF.SameCoordinates,Original*%
%TF.FileFunction,Soldermask,Top*%
%TF.FilePolarity,Negative*%
%FSLAX46Y46*%
G04 Gerber Fmt 4.6, Leading zero omitted, Abs format (unit mm)*
G04 Created by KiCad (PCBNEW 8.0.8) date 2026-01-13 22:41:42*
%MOMM*%
%LPD*%
G01*
G04 APERTURE LIST*
G04 Aperture macros list*
%AMRoundRect*
0 Rectangle with rounded corners*
0 $1 Rounding radius*
0 $2 $3 $4 $5 $6 $7 $8 $9 X,Y pos of 4 corners*
0 Add a 4 corners polygon primitive as box body*
4,1,4,$2,$3,$4,$5,$6,$7,$8,$9,$2,$3,0*
0 Add four circle primitives for the rounded corners*
1,1,$1+$1,$2,$3*
1,1,$1+$1,$4,$5*
1,1,$1+$1,$6,$7*
1,1,$1+$1,$8,$9*
0 Add four rect primitives between the rounded corners*
20,1,$1+$1,$2,$3,$4,$5,0*
20,1,$1+$1,$4,$5,$6,$7,0*
20,1,$1+$1,$6,$7,$8,$9,0*
20,1,$1+$1,$8,$9,$2,$3,0*%
G04 Aperture macros list end*
%ADD10C,0.010000*%
%ADD11RoundRect,0.102000X-1.400000X0.500000X-1.400000X-0.500000X1.400000X-0.500000X1.400000X0.500000X0*%
%ADD12RoundRect,0.102000X-0.850000X0.300000X-0.850000X-0.300000X0.850000X-0.300000X0.850000X0.300000X0*%
%ADD13RoundRect,0.135000X-0.185000X0.135000X-0.185000X-0.135000X0.185000X-0.135000X0.185000X0.135000X0*%
%ADD14RoundRect,0.140000X0.140000X0.170000X-0.140000X0.170000X-0.140000X-0.170000X0.140000X-0.170000X0*%
%ADD15RoundRect,0.225000X0.225000X0.250000X-0.225000X0.250000X-0.225000X-0.250000X0.225000X-0.250000X0*%
%ADD16RoundRect,0.135000X0.135000X0.185000X-0.135000X0.185000X-0.135000X-0.185000X0.135000X-0.185000X0*%
%ADD17R,1.700000X1.700000*%
%ADD18O,1.700000X1.700000*%
%ADD19C,3.000000*%
%ADD20RoundRect,0.135000X0.185000X-0.135000X0.185000X0.135000X-0.185000X0.135000X-0.185000X-0.135000X0*%
%ADD21RoundRect,0.250000X-0.750000X-1.500000X0.750000X-1.500000X0.750000X1.500000X-0.750000X1.500000X0*%
%ADD22C,2.000000*%
%ADD23RoundRect,0.140000X-0.140000X-0.170000X0.140000X-0.170000X0.140000X0.170000X-0.140000X0.170000X0*%
%ADD24RoundRect,0.140000X0.170000X-0.140000X0.170000X0.140000X-0.170000X0.140000X-0.170000X-0.140000X0*%
%ADD25RoundRect,0.102000X0.900000X-0.675000X0.900000X0.675000X-0.900000X0.675000X-0.900000X-0.675000X0*%
%ADD26RoundRect,0.150000X0.512500X0.150000X-0.512500X0.150000X-0.512500X-0.150000X0.512500X-0.150000X0*%
%ADD27RoundRect,0.250000X-0.600000X-0.750000X0.600000X-0.750000X0.600000X0.750000X-0.600000X0.750000X0*%
%ADD28O,1.700000X2.000000*%
%ADD29RoundRect,0.218750X-0.256250X0.218750X-0.256250X-0.218750X0.256250X-0.218750X0.256250X0.218750X0*%
%ADD30RoundRect,0.140000X-0.170000X0.140000X-0.170000X-0.140000X0.170000X-0.140000X0.170000X0.140000X0*%
%ADD31RoundRect,0.243750X-0.243750X-0.456250X0.243750X-0.456250X0.243750X0.456250X-0.243750X0.456250X0*%
%ADD32RoundRect,0.102000X0.325000X-0.762500X0.325000X0.762500X-0.325000X0.762500X-0.325000X-0.762500X0*%
%ADD33RoundRect,0.135000X-0.135000X-0.185000X0.135000X-0.185000X0.135000X0.185000X-0.135000X0.185000X0*%
%ADD34C,3.251200*%
%ADD35C,1.397000*%
%ADD36C,2.133600*%
%ADD37C,0.650000*%
%ADD38RoundRect,0.102000X-0.501000X0.285000X-0.501000X-0.285000X0.501000X-0.285000X0.501000X0.285000X0*%
%ADD39RoundRect,0.102000X-0.501000X0.295000X-0.501000X-0.295000X0.501000X-0.295000X0.501000X0.295000X0*%
%ADD40RoundRect,0.102000X-0.575000X0.145000X-0.575000X-0.145000X0.575000X-0.145000X0.575000X0.145000X0*%
%ADD41RoundRect,0.102000X-0.505000X0.290000X-0.505000X-0.290000X0.505000X-0.290000X0.505000X0.290000X0*%
%ADD42RoundRect,0.102000X-0.500000X0.290000X-0.500000X-0.290000X0.500000X-0.290000X0.500000X0.290000X0*%
%ADD43O,2.354000X1.254000*%
%ADD44O,2.054000X1.254000*%
%ADD45R,2.000000X1.780000*%
%ADD46RoundRect,0.102000X0.762500X0.325000X-0.762500X0.325000X-0.762500X-0.325000X0.762500X-0.325000X0*%
%ADD47RoundRect,0.075000X-0.521491X0.415425X0.415425X-0.521491X0.521491X-0.415425X-0.415425X0.521491X0*%
%ADD48RoundRect,0.075000X-0.521491X-0.415425X-0.415425X-0.521491X0.521491X0.415425X0.415425X0.521491X0*%
%ADD49RoundRect,0.250000X0.750000X-0.600000X0.750000X0.600000X-0.750000X0.600000X-0.750000X-0.600000X0*%
%ADD50O,2.000000X1.700000*%
%ADD51RoundRect,0.218750X-0.218750X-0.256250X0.218750X-0.256250X0.218750X0.256250X-0.218750X0.256250X0*%
%ADD52RoundRect,0.102000X0.500000X0.375000X-0.500000X0.375000X-0.500000X-0.375000X0.500000X-0.375000X0*%
%ADD53RoundRect,0.218750X0.218750X0.256250X-0.218750X0.256250X-0.218750X-0.256250X0.218750X-0.256250X0*%
G04 APERTURE END LIST*
D10*
%TO.C,U5*%
X64598000Y-41266400D02*
X64604000Y-41266400D01*
X64610000Y-41267400D01*
X64615000Y-41269400D01*
X64621000Y-41270400D01*
X64626000Y-41272400D01*
X64632000Y-41275400D01*
X64637000Y-41277400D01*
X64642000Y-41280400D01*
X64647000Y-41283400D01*
X64652000Y-41286400D01*
X64656000Y-41290400D01*
X64661000Y-41293400D01*
X64665000Y-41297400D01*
X64669000Y-41301400D01*
X64672000Y-41306400D01*
X64676000Y-41310400D01*
X64679000Y-41315400D01*
X64682000Y-41320400D01*
X64685000Y-41325400D01*
X64687000Y-41330400D01*
X64690000Y-41336400D01*
X64692000Y-41341400D01*
X64693000Y-41347400D01*
X64695000Y-41352400D01*
X64696000Y-41358400D01*
X64696000Y-41364400D01*
X64697000Y-41369400D01*
X64697000Y-41375400D01*
X64697000Y-41735400D01*
X64697000Y-41741400D01*
X64696000Y-41746400D01*
X64696000Y-41752400D01*
X64695000Y-41758400D01*
X64693000Y-41763400D01*
X64692000Y-41769400D01*
X64690000Y-41774400D01*
X64687000Y-41780400D01*
X64685000Y-41785400D01*
X64682000Y-41790400D01*
X64679000Y-41795400D01*
X64676000Y-41800400D01*
X64672000Y-41804400D01*
X64669000Y-41809400D01*
X64665000Y-41813400D01*
X64661000Y-41817400D01*
X64656000Y-41820400D01*
X64652000Y-41824400D01*
X64647000Y-41827400D01*
X64642000Y-41830400D01*
X64637000Y-41833400D01*
X64632000Y-41835400D01*
X64626000Y-41838400D01*
X64621000Y-41840400D01*
X64615000Y-41841400D01*
X64610000Y-41843400D01*
X64604000Y-41844400D01*
X64598000Y-41844400D01*
X64593000Y-41845400D01*
X64587000Y-41845400D01*
X63337000Y-41845400D01*
X63331000Y-41845400D01*
X63326000Y-41844400D01*
X63320000Y-41844400D01*
X63314000Y-41843400D01*
X63309000Y-41841400D01*
X63303000Y-41840400D01*
X63298000Y-41838400D01*
X63292000Y-41835400D01*
X63287000Y-41833400D01*
X63282000Y-41830400D01*
X63277000Y-41827400D01*
X63272000Y-41824400D01*
X63268000Y-41820400D01*
X63263000Y-41817400D01*
X63259000Y-41813400D01*
X63255000Y-41809400D01*
X63252000Y-41804400D01*
X63248000Y-41800400D01*
X63245000Y-41795400D01*
X63242000Y-41790400D01*
X63239000Y-41785400D01*
X63237000Y-41780400D01*
X63234000Y-41774400D01*
X63232000Y-41769400D01*
X63231000Y-41763400D01*
X63229000Y-41758400D01*
X63228000Y-41752400D01*
X63228000Y-41746400D01*
X63227000Y-41741400D01*
X63227000Y-41735400D01*
X63227000Y-41375400D01*
X63227000Y-41369400D01*
X63228000Y-41364400D01*
X63228000Y-41358400D01*
X63229000Y-41352400D01*
X63231000Y-41347400D01*
X63232000Y-41341400D01*
X63234000Y-41336400D01*
X63237000Y-41330400D01*
X63239000Y-41325400D01*
X63242000Y-41320400D01*
X63245000Y-41315400D01*
X63248000Y-41310400D01*
X63252000Y-41306400D01*
X63255000Y-41301400D01*
X63259000Y-41297400D01*
X63263000Y-41293400D01*
X63268000Y-41290400D01*
X63272000Y-41286400D01*
X63277000Y-41283400D01*
X63282000Y-41280400D01*
X63287000Y-41277400D01*
X63292000Y-41275400D01*
X63298000Y-41272400D01*
X63303000Y-41270400D01*
X63309000Y-41269400D01*
X63314000Y-41267400D01*
X63320000Y-41266400D01*
X63326000Y-41266400D01*
X63331000Y-41265400D01*
X63337000Y-41265400D01*
X64587000Y-41265400D01*
X64593000Y-41265400D01*
X64598000Y-41266400D01*
G36*
X64598000Y-41266400D02*
G01*
X64604000Y-41266400D01*
X64610000Y-41267400D01*
X64615000Y-41269400D01*
X64621000Y-41270400D01*
X64626000Y-41272400D01*
X64632000Y-41275400D01*
X64637000Y-41277400D01*
X64642000Y-41280400D01*
X64647000Y-41283400D01*
X64652000Y-41286400D01*
X64656000Y-41290400D01*
X64661000Y-41293400D01*
X64665000Y-41297400D01*
X64669000Y-41301400D01*
X64672000Y-41306400D01*
X64676000Y-41310400D01*
X64679000Y-41315400D01*
X64682000Y-41320400D01*
X64685000Y-41325400D01*
X64687000Y-41330400D01*
X64690000Y-41336400D01*
X64692000Y-41341400D01*
X64693000Y-41347400D01*
X64695000Y-41352400D01*
X64696000Y-41358400D01*
X64696000Y-41364400D01*
X64697000Y-41369400D01*
X64697000Y-41375400D01*
X64697000Y-41735400D01*
X64697000Y-41741400D01*
X64696000Y-41746400D01*
X64696000Y-41752400D01*
X64695000Y-41758400D01*
X64693000Y-41763400D01*
X64692000Y-41769400D01*
X64690000Y-41774400D01*
X64687000Y-41780400D01*
X64685000Y-41785400D01*
X64682000Y-41790400D01*
X64679000Y-41795400D01*
X64676000Y-41800400D01*
X64672000Y-41804400D01*
X64669000Y-41809400D01*
X64665000Y-41813400D01*
X64661000Y-41817400D01*
X64656000Y-41820400D01*
X64652000Y-41824400D01*
X64647000Y-41827400D01*
X64642000Y-41830400D01*
X64637000Y-41833400D01*
X64632000Y-41835400D01*
X64626000Y-41838400D01*
X64621000Y-41840400D01*
X64615000Y-41841400D01*
X64610000Y-41843400D01*
X64604000Y-41844400D01*
X64598000Y-41844400D01*
X64593000Y-41845400D01*
X64587000Y-41845400D01*
X63337000Y-41845400D01*
X63331000Y-41845400D01*
X63326000Y-41844400D01*
X63320000Y-41844400D01*
X63314000Y-41843400D01*
X63309000Y-41841400D01*
X63303000Y-41840400D01*
X63298000Y-41838400D01*
X63292000Y-41835400D01*
X63287000Y-41833400D01*
X63282000Y-41830400D01*
X63277000Y-41827400D01*
X63272000Y-41824400D01*
X63268000Y-41820400D01*
X63263000Y-41817400D01*
X63259000Y-41813400D01*
X63255000Y-41809400D01*
X63252000Y-41804400D01*
X63248000Y-41800400D01*
X63245000Y-41795400D01*
X63242000Y-41790400D01*
X63239000Y-41785400D01*
X63237000Y-41780400D01*
X63234000Y-41774400D01*
X63232000Y-41769400D01*
X63231000Y-41763400D01*
X63229000Y-41758400D01*
X63228000Y-41752400D01*
X63228000Y-41746400D01*
X63227000Y-41741400D01*
X63227000Y-41735400D01*
X63227000Y-41375400D01*
X63227000Y-41369400D01*
X63228000Y-41364400D01*
X63228000Y-41358400D01*
X63229000Y-41352400D01*
X63231000Y-41347400D01*
X63232000Y-41341400D01*
X63234000Y-41336400D01*
X63237000Y-41330400D01*
X63239000Y-41325400D01*
X63242000Y-41320400D01*
X63245000Y-41315400D01*
X63248000Y-41310400D01*
X63252000Y-41306400D01*
X63255000Y-41301400D01*
X63259000Y-41297400D01*
X63263000Y-41293400D01*
X63268000Y-41290400D01*
X63272000Y-41286400D01*
X63277000Y-41283400D01*
X63282000Y-41280400D01*
X63287000Y-41277400D01*
X63292000Y-41275400D01*
X63298000Y-41272400D01*
X63303000Y-41270400D01*
X63309000Y-41269400D01*
X63314000Y-41267400D01*
X63320000Y-41266400D01*
X63326000Y-41266400D01*
X63331000Y-41265400D01*
X63337000Y-41265400D01*
X64587000Y-41265400D01*
X64593000Y-41265400D01*
X64598000Y-41266400D01*
G37*
X64598000Y-41916400D02*
X64604000Y-41916400D01*
X64610000Y-41917400D01*
X64615000Y-41919400D01*
X64621000Y-41920400D01*
X64626000Y-41922400D01*
X64632000Y-41925400D01*
X64637000Y-41927400D01*
X64642000Y-41930400D01*
X64647000Y-41933400D01*
X64652000Y-41936400D01*
X64656000Y-41940400D01*
X64661000Y-41943400D01*
X64665000Y-41947400D01*
X64669000Y-41951400D01*
X64672000Y-41956400D01*
X64676000Y-41960400D01*
X64679000Y-41965400D01*
X64682000Y-41970400D01*
X64685000Y-41975400D01*
X64687000Y-41980400D01*
X64690000Y-41986400D01*
X64692000Y-41991400D01*
X64693000Y-41997400D01*
X64695000Y-42002400D01*
X64696000Y-42008400D01*
X64696000Y-42014400D01*
X64697000Y-42019400D01*
X64697000Y-42025400D01*
X64697000Y-42385400D01*
X64697000Y-42391400D01*
X64696000Y-42396400D01*
X64696000Y-42402400D01*
X64695000Y-42408400D01*
X64693000Y-42413400D01*
X64692000Y-42419400D01*
X64690000Y-42424400D01*
X64687000Y-42430400D01*
X64685000Y-42435400D01*
X64682000Y-42440400D01*
X64679000Y-42445400D01*
X64676000Y-42450400D01*
X64672000Y-42454400D01*
X64669000Y-42459400D01*
X64665000Y-42463400D01*
X64661000Y-42467400D01*
X64656000Y-42470400D01*
X64652000Y-42474400D01*
X64647000Y-42477400D01*
X64642000Y-42480400D01*
X64637000Y-42483400D01*
X64632000Y-42485400D01*
X64626000Y-42488400D01*
X64621000Y-42490400D01*
X64615000Y-42491400D01*
X64610000Y-42493400D01*
X64604000Y-42494400D01*
X64598000Y-42494400D01*
X64593000Y-42495400D01*
X64587000Y-42495400D01*
X63337000Y-42495400D01*
X63331000Y-42495400D01*
X63326000Y-42494400D01*
X63320000Y-42494400D01*
X63314000Y-42493400D01*
X63309000Y-42491400D01*
X63303000Y-42490400D01*
X63298000Y-42488400D01*
X63292000Y-42485400D01*
X63287000Y-42483400D01*
X63282000Y-42480400D01*
X63277000Y-42477400D01*
X63272000Y-42474400D01*
X63268000Y-42470400D01*
X63263000Y-42467400D01*
X63259000Y-42463400D01*
X63255000Y-42459400D01*
X63252000Y-42454400D01*
X63248000Y-42450400D01*
X63245000Y-42445400D01*
X63242000Y-42440400D01*
X63239000Y-42435400D01*
X63237000Y-42430400D01*
X63234000Y-42424400D01*
X63232000Y-42419400D01*
X63231000Y-42413400D01*
X63229000Y-42408400D01*
X63228000Y-42402400D01*
X63228000Y-42396400D01*
X63227000Y-42391400D01*
X63227000Y-42385400D01*
X63227000Y-42025400D01*
X63227000Y-42019400D01*
X63228000Y-42014400D01*
X63228000Y-42008400D01*
X63229000Y-42002400D01*
X63231000Y-41997400D01*
X63232000Y-41991400D01*
X63234000Y-41986400D01*
X63237000Y-41980400D01*
X63239000Y-41975400D01*
X63242000Y-41970400D01*
X63245000Y-41965400D01*
X63248000Y-41960400D01*
X63252000Y-41956400D01*
X63255000Y-41951400D01*
X63259000Y-41947400D01*
X63263000Y-41943400D01*
X63268000Y-41940400D01*
X63272000Y-41936400D01*
X63277000Y-41933400D01*
X63282000Y-41930400D01*
X63287000Y-41927400D01*
X63292000Y-41925400D01*
X63298000Y-41922400D01*
X63303000Y-41920400D01*
X63309000Y-41919400D01*
X63314000Y-41917400D01*
X63320000Y-41916400D01*
X63326000Y-41916400D01*
X63331000Y-41915400D01*
X63337000Y-41915400D01*
X64587000Y-41915400D01*
X64593000Y-41915400D01*
X64598000Y-41916400D01*
G36*
X64598000Y-41916400D02*
G01*
X64604000Y-41916400D01*
X64610000Y-41917400D01*
X64615000Y-41919400D01*
X64621000Y-41920400D01*
X64626000Y-41922400D01*
X64632000Y-41925400D01*
X64637000Y-41927400D01*
X64642000Y-41930400D01*
X64647000Y-41933400D01*
X64652000Y-41936400D01*
X64656000Y-41940400D01*
X64661000Y-41943400D01*
X64665000Y-41947400D01*
X64669000Y-41951400D01*
X64672000Y-41956400D01*
X64676000Y-41960400D01*
X64679000Y-41965400D01*
X64682000Y-41970400D01*
X64685000Y-41975400D01*
X64687000Y-41980400D01*
X64690000Y-41986400D01*
X64692000Y-41991400D01*
X64693000Y-41997400D01*
X64695000Y-42002400D01*
X64696000Y-42008400D01*
X64696000Y-42014400D01*
X64697000Y-42019400D01*
X64697000Y-42025400D01*
X64697000Y-42385400D01*
X64697000Y-42391400D01*
X64696000Y-42396400D01*
X64696000Y-42402400D01*
X64695000Y-42408400D01*
X64693000Y-42413400D01*
X64692000Y-42419400D01*
X64690000Y-42424400D01*
X64687000Y-42430400D01*
X64685000Y-42435400D01*
X64682000Y-42440400D01*
X64679000Y-42445400D01*
X64676000Y-42450400D01*
X64672000Y-42454400D01*
X64669000Y-42459400D01*
X64665000Y-42463400D01*
X64661000Y-42467400D01*
X64656000Y-42470400D01*
X64652000Y-42474400D01*
X64647000Y-42477400D01*
X64642000Y-42480400D01*
X64637000Y-42483400D01*
X64632000Y-42485400D01*
X64626000Y-42488400D01*
X64621000Y-42490400D01*
X64615000Y-42491400D01*
X64610000Y-42493400D01*
X64604000Y-42494400D01*
X64598000Y-42494400D01*
X64593000Y-42495400D01*
X64587000Y-42495400D01*
X63337000Y-42495400D01*
X63331000Y-42495400D01*
X63326000Y-42494400D01*
X63320000Y-42494400D01*
X63314000Y-42493400D01*
X63309000Y-42491400D01*
X63303000Y-42490400D01*
X63298000Y-42488400D01*
X63292000Y-42485400D01*
X63287000Y-42483400D01*
X63282000Y-42480400D01*
X63277000Y-42477400D01*
X63272000Y-42474400D01*
X63268000Y-42470400D01*
X63263000Y-42467400D01*
X63259000Y-42463400D01*
X63255000Y-42459400D01*
X63252000Y-42454400D01*
X63248000Y-42450400D01*
X63245000Y-42445400D01*
X63242000Y-42440400D01*
X63239000Y-42435400D01*
X63237000Y-42430400D01*
X63234000Y-42424400D01*
X63232000Y-42419400D01*
X63231000Y-42413400D01*
X63229000Y-42408400D01*
X63228000Y-42402400D01*
X63228000Y-42396400D01*
X63227000Y-42391400D01*
X63227000Y-42385400D01*
X63227000Y-42025400D01*
X63227000Y-42019400D01*
X63228000Y-42014400D01*
X63228000Y-42008400D01*
X63229000Y-42002400D01*
X63231000Y-41997400D01*
X63232000Y-41991400D01*
X63234000Y-41986400D01*
X63237000Y-41980400D01*
X63239000Y-41975400D01*
X63242000Y-41970400D01*
X63245000Y-41965400D01*
X63248000Y-41960400D01*
X63252000Y-41956400D01*
X63255000Y-41951400D01*
X63259000Y-41947400D01*
X63263000Y-41943400D01*
X63268000Y-41940400D01*
X63272000Y-41936400D01*
X63277000Y-41933400D01*
X63282000Y-41930400D01*
X63287000Y-41927400D01*
X63292000Y-41925400D01*
X63298000Y-41922400D01*
X63303000Y-41920400D01*
X63309000Y-41919400D01*
X63314000Y-41917400D01*
X63320000Y-41916400D01*
X63326000Y-41916400D01*
X63331000Y-41915400D01*
X63337000Y-41915400D01*
X64587000Y-41915400D01*
X64593000Y-41915400D01*
X64598000Y-41916400D01*
G37*
X64598000Y-42566400D02*
X64604000Y-42566400D01*
X64610000Y-42567400D01*
X64615000Y-42569400D01*
X64621000Y-42570400D01*
X64626000Y-42572400D01*
X64632000Y-42575400D01*
X64637000Y-42577400D01*
X64642000Y-42580400D01*
X64647000Y-42583400D01*
X64652000Y-42586400D01*
X64656000Y-42590400D01*
X64661000Y-42593400D01*
X64665000Y-42597400D01*
X64669000Y-42601400D01*
X64672000Y-42606400D01*
X64676000Y-42610400D01*
X64679000Y-42615400D01*
X64682000Y-42620400D01*
X64685000Y-42625400D01*
X64687000Y-42630400D01*
X64690000Y-42636400D01*
X64692000Y-42641400D01*
X64693000Y-42647400D01*
X64695000Y-42652400D01*
X64696000Y-42658400D01*
X64696000Y-42664400D01*
X64697000Y-42669400D01*
X64697000Y-42675400D01*
X64697000Y-43035400D01*
X64697000Y-43041400D01*
X64696000Y-43046400D01*
X64696000Y-43052400D01*
X64695000Y-43058400D01*
X64693000Y-43063400D01*
X64692000Y-43069400D01*
X64690000Y-43074400D01*
X64687000Y-43080400D01*
X64685000Y-43085400D01*
X64682000Y-43090400D01*
X64679000Y-43095400D01*
X64676000Y-43100400D01*
X64672000Y-43104400D01*
X64669000Y-43109400D01*
X64665000Y-43113400D01*
X64661000Y-43117400D01*
X64656000Y-43120400D01*
X64652000Y-43124400D01*
X64647000Y-43127400D01*
X64642000Y-43130400D01*
X64637000Y-43133400D01*
X64632000Y-43135400D01*
X64626000Y-43138400D01*
X64621000Y-43140400D01*
X64615000Y-43141400D01*
X64610000Y-43143400D01*
X64604000Y-43144400D01*
X64598000Y-43144400D01*
X64593000Y-43145400D01*
X64587000Y-43145400D01*
X63337000Y-43145400D01*
X63331000Y-43145400D01*
X63326000Y-43144400D01*
X63320000Y-43144400D01*
X63314000Y-43143400D01*
X63309000Y-43141400D01*
X63303000Y-43140400D01*
X63298000Y-43138400D01*
X63292000Y-43135400D01*
X63287000Y-43133400D01*
X63282000Y-43130400D01*
X63277000Y-43127400D01*
X63272000Y-43124400D01*
X63268000Y-43120400D01*
X63263000Y-43117400D01*
X63259000Y-43113400D01*
X63255000Y-43109400D01*
X63252000Y-43104400D01*
X63248000Y-43100400D01*
X63245000Y-43095400D01*
X63242000Y-43090400D01*
X63239000Y-43085400D01*
X63237000Y-43080400D01*
X63234000Y-43074400D01*
X63232000Y-43069400D01*
X63231000Y-43063400D01*
X63229000Y-43058400D01*
X63228000Y-43052400D01*
X63228000Y-43046400D01*
X63227000Y-43041400D01*
X63227000Y-43035400D01*
X63227000Y-42675400D01*
X63227000Y-42669400D01*
X63228000Y-42664400D01*
X63228000Y-42658400D01*
X63229000Y-42652400D01*
X63231000Y-42647400D01*
X63232000Y-42641400D01*
X63234000Y-42636400D01*
X63237000Y-42630400D01*
X63239000Y-42625400D01*
X63242000Y-42620400D01*
X63245000Y-42615400D01*
X63248000Y-42610400D01*
X63252000Y-42606400D01*
X63255000Y-42601400D01*
X63259000Y-42597400D01*
X63263000Y-42593400D01*
X63268000Y-42590400D01*
X63272000Y-42586400D01*
X63277000Y-42583400D01*
X63282000Y-42580400D01*
X63287000Y-42577400D01*
X63292000Y-42575400D01*
X63298000Y-42572400D01*
X63303000Y-42570400D01*
X63309000Y-42569400D01*
X63314000Y-42567400D01*
X63320000Y-42566400D01*
X63326000Y-42566400D01*
X63331000Y-42565400D01*
X63337000Y-42565400D01*
X64587000Y-42565400D01*
X64593000Y-42565400D01*
X64598000Y-42566400D01*
G36*
X64598000Y-42566400D02*
G01*
X64604000Y-42566400D01*
X64610000Y-42567400D01*
X64615000Y-42569400D01*
X64621000Y-42570400D01*
X64626000Y-42572400D01*
X64632000Y-42575400D01*
X64637000Y-42577400D01*
X64642000Y-42580400D01*
X64647000Y-42583400D01*
X64652000Y-42586400D01*
X64656000Y-42590400D01*
X64661000Y-42593400D01*
X64665000Y-42597400D01*
X64669000Y-42601400D01*
X64672000Y-42606400D01*
X64676000Y-42610400D01*
X64679000Y-42615400D01*
X64682000Y-42620400D01*
X64685000Y-42625400D01*
X64687000Y-42630400D01*
X64690000Y-42636400D01*
X64692000Y-42641400D01*
X64693000Y-42647400D01*
X64695000Y-42652400D01*
X64696000Y-42658400D01*
X64696000Y-42664400D01*
X64697000Y-42669400D01*
X64697000Y-42675400D01*
X64697000Y-43035400D01*
X64697000Y-43041400D01*
X64696000Y-43046400D01*
X64696000Y-43052400D01*
X64695000Y-43058400D01*
X64693000Y-43063400D01*
X64692000Y-43069400D01*
X64690000Y-43074400D01*
X64687000Y-43080400D01*
X64685000Y-43085400D01*
X64682000Y-43090400D01*
X64679000Y-43095400D01*
X64676000Y-43100400D01*
X64672000Y-43104400D01*
X64669000Y-43109400D01*
X64665000Y-43113400D01*
X64661000Y-43117400D01*
X64656000Y-43120400D01*
X64652000Y-43124400D01*
X64647000Y-43127400D01*
X64642000Y-43130400D01*
X64637000Y-43133400D01*
X64632000Y-43135400D01*
X64626000Y-43138400D01*
X64621000Y-43140400D01*
X64615000Y-43141400D01*
X64610000Y-43143400D01*
X64604000Y-43144400D01*
X64598000Y-43144400D01*
X64593000Y-43145400D01*
X64587000Y-43145400D01*
X63337000Y-43145400D01*
X63331000Y-43145400D01*
X63326000Y-43144400D01*
X63320000Y-43144400D01*
X63314000Y-43143400D01*
X63309000Y-43141400D01*
X63303000Y-43140400D01*
X63298000Y-43138400D01*
X63292000Y-43135400D01*
X63287000Y-43133400D01*
X63282000Y-43130400D01*
X63277000Y-43127400D01*
X63272000Y-43124400D01*
X63268000Y-43120400D01*
X63263000Y-43117400D01*
X63259000Y-43113400D01*
X63255000Y-43109400D01*
X63252000Y-43104400D01*
X63248000Y-43100400D01*
X63245000Y-43095400D01*
X63242000Y-43090400D01*
X63239000Y-43085400D01*
X63237000Y-43080400D01*
X63234000Y-43074400D01*
X63232000Y-43069400D01*
X63231000Y-43063400D01*
X63229000Y-43058400D01*
X63228000Y-43052400D01*
X63228000Y-43046400D01*
X63227000Y-43041400D01*
X63227000Y-43035400D01*
X63227000Y-42675400D01*
X63227000Y-42669400D01*
X63228000Y-42664400D01*
X63228000Y-42658400D01*
X63229000Y-42652400D01*
X63231000Y-42647400D01*
X63232000Y-42641400D01*
X63234000Y-42636400D01*
X63237000Y-42630400D01*
X63239000Y-42625400D01*
X63242000Y-42620400D01*
X63245000Y-42615400D01*
X63248000Y-42610400D01*
X63252000Y-42606400D01*
X63255000Y-42601400D01*
X63259000Y-42597400D01*
X63263000Y-42593400D01*
X63268000Y-42590400D01*
X63272000Y-42586400D01*
X63277000Y-42583400D01*
X63282000Y-42580400D01*
X63287000Y-42577400D01*
X63292000Y-42575400D01*
X63298000Y-42572400D01*
X63303000Y-42570400D01*
X63309000Y-42569400D01*
X63314000Y-42567400D01*
X63320000Y-42566400D01*
X63326000Y-42566400D01*
X63331000Y-42565400D01*
X63337000Y-42565400D01*
X64587000Y-42565400D01*
X64593000Y-42565400D01*
X64598000Y-42566400D01*
G37*
X64598000Y-43216400D02*
X64604000Y-43216400D01*
X64610000Y-43217400D01*
X64615000Y-43219400D01*
X64621000Y-43220400D01*
X64626000Y-43222400D01*
X64632000Y-43225400D01*
X64637000Y-43227400D01*
X64642000Y-43230400D01*
X64647000Y-43233400D01*
X64652000Y-43236400D01*
X64656000Y-43240400D01*
X64661000Y-43243400D01*
X64665000Y-43247400D01*
X64669000Y-43251400D01*
X64672000Y-43256400D01*
X64676000Y-43260400D01*
X64679000Y-43265400D01*
X64682000Y-43270400D01*
X64685000Y-43275400D01*
X64687000Y-43280400D01*
X64690000Y-43286400D01*
X64692000Y-43291400D01*
X64693000Y-43297400D01*
X64695000Y-43302400D01*
X64696000Y-43308400D01*
X64696000Y-43314400D01*
X64697000Y-43319400D01*
X64697000Y-43325400D01*
X64697000Y-43685400D01*
X64697000Y-43691400D01*
X64696000Y-43696400D01*
X64696000Y-43702400D01*
X64695000Y-43708400D01*
X64693000Y-43713400D01*
X64692000Y-43719400D01*
X64690000Y-43724400D01*
X64687000Y-43730400D01*
X64685000Y-43735400D01*
X64682000Y-43740400D01*
X64679000Y-43745400D01*
X64676000Y-43750400D01*
X64672000Y-43754400D01*
X64669000Y-43759400D01*
X64665000Y-43763400D01*
X64661000Y-43767400D01*
X64656000Y-43770400D01*
X64652000Y-43774400D01*
X64647000Y-43777400D01*
X64642000Y-43780400D01*
X64637000Y-43783400D01*
X64632000Y-43785400D01*
X64626000Y-43788400D01*
X64621000Y-43790400D01*
X64615000Y-43791400D01*
X64610000Y-43793400D01*
X64604000Y-43794400D01*
X64598000Y-43794400D01*
X64593000Y-43795400D01*
X64587000Y-43795400D01*
X63337000Y-43795400D01*
X63331000Y-43795400D01*
X63326000Y-43794400D01*
X63320000Y-43794400D01*
X63314000Y-43793400D01*
X63309000Y-43791400D01*
X63303000Y-43790400D01*
X63298000Y-43788400D01*
X63292000Y-43785400D01*
X63287000Y-43783400D01*
X63282000Y-43780400D01*
X63277000Y-43777400D01*
X63272000Y-43774400D01*
X63268000Y-43770400D01*
X63263000Y-43767400D01*
X63259000Y-43763400D01*
X63255000Y-43759400D01*
X63252000Y-43754400D01*
X63248000Y-43750400D01*
X63245000Y-43745400D01*
X63242000Y-43740400D01*
X63239000Y-43735400D01*
X63237000Y-43730400D01*
X63234000Y-43724400D01*
X63232000Y-43719400D01*
X63231000Y-43713400D01*
X63229000Y-43708400D01*
X63228000Y-43702400D01*
X63228000Y-43696400D01*
X63227000Y-43691400D01*
X63227000Y-43685400D01*
X63227000Y-43325400D01*
X63227000Y-43319400D01*
X63228000Y-43314400D01*
X63228000Y-43308400D01*
X63229000Y-43302400D01*
X63231000Y-43297400D01*
X63232000Y-43291400D01*
X63234000Y-43286400D01*
X63237000Y-43280400D01*
X63239000Y-43275400D01*
X63242000Y-43270400D01*
X63245000Y-43265400D01*
X63248000Y-43260400D01*
X63252000Y-43256400D01*
X63255000Y-43251400D01*
X63259000Y-43247400D01*
X63263000Y-43243400D01*
X63268000Y-43240400D01*
X63272000Y-43236400D01*
X63277000Y-43233400D01*
X63282000Y-43230400D01*
X63287000Y-43227400D01*
X63292000Y-43225400D01*
X63298000Y-43222400D01*
X63303000Y-43220400D01*
X63309000Y-43219400D01*
X63314000Y-43217400D01*
X63320000Y-43216400D01*
X63326000Y-43216400D01*
X63331000Y-43215400D01*
X63337000Y-43215400D01*
X64587000Y-43215400D01*
X64593000Y-43215400D01*
X64598000Y-43216400D01*
G36*
X64598000Y-43216400D02*
G01*
X64604000Y-43216400D01*
X64610000Y-43217400D01*
X64615000Y-43219400D01*
X64621000Y-43220400D01*
X64626000Y-43222400D01*
X64632000Y-43225400D01*
X64637000Y-43227400D01*
X64642000Y-43230400D01*
X64647000Y-43233400D01*
X64652000Y-43236400D01*
X64656000Y-43240400D01*
X64661000Y-43243400D01*
X64665000Y-43247400D01*
X64669000Y-43251400D01*
X64672000Y-43256400D01*
X64676000Y-43260400D01*
X64679000Y-43265400D01*
X64682000Y-43270400D01*
X64685000Y-43275400D01*
X64687000Y-43280400D01*
X64690000Y-43286400D01*
X64692000Y-43291400D01*
X64693000Y-43297400D01*
X64695000Y-43302400D01*
X64696000Y-43308400D01*
X64696000Y-43314400D01*
X64697000Y-43319400D01*
X64697000Y-43325400D01*
X64697000Y-43685400D01*
X64697000Y-43691400D01*
X64696000Y-43696400D01*
X64696000Y-43702400D01*
X64695000Y-43708400D01*
X64693000Y-43713400D01*
X64692000Y-43719400D01*
X64690000Y-43724400D01*
X64687000Y-43730400D01*
X64685000Y-43735400D01*
X64682000Y-43740400D01*
X64679000Y-43745400D01*
X64676000Y-43750400D01*
X64672000Y-43754400D01*
X64669000Y-43759400D01*
X64665000Y-43763400D01*
X64661000Y-43767400D01*
X64656000Y-43770400D01*
X64652000Y-43774400D01*
X64647000Y-43777400D01*
X64642000Y-43780400D01*
X64637000Y-43783400D01*
X64632000Y-43785400D01*
X64626000Y-43788400D01*
X64621000Y-43790400D01*
X64615000Y-43791400D01*
X64610000Y-43793400D01*
X64604000Y-43794400D01*
X64598000Y-43794400D01*
X64593000Y-43795400D01*
X64587000Y-43795400D01*
X63337000Y-43795400D01*
X63331000Y-43795400D01*
X63326000Y-43794400D01*
X63320000Y-43794400D01*
X63314000Y-43793400D01*
X63309000Y-43791400D01*
X63303000Y-43790400D01*
X63298000Y-43788400D01*
X63292000Y-43785400D01*
X63287000Y-43783400D01*
X63282000Y-43780400D01*
X63277000Y-43777400D01*
X63272000Y-43774400D01*
X63268000Y-43770400D01*
X63263000Y-43767400D01*
X63259000Y-43763400D01*
X63255000Y-43759400D01*
X63252000Y-43754400D01*
X63248000Y-43750400D01*
X63245000Y-43745400D01*
X63242000Y-43740400D01*
X63239000Y-43735400D01*
X63237000Y-43730400D01*
X63234000Y-43724400D01*
X63232000Y-43719400D01*
X63231000Y-43713400D01*
X63229000Y-43708400D01*
X63228000Y-43702400D01*
X63228000Y-43696400D01*
X63227000Y-43691400D01*
X63227000Y-43685400D01*
X63227000Y-43325400D01*
X63227000Y-43319400D01*
X63228000Y-43314400D01*
X63228000Y-43308400D01*
X63229000Y-43302400D01*
X63231000Y-43297400D01*
X63232000Y-43291400D01*
X63234000Y-43286400D01*
X63237000Y-43280400D01*
X63239000Y-43275400D01*
X63242000Y-43270400D01*
X63245000Y-43265400D01*
X63248000Y-43260400D01*
X63252000Y-43256400D01*
X63255000Y-43251400D01*
X63259000Y-43247400D01*
X63263000Y-43243400D01*
X63268000Y-43240400D01*
X63272000Y-43236400D01*
X63277000Y-43233400D01*
X63282000Y-43230400D01*
X63287000Y-43227400D01*
X63292000Y-43225400D01*
X63298000Y-43222400D01*
X63303000Y-43220400D01*
X63309000Y-43219400D01*
X63314000Y-43217400D01*
X63320000Y-43216400D01*
X63326000Y-43216400D01*
X63331000Y-43215400D01*
X63337000Y-43215400D01*
X64587000Y-43215400D01*
X64593000Y-43215400D01*
X64598000Y-43216400D01*
G37*
X66898000Y-41266400D02*
X66904000Y-41266400D01*
X66910000Y-41267400D01*
X66915000Y-41269400D01*
X66921000Y-41270400D01*
X66926000Y-41272400D01*
X66932000Y-41275400D01*
X66937000Y-41277400D01*
X66942000Y-41280400D01*
X66947000Y-41283400D01*
X66952000Y-41286400D01*
X66956000Y-41290400D01*
X66961000Y-41293400D01*
X66965000Y-41297400D01*
X66969000Y-41301400D01*
X66972000Y-41306400D01*
X66976000Y-41310400D01*
X66979000Y-41315400D01*
X66982000Y-41320400D01*
X66985000Y-41325400D01*
X66987000Y-41330400D01*
X66990000Y-41336400D01*
X66992000Y-41341400D01*
X66993000Y-41347400D01*
X66995000Y-41352400D01*
X66996000Y-41358400D01*
X66996000Y-41364400D01*
X66997000Y-41369400D01*
X66997000Y-41375400D01*
X66997000Y-41735400D01*
X66997000Y-41741400D01*
X66996000Y-41746400D01*
X66996000Y-41752400D01*
X66995000Y-41758400D01*
X66993000Y-41763400D01*
X66992000Y-41769400D01*
X66990000Y-41774400D01*
X66987000Y-41780400D01*
X66985000Y-41785400D01*
X66982000Y-41790400D01*
X66979000Y-41795400D01*
X66976000Y-41800400D01*
X66972000Y-41804400D01*
X66969000Y-41809400D01*
X66965000Y-41813400D01*
X66961000Y-41817400D01*
X66956000Y-41820400D01*
X66952000Y-41824400D01*
X66947000Y-41827400D01*
X66942000Y-41830400D01*
X66937000Y-41833400D01*
X66932000Y-41835400D01*
X66926000Y-41838400D01*
X66921000Y-41840400D01*
X66915000Y-41841400D01*
X66910000Y-41843400D01*
X66904000Y-41844400D01*
X66898000Y-41844400D01*
X66893000Y-41845400D01*
X66887000Y-41845400D01*
X65637000Y-41845400D01*
X65631000Y-41845400D01*
X65626000Y-41844400D01*
X65620000Y-41844400D01*
X65614000Y-41843400D01*
X65609000Y-41841400D01*
X65603000Y-41840400D01*
X65598000Y-41838400D01*
X65592000Y-41835400D01*
X65587000Y-41833400D01*
X65582000Y-41830400D01*
X65577000Y-41827400D01*
X65572000Y-41824400D01*
X65568000Y-41820400D01*
X65563000Y-41817400D01*
X65559000Y-41813400D01*
X65555000Y-41809400D01*
X65552000Y-41804400D01*
X65548000Y-41800400D01*
X65545000Y-41795400D01*
X65542000Y-41790400D01*
X65539000Y-41785400D01*
X65537000Y-41780400D01*
X65534000Y-41774400D01*
X65532000Y-41769400D01*
X65531000Y-41763400D01*
X65529000Y-41758400D01*
X65528000Y-41752400D01*
X65528000Y-41746400D01*
X65527000Y-41741400D01*
X65527000Y-41735400D01*
X65527000Y-41375400D01*
X65527000Y-41369400D01*
X65528000Y-41364400D01*
X65528000Y-41358400D01*
X65529000Y-41352400D01*
X65531000Y-41347400D01*
X65532000Y-41341400D01*
X65534000Y-41336400D01*
X65537000Y-41330400D01*
X65539000Y-41325400D01*
X65542000Y-41320400D01*
X65545000Y-41315400D01*
X65548000Y-41310400D01*
X65552000Y-41306400D01*
X65555000Y-41301400D01*
X65559000Y-41297400D01*
X65563000Y-41293400D01*
X65568000Y-41290400D01*
X65572000Y-41286400D01*
X65577000Y-41283400D01*
X65582000Y-41280400D01*
X65587000Y-41277400D01*
X65592000Y-41275400D01*
X65598000Y-41272400D01*
X65603000Y-41270400D01*
X65609000Y-41269400D01*
X65614000Y-41267400D01*
X65620000Y-41266400D01*
X65626000Y-41266400D01*
X65631000Y-41265400D01*
X65637000Y-41265400D01*
X66887000Y-41265400D01*
X66893000Y-41265400D01*
X66898000Y-41266400D01*
G36*
X66898000Y-41266400D02*
G01*
X66904000Y-41266400D01*
X66910000Y-41267400D01*
X66915000Y-41269400D01*
X66921000Y-41270400D01*
X66926000Y-41272400D01*
X66932000Y-41275400D01*
X66937000Y-41277400D01*
X66942000Y-41280400D01*
X66947000Y-41283400D01*
X66952000Y-41286400D01*
X66956000Y-41290400D01*
X66961000Y-41293400D01*
X66965000Y-41297400D01*
X66969000Y-41301400D01*
X66972000Y-41306400D01*
X66976000Y-41310400D01*
X66979000Y-41315400D01*
X66982000Y-41320400D01*
X66985000Y-41325400D01*
X66987000Y-41330400D01*
X66990000Y-41336400D01*
X66992000Y-41341400D01*
X66993000Y-41347400D01*
X66995000Y-41352400D01*
X66996000Y-41358400D01*
X66996000Y-41364400D01*
X66997000Y-41369400D01*
X66997000Y-41375400D01*
X66997000Y-41735400D01*
X66997000Y-41741400D01*
X66996000Y-41746400D01*
X66996000Y-41752400D01*
X66995000Y-41758400D01*
X66993000Y-41763400D01*
X66992000Y-41769400D01*
X66990000Y-41774400D01*
X66987000Y-41780400D01*
X66985000Y-41785400D01*
X66982000Y-41790400D01*
X66979000Y-41795400D01*
X66976000Y-41800400D01*
X66972000Y-41804400D01*
X66969000Y-41809400D01*
X66965000Y-41813400D01*
X66961000Y-41817400D01*
X66956000Y-41820400D01*
X66952000Y-41824400D01*
X66947000Y-41827400D01*
X66942000Y-41830400D01*
X66937000Y-41833400D01*
X66932000Y-41835400D01*
X66926000Y-41838400D01*
X66921000Y-41840400D01*
X66915000Y-41841400D01*
X66910000Y-41843400D01*
X66904000Y-41844400D01*
X66898000Y-41844400D01*
X66893000Y-41845400D01*
X66887000Y-41845400D01*
X65637000Y-41845400D01*
X65631000Y-41845400D01*
X65626000Y-41844400D01*
X65620000Y-41844400D01*
X65614000Y-41843400D01*
X65609000Y-41841400D01*
X65603000Y-41840400D01*
X65598000Y-41838400D01*
X65592000Y-41835400D01*
X65587000Y-41833400D01*
X65582000Y-41830400D01*
X65577000Y-41827400D01*
X65572000Y-41824400D01*
X65568000Y-41820400D01*
X65563000Y-41817400D01*
X65559000Y-41813400D01*
X65555000Y-41809400D01*
X65552000Y-41804400D01*
X65548000Y-41800400D01*
X65545000Y-41795400D01*
X65542000Y-41790400D01*
X65539000Y-41785400D01*
X65537000Y-41780400D01*
X65534000Y-41774400D01*
X65532000Y-41769400D01*
X65531000Y-41763400D01*
X65529000Y-41758400D01*
X65528000Y-41752400D01*
X65528000Y-41746400D01*
X65527000Y-41741400D01*
X65527000Y-41735400D01*
X65527000Y-41375400D01*
X65527000Y-41369400D01*
X65528000Y-41364400D01*
X65528000Y-41358400D01*
X65529000Y-41352400D01*
X65531000Y-41347400D01*
X65532000Y-41341400D01*
X65534000Y-41336400D01*
X65537000Y-41330400D01*
X65539000Y-41325400D01*
X65542000Y-41320400D01*
X65545000Y-41315400D01*
X65548000Y-41310400D01*
X65552000Y-41306400D01*
X65555000Y-41301400D01*
X65559000Y-41297400D01*
X65563000Y-41293400D01*
X65568000Y-41290400D01*
X65572000Y-41286400D01*
X65577000Y-41283400D01*
X65582000Y-41280400D01*
X65587000Y-41277400D01*
X65592000Y-41275400D01*
X65598000Y-41272400D01*
X65603000Y-41270400D01*
X65609000Y-41269400D01*
X65614000Y-41267400D01*
X65620000Y-41266400D01*
X65626000Y-41266400D01*
X65631000Y-41265400D01*
X65637000Y-41265400D01*
X66887000Y-41265400D01*
X66893000Y-41265400D01*
X66898000Y-41266400D01*
G37*
X66898000Y-41916400D02*
X66904000Y-41916400D01*
X66910000Y-41917400D01*
X66915000Y-41919400D01*
X66921000Y-41920400D01*
X66926000Y-41922400D01*
X66932000Y-41925400D01*
X66937000Y-41927400D01*
X66942000Y-41930400D01*
X66947000Y-41933400D01*
X66952000Y-41936400D01*
X66956000Y-41940400D01*
X66961000Y-41943400D01*
X66965000Y-41947400D01*
X66969000Y-41951400D01*
X66972000Y-41956400D01*
X66976000Y-41960400D01*
X66979000Y-41965400D01*
X66982000Y-41970400D01*
X66985000Y-41975400D01*
X66987000Y-41980400D01*
X66990000Y-41986400D01*
X66992000Y-41991400D01*
X66993000Y-41997400D01*
X66995000Y-42002400D01*
X66996000Y-42008400D01*
X66996000Y-42014400D01*
X66997000Y-42019400D01*
X66997000Y-42025400D01*
X66997000Y-42385400D01*
X66997000Y-42391400D01*
X66996000Y-42396400D01*
X66996000Y-42402400D01*
X66995000Y-42408400D01*
X66993000Y-42413400D01*
X66992000Y-42419400D01*
X66990000Y-42424400D01*
X66987000Y-42430400D01*
X66985000Y-42435400D01*
X66982000Y-42440400D01*
X66979000Y-42445400D01*
X66976000Y-42450400D01*
X66972000Y-42454400D01*
X66969000Y-42459400D01*
X66965000Y-42463400D01*
X66961000Y-42467400D01*
X66956000Y-42470400D01*
X66952000Y-42474400D01*
X66947000Y-42477400D01*
X66942000Y-42480400D01*
X66937000Y-42483400D01*
X66932000Y-42485400D01*
X66926000Y-42488400D01*
X66921000Y-42490400D01*
X66915000Y-42491400D01*
X66910000Y-42493400D01*
X66904000Y-42494400D01*
X66898000Y-42494400D01*
X66893000Y-42495400D01*
X66887000Y-42495400D01*
X65637000Y-42495400D01*
X65631000Y-42495400D01*
X65626000Y-42494400D01*
X65620000Y-42494400D01*
X65614000Y-42493400D01*
X65609000Y-42491400D01*
X65603000Y-42490400D01*
X65598000Y-42488400D01*
X65592000Y-42485400D01*
X65587000Y-42483400D01*
X65582000Y-42480400D01*
X65577000Y-42477400D01*
X65572000Y-42474400D01*
X65568000Y-42470400D01*
X65563000Y-42467400D01*
X65559000Y-42463400D01*
X65555000Y-42459400D01*
X65552000Y-42454400D01*
X65548000Y-42450400D01*
X65545000Y-42445400D01*
X65542000Y-42440400D01*
X65539000Y-42435400D01*
X65537000Y-42430400D01*
X65534000Y-42424400D01*
X65532000Y-42419400D01*
X65531000Y-42413400D01*
X65529000Y-42408400D01*
X65528000Y-42402400D01*
X65528000Y-42396400D01*
X65527000Y-42391400D01*
X65527000Y-42385400D01*
X65527000Y-42025400D01*
X65527000Y-42019400D01*
X65528000Y-42014400D01*
X65528000Y-42008400D01*
X65529000Y-42002400D01*
X65531000Y-41997400D01*
X65532000Y-41991400D01*
X65534000Y-41986400D01*
X65537000Y-41980400D01*
X65539000Y-41975400D01*
X65542000Y-41970400D01*
X65545000Y-41965400D01*
X65548000Y-41960400D01*
X65552000Y-41956400D01*
X65555000Y-41951400D01*
X65559000Y-41947400D01*
X65563000Y-41943400D01*
X65568000Y-41940400D01*
X65572000Y-41936400D01*
X65577000Y-41933400D01*
X65582000Y-41930400D01*
X65587000Y-41927400D01*
X65592000Y-41925400D01*
X65598000Y-41922400D01*
X65603000Y-41920400D01*
X65609000Y-41919400D01*
X65614000Y-41917400D01*
X65620000Y-41916400D01*
X65626000Y-41916400D01*
X65631000Y-41915400D01*
X65637000Y-41915400D01*
X66887000Y-41915400D01*
X66893000Y-41915400D01*
X66898000Y-41916400D01*
G36*
X66898000Y-41916400D02*
G01*
X66904000Y-41916400D01*
X66910000Y-41917400D01*
X66915000Y-41919400D01*
X66921000Y-41920400D01*
X66926000Y-41922400D01*
X66932000Y-41925400D01*
X66937000Y-41927400D01*
X66942000Y-41930400D01*
X66947000Y-41933400D01*
X66952000Y-41936400D01*
X66956000Y-41940400D01*
X66961000Y-41943400D01*
X66965000Y-41947400D01*
X66969000Y-41951400D01*
X66972000Y-41956400D01*
X66976000Y-41960400D01*
X66979000Y-41965400D01*
X66982000Y-41970400D01*
X66985000Y-41975400D01*
X66987000Y-41980400D01*
X66990000Y-41986400D01*
X66992000Y-41991400D01*
X66993000Y-41997400D01*
X66995000Y-42002400D01*
X66996000Y-42008400D01*
X66996000Y-42014400D01*
X66997000Y-42019400D01*
X66997000Y-42025400D01*
X66997000Y-42385400D01*
X66997000Y-42391400D01*
X66996000Y-42396400D01*
X66996000Y-42402400D01*
X66995000Y-42408400D01*
X66993000Y-42413400D01*
X66992000Y-42419400D01*
X66990000Y-42424400D01*
X66987000Y-42430400D01*
X66985000Y-42435400D01*
X66982000Y-42440400D01*
X66979000Y-42445400D01*
X66976000Y-42450400D01*
X66972000Y-42454400D01*
X66969000Y-42459400D01*
X66965000Y-42463400D01*
X66961000Y-42467400D01*
X66956000Y-42470400D01*
X66952000Y-42474400D01*
X66947000Y-42477400D01*
X66942000Y-42480400D01*
X66937000Y-42483400D01*
X66932000Y-42485400D01*
X66926000Y-42488400D01*
X66921000Y-42490400D01*
X66915000Y-42491400D01*
X66910000Y-42493400D01*
X66904000Y-42494400D01*
X66898000Y-42494400D01*
X66893000Y-42495400D01*
X66887000Y-42495400D01*
X65637000Y-42495400D01*
X65631000Y-42495400D01*
X65626000Y-42494400D01*
X65620000Y-42494400D01*
X65614000Y-42493400D01*
X65609000Y-42491400D01*
X65603000Y-42490400D01*
X65598000Y-42488400D01*
X65592000Y-42485400D01*
X65587000Y-42483400D01*
X65582000Y-42480400D01*
X65577000Y-42477400D01*
X65572000Y-42474400D01*
X65568000Y-42470400D01*
X65563000Y-42467400D01*
X65559000Y-42463400D01*
X65555000Y-42459400D01*
X65552000Y-42454400D01*
X65548000Y-42450400D01*
X65545000Y-42445400D01*
X65542000Y-42440400D01*
X65539000Y-42435400D01*
X65537000Y-42430400D01*
X65534000Y-42424400D01*
X65532000Y-42419400D01*
X65531000Y-42413400D01*
X65529000Y-42408400D01*
X65528000Y-42402400D01*
X65528000Y-42396400D01*
X65527000Y-42391400D01*
X65527000Y-42385400D01*
X65527000Y-42025400D01*
X65527000Y-42019400D01*
X65528000Y-42014400D01*
X65528000Y-42008400D01*
X65529000Y-42002400D01*
X65531000Y-41997400D01*
X65532000Y-41991400D01*
X65534000Y-41986400D01*
X65537000Y-41980400D01*
X65539000Y-41975400D01*
X65542000Y-41970400D01*
X65545000Y-41965400D01*
X65548000Y-41960400D01*
X65552000Y-41956400D01*
X65555000Y-41951400D01*
X65559000Y-41947400D01*
X65563000Y-41943400D01*
X65568000Y-41940400D01*
X65572000Y-41936400D01*
X65577000Y-41933400D01*
X65582000Y-41930400D01*
X65587000Y-41927400D01*
X65592000Y-41925400D01*
X65598000Y-41922400D01*
X65603000Y-41920400D01*
X65609000Y-41919400D01*
X65614000Y-41917400D01*
X65620000Y-41916400D01*
X65626000Y-41916400D01*
X65631000Y-41915400D01*
X65637000Y-41915400D01*
X66887000Y-41915400D01*
X66893000Y-41915400D01*
X66898000Y-41916400D01*
G37*
X66898000Y-42566400D02*
X66904000Y-42566400D01*
X66910000Y-42567400D01*
X66915000Y-42569400D01*
X66921000Y-42570400D01*
X66926000Y-42572400D01*
X66932000Y-42575400D01*
X66937000Y-42577400D01*
X66942000Y-42580400D01*
X66947000Y-42583400D01*
X66952000Y-42586400D01*
X66956000Y-42590400D01*
X66961000Y-42593400D01*
X66965000Y-42597400D01*
X66969000Y-42601400D01*
X66972000Y-42606400D01*
X66976000Y-42610400D01*
X66979000Y-42615400D01*
X66982000Y-42620400D01*
X66985000Y-42625400D01*
X66987000Y-42630400D01*
X66990000Y-42636400D01*
X66992000Y-42641400D01*
X66993000Y-42647400D01*
X66995000Y-42652400D01*
X66996000Y-42658400D01*
X66996000Y-42664400D01*
X66997000Y-42669400D01*
X66997000Y-42675400D01*
X66997000Y-43035400D01*
X66997000Y-43041400D01*
X66996000Y-43046400D01*
X66996000Y-43052400D01*
X66995000Y-43058400D01*
X66993000Y-43063400D01*
X66992000Y-43069400D01*
X66990000Y-43074400D01*
X66987000Y-43080400D01*
X66985000Y-43085400D01*
X66982000Y-43090400D01*
X66979000Y-43095400D01*
X66976000Y-43100400D01*
X66972000Y-43104400D01*
X66969000Y-43109400D01*
X66965000Y-43113400D01*
X66961000Y-43117400D01*
X66956000Y-43120400D01*
X66952000Y-43124400D01*
X66947000Y-43127400D01*
X66942000Y-43130400D01*
X66937000Y-43133400D01*
X66932000Y-43135400D01*
X66926000Y-43138400D01*
X66921000Y-43140400D01*
X66915000Y-43141400D01*
X66910000Y-43143400D01*
X66904000Y-43144400D01*
X66898000Y-43144400D01*
X66893000Y-43145400D01*
X66887000Y-43145400D01*
X65637000Y-43145400D01*
X65631000Y-43145400D01*
X65626000Y-43144400D01*
X65620000Y-43144400D01*
X65614000Y-43143400D01*
X65609000Y-43141400D01*
X65603000Y-43140400D01*
X65598000Y-43138400D01*
X65592000Y-43135400D01*
X65587000Y-43133400D01*
X65582000Y-43130400D01*
X65577000Y-43127400D01*
X65572000Y-43124400D01*
X65568000Y-43120400D01*
X65563000Y-43117400D01*
X65559000Y-43113400D01*
X65555000Y-43109400D01*
X65552000Y-43104400D01*
X65548000Y-43100400D01*
X65545000Y-43095400D01*
X65542000Y-43090400D01*
X65539000Y-43085400D01*
X65537000Y-43080400D01*
X65534000Y-43074400D01*
X65532000Y-43069400D01*
X65531000Y-43063400D01*
X65529000Y-43058400D01*
X65528000Y-43052400D01*
X65528000Y-43046400D01*
X65527000Y-43041400D01*
X65527000Y-43035400D01*
X65527000Y-42675400D01*
X65527000Y-42669400D01*
X65528000Y-42664400D01*
X65528000Y-42658400D01*
X65529000Y-42652400D01*
X65531000Y-42647400D01*
X65532000Y-42641400D01*
X65534000Y-42636400D01*
X65537000Y-42630400D01*
X65539000Y-42625400D01*
X65542000Y-42620400D01*
X65545000Y-42615400D01*
X65548000Y-42610400D01*
X65552000Y-42606400D01*
X65555000Y-42601400D01*
X65559000Y-42597400D01*
X65563000Y-42593400D01*
X65568000Y-42590400D01*
X65572000Y-42586400D01*
X65577000Y-42583400D01*
X65582000Y-42580400D01*
X65587000Y-42577400D01*
X65592000Y-42575400D01*
X65598000Y-42572400D01*
X65603000Y-42570400D01*
X65609000Y-42569400D01*
X65614000Y-42567400D01*
X65620000Y-42566400D01*
X65626000Y-42566400D01*
X65631000Y-42565400D01*
X65637000Y-42565400D01*
X66887000Y-42565400D01*
X66893000Y-42565400D01*
X66898000Y-42566400D01*
G36*
X66898000Y-42566400D02*
G01*
X66904000Y-42566400D01*
X66910000Y-42567400D01*
X66915000Y-42569400D01*
X66921000Y-42570400D01*
X66926000Y-42572400D01*
X66932000Y-42575400D01*
X66937000Y-42577400D01*
X66942000Y-42580400D01*
X66947000Y-42583400D01*
X66952000Y-42586400D01*
X66956000Y-42590400D01*
X66961000Y-42593400D01*
X66965000Y-42597400D01*
X66969000Y-42601400D01*
X66972000Y-42606400D01*
X66976000Y-42610400D01*
X66979000Y-42615400D01*
X66982000Y-42620400D01*
X66985000Y-42625400D01*
X66987000Y-42630400D01*
X66990000Y-42636400D01*
X66992000Y-42641400D01*
X66993000Y-42647400D01*
X66995000Y-42652400D01*
X66996000Y-42658400D01*
X66996000Y-42664400D01*
X66997000Y-42669400D01*
X66997000Y-42675400D01*
X66997000Y-43035400D01*
X66997000Y-43041400D01*
X66996000Y-43046400D01*
X66996000Y-43052400D01*
X66995000Y-43058400D01*
X66993000Y-43063400D01*
X66992000Y-43069400D01*
X66990000Y-43074400D01*
X66987000Y-43080400D01*
X66985000Y-43085400D01*
X66982000Y-43090400D01*
X66979000Y-43095400D01*
X66976000Y-43100400D01*
X66972000Y-43104400D01*
X66969000Y-43109400D01*
X66965000Y-43113400D01*
X66961000Y-43117400D01*
X66956000Y-43120400D01*
X66952000Y-43124400D01*
X66947000Y-43127400D01*
X66942000Y-43130400D01*
X66937000Y-43133400D01*
X66932000Y-43135400D01*
X66926000Y-43138400D01*
X66921000Y-43140400D01*
X66915000Y-43141400D01*
X66910000Y-43143400D01*
X66904000Y-43144400D01*
X66898000Y-43144400D01*
X66893000Y-43145400D01*
X66887000Y-43145400D01*
X65637000Y-43145400D01*
X65631000Y-43145400D01*
X65626000Y-43144400D01*
X65620000Y-43144400D01*
X65614000Y-43143400D01*
X65609000Y-43141400D01*
X65603000Y-43140400D01*
X65598000Y-43138400D01*
X65592000Y-43135400D01*
X65587000Y-43133400D01*
X65582000Y-43130400D01*
X65577000Y-43127400D01*
X65572000Y-43124400D01*
X65568000Y-43120400D01*
X65563000Y-43117400D01*
X65559000Y-43113400D01*
X65555000Y-43109400D01*
X65552000Y-43104400D01*
X65548000Y-43100400D01*
X65545000Y-43095400D01*
X65542000Y-43090400D01*
X65539000Y-43085400D01*
X65537000Y-43080400D01*
X65534000Y-43074400D01*
X65532000Y-43069400D01*
X65531000Y-43063400D01*
X65529000Y-43058400D01*
X65528000Y-43052400D01*
X65528000Y-43046400D01*
X65527000Y-43041400D01*
X65527000Y-43035400D01*
X65527000Y-42675400D01*
X65527000Y-42669400D01*
X65528000Y-42664400D01*
X65528000Y-42658400D01*
X65529000Y-42652400D01*
X65531000Y-42647400D01*
X65532000Y-42641400D01*
X65534000Y-42636400D01*
X65537000Y-42630400D01*
X65539000Y-42625400D01*
X65542000Y-42620400D01*
X65545000Y-42615400D01*
X65548000Y-42610400D01*
X65552000Y-42606400D01*
X65555000Y-42601400D01*
X65559000Y-42597400D01*
X65563000Y-42593400D01*
X65568000Y-42590400D01*
X65572000Y-42586400D01*
X65577000Y-42583400D01*
X65582000Y-42580400D01*
X65587000Y-42577400D01*
X65592000Y-42575400D01*
X65598000Y-42572400D01*
X65603000Y-42570400D01*
X65609000Y-42569400D01*
X65614000Y-42567400D01*
X65620000Y-42566400D01*
X65626000Y-42566400D01*
X65631000Y-42565400D01*
X65637000Y-42565400D01*
X66887000Y-42565400D01*
X66893000Y-42565400D01*
X66898000Y-42566400D01*
G37*
X66898000Y-43216400D02*
X66904000Y-43216400D01*
X66910000Y-43217400D01*
X66915000Y-43219400D01*
X66921000Y-43220400D01*
X66926000Y-43222400D01*
X66932000Y-43225400D01*
X66937000Y-43227400D01*
X66942000Y-43230400D01*
X66947000Y-43233400D01*
X66952000Y-43236400D01*
X66956000Y-43240400D01*
X66961000Y-43243400D01*
X66965000Y-43247400D01*
X66969000Y-43251400D01*
X66972000Y-43256400D01*
X66976000Y-43260400D01*
X66979000Y-43265400D01*
X66982000Y-43270400D01*
X66985000Y-43275400D01*
X66987000Y-43280400D01*
X66990000Y-43286400D01*
X66992000Y-43291400D01*
X66993000Y-43297400D01*
X66995000Y-43302400D01*
X66996000Y-43308400D01*
X66996000Y-43314400D01*
X66997000Y-43319400D01*
X66997000Y-43325400D01*
X66997000Y-43685400D01*
X66997000Y-43691400D01*
X66996000Y-43696400D01*
X66996000Y-43702400D01*
X66995000Y-43708400D01*
X66993000Y-43713400D01*
X66992000Y-43719400D01*
X66990000Y-43724400D01*
X66987000Y-43730400D01*
X66985000Y-43735400D01*
X66982000Y-43740400D01*
X66979000Y-43745400D01*
X66976000Y-43750400D01*
X66972000Y-43754400D01*
X66969000Y-43759400D01*
X66965000Y-43763400D01*
X66961000Y-43767400D01*
X66956000Y-43770400D01*
X66952000Y-43774400D01*
X66947000Y-43777400D01*
X66942000Y-43780400D01*
X66937000Y-43783400D01*
X66932000Y-43785400D01*
X66926000Y-43788400D01*
X66921000Y-43790400D01*
X66915000Y-43791400D01*
X66910000Y-43793400D01*
X66904000Y-43794400D01*
X66898000Y-43794400D01*
X66893000Y-43795400D01*
X66887000Y-43795400D01*
X65637000Y-43795400D01*
X65631000Y-43795400D01*
X65626000Y-43794400D01*
X65620000Y-43794400D01*
X65614000Y-43793400D01*
X65609000Y-43791400D01*
X65603000Y-43790400D01*
X65598000Y-43788400D01*
X65592000Y-43785400D01*
X65587000Y-43783400D01*
X65582000Y-43780400D01*
X65577000Y-43777400D01*
X65572000Y-43774400D01*
X65568000Y-43770400D01*
X65563000Y-43767400D01*
X65559000Y-43763400D01*
X65555000Y-43759400D01*
X65552000Y-43754400D01*
X65548000Y-43750400D01*
X65545000Y-43745400D01*
X65542000Y-43740400D01*
X65539000Y-43735400D01*
X65537000Y-43730400D01*
X65534000Y-43724400D01*
X65532000Y-43719400D01*
X65531000Y-43713400D01*
X65529000Y-43708400D01*
X65528000Y-43702400D01*
X65528000Y-43696400D01*
X65527000Y-43691400D01*
X65527000Y-43685400D01*
X65527000Y-43325400D01*
X65527000Y-43319400D01*
X65528000Y-43314400D01*
X65528000Y-43308400D01*
X65529000Y-43302400D01*
X65531000Y-43297400D01*
X65532000Y-43291400D01*
X65534000Y-43286400D01*
X65537000Y-43280400D01*
X65539000Y-43275400D01*
X65542000Y-43270400D01*
X65545000Y-43265400D01*
X65548000Y-43260400D01*
X65552000Y-43256400D01*
X65555000Y-43251400D01*
X65559000Y-43247400D01*
X65563000Y-43243400D01*
X65568000Y-43240400D01*
X65572000Y-43236400D01*
X65577000Y-43233400D01*
X65582000Y-43230400D01*
X65587000Y-43227400D01*
X65592000Y-43225400D01*
X65598000Y-43222400D01*
X65603000Y-43220400D01*
X65609000Y-43219400D01*
X65614000Y-43217400D01*
X65620000Y-43216400D01*
X65626000Y-43216400D01*
X65631000Y-43215400D01*
X65637000Y-43215400D01*
X66887000Y-43215400D01*
X66893000Y-43215400D01*
X66898000Y-43216400D01*
G36*
X66898000Y-43216400D02*
G01*
X66904000Y-43216400D01*
X66910000Y-43217400D01*
X66915000Y-43219400D01*
X66921000Y-43220400D01*
X66926000Y-43222400D01*
X66932000Y-43225400D01*
X66937000Y-43227400D01*
X66942000Y-43230400D01*
X66947000Y-43233400D01*
X66952000Y-43236400D01*
X66956000Y-43240400D01*
X66961000Y-43243400D01*
X66965000Y-43247400D01*
X66969000Y-43251400D01*
X66972000Y-43256400D01*
X66976000Y-43260400D01*
X66979000Y-43265400D01*
X66982000Y-43270400D01*
X66985000Y-43275400D01*
X66987000Y-43280400D01*
X66990000Y-43286400D01*
X66992000Y-43291400D01*
X66993000Y-43297400D01*
X66995000Y-43302400D01*
X66996000Y-43308400D01*
X66996000Y-43314400D01*
X66997000Y-43319400D01*
X66997000Y-43325400D01*
X66997000Y-43685400D01*
X66997000Y-43691400D01*
X66996000Y-43696400D01*
X66996000Y-43702400D01*
X66995000Y-43708400D01*
X66993000Y-43713400D01*
X66992000Y-43719400D01*
X66990000Y-43724400D01*
X66987000Y-43730400D01*
X66985000Y-43735400D01*
X66982000Y-43740400D01*
X66979000Y-43745400D01*
X66976000Y-43750400D01*
X66972000Y-43754400D01*
X66969000Y-43759400D01*
X66965000Y-43763400D01*
X66961000Y-43767400D01*
X66956000Y-43770400D01*
X66952000Y-43774400D01*
X66947000Y-43777400D01*
X66942000Y-43780400D01*
X66937000Y-43783400D01*
X66932000Y-43785400D01*
X66926000Y-43788400D01*
X66921000Y-43790400D01*
X66915000Y-43791400D01*
X66910000Y-43793400D01*
X66904000Y-43794400D01*
X66898000Y-43794400D01*
X66893000Y-43795400D01*
X66887000Y-43795400D01*
X65637000Y-43795400D01*
X65631000Y-43795400D01*
X65626000Y-43794400D01*
X65620000Y-43794400D01*
X65614000Y-43793400D01*
X65609000Y-43791400D01*
X65603000Y-43790400D01*
X65598000Y-43788400D01*
X65592000Y-43785400D01*
X65587000Y-43783400D01*
X65582000Y-43780400D01*
X65577000Y-43777400D01*
X65572000Y-43774400D01*
X65568000Y-43770400D01*
X65563000Y-43767400D01*
X65559000Y-43763400D01*
X65555000Y-43759400D01*
X65552000Y-43754400D01*
X65548000Y-43750400D01*
X65545000Y-43745400D01*
X65542000Y-43740400D01*
X65539000Y-43735400D01*
X65537000Y-43730400D01*
X65534000Y-43724400D01*
X65532000Y-43719400D01*
X65531000Y-43713400D01*
X65529000Y-43708400D01*
X65528000Y-43702400D01*
X65528000Y-43696400D01*
X65527000Y-43691400D01*
X65527000Y-43685400D01*
X65527000Y-43325400D01*
X65527000Y-43319400D01*
X65528000Y-43314400D01*
X65528000Y-43308400D01*
X65529000Y-43302400D01*
X65531000Y-43297400D01*
X65532000Y-43291400D01*
X65534000Y-43286400D01*
X65537000Y-43280400D01*
X65539000Y-43275400D01*
X65542000Y-43270400D01*
X65545000Y-43265400D01*
X65548000Y-43260400D01*
X65552000Y-43256400D01*
X65555000Y-43251400D01*
X65559000Y-43247400D01*
X65563000Y-43243400D01*
X65568000Y-43240400D01*
X65572000Y-43236400D01*
X65577000Y-43233400D01*
X65582000Y-43230400D01*
X65587000Y-43227400D01*
X65592000Y-43225400D01*
X65598000Y-43222400D01*
X65603000Y-43220400D01*
X65609000Y-43219400D01*
X65614000Y-43217400D01*
X65620000Y-43216400D01*
X65626000Y-43216400D01*
X65631000Y-43215400D01*
X65637000Y-43215400D01*
X66887000Y-43215400D01*
X66893000Y-43215400D01*
X66898000Y-43216400D01*
G37*
%TO.C,U6*%
X64618000Y-44716400D02*
X64624000Y-44716400D01*
X64630000Y-44717400D01*
X64635000Y-44719400D01*
X64641000Y-44720400D01*
X64646000Y-44722400D01*
X64652000Y-44725400D01*
X64657000Y-44727400D01*
X64662000Y-44730400D01*
X64667000Y-44733400D01*
X64672000Y-44736400D01*
X64676000Y-44740400D01*
X64681000Y-44743400D01*
X64685000Y-44747400D01*
X64689000Y-44751400D01*
X64692000Y-44756400D01*
X64696000Y-44760400D01*
X64699000Y-44765400D01*
X64702000Y-44770400D01*
X64705000Y-44775400D01*
X64707000Y-44780400D01*
X64710000Y-44786400D01*
X64712000Y-44791400D01*
X64713000Y-44797400D01*
X64715000Y-44802400D01*
X64716000Y-44808400D01*
X64716000Y-44814400D01*
X64717000Y-44819400D01*
X64717000Y-44825400D01*
X64717000Y-45185400D01*
X64717000Y-45191400D01*
X64716000Y-45196400D01*
X64716000Y-45202400D01*
X64715000Y-45208400D01*
X64713000Y-45213400D01*
X64712000Y-45219400D01*
X64710000Y-45224400D01*
X64707000Y-45230400D01*
X64705000Y-45235400D01*
X64702000Y-45240400D01*
X64699000Y-45245400D01*
X64696000Y-45250400D01*
X64692000Y-45254400D01*
X64689000Y-45259400D01*
X64685000Y-45263400D01*
X64681000Y-45267400D01*
X64676000Y-45270400D01*
X64672000Y-45274400D01*
X64667000Y-45277400D01*
X64662000Y-45280400D01*
X64657000Y-45283400D01*
X64652000Y-45285400D01*
X64646000Y-45288400D01*
X64641000Y-45290400D01*
X64635000Y-45291400D01*
X64630000Y-45293400D01*
X64624000Y-45294400D01*
X64618000Y-45294400D01*
X64613000Y-45295400D01*
X64607000Y-45295400D01*
X63357000Y-45295400D01*
X63351000Y-45295400D01*
X63346000Y-45294400D01*
X63340000Y-45294400D01*
X63334000Y-45293400D01*
X63329000Y-45291400D01*
X63323000Y-45290400D01*
X63318000Y-45288400D01*
X63312000Y-45285400D01*
X63307000Y-45283400D01*
X63302000Y-45280400D01*
X63297000Y-45277400D01*
X63292000Y-45274400D01*
X63288000Y-45270400D01*
X63283000Y-45267400D01*
X63279000Y-45263400D01*
X63275000Y-45259400D01*
X63272000Y-45254400D01*
X63268000Y-45250400D01*
X63265000Y-45245400D01*
X63262000Y-45240400D01*
X63259000Y-45235400D01*
X63257000Y-45230400D01*
X63254000Y-45224400D01*
X63252000Y-45219400D01*
X63251000Y-45213400D01*
X63249000Y-45208400D01*
X63248000Y-45202400D01*
X63248000Y-45196400D01*
X63247000Y-45191400D01*
X63247000Y-45185400D01*
X63247000Y-44825400D01*
X63247000Y-44819400D01*
X63248000Y-44814400D01*
X63248000Y-44808400D01*
X63249000Y-44802400D01*
X63251000Y-44797400D01*
X63252000Y-44791400D01*
X63254000Y-44786400D01*
X63257000Y-44780400D01*
X63259000Y-44775400D01*
X63262000Y-44770400D01*
X63265000Y-44765400D01*
X63268000Y-44760400D01*
X63272000Y-44756400D01*
X63275000Y-44751400D01*
X63279000Y-44747400D01*
X63283000Y-44743400D01*
X63288000Y-44740400D01*
X63292000Y-44736400D01*
X63297000Y-44733400D01*
X63302000Y-44730400D01*
X63307000Y-44727400D01*
X63312000Y-44725400D01*
X63318000Y-44722400D01*
X63323000Y-44720400D01*
X63329000Y-44719400D01*
X63334000Y-44717400D01*
X63340000Y-44716400D01*
X63346000Y-44716400D01*
X63351000Y-44715400D01*
X63357000Y-44715400D01*
X64607000Y-44715400D01*
X64613000Y-44715400D01*
X64618000Y-44716400D01*
G36*
X64618000Y-44716400D02*
G01*
X64624000Y-44716400D01*
X64630000Y-44717400D01*
X64635000Y-44719400D01*
X64641000Y-44720400D01*
X64646000Y-44722400D01*
X64652000Y-44725400D01*
X64657000Y-44727400D01*
X64662000Y-44730400D01*
X64667000Y-44733400D01*
X64672000Y-44736400D01*
X64676000Y-44740400D01*
X64681000Y-44743400D01*
X64685000Y-44747400D01*
X64689000Y-44751400D01*
X64692000Y-44756400D01*
X64696000Y-44760400D01*
X64699000Y-44765400D01*
X64702000Y-44770400D01*
X64705000Y-44775400D01*
X64707000Y-44780400D01*
X64710000Y-44786400D01*
X64712000Y-44791400D01*
X64713000Y-44797400D01*
X64715000Y-44802400D01*
X64716000Y-44808400D01*
X64716000Y-44814400D01*
X64717000Y-44819400D01*
X64717000Y-44825400D01*
X64717000Y-45185400D01*
X64717000Y-45191400D01*
X64716000Y-45196400D01*
X64716000Y-45202400D01*
X64715000Y-45208400D01*
X64713000Y-45213400D01*
X64712000Y-45219400D01*
X64710000Y-45224400D01*
X64707000Y-45230400D01*
X64705000Y-45235400D01*
X64702000Y-45240400D01*
X64699000Y-45245400D01*
X64696000Y-45250400D01*
X64692000Y-45254400D01*
X64689000Y-45259400D01*
X64685000Y-45263400D01*
X64681000Y-45267400D01*
X64676000Y-45270400D01*
X64672000Y-45274400D01*
X64667000Y-45277400D01*
X64662000Y-45280400D01*
X64657000Y-45283400D01*
X64652000Y-45285400D01*
X64646000Y-45288400D01*
X64641000Y-45290400D01*
X64635000Y-45291400D01*
X64630000Y-45293400D01*
X64624000Y-45294400D01*
X64618000Y-45294400D01*
X64613000Y-45295400D01*
X64607000Y-45295400D01*
X63357000Y-45295400D01*
X63351000Y-45295400D01*
X63346000Y-45294400D01*
X63340000Y-45294400D01*
X63334000Y-45293400D01*
X63329000Y-45291400D01*
X63323000Y-45290400D01*
X63318000Y-45288400D01*
X63312000Y-45285400D01*
X63307000Y-45283400D01*
X63302000Y-45280400D01*
X63297000Y-45277400D01*
X63292000Y-45274400D01*
X63288000Y-45270400D01*
X63283000Y-45267400D01*
X63279000Y-45263400D01*
X63275000Y-45259400D01*
X63272000Y-45254400D01*
X63268000Y-45250400D01*
X63265000Y-45245400D01*
X63262000Y-45240400D01*
X63259000Y-45235400D01*
X63257000Y-45230400D01*
X63254000Y-45224400D01*
X63252000Y-45219400D01*
X63251000Y-45213400D01*
X63249000Y-45208400D01*
X63248000Y-45202400D01*
X63248000Y-45196400D01*
X63247000Y-45191400D01*
X63247000Y-45185400D01*
X63247000Y-44825400D01*
X63247000Y-44819400D01*
X63248000Y-44814400D01*
X63248000Y-44808400D01*
X63249000Y-44802400D01*
X63251000Y-44797400D01*
X63252000Y-44791400D01*
X63254000Y-44786400D01*
X63257000Y-44780400D01*
X63259000Y-44775400D01*
X63262000Y-44770400D01*
X63265000Y-44765400D01*
X63268000Y-44760400D01*
X63272000Y-44756400D01*
X63275000Y-44751400D01*
X63279000Y-44747400D01*
X63283000Y-44743400D01*
X63288000Y-44740400D01*
X63292000Y-44736400D01*
X63297000Y-44733400D01*
X63302000Y-44730400D01*
X63307000Y-44727400D01*
X63312000Y-44725400D01*
X63318000Y-44722400D01*
X63323000Y-44720400D01*
X63329000Y-44719400D01*
X63334000Y-44717400D01*
X63340000Y-44716400D01*
X63346000Y-44716400D01*
X63351000Y-44715400D01*
X63357000Y-44715400D01*
X64607000Y-44715400D01*
X64613000Y-44715400D01*
X64618000Y-44716400D01*
G37*
X64618000Y-45366400D02*
X64624000Y-45366400D01*
X64630000Y-45367400D01*
X64635000Y-45369400D01*
X64641000Y-45370400D01*
X64646000Y-45372400D01*
X64652000Y-45375400D01*
X64657000Y-45377400D01*
X64662000Y-45380400D01*
X64667000Y-45383400D01*
X64672000Y-45386400D01*
X64676000Y-45390400D01*
X64681000Y-45393400D01*
X64685000Y-45397400D01*
X64689000Y-45401400D01*
X64692000Y-45406400D01*
X64696000Y-45410400D01*
X64699000Y-45415400D01*
X64702000Y-45420400D01*
X64705000Y-45425400D01*
X64707000Y-45430400D01*
X64710000Y-45436400D01*
X64712000Y-45441400D01*
X64713000Y-45447400D01*
X64715000Y-45452400D01*
X64716000Y-45458400D01*
X64716000Y-45464400D01*
X64717000Y-45469400D01*
X64717000Y-45475400D01*
X64717000Y-45835400D01*
X64717000Y-45841400D01*
X64716000Y-45846400D01*
X64716000Y-45852400D01*
X64715000Y-45858400D01*
X64713000Y-45863400D01*
X64712000Y-45869400D01*
X64710000Y-45874400D01*
X64707000Y-45880400D01*
X64705000Y-45885400D01*
X64702000Y-45890400D01*
X64699000Y-45895400D01*
X64696000Y-45900400D01*
X64692000Y-45904400D01*
X64689000Y-45909400D01*
X64685000Y-45913400D01*
X64681000Y-45917400D01*
X64676000Y-45920400D01*
X64672000Y-45924400D01*
X64667000Y-45927400D01*
X64662000Y-45930400D01*
X64657000Y-45933400D01*
X64652000Y-45935400D01*
X64646000Y-45938400D01*
X64641000Y-45940400D01*
X64635000Y-45941400D01*
X64630000Y-45943400D01*
X64624000Y-45944400D01*
X64618000Y-45944400D01*
X64613000Y-45945400D01*
X64607000Y-45945400D01*
X63357000Y-45945400D01*
X63351000Y-45945400D01*
X63346000Y-45944400D01*
X63340000Y-45944400D01*
X63334000Y-45943400D01*
X63329000Y-45941400D01*
X63323000Y-45940400D01*
X63318000Y-45938400D01*
X63312000Y-45935400D01*
X63307000Y-45933400D01*
X63302000Y-45930400D01*
X63297000Y-45927400D01*
X63292000Y-45924400D01*
X63288000Y-45920400D01*
X63283000Y-45917400D01*
X63279000Y-45913400D01*
X63275000Y-45909400D01*
X63272000Y-45904400D01*
X63268000Y-45900400D01*
X63265000Y-45895400D01*
X63262000Y-45890400D01*
X63259000Y-45885400D01*
X63257000Y-45880400D01*
X63254000Y-45874400D01*
X63252000Y-45869400D01*
X63251000Y-45863400D01*
X63249000Y-45858400D01*
X63248000Y-45852400D01*
X63248000Y-45846400D01*
X63247000Y-45841400D01*
X63247000Y-45835400D01*
X63247000Y-45475400D01*
X63247000Y-45469400D01*
X63248000Y-45464400D01*
X63248000Y-45458400D01*
X63249000Y-45452400D01*
X63251000Y-45447400D01*
X63252000Y-45441400D01*
X63254000Y-45436400D01*
X63257000Y-45430400D01*
X63259000Y-45425400D01*
X63262000Y-45420400D01*
X63265000Y-45415400D01*
X63268000Y-45410400D01*
X63272000Y-45406400D01*
X63275000Y-45401400D01*
X63279000Y-45397400D01*
X63283000Y-45393400D01*
X63288000Y-45390400D01*
X63292000Y-45386400D01*
X63297000Y-45383400D01*
X63302000Y-45380400D01*
X63307000Y-45377400D01*
X63312000Y-45375400D01*
X63318000Y-45372400D01*
X63323000Y-45370400D01*
X63329000Y-45369400D01*
X63334000Y-45367400D01*
X63340000Y-45366400D01*
X63346000Y-45366400D01*
X63351000Y-45365400D01*
X63357000Y-45365400D01*
X64607000Y-45365400D01*
X64613000Y-45365400D01*
X64618000Y-45366400D01*
G36*
X64618000Y-45366400D02*
G01*
X64624000Y-45366400D01*
X64630000Y-45367400D01*
X64635000Y-45369400D01*
X64641000Y-45370400D01*
X64646000Y-45372400D01*
X64652000Y-45375400D01*
X64657000Y-45377400D01*
X64662000Y-45380400D01*
X64667000Y-45383400D01*
X64672000Y-45386400D01*
X64676000Y-45390400D01*
X64681000Y-45393400D01*
X64685000Y-45397400D01*
X64689000Y-45401400D01*
X64692000Y-45406400D01*
X64696000Y-45410400D01*
X64699000Y-45415400D01*
X64702000Y-45420400D01*
X64705000Y-45425400D01*
X64707000Y-45430400D01*
X64710000Y-45436400D01*
X64712000Y-45441400D01*
X64713000Y-45447400D01*
X64715000Y-45452400D01*
X64716000Y-45458400D01*
X64716000Y-45464400D01*
X64717000Y-45469400D01*
X64717000Y-45475400D01*
X64717000Y-45835400D01*
X64717000Y-45841400D01*
X64716000Y-45846400D01*
X64716000Y-45852400D01*
X64715000Y-45858400D01*
X64713000Y-45863400D01*
X64712000Y-45869400D01*
X64710000Y-45874400D01*
X64707000Y-45880400D01*
X64705000Y-45885400D01*
X64702000Y-45890400D01*
X64699000Y-45895400D01*
X64696000Y-45900400D01*
X64692000Y-45904400D01*
X64689000Y-45909400D01*
X64685000Y-45913400D01*
X64681000Y-45917400D01*
X64676000Y-45920400D01*
X64672000Y-45924400D01*
X64667000Y-45927400D01*
X64662000Y-45930400D01*
X64657000Y-45933400D01*
X64652000Y-45935400D01*
X64646000Y-45938400D01*
X64641000Y-45940400D01*
X64635000Y-45941400D01*
X64630000Y-45943400D01*
X64624000Y-45944400D01*
X64618000Y-45944400D01*
X64613000Y-45945400D01*
X64607000Y-45945400D01*
X63357000Y-45945400D01*
X63351000Y-45945400D01*
X63346000Y-45944400D01*
X63340000Y-45944400D01*
X63334000Y-45943400D01*
X63329000Y-45941400D01*
X63323000Y-45940400D01*
X63318000Y-45938400D01*
X63312000Y-45935400D01*
X63307000Y-45933400D01*
X63302000Y-45930400D01*
X63297000Y-45927400D01*
X63292000Y-45924400D01*
X63288000Y-45920400D01*
X63283000Y-45917400D01*
X63279000Y-45913400D01*
X63275000Y-45909400D01*
X63272000Y-45904400D01*
X63268000Y-45900400D01*
X63265000Y-45895400D01*
X63262000Y-45890400D01*
X63259000Y-45885400D01*
X63257000Y-45880400D01*
X63254000Y-45874400D01*
X63252000Y-45869400D01*
X63251000Y-45863400D01*
X63249000Y-45858400D01*
X63248000Y-45852400D01*
X63248000Y-45846400D01*
X63247000Y-45841400D01*
X63247000Y-45835400D01*
X63247000Y-45475400D01*
X63247000Y-45469400D01*
X63248000Y-45464400D01*
X63248000Y-45458400D01*
X63249000Y-45452400D01*
X63251000Y-45447400D01*
X63252000Y-45441400D01*
X63254000Y-45436400D01*
X63257000Y-45430400D01*
X63259000Y-45425400D01*
X63262000Y-45420400D01*
X63265000Y-45415400D01*
X63268000Y-45410400D01*
X63272000Y-45406400D01*
X63275000Y-45401400D01*
X63279000Y-45397400D01*
X63283000Y-45393400D01*
X63288000Y-45390400D01*
X63292000Y-45386400D01*
X63297000Y-45383400D01*
X63302000Y-45380400D01*
X63307000Y-45377400D01*
X63312000Y-45375400D01*
X63318000Y-45372400D01*
X63323000Y-45370400D01*
X63329000Y-45369400D01*
X63334000Y-45367400D01*
X63340000Y-45366400D01*
X63346000Y-45366400D01*
X63351000Y-45365400D01*
X63357000Y-45365400D01*
X64607000Y-45365400D01*
X64613000Y-45365400D01*
X64618000Y-45366400D01*
G37*
X64618000Y-46016400D02*
X64624000Y-46016400D01*
X64630000Y-46017400D01*
X64635000Y-46019400D01*
X64641000Y-46020400D01*
X64646000Y-46022400D01*
X64652000Y-46025400D01*
X64657000Y-46027400D01*
X64662000Y-46030400D01*
X64667000Y-46033400D01*
X64672000Y-46036400D01*
X64676000Y-46040400D01*
X64681000Y-46043400D01*
X64685000Y-46047400D01*
X64689000Y-46051400D01*
X64692000Y-46056400D01*
X64696000Y-46060400D01*
X64699000Y-46065400D01*
X64702000Y-46070400D01*
X64705000Y-46075400D01*
X64707000Y-46080400D01*
X64710000Y-46086400D01*
X64712000Y-46091400D01*
X64713000Y-46097400D01*
X64715000Y-46102400D01*
X64716000Y-46108400D01*
X64716000Y-46114400D01*
X64717000Y-46119400D01*
X64717000Y-46125400D01*
X64717000Y-46485400D01*
X64717000Y-46491400D01*
X64716000Y-46496400D01*
X64716000Y-46502400D01*
X64715000Y-46508400D01*
X64713000Y-46513400D01*
X64712000Y-46519400D01*
X64710000Y-46524400D01*
X64707000Y-46530400D01*
X64705000Y-46535400D01*
X64702000Y-46540400D01*
X64699000Y-46545400D01*
X64696000Y-46550400D01*
X64692000Y-46554400D01*
X64689000Y-46559400D01*
X64685000Y-46563400D01*
X64681000Y-46567400D01*
X64676000Y-46570400D01*
X64672000Y-46574400D01*
X64667000Y-46577400D01*
X64662000Y-46580400D01*
X64657000Y-46583400D01*
X64652000Y-46585400D01*
X64646000Y-46588400D01*
X64641000Y-46590400D01*
X64635000Y-46591400D01*
X64630000Y-46593400D01*
X64624000Y-46594400D01*
X64618000Y-46594400D01*
X64613000Y-46595400D01*
X64607000Y-46595400D01*
X63357000Y-46595400D01*
X63351000Y-46595400D01*
X63346000Y-46594400D01*
X63340000Y-46594400D01*
X63334000Y-46593400D01*
X63329000Y-46591400D01*
X63323000Y-46590400D01*
X63318000Y-46588400D01*
X63312000Y-46585400D01*
X63307000Y-46583400D01*
X63302000Y-46580400D01*
X63297000Y-46577400D01*
X63292000Y-46574400D01*
X63288000Y-46570400D01*
X63283000Y-46567400D01*
X63279000Y-46563400D01*
X63275000Y-46559400D01*
X63272000Y-46554400D01*
X63268000Y-46550400D01*
X63265000Y-46545400D01*
X63262000Y-46540400D01*
X63259000Y-46535400D01*
X63257000Y-46530400D01*
X63254000Y-46524400D01*
X63252000Y-46519400D01*
X63251000Y-46513400D01*
X63249000Y-46508400D01*
X63248000Y-46502400D01*
X63248000Y-46496400D01*
X63247000Y-46491400D01*
X63247000Y-46485400D01*
X63247000Y-46125400D01*
X63247000Y-46119400D01*
X63248000Y-46114400D01*
X63248000Y-46108400D01*
X63249000Y-46102400D01*
X63251000Y-46097400D01*
X63252000Y-46091400D01*
X63254000Y-46086400D01*
X63257000Y-46080400D01*
X63259000Y-46075400D01*
X63262000Y-46070400D01*
X63265000Y-46065400D01*
X63268000Y-46060400D01*
X63272000Y-46056400D01*
X63275000Y-46051400D01*
X63279000Y-46047400D01*
X63283000Y-46043400D01*
X63288000Y-46040400D01*
X63292000Y-46036400D01*
X63297000Y-46033400D01*
X63302000Y-46030400D01*
X63307000Y-46027400D01*
X63312000Y-46025400D01*
X63318000Y-46022400D01*
X63323000Y-46020400D01*
X63329000Y-46019400D01*
X63334000Y-46017400D01*
X63340000Y-46016400D01*
X63346000Y-46016400D01*
X63351000Y-46015400D01*
X63357000Y-46015400D01*
X64607000Y-46015400D01*
X64613000Y-46015400D01*
X64618000Y-46016400D01*
G36*
X64618000Y-46016400D02*
G01*
X64624000Y-46016400D01*
X64630000Y-46017400D01*
X64635000Y-46019400D01*
X64641000Y-46020400D01*
X64646000Y-46022400D01*
X64652000Y-46025400D01*
X64657000Y-46027400D01*
X64662000Y-46030400D01*
X64667000Y-46033400D01*
X64672000Y-46036400D01*
X64676000Y-46040400D01*
X64681000Y-46043400D01*
X64685000Y-46047400D01*
X64689000Y-46051400D01*
X64692000Y-46056400D01*
X64696000Y-46060400D01*
X64699000Y-46065400D01*
X64702000Y-46070400D01*
X64705000Y-46075400D01*
X64707000Y-46080400D01*
X64710000Y-46086400D01*
X64712000Y-46091400D01*
X64713000Y-46097400D01*
X64715000Y-46102400D01*
X64716000Y-46108400D01*
X64716000Y-46114400D01*
X64717000Y-46119400D01*
X64717000Y-46125400D01*
X64717000Y-46485400D01*
X64717000Y-46491400D01*
X64716000Y-46496400D01*
X64716000Y-46502400D01*
X64715000Y-46508400D01*
X64713000Y-46513400D01*
X64712000Y-46519400D01*
X64710000Y-46524400D01*
X64707000Y-46530400D01*
X64705000Y-46535400D01*
X64702000Y-46540400D01*
X64699000Y-46545400D01*
X64696000Y-46550400D01*
X64692000Y-46554400D01*
X64689000Y-46559400D01*
X64685000Y-46563400D01*
X64681000Y-46567400D01*
X64676000Y-46570400D01*
X64672000Y-46574400D01*
X64667000Y-46577400D01*
X64662000Y-46580400D01*
X64657000Y-46583400D01*
X64652000Y-46585400D01*
X64646000Y-46588400D01*
X64641000Y-46590400D01*
X64635000Y-46591400D01*
X64630000Y-46593400D01*
X64624000Y-46594400D01*
X64618000Y-46594400D01*
X64613000Y-46595400D01*
X64607000Y-46595400D01*
X63357000Y-46595400D01*
X63351000Y-46595400D01*
X63346000Y-46594400D01*
X63340000Y-46594400D01*
X63334000Y-46593400D01*
X63329000Y-46591400D01*
X63323000Y-46590400D01*
X63318000Y-46588400D01*
X63312000Y-46585400D01*
X63307000Y-46583400D01*
X63302000Y-46580400D01*
X63297000Y-46577400D01*
X63292000Y-46574400D01*
X63288000Y-46570400D01*
X63283000Y-46567400D01*
X63279000Y-46563400D01*
X63275000Y-46559400D01*
X63272000Y-46554400D01*
X63268000Y-46550400D01*
X63265000Y-46545400D01*
X63262000Y-46540400D01*
X63259000Y-46535400D01*
X63257000Y-46530400D01*
X63254000Y-46524400D01*
X63252000Y-46519400D01*
X63251000Y-46513400D01*
X63249000Y-46508400D01*
X63248000Y-46502400D01*
X63248000Y-46496400D01*
X63247000Y-46491400D01*
X63247000Y-46485400D01*
X63247000Y-46125400D01*
X63247000Y-46119400D01*
X63248000Y-46114400D01*
X63248000Y-46108400D01*
X63249000Y-46102400D01*
X63251000Y-46097400D01*
X63252000Y-46091400D01*
X63254000Y-46086400D01*
X63257000Y-46080400D01*
X63259000Y-46075400D01*
X63262000Y-46070400D01*
X63265000Y-46065400D01*
X63268000Y-46060400D01*
X63272000Y-46056400D01*
X63275000Y-46051400D01*
X63279000Y-46047400D01*
X63283000Y-46043400D01*
X63288000Y-46040400D01*
X63292000Y-46036400D01*
X63297000Y-46033400D01*
X63302000Y-46030400D01*
X63307000Y-46027400D01*
X63312000Y-46025400D01*
X63318000Y-46022400D01*
X63323000Y-46020400D01*
X63329000Y-46019400D01*
X63334000Y-46017400D01*
X63340000Y-46016400D01*
X63346000Y-46016400D01*
X63351000Y-46015400D01*
X63357000Y-46015400D01*
X64607000Y-46015400D01*
X64613000Y-46015400D01*
X64618000Y-46016400D01*
G37*
X64618000Y-46666400D02*
X64624000Y-46666400D01*
X64630000Y-46667400D01*
X64635000Y-46669400D01*
X64641000Y-46670400D01*
X64646000Y-46672400D01*
X64652000Y-46675400D01*
X64657000Y-46677400D01*
X64662000Y-46680400D01*
X64667000Y-46683400D01*
X64672000Y-46686400D01*
X64676000Y-46690400D01*
X64681000Y-46693400D01*
X64685000Y-46697400D01*
X64689000Y-46701400D01*
X64692000Y-46706400D01*
X64696000Y-46710400D01*
X64699000Y-46715400D01*
X64702000Y-46720400D01*
X64705000Y-46725400D01*
X64707000Y-46730400D01*
X64710000Y-46736400D01*
X64712000Y-46741400D01*
X64713000Y-46747400D01*
X64715000Y-46752400D01*
X64716000Y-46758400D01*
X64716000Y-46764400D01*
X64717000Y-46769400D01*
X64717000Y-46775400D01*
X64717000Y-47135400D01*
X64717000Y-47141400D01*
X64716000Y-47146400D01*
X64716000Y-47152400D01*
X64715000Y-47158400D01*
X64713000Y-47163400D01*
X64712000Y-47169400D01*
X64710000Y-47174400D01*
X64707000Y-47180400D01*
X64705000Y-47185400D01*
X64702000Y-47190400D01*
X64699000Y-47195400D01*
X64696000Y-47200400D01*
X64692000Y-47204400D01*
X64689000Y-47209400D01*
X64685000Y-47213400D01*
X64681000Y-47217400D01*
X64676000Y-47220400D01*
X64672000Y-47224400D01*
X64667000Y-47227400D01*
X64662000Y-47230400D01*
X64657000Y-47233400D01*
X64652000Y-47235400D01*
X64646000Y-47238400D01*
X64641000Y-47240400D01*
X64635000Y-47241400D01*
X64630000Y-47243400D01*
X64624000Y-47244400D01*
X64618000Y-47244400D01*
X64613000Y-47245400D01*
X64607000Y-47245400D01*
X63357000Y-47245400D01*
X63351000Y-47245400D01*
X63346000Y-47244400D01*
X63340000Y-47244400D01*
X63334000Y-47243400D01*
X63329000Y-47241400D01*
X63323000Y-47240400D01*
X63318000Y-47238400D01*
X63312000Y-47235400D01*
X63307000Y-47233400D01*
X63302000Y-47230400D01*
X63297000Y-47227400D01*
X63292000Y-47224400D01*
X63288000Y-47220400D01*
X63283000Y-47217400D01*
X63279000Y-47213400D01*
X63275000Y-47209400D01*
X63272000Y-47204400D01*
X63268000Y-47200400D01*
X63265000Y-47195400D01*
X63262000Y-47190400D01*
X63259000Y-47185400D01*
X63257000Y-47180400D01*
X63254000Y-47174400D01*
X63252000Y-47169400D01*
X63251000Y-47163400D01*
X63249000Y-47158400D01*
X63248000Y-47152400D01*
X63248000Y-47146400D01*
X63247000Y-47141400D01*
X63247000Y-47135400D01*
X63247000Y-46775400D01*
X63247000Y-46769400D01*
X63248000Y-46764400D01*
X63248000Y-46758400D01*
X63249000Y-46752400D01*
X63251000Y-46747400D01*
X63252000Y-46741400D01*
X63254000Y-46736400D01*
X63257000Y-46730400D01*
X63259000Y-46725400D01*
X63262000Y-46720400D01*
X63265000Y-46715400D01*
X63268000Y-46710400D01*
X63272000Y-46706400D01*
X63275000Y-46701400D01*
X63279000Y-46697400D01*
X63283000Y-46693400D01*
X63288000Y-46690400D01*
X63292000Y-46686400D01*
X63297000Y-46683400D01*
X63302000Y-46680400D01*
X63307000Y-46677400D01*
X63312000Y-46675400D01*
X63318000Y-46672400D01*
X63323000Y-46670400D01*
X63329000Y-46669400D01*
X63334000Y-46667400D01*
X63340000Y-46666400D01*
X63346000Y-46666400D01*
X63351000Y-46665400D01*
X63357000Y-46665400D01*
X64607000Y-46665400D01*
X64613000Y-46665400D01*
X64618000Y-46666400D01*
G36*
X64618000Y-46666400D02*
G01*
X64624000Y-46666400D01*
X64630000Y-46667400D01*
X64635000Y-46669400D01*
X64641000Y-46670400D01*
X64646000Y-46672400D01*
X64652000Y-46675400D01*
X64657000Y-46677400D01*
X64662000Y-46680400D01*
X64667000Y-46683400D01*
X64672000Y-46686400D01*
X64676000Y-46690400D01*
X64681000Y-46693400D01*
X64685000Y-46697400D01*
X64689000Y-46701400D01*
X64692000Y-46706400D01*
X64696000Y-46710400D01*
X64699000Y-46715400D01*
X64702000Y-46720400D01*
X64705000Y-46725400D01*
X64707000Y-46730400D01*
X64710000Y-46736400D01*
X64712000Y-46741400D01*
X64713000Y-46747400D01*
X64715000Y-46752400D01*
X64716000Y-46758400D01*
X64716000Y-46764400D01*
X64717000Y-46769400D01*
X64717000Y-46775400D01*
X64717000Y-47135400D01*
X64717000Y-47141400D01*
X64716000Y-47146400D01*
X64716000Y-47152400D01*
X64715000Y-47158400D01*
X64713000Y-47163400D01*
X64712000Y-47169400D01*
X64710000Y-47174400D01*
X64707000Y-47180400D01*
X64705000Y-47185400D01*
X64702000Y-47190400D01*
X64699000Y-47195400D01*
X64696000Y-47200400D01*
X64692000Y-47204400D01*
X64689000Y-47209400D01*
X64685000Y-47213400D01*
X64681000Y-47217400D01*
X64676000Y-47220400D01*
X64672000Y-47224400D01*
X64667000Y-47227400D01*
X64662000Y-47230400D01*
X64657000Y-47233400D01*
X64652000Y-47235400D01*
X64646000Y-47238400D01*
X64641000Y-47240400D01*
X64635000Y-47241400D01*
X64630000Y-47243400D01*
X64624000Y-47244400D01*
X64618000Y-47244400D01*
X64613000Y-47245400D01*
X64607000Y-47245400D01*
X63357000Y-47245400D01*
X63351000Y-47245400D01*
X63346000Y-47244400D01*
X63340000Y-47244400D01*
X63334000Y-47243400D01*
X63329000Y-47241400D01*
X63323000Y-47240400D01*
X63318000Y-47238400D01*
X63312000Y-47235400D01*
X63307000Y-47233400D01*
X63302000Y-47230400D01*
X63297000Y-47227400D01*
X63292000Y-47224400D01*
X63288000Y-47220400D01*
X63283000Y-47217400D01*
X63279000Y-47213400D01*
X63275000Y-47209400D01*
X63272000Y-47204400D01*
X63268000Y-47200400D01*
X63265000Y-47195400D01*
X63262000Y-47190400D01*
X63259000Y-47185400D01*
X63257000Y-47180400D01*
X63254000Y-47174400D01*
X63252000Y-47169400D01*
X63251000Y-47163400D01*
X63249000Y-47158400D01*
X63248000Y-47152400D01*
X63248000Y-47146400D01*
X63247000Y-47141400D01*
X63247000Y-47135400D01*
X63247000Y-46775400D01*
X63247000Y-46769400D01*
X63248000Y-46764400D01*
X63248000Y-46758400D01*
X63249000Y-46752400D01*
X63251000Y-46747400D01*
X63252000Y-46741400D01*
X63254000Y-46736400D01*
X63257000Y-46730400D01*
X63259000Y-46725400D01*
X63262000Y-46720400D01*
X63265000Y-46715400D01*
X63268000Y-46710400D01*
X63272000Y-46706400D01*
X63275000Y-46701400D01*
X63279000Y-46697400D01*
X63283000Y-46693400D01*
X63288000Y-46690400D01*
X63292000Y-46686400D01*
X63297000Y-46683400D01*
X63302000Y-46680400D01*
X63307000Y-46677400D01*
X63312000Y-46675400D01*
X63318000Y-46672400D01*
X63323000Y-46670400D01*
X63329000Y-46669400D01*
X63334000Y-46667400D01*
X63340000Y-46666400D01*
X63346000Y-46666400D01*
X63351000Y-46665400D01*
X63357000Y-46665400D01*
X64607000Y-46665400D01*
X64613000Y-46665400D01*
X64618000Y-46666400D01*
G37*
X66918000Y-44716400D02*
X66924000Y-44716400D01*
X66930000Y-44717400D01*
X66935000Y-44719400D01*
X66941000Y-44720400D01*
X66946000Y-44722400D01*
X66952000Y-44725400D01*
X66957000Y-44727400D01*
X66962000Y-44730400D01*
X66967000Y-44733400D01*
X66972000Y-44736400D01*
X66976000Y-44740400D01*
X66981000Y-44743400D01*
X66985000Y-44747400D01*
X66989000Y-44751400D01*
X66992000Y-44756400D01*
X66996000Y-44760400D01*
X66999000Y-44765400D01*
X67002000Y-44770400D01*
X67005000Y-44775400D01*
X67007000Y-44780400D01*
X67010000Y-44786400D01*
X67012000Y-44791400D01*
X67013000Y-44797400D01*
X67015000Y-44802400D01*
X67016000Y-44808400D01*
X67016000Y-44814400D01*
X67017000Y-44819400D01*
X67017000Y-44825400D01*
X67017000Y-45185400D01*
X67017000Y-45191400D01*
X67016000Y-45196400D01*
X67016000Y-45202400D01*
X67015000Y-45208400D01*
X67013000Y-45213400D01*
X67012000Y-45219400D01*
X67010000Y-45224400D01*
X67007000Y-45230400D01*
X67005000Y-45235400D01*
X67002000Y-45240400D01*
X66999000Y-45245400D01*
X66996000Y-45250400D01*
X66992000Y-45254400D01*
X66989000Y-45259400D01*
X66985000Y-45263400D01*
X66981000Y-45267400D01*
X66976000Y-45270400D01*
X66972000Y-45274400D01*
X66967000Y-45277400D01*
X66962000Y-45280400D01*
X66957000Y-45283400D01*
X66952000Y-45285400D01*
X66946000Y-45288400D01*
X66941000Y-45290400D01*
X66935000Y-45291400D01*
X66930000Y-45293400D01*
X66924000Y-45294400D01*
X66918000Y-45294400D01*
X66913000Y-45295400D01*
X66907000Y-45295400D01*
X65657000Y-45295400D01*
X65651000Y-45295400D01*
X65646000Y-45294400D01*
X65640000Y-45294400D01*
X65634000Y-45293400D01*
X65629000Y-45291400D01*
X65623000Y-45290400D01*
X65618000Y-45288400D01*
X65612000Y-45285400D01*
X65607000Y-45283400D01*
X65602000Y-45280400D01*
X65597000Y-45277400D01*
X65592000Y-45274400D01*
X65588000Y-45270400D01*
X65583000Y-45267400D01*
X65579000Y-45263400D01*
X65575000Y-45259400D01*
X65572000Y-45254400D01*
X65568000Y-45250400D01*
X65565000Y-45245400D01*
X65562000Y-45240400D01*
X65559000Y-45235400D01*
X65557000Y-45230400D01*
X65554000Y-45224400D01*
X65552000Y-45219400D01*
X65551000Y-45213400D01*
X65549000Y-45208400D01*
X65548000Y-45202400D01*
X65548000Y-45196400D01*
X65547000Y-45191400D01*
X65547000Y-45185400D01*
X65547000Y-44825400D01*
X65547000Y-44819400D01*
X65548000Y-44814400D01*
X65548000Y-44808400D01*
X65549000Y-44802400D01*
X65551000Y-44797400D01*
X65552000Y-44791400D01*
X65554000Y-44786400D01*
X65557000Y-44780400D01*
X65559000Y-44775400D01*
X65562000Y-44770400D01*
X65565000Y-44765400D01*
X65568000Y-44760400D01*
X65572000Y-44756400D01*
X65575000Y-44751400D01*
X65579000Y-44747400D01*
X65583000Y-44743400D01*
X65588000Y-44740400D01*
X65592000Y-44736400D01*
X65597000Y-44733400D01*
X65602000Y-44730400D01*
X65607000Y-44727400D01*
X65612000Y-44725400D01*
X65618000Y-44722400D01*
X65623000Y-44720400D01*
X65629000Y-44719400D01*
X65634000Y-44717400D01*
X65640000Y-44716400D01*
X65646000Y-44716400D01*
X65651000Y-44715400D01*
X65657000Y-44715400D01*
X66907000Y-44715400D01*
X66913000Y-44715400D01*
X66918000Y-44716400D01*
G36*
X66918000Y-44716400D02*
G01*
X66924000Y-44716400D01*
X66930000Y-44717400D01*
X66935000Y-44719400D01*
X66941000Y-44720400D01*
X66946000Y-44722400D01*
X66952000Y-44725400D01*
X66957000Y-44727400D01*
X66962000Y-44730400D01*
X66967000Y-44733400D01*
X66972000Y-44736400D01*
X66976000Y-44740400D01*
X66981000Y-44743400D01*
X66985000Y-44747400D01*
X66989000Y-44751400D01*
X66992000Y-44756400D01*
X66996000Y-44760400D01*
X66999000Y-44765400D01*
X67002000Y-44770400D01*
X67005000Y-44775400D01*
X67007000Y-44780400D01*
X67010000Y-44786400D01*
X67012000Y-44791400D01*
X67013000Y-44797400D01*
X67015000Y-44802400D01*
X67016000Y-44808400D01*
X67016000Y-44814400D01*
X67017000Y-44819400D01*
X67017000Y-44825400D01*
X67017000Y-45185400D01*
X67017000Y-45191400D01*
X67016000Y-45196400D01*
X67016000Y-45202400D01*
X67015000Y-45208400D01*
X67013000Y-45213400D01*
X67012000Y-45219400D01*
X67010000Y-45224400D01*
X67007000Y-45230400D01*
X67005000Y-45235400D01*
X67002000Y-45240400D01*
X66999000Y-45245400D01*
X66996000Y-45250400D01*
X66992000Y-45254400D01*
X66989000Y-45259400D01*
X66985000Y-45263400D01*
X66981000Y-45267400D01*
X66976000Y-45270400D01*
X66972000Y-45274400D01*
X66967000Y-45277400D01*
X66962000Y-45280400D01*
X66957000Y-45283400D01*
X66952000Y-45285400D01*
X66946000Y-45288400D01*
X66941000Y-45290400D01*
X66935000Y-45291400D01*
X66930000Y-45293400D01*
X66924000Y-45294400D01*
X66918000Y-45294400D01*
X66913000Y-45295400D01*
X66907000Y-45295400D01*
X65657000Y-45295400D01*
X65651000Y-45295400D01*
X65646000Y-45294400D01*
X65640000Y-45294400D01*
X65634000Y-45293400D01*
X65629000Y-45291400D01*
X65623000Y-45290400D01*
X65618000Y-45288400D01*
X65612000Y-45285400D01*
X65607000Y-45283400D01*
X65602000Y-45280400D01*
X65597000Y-45277400D01*
X65592000Y-45274400D01*
X65588000Y-45270400D01*
X65583000Y-45267400D01*
X65579000Y-45263400D01*
X65575000Y-45259400D01*
X65572000Y-45254400D01*
X65568000Y-45250400D01*
X65565000Y-45245400D01*
X65562000Y-45240400D01*
X65559000Y-45235400D01*
X65557000Y-45230400D01*
X65554000Y-45224400D01*
X65552000Y-45219400D01*
X65551000Y-45213400D01*
X65549000Y-45208400D01*
X65548000Y-45202400D01*
X65548000Y-45196400D01*
X65547000Y-45191400D01*
X65547000Y-45185400D01*
X65547000Y-44825400D01*
X65547000Y-44819400D01*
X65548000Y-44814400D01*
X65548000Y-44808400D01*
X65549000Y-44802400D01*
X65551000Y-44797400D01*
X65552000Y-44791400D01*
X65554000Y-44786400D01*
X65557000Y-44780400D01*
X65559000Y-44775400D01*
X65562000Y-44770400D01*
X65565000Y-44765400D01*
X65568000Y-44760400D01*
X65572000Y-44756400D01*
X65575000Y-44751400D01*
X65579000Y-44747400D01*
X65583000Y-44743400D01*
X65588000Y-44740400D01*
X65592000Y-44736400D01*
X65597000Y-44733400D01*
X65602000Y-44730400D01*
X65607000Y-44727400D01*
X65612000Y-44725400D01*
X65618000Y-44722400D01*
X65623000Y-44720400D01*
X65629000Y-44719400D01*
X65634000Y-44717400D01*
X65640000Y-44716400D01*
X65646000Y-44716400D01*
X65651000Y-44715400D01*
X65657000Y-44715400D01*
X66907000Y-44715400D01*
X66913000Y-44715400D01*
X66918000Y-44716400D01*
G37*
X66918000Y-45366400D02*
X66924000Y-45366400D01*
X66930000Y-45367400D01*
X66935000Y-45369400D01*
X66941000Y-45370400D01*
X66946000Y-45372400D01*
X66952000Y-45375400D01*
X66957000Y-45377400D01*
X66962000Y-45380400D01*
X66967000Y-45383400D01*
X66972000Y-45386400D01*
X66976000Y-45390400D01*
X66981000Y-45393400D01*
X66985000Y-45397400D01*
X66989000Y-45401400D01*
X66992000Y-45406400D01*
X66996000Y-45410400D01*
X66999000Y-45415400D01*
X67002000Y-45420400D01*
X67005000Y-45425400D01*
X67007000Y-45430400D01*
X67010000Y-45436400D01*
X67012000Y-45441400D01*
X67013000Y-45447400D01*
X67015000Y-45452400D01*
X67016000Y-45458400D01*
X67016000Y-45464400D01*
X67017000Y-45469400D01*
X67017000Y-45475400D01*
X67017000Y-45835400D01*
X67017000Y-45841400D01*
X67016000Y-45846400D01*
X67016000Y-45852400D01*
X67015000Y-45858400D01*
X67013000Y-45863400D01*
X67012000Y-45869400D01*
X67010000Y-45874400D01*
X67007000Y-45880400D01*
X67005000Y-45885400D01*
X67002000Y-45890400D01*
X66999000Y-45895400D01*
X66996000Y-45900400D01*
X66992000Y-45904400D01*
X66989000Y-45909400D01*
X66985000Y-45913400D01*
X66981000Y-45917400D01*
X66976000Y-45920400D01*
X66972000Y-45924400D01*
X66967000Y-45927400D01*
X66962000Y-45930400D01*
X66957000Y-45933400D01*
X66952000Y-45935400D01*
X66946000Y-45938400D01*
X66941000Y-45940400D01*
X66935000Y-45941400D01*
X66930000Y-45943400D01*
X66924000Y-45944400D01*
X66918000Y-45944400D01*
X66913000Y-45945400D01*
X66907000Y-45945400D01*
X65657000Y-45945400D01*
X65651000Y-45945400D01*
X65646000Y-45944400D01*
X65640000Y-45944400D01*
X65634000Y-45943400D01*
X65629000Y-45941400D01*
X65623000Y-45940400D01*
X65618000Y-45938400D01*
X65612000Y-45935400D01*
X65607000Y-45933400D01*
X65602000Y-45930400D01*
X65597000Y-45927400D01*
X65592000Y-45924400D01*
X65588000Y-45920400D01*
X65583000Y-45917400D01*
X65579000Y-45913400D01*
X65575000Y-45909400D01*
X65572000Y-45904400D01*
X65568000Y-45900400D01*
X65565000Y-45895400D01*
X65562000Y-45890400D01*
X65559000Y-45885400D01*
X65557000Y-45880400D01*
X65554000Y-45874400D01*
X65552000Y-45869400D01*
X65551000Y-45863400D01*
X65549000Y-45858400D01*
X65548000Y-45852400D01*
X65548000Y-45846400D01*
X65547000Y-45841400D01*
X65547000Y-45835400D01*
X65547000Y-45475400D01*
X65547000Y-45469400D01*
X65548000Y-45464400D01*
X65548000Y-45458400D01*
X65549000Y-45452400D01*
X65551000Y-45447400D01*
X65552000Y-45441400D01*
X65554000Y-45436400D01*
X65557000Y-45430400D01*
X65559000Y-45425400D01*
X65562000Y-45420400D01*
X65565000Y-45415400D01*
X65568000Y-45410400D01*
X65572000Y-45406400D01*
X65575000Y-45401400D01*
X65579000Y-45397400D01*
X65583000Y-45393400D01*
X65588000Y-45390400D01*
X65592000Y-45386400D01*
X65597000Y-45383400D01*
X65602000Y-45380400D01*
X65607000Y-45377400D01*
X65612000Y-45375400D01*
X65618000Y-45372400D01*
X65623000Y-45370400D01*
X65629000Y-45369400D01*
X65634000Y-45367400D01*
X65640000Y-45366400D01*
X65646000Y-45366400D01*
X65651000Y-45365400D01*
X65657000Y-45365400D01*
X66907000Y-45365400D01*
X66913000Y-45365400D01*
X66918000Y-45366400D01*
G36*
X66918000Y-45366400D02*
G01*
X66924000Y-45366400D01*
X66930000Y-45367400D01*
X66935000Y-45369400D01*
X66941000Y-45370400D01*
X66946000Y-45372400D01*
X66952000Y-45375400D01*
X66957000Y-45377400D01*
X66962000Y-45380400D01*
X66967000Y-45383400D01*
X66972000Y-45386400D01*
X66976000Y-45390400D01*
X66981000Y-45393400D01*
X66985000Y-45397400D01*
X66989000Y-45401400D01*
X66992000Y-45406400D01*
X66996000Y-45410400D01*
X66999000Y-45415400D01*
X67002000Y-45420400D01*
X67005000Y-45425400D01*
X67007000Y-45430400D01*
X67010000Y-45436400D01*
X67012000Y-45441400D01*
X67013000Y-45447400D01*
X67015000Y-45452400D01*
X67016000Y-45458400D01*
X67016000Y-45464400D01*
X67017000Y-45469400D01*
X67017000Y-45475400D01*
X67017000Y-45835400D01*
X67017000Y-45841400D01*
X67016000Y-45846400D01*
X67016000Y-45852400D01*
X67015000Y-45858400D01*
X67013000Y-45863400D01*
X67012000Y-45869400D01*
X67010000Y-45874400D01*
X67007000Y-45880400D01*
X67005000Y-45885400D01*
X67002000Y-45890400D01*
X66999000Y-45895400D01*
X66996000Y-45900400D01*
X66992000Y-45904400D01*
X66989000Y-45909400D01*
X66985000Y-45913400D01*
X66981000Y-45917400D01*
X66976000Y-45920400D01*
X66972000Y-45924400D01*
X66967000Y-45927400D01*
X66962000Y-45930400D01*
X66957000Y-45933400D01*
X66952000Y-45935400D01*
X66946000Y-45938400D01*
X66941000Y-45940400D01*
X66935000Y-45941400D01*
X66930000Y-45943400D01*
X66924000Y-45944400D01*
X66918000Y-45944400D01*
X66913000Y-45945400D01*
X66907000Y-45945400D01*
X65657000Y-45945400D01*
X65651000Y-45945400D01*
X65646000Y-45944400D01*
X65640000Y-45944400D01*
X65634000Y-45943400D01*
X65629000Y-45941400D01*
X65623000Y-45940400D01*
X65618000Y-45938400D01*
X65612000Y-45935400D01*
X65607000Y-45933400D01*
X65602000Y-45930400D01*
X65597000Y-45927400D01*
X65592000Y-45924400D01*
X65588000Y-45920400D01*
X65583000Y-45917400D01*
X65579000Y-45913400D01*
X65575000Y-45909400D01*
X65572000Y-45904400D01*
X65568000Y-45900400D01*
X65565000Y-45895400D01*
X65562000Y-45890400D01*
X65559000Y-45885400D01*
X65557000Y-45880400D01*
X65554000Y-45874400D01*
X65552000Y-45869400D01*
X65551000Y-45863400D01*
X65549000Y-45858400D01*
X65548000Y-45852400D01*
X65548000Y-45846400D01*
X65547000Y-45841400D01*
X65547000Y-45835400D01*
X65547000Y-45475400D01*
X65547000Y-45469400D01*
X65548000Y-45464400D01*
X65548000Y-45458400D01*
X65549000Y-45452400D01*
X65551000Y-45447400D01*
X65552000Y-45441400D01*
X65554000Y-45436400D01*
X65557000Y-45430400D01*
X65559000Y-45425400D01*
X65562000Y-45420400D01*
X65565000Y-45415400D01*
X65568000Y-45410400D01*
X65572000Y-45406400D01*
X65575000Y-45401400D01*
X65579000Y-45397400D01*
X65583000Y-45393400D01*
X65588000Y-45390400D01*
X65592000Y-45386400D01*
X65597000Y-45383400D01*
X65602000Y-45380400D01*
X65607000Y-45377400D01*
X65612000Y-45375400D01*
X65618000Y-45372400D01*
X65623000Y-45370400D01*
X65629000Y-45369400D01*
X65634000Y-45367400D01*
X65640000Y-45366400D01*
X65646000Y-45366400D01*
X65651000Y-45365400D01*
X65657000Y-45365400D01*
X66907000Y-45365400D01*
X66913000Y-45365400D01*
X66918000Y-45366400D01*
G37*
X66918000Y-46016400D02*
X66924000Y-46016400D01*
X66930000Y-46017400D01*
X66935000Y-46019400D01*
X66941000Y-46020400D01*
X66946000Y-46022400D01*
X66952000Y-46025400D01*
X66957000Y-46027400D01*
X66962000Y-46030400D01*
X66967000Y-46033400D01*
X66972000Y-46036400D01*
X66976000Y-46040400D01*
X66981000Y-46043400D01*
X66985000Y-46047400D01*
X66989000Y-46051400D01*
X66992000Y-46056400D01*
X66996000Y-46060400D01*
X66999000Y-46065400D01*
X67002000Y-46070400D01*
X67005000Y-46075400D01*
X67007000Y-46080400D01*
X67010000Y-46086400D01*
X67012000Y-46091400D01*
X67013000Y-46097400D01*
X67015000Y-46102400D01*
X67016000Y-46108400D01*
X67016000Y-46114400D01*
X67017000Y-46119400D01*
X67017000Y-46125400D01*
X67017000Y-46485400D01*
X67017000Y-46491400D01*
X67016000Y-46496400D01*
X67016000Y-46502400D01*
X67015000Y-46508400D01*
X67013000Y-46513400D01*
X67012000Y-46519400D01*
X67010000Y-46524400D01*
X67007000Y-46530400D01*
X67005000Y-46535400D01*
X67002000Y-46540400D01*
X66999000Y-46545400D01*
X66996000Y-46550400D01*
X66992000Y-46554400D01*
X66989000Y-46559400D01*
X66985000Y-46563400D01*
X66981000Y-46567400D01*
X66976000Y-46570400D01*
X66972000Y-46574400D01*
X66967000Y-46577400D01*
X66962000Y-46580400D01*
X66957000Y-46583400D01*
X66952000Y-46585400D01*
X66946000Y-46588400D01*
X66941000Y-46590400D01*
X66935000Y-46591400D01*
X66930000Y-46593400D01*
X66924000Y-46594400D01*
X66918000Y-46594400D01*
X66913000Y-46595400D01*
X66907000Y-46595400D01*
X65657000Y-46595400D01*
X65651000Y-46595400D01*
X65646000Y-46594400D01*
X65640000Y-46594400D01*
X65634000Y-46593400D01*
X65629000Y-46591400D01*
X65623000Y-46590400D01*
X65618000Y-46588400D01*
X65612000Y-46585400D01*
X65607000Y-46583400D01*
X65602000Y-46580400D01*
X65597000Y-46577400D01*
X65592000Y-46574400D01*
X65588000Y-46570400D01*
X65583000Y-46567400D01*
X65579000Y-46563400D01*
X65575000Y-46559400D01*
X65572000Y-46554400D01*
X65568000Y-46550400D01*
X65565000Y-46545400D01*
X65562000Y-46540400D01*
X65559000Y-46535400D01*
X65557000Y-46530400D01*
X65554000Y-46524400D01*
X65552000Y-46519400D01*
X65551000Y-46513400D01*
X65549000Y-46508400D01*
X65548000Y-46502400D01*
X65548000Y-46496400D01*
X65547000Y-46491400D01*
X65547000Y-46485400D01*
X65547000Y-46125400D01*
X65547000Y-46119400D01*
X65548000Y-46114400D01*
X65548000Y-46108400D01*
X65549000Y-46102400D01*
X65551000Y-46097400D01*
X65552000Y-46091400D01*
X65554000Y-46086400D01*
X65557000Y-46080400D01*
X65559000Y-46075400D01*
X65562000Y-46070400D01*
X65565000Y-46065400D01*
X65568000Y-46060400D01*
X65572000Y-46056400D01*
X65575000Y-46051400D01*
X65579000Y-46047400D01*
X65583000Y-46043400D01*
X65588000Y-46040400D01*
X65592000Y-46036400D01*
X65597000Y-46033400D01*
X65602000Y-46030400D01*
X65607000Y-46027400D01*
X65612000Y-46025400D01*
X65618000Y-46022400D01*
X65623000Y-46020400D01*
X65629000Y-46019400D01*
X65634000Y-46017400D01*
X65640000Y-46016400D01*
X65646000Y-46016400D01*
X65651000Y-46015400D01*
X65657000Y-46015400D01*
X66907000Y-46015400D01*
X66913000Y-46015400D01*
X66918000Y-46016400D01*
G36*
X66918000Y-46016400D02*
G01*
X66924000Y-46016400D01*
X66930000Y-46017400D01*
X66935000Y-46019400D01*
X66941000Y-46020400D01*
X66946000Y-46022400D01*
X66952000Y-46025400D01*
X66957000Y-46027400D01*
X66962000Y-46030400D01*
X66967000Y-46033400D01*
X66972000Y-46036400D01*
X66976000Y-46040400D01*
X66981000Y-46043400D01*
X66985000Y-46047400D01*
X66989000Y-46051400D01*
X66992000Y-46056400D01*
X66996000Y-46060400D01*
X66999000Y-46065400D01*
X67002000Y-46070400D01*
X67005000Y-46075400D01*
X67007000Y-46080400D01*
X67010000Y-46086400D01*
X67012000Y-46091400D01*
X67013000Y-46097400D01*
X67015000Y-46102400D01*
X67016000Y-46108400D01*
X67016000Y-46114400D01*
X67017000Y-46119400D01*
X67017000Y-46125400D01*
X67017000Y-46485400D01*
X67017000Y-46491400D01*
X67016000Y-46496400D01*
X67016000Y-46502400D01*
X67015000Y-46508400D01*
X67013000Y-46513400D01*
X67012000Y-46519400D01*
X67010000Y-46524400D01*
X67007000Y-46530400D01*
X67005000Y-46535400D01*
X67002000Y-46540400D01*
X66999000Y-46545400D01*
X66996000Y-46550400D01*
X66992000Y-46554400D01*
X66989000Y-46559400D01*
X66985000Y-46563400D01*
X66981000Y-46567400D01*
X66976000Y-46570400D01*
X66972000Y-46574400D01*
X66967000Y-46577400D01*
X66962000Y-46580400D01*
X66957000Y-46583400D01*
X66952000Y-46585400D01*
X66946000Y-46588400D01*
X66941000Y-46590400D01*
X66935000Y-46591400D01*
X66930000Y-46593400D01*
X66924000Y-46594400D01*
X66918000Y-46594400D01*
X66913000Y-46595400D01*
X66907000Y-46595400D01*
X65657000Y-46595400D01*
X65651000Y-46595400D01*
X65646000Y-46594400D01*
X65640000Y-46594400D01*
X65634000Y-46593400D01*
X65629000Y-46591400D01*
X65623000Y-46590400D01*
X65618000Y-46588400D01*
X65612000Y-46585400D01*
X65607000Y-46583400D01*
X65602000Y-46580400D01*
X65597000Y-46577400D01*
X65592000Y-46574400D01*
X65588000Y-46570400D01*
X65583000Y-46567400D01*
X65579000Y-46563400D01*
X65575000Y-46559400D01*
X65572000Y-46554400D01*
X65568000Y-46550400D01*
X65565000Y-46545400D01*
X65562000Y-46540400D01*
X65559000Y-46535400D01*
X65557000Y-46530400D01*
X65554000Y-46524400D01*
X65552000Y-46519400D01*
X65551000Y-46513400D01*
X65549000Y-46508400D01*
X65548000Y-46502400D01*
X65548000Y-46496400D01*
X65547000Y-46491400D01*
X65547000Y-46485400D01*
X65547000Y-46125400D01*
X65547000Y-46119400D01*
X65548000Y-46114400D01*
X65548000Y-46108400D01*
X65549000Y-46102400D01*
X65551000Y-46097400D01*
X65552000Y-46091400D01*
X65554000Y-46086400D01*
X65557000Y-46080400D01*
X65559000Y-46075400D01*
X65562000Y-46070400D01*
X65565000Y-46065400D01*
X65568000Y-46060400D01*
X65572000Y-46056400D01*
X65575000Y-46051400D01*
X65579000Y-46047400D01*
X65583000Y-46043400D01*
X65588000Y-46040400D01*
X65592000Y-46036400D01*
X65597000Y-46033400D01*
X65602000Y-46030400D01*
X65607000Y-46027400D01*
X65612000Y-46025400D01*
X65618000Y-46022400D01*
X65623000Y-46020400D01*
X65629000Y-46019400D01*
X65634000Y-46017400D01*
X65640000Y-46016400D01*
X65646000Y-46016400D01*
X65651000Y-46015400D01*
X65657000Y-46015400D01*
X66907000Y-46015400D01*
X66913000Y-46015400D01*
X66918000Y-46016400D01*
G37*
X66918000Y-46666400D02*
X66924000Y-46666400D01*
X66930000Y-46667400D01*
X66935000Y-46669400D01*
X66941000Y-46670400D01*
X66946000Y-46672400D01*
X66952000Y-46675400D01*
X66957000Y-46677400D01*
X66962000Y-46680400D01*
X66967000Y-46683400D01*
X66972000Y-46686400D01*
X66976000Y-46690400D01*
X66981000Y-46693400D01*
X66985000Y-46697400D01*
X66989000Y-46701400D01*
X66992000Y-46706400D01*
X66996000Y-46710400D01*
X66999000Y-46715400D01*
X67002000Y-46720400D01*
X67005000Y-46725400D01*
X67007000Y-46730400D01*
X67010000Y-46736400D01*
X67012000Y-46741400D01*
X67013000Y-46747400D01*
X67015000Y-46752400D01*
X67016000Y-46758400D01*
X67016000Y-46764400D01*
X67017000Y-46769400D01*
X67017000Y-46775400D01*
X67017000Y-47135400D01*
X67017000Y-47141400D01*
X67016000Y-47146400D01*
X67016000Y-47152400D01*
X67015000Y-47158400D01*
X67013000Y-47163400D01*
X67012000Y-47169400D01*
X67010000Y-47174400D01*
X67007000Y-47180400D01*
X67005000Y-47185400D01*
X67002000Y-47190400D01*
X66999000Y-47195400D01*
X66996000Y-47200400D01*
X66992000Y-47204400D01*
X66989000Y-47209400D01*
X66985000Y-47213400D01*
X66981000Y-47217400D01*
X66976000Y-47220400D01*
X66972000Y-47224400D01*
X66967000Y-47227400D01*
X66962000Y-47230400D01*
X66957000Y-47233400D01*
X66952000Y-47235400D01*
X66946000Y-47238400D01*
X66941000Y-47240400D01*
X66935000Y-47241400D01*
X66930000Y-47243400D01*
X66924000Y-47244400D01*
X66918000Y-47244400D01*
X66913000Y-47245400D01*
X66907000Y-47245400D01*
X65657000Y-47245400D01*
X65651000Y-47245400D01*
X65646000Y-47244400D01*
X65640000Y-47244400D01*
X65634000Y-47243400D01*
X65629000Y-47241400D01*
X65623000Y-47240400D01*
X65618000Y-47238400D01*
X65612000Y-47235400D01*
X65607000Y-47233400D01*
X65602000Y-47230400D01*
X65597000Y-47227400D01*
X65592000Y-47224400D01*
X65588000Y-47220400D01*
X65583000Y-47217400D01*
X65579000Y-47213400D01*
X65575000Y-47209400D01*
X65572000Y-47204400D01*
X65568000Y-47200400D01*
X65565000Y-47195400D01*
X65562000Y-47190400D01*
X65559000Y-47185400D01*
X65557000Y-47180400D01*
X65554000Y-47174400D01*
X65552000Y-47169400D01*
X65551000Y-47163400D01*
X65549000Y-47158400D01*
X65548000Y-47152400D01*
X65548000Y-47146400D01*
X65547000Y-47141400D01*
X65547000Y-47135400D01*
X65547000Y-46775400D01*
X65547000Y-46769400D01*
X65548000Y-46764400D01*
X65548000Y-46758400D01*
X65549000Y-46752400D01*
X65551000Y-46747400D01*
X65552000Y-46741400D01*
X65554000Y-46736400D01*
X65557000Y-46730400D01*
X65559000Y-46725400D01*
X65562000Y-46720400D01*
X65565000Y-46715400D01*
X65568000Y-46710400D01*
X65572000Y-46706400D01*
X65575000Y-46701400D01*
X65579000Y-46697400D01*
X65583000Y-46693400D01*
X65588000Y-46690400D01*
X65592000Y-46686400D01*
X65597000Y-46683400D01*
X65602000Y-46680400D01*
X65607000Y-46677400D01*
X65612000Y-46675400D01*
X65618000Y-46672400D01*
X65623000Y-46670400D01*
X65629000Y-46669400D01*
X65634000Y-46667400D01*
X65640000Y-46666400D01*
X65646000Y-46666400D01*
X65651000Y-46665400D01*
X65657000Y-46665400D01*
X66907000Y-46665400D01*
X66913000Y-46665400D01*
X66918000Y-46666400D01*
G36*
X66918000Y-46666400D02*
G01*
X66924000Y-46666400D01*
X66930000Y-46667400D01*
X66935000Y-46669400D01*
X66941000Y-46670400D01*
X66946000Y-46672400D01*
X66952000Y-46675400D01*
X66957000Y-46677400D01*
X66962000Y-46680400D01*
X66967000Y-46683400D01*
X66972000Y-46686400D01*
X66976000Y-46690400D01*
X66981000Y-46693400D01*
X66985000Y-46697400D01*
X66989000Y-46701400D01*
X66992000Y-46706400D01*
X66996000Y-46710400D01*
X66999000Y-46715400D01*
X67002000Y-46720400D01*
X67005000Y-46725400D01*
X67007000Y-46730400D01*
X67010000Y-46736400D01*
X67012000Y-46741400D01*
X67013000Y-46747400D01*
X67015000Y-46752400D01*
X67016000Y-46758400D01*
X67016000Y-46764400D01*
X67017000Y-46769400D01*
X67017000Y-46775400D01*
X67017000Y-47135400D01*
X67017000Y-47141400D01*
X67016000Y-47146400D01*
X67016000Y-47152400D01*
X67015000Y-47158400D01*
X67013000Y-47163400D01*
X67012000Y-47169400D01*
X67010000Y-47174400D01*
X67007000Y-47180400D01*
X67005000Y-47185400D01*
X67002000Y-47190400D01*
X66999000Y-47195400D01*
X66996000Y-47200400D01*
X66992000Y-47204400D01*
X66989000Y-47209400D01*
X66985000Y-47213400D01*
X66981000Y-47217400D01*
X66976000Y-47220400D01*
X66972000Y-47224400D01*
X66967000Y-47227400D01*
X66962000Y-47230400D01*
X66957000Y-47233400D01*
X66952000Y-47235400D01*
X66946000Y-47238400D01*
X66941000Y-47240400D01*
X66935000Y-47241400D01*
X66930000Y-47243400D01*
X66924000Y-47244400D01*
X66918000Y-47244400D01*
X66913000Y-47245400D01*
X66907000Y-47245400D01*
X65657000Y-47245400D01*
X65651000Y-47245400D01*
X65646000Y-47244400D01*
X65640000Y-47244400D01*
X65634000Y-47243400D01*
X65629000Y-47241400D01*
X65623000Y-47240400D01*
X65618000Y-47238400D01*
X65612000Y-47235400D01*
X65607000Y-47233400D01*
X65602000Y-47230400D01*
X65597000Y-47227400D01*
X65592000Y-47224400D01*
X65588000Y-47220400D01*
X65583000Y-47217400D01*
X65579000Y-47213400D01*
X65575000Y-47209400D01*
X65572000Y-47204400D01*
X65568000Y-47200400D01*
X65565000Y-47195400D01*
X65562000Y-47190400D01*
X65559000Y-47185400D01*
X65557000Y-47180400D01*
X65554000Y-47174400D01*
X65552000Y-47169400D01*
X65551000Y-47163400D01*
X65549000Y-47158400D01*
X65548000Y-47152400D01*
X65548000Y-47146400D01*
X65547000Y-47141400D01*
X65547000Y-47135400D01*
X65547000Y-46775400D01*
X65547000Y-46769400D01*
X65548000Y-46764400D01*
X65548000Y-46758400D01*
X65549000Y-46752400D01*
X65551000Y-46747400D01*
X65552000Y-46741400D01*
X65554000Y-46736400D01*
X65557000Y-46730400D01*
X65559000Y-46725400D01*
X65562000Y-46720400D01*
X65565000Y-46715400D01*
X65568000Y-46710400D01*
X65572000Y-46706400D01*
X65575000Y-46701400D01*
X65579000Y-46697400D01*
X65583000Y-46693400D01*
X65588000Y-46690400D01*
X65592000Y-46686400D01*
X65597000Y-46683400D01*
X65602000Y-46680400D01*
X65607000Y-46677400D01*
X65612000Y-46675400D01*
X65618000Y-46672400D01*
X65623000Y-46670400D01*
X65629000Y-46669400D01*
X65634000Y-46667400D01*
X65640000Y-46666400D01*
X65646000Y-46666400D01*
X65651000Y-46665400D01*
X65657000Y-46665400D01*
X66907000Y-46665400D01*
X66913000Y-46665400D01*
X66918000Y-46666400D01*
G37*
%TO.C,U7*%
X64598000Y-48141400D02*
X64604000Y-48141400D01*
X64610000Y-48142400D01*
X64615000Y-48144400D01*
X64621000Y-48145400D01*
X64626000Y-48147400D01*
X64632000Y-48150400D01*
X64637000Y-48152400D01*
X64642000Y-48155400D01*
X64647000Y-48158400D01*
X64652000Y-48161400D01*
X64656000Y-48165400D01*
X64661000Y-48168400D01*
X64665000Y-48172400D01*
X64669000Y-48176400D01*
X64672000Y-48181400D01*
X64676000Y-48185400D01*
X64679000Y-48190400D01*
X64682000Y-48195400D01*
X64685000Y-48200400D01*
X64687000Y-48205400D01*
X64690000Y-48211400D01*
X64692000Y-48216400D01*
X64693000Y-48222400D01*
X64695000Y-48227400D01*
X64696000Y-48233400D01*
X64696000Y-48239400D01*
X64697000Y-48244400D01*
X64697000Y-48250400D01*
X64697000Y-48610400D01*
X64697000Y-48616400D01*
X64696000Y-48621400D01*
X64696000Y-48627400D01*
X64695000Y-48633400D01*
X64693000Y-48638400D01*
X64692000Y-48644400D01*
X64690000Y-48649400D01*
X64687000Y-48655400D01*
X64685000Y-48660400D01*
X64682000Y-48665400D01*
X64679000Y-48670400D01*
X64676000Y-48675400D01*
X64672000Y-48679400D01*
X64669000Y-48684400D01*
X64665000Y-48688400D01*
X64661000Y-48692400D01*
X64656000Y-48695400D01*
X64652000Y-48699400D01*
X64647000Y-48702400D01*
X64642000Y-48705400D01*
X64637000Y-48708400D01*
X64632000Y-48710400D01*
X64626000Y-48713400D01*
X64621000Y-48715400D01*
X64615000Y-48716400D01*
X64610000Y-48718400D01*
X64604000Y-48719400D01*
X64598000Y-48719400D01*
X64593000Y-48720400D01*
X64587000Y-48720400D01*
X63337000Y-48720400D01*
X63331000Y-48720400D01*
X63326000Y-48719400D01*
X63320000Y-48719400D01*
X63314000Y-48718400D01*
X63309000Y-48716400D01*
X63303000Y-48715400D01*
X63298000Y-48713400D01*
X63292000Y-48710400D01*
X63287000Y-48708400D01*
X63282000Y-48705400D01*
X63277000Y-48702400D01*
X63272000Y-48699400D01*
X63268000Y-48695400D01*
X63263000Y-48692400D01*
X63259000Y-48688400D01*
X63255000Y-48684400D01*
X63252000Y-48679400D01*
X63248000Y-48675400D01*
X63245000Y-48670400D01*
X63242000Y-48665400D01*
X63239000Y-48660400D01*
X63237000Y-48655400D01*
X63234000Y-48649400D01*
X63232000Y-48644400D01*
X63231000Y-48638400D01*
X63229000Y-48633400D01*
X63228000Y-48627400D01*
X63228000Y-48621400D01*
X63227000Y-48616400D01*
X63227000Y-48610400D01*
X63227000Y-48250400D01*
X63227000Y-48244400D01*
X63228000Y-48239400D01*
X63228000Y-48233400D01*
X63229000Y-48227400D01*
X63231000Y-48222400D01*
X63232000Y-48216400D01*
X63234000Y-48211400D01*
X63237000Y-48205400D01*
X63239000Y-48200400D01*
X63242000Y-48195400D01*
X63245000Y-48190400D01*
X63248000Y-48185400D01*
X63252000Y-48181400D01*
X63255000Y-48176400D01*
X63259000Y-48172400D01*
X63263000Y-48168400D01*
X63268000Y-48165400D01*
X63272000Y-48161400D01*
X63277000Y-48158400D01*
X63282000Y-48155400D01*
X63287000Y-48152400D01*
X63292000Y-48150400D01*
X63298000Y-48147400D01*
X63303000Y-48145400D01*
X63309000Y-48144400D01*
X63314000Y-48142400D01*
X63320000Y-48141400D01*
X63326000Y-48141400D01*
X63331000Y-48140400D01*
X63337000Y-48140400D01*
X64587000Y-48140400D01*
X64593000Y-48140400D01*
X64598000Y-48141400D01*
G36*
X64598000Y-48141400D02*
G01*
X64604000Y-48141400D01*
X64610000Y-48142400D01*
X64615000Y-48144400D01*
X64621000Y-48145400D01*
X64626000Y-48147400D01*
X64632000Y-48150400D01*
X64637000Y-48152400D01*
X64642000Y-48155400D01*
X64647000Y-48158400D01*
X64652000Y-48161400D01*
X64656000Y-48165400D01*
X64661000Y-48168400D01*
X64665000Y-48172400D01*
X64669000Y-48176400D01*
X64672000Y-48181400D01*
X64676000Y-48185400D01*
X64679000Y-48190400D01*
X64682000Y-48195400D01*
X64685000Y-48200400D01*
X64687000Y-48205400D01*
X64690000Y-48211400D01*
X64692000Y-48216400D01*
X64693000Y-48222400D01*
X64695000Y-48227400D01*
X64696000Y-48233400D01*
X64696000Y-48239400D01*
X64697000Y-48244400D01*
X64697000Y-48250400D01*
X64697000Y-48610400D01*
X64697000Y-48616400D01*
X64696000Y-48621400D01*
X64696000Y-48627400D01*
X64695000Y-48633400D01*
X64693000Y-48638400D01*
X64692000Y-48644400D01*
X64690000Y-48649400D01*
X64687000Y-48655400D01*
X64685000Y-48660400D01*
X64682000Y-48665400D01*
X64679000Y-48670400D01*
X64676000Y-48675400D01*
X64672000Y-48679400D01*
X64669000Y-48684400D01*
X64665000Y-48688400D01*
X64661000Y-48692400D01*
X64656000Y-48695400D01*
X64652000Y-48699400D01*
X64647000Y-48702400D01*
X64642000Y-48705400D01*
X64637000Y-48708400D01*
X64632000Y-48710400D01*
X64626000Y-48713400D01*
X64621000Y-48715400D01*
X64615000Y-48716400D01*
X64610000Y-48718400D01*
X64604000Y-48719400D01*
X64598000Y-48719400D01*
X64593000Y-48720400D01*
X64587000Y-48720400D01*
X63337000Y-48720400D01*
X63331000Y-48720400D01*
X63326000Y-48719400D01*
X63320000Y-48719400D01*
X63314000Y-48718400D01*
X63309000Y-48716400D01*
X63303000Y-48715400D01*
X63298000Y-48713400D01*
X63292000Y-48710400D01*
X63287000Y-48708400D01*
X63282000Y-48705400D01*
X63277000Y-48702400D01*
X63272000Y-48699400D01*
X63268000Y-48695400D01*
X63263000Y-48692400D01*
X63259000Y-48688400D01*
X63255000Y-48684400D01*
X63252000Y-48679400D01*
X63248000Y-48675400D01*
X63245000Y-48670400D01*
X63242000Y-48665400D01*
X63239000Y-48660400D01*
X63237000Y-48655400D01*
X63234000Y-48649400D01*
X63232000Y-48644400D01*
X63231000Y-48638400D01*
X63229000Y-48633400D01*
X63228000Y-48627400D01*
X63228000Y-48621400D01*
X63227000Y-48616400D01*
X63227000Y-48610400D01*
X63227000Y-48250400D01*
X63227000Y-48244400D01*
X63228000Y-48239400D01*
X63228000Y-48233400D01*
X63229000Y-48227400D01*
X63231000Y-48222400D01*
X63232000Y-48216400D01*
X63234000Y-48211400D01*
X63237000Y-48205400D01*
X63239000Y-48200400D01*
X63242000Y-48195400D01*
X63245000Y-48190400D01*
X63248000Y-48185400D01*
X63252000Y-48181400D01*
X63255000Y-48176400D01*
X63259000Y-48172400D01*
X63263000Y-48168400D01*
X63268000Y-48165400D01*
X63272000Y-48161400D01*
X63277000Y-48158400D01*
X63282000Y-48155400D01*
X63287000Y-48152400D01*
X63292000Y-48150400D01*
X63298000Y-48147400D01*
X63303000Y-48145400D01*
X63309000Y-48144400D01*
X63314000Y-48142400D01*
X63320000Y-48141400D01*
X63326000Y-48141400D01*
X63331000Y-48140400D01*
X63337000Y-48140400D01*
X64587000Y-48140400D01*
X64593000Y-48140400D01*
X64598000Y-48141400D01*
G37*
X64598000Y-48791400D02*
X64604000Y-48791400D01*
X64610000Y-48792400D01*
X64615000Y-48794400D01*
X64621000Y-48795400D01*
X64626000Y-48797400D01*
X64632000Y-48800400D01*
X64637000Y-48802400D01*
X64642000Y-48805400D01*
X64647000Y-48808400D01*
X64652000Y-48811400D01*
X64656000Y-48815400D01*
X64661000Y-48818400D01*
X64665000Y-48822400D01*
X64669000Y-48826400D01*
X64672000Y-48831400D01*
X64676000Y-48835400D01*
X64679000Y-48840400D01*
X64682000Y-48845400D01*
X64685000Y-48850400D01*
X64687000Y-48855400D01*
X64690000Y-48861400D01*
X64692000Y-48866400D01*
X64693000Y-48872400D01*
X64695000Y-48877400D01*
X64696000Y-48883400D01*
X64696000Y-48889400D01*
X64697000Y-48894400D01*
X64697000Y-48900400D01*
X64697000Y-49260400D01*
X64697000Y-49266400D01*
X64696000Y-49271400D01*
X64696000Y-49277400D01*
X64695000Y-49283400D01*
X64693000Y-49288400D01*
X64692000Y-49294400D01*
X64690000Y-49299400D01*
X64687000Y-49305400D01*
X64685000Y-49310400D01*
X64682000Y-49315400D01*
X64679000Y-49320400D01*
X64676000Y-49325400D01*
X64672000Y-49329400D01*
X64669000Y-49334400D01*
X64665000Y-49338400D01*
X64661000Y-49342400D01*
X64656000Y-49345400D01*
X64652000Y-49349400D01*
X64647000Y-49352400D01*
X64642000Y-49355400D01*
X64637000Y-49358400D01*
X64632000Y-49360400D01*
X64626000Y-49363400D01*
X64621000Y-49365400D01*
X64615000Y-49366400D01*
X64610000Y-49368400D01*
X64604000Y-49369400D01*
X64598000Y-49369400D01*
X64593000Y-49370400D01*
X64587000Y-49370400D01*
X63337000Y-49370400D01*
X63331000Y-49370400D01*
X63326000Y-49369400D01*
X63320000Y-49369400D01*
X63314000Y-49368400D01*
X63309000Y-49366400D01*
X63303000Y-49365400D01*
X63298000Y-49363400D01*
X63292000Y-49360400D01*
X63287000Y-49358400D01*
X63282000Y-49355400D01*
X63277000Y-49352400D01*
X63272000Y-49349400D01*
X63268000Y-49345400D01*
X63263000Y-49342400D01*
X63259000Y-49338400D01*
X63255000Y-49334400D01*
X63252000Y-49329400D01*
X63248000Y-49325400D01*
X63245000Y-49320400D01*
X63242000Y-49315400D01*
X63239000Y-49310400D01*
X63237000Y-49305400D01*
X63234000Y-49299400D01*
X63232000Y-49294400D01*
X63231000Y-49288400D01*
X63229000Y-49283400D01*
X63228000Y-49277400D01*
X63228000Y-49271400D01*
X63227000Y-49266400D01*
X63227000Y-49260400D01*
X63227000Y-48900400D01*
X63227000Y-48894400D01*
X63228000Y-48889400D01*
X63228000Y-48883400D01*
X63229000Y-48877400D01*
X63231000Y-48872400D01*
X63232000Y-48866400D01*
X63234000Y-48861400D01*
X63237000Y-48855400D01*
X63239000Y-48850400D01*
X63242000Y-48845400D01*
X63245000Y-48840400D01*
X63248000Y-48835400D01*
X63252000Y-48831400D01*
X63255000Y-48826400D01*
X63259000Y-48822400D01*
X63263000Y-48818400D01*
X63268000Y-48815400D01*
X63272000Y-48811400D01*
X63277000Y-48808400D01*
X63282000Y-48805400D01*
X63287000Y-48802400D01*
X63292000Y-48800400D01*
X63298000Y-48797400D01*
X63303000Y-48795400D01*
X63309000Y-48794400D01*
X63314000Y-48792400D01*
X63320000Y-48791400D01*
X63326000Y-48791400D01*
X63331000Y-48790400D01*
X63337000Y-48790400D01*
X64587000Y-48790400D01*
X64593000Y-48790400D01*
X64598000Y-48791400D01*
G36*
X64598000Y-48791400D02*
G01*
X64604000Y-48791400D01*
X64610000Y-48792400D01*
X64615000Y-48794400D01*
X64621000Y-48795400D01*
X64626000Y-48797400D01*
X64632000Y-48800400D01*
X64637000Y-48802400D01*
X64642000Y-48805400D01*
X64647000Y-48808400D01*
X64652000Y-48811400D01*
X64656000Y-48815400D01*
X64661000Y-48818400D01*
X64665000Y-48822400D01*
X64669000Y-48826400D01*
X64672000Y-48831400D01*
X64676000Y-48835400D01*
X64679000Y-48840400D01*
X64682000Y-48845400D01*
X64685000Y-48850400D01*
X64687000Y-48855400D01*
X64690000Y-48861400D01*
X64692000Y-48866400D01*
X64693000Y-48872400D01*
X64695000Y-48877400D01*
X64696000Y-48883400D01*
X64696000Y-48889400D01*
X64697000Y-48894400D01*
X64697000Y-48900400D01*
X64697000Y-49260400D01*
X64697000Y-49266400D01*
X64696000Y-49271400D01*
X64696000Y-49277400D01*
X64695000Y-49283400D01*
X64693000Y-49288400D01*
X64692000Y-49294400D01*
X64690000Y-49299400D01*
X64687000Y-49305400D01*
X64685000Y-49310400D01*
X64682000Y-49315400D01*
X64679000Y-49320400D01*
X64676000Y-49325400D01*
X64672000Y-49329400D01*
X64669000Y-49334400D01*
X64665000Y-49338400D01*
X64661000Y-49342400D01*
X64656000Y-49345400D01*
X64652000Y-49349400D01*
X64647000Y-49352400D01*
X64642000Y-49355400D01*
X64637000Y-49358400D01*
X64632000Y-49360400D01*
X64626000Y-49363400D01*
X64621000Y-49365400D01*
X64615000Y-49366400D01*
X64610000Y-49368400D01*
X64604000Y-49369400D01*
X64598000Y-49369400D01*
X64593000Y-49370400D01*
X64587000Y-49370400D01*
X63337000Y-49370400D01*
X63331000Y-49370400D01*
X63326000Y-49369400D01*
X63320000Y-49369400D01*
X63314000Y-49368400D01*
X63309000Y-49366400D01*
X63303000Y-49365400D01*
X63298000Y-49363400D01*
X63292000Y-49360400D01*
X63287000Y-49358400D01*
X63282000Y-49355400D01*
X63277000Y-49352400D01*
X63272000Y-49349400D01*
X63268000Y-49345400D01*
X63263000Y-49342400D01*
X63259000Y-49338400D01*
X63255000Y-49334400D01*
X63252000Y-49329400D01*
X63248000Y-49325400D01*
X63245000Y-49320400D01*
X63242000Y-49315400D01*
X63239000Y-49310400D01*
X63237000Y-49305400D01*
X63234000Y-49299400D01*
X63232000Y-49294400D01*
X63231000Y-49288400D01*
X63229000Y-49283400D01*
X63228000Y-49277400D01*
X63228000Y-49271400D01*
X63227000Y-49266400D01*
X63227000Y-49260400D01*
X63227000Y-48900400D01*
X63227000Y-48894400D01*
X63228000Y-48889400D01*
X63228000Y-48883400D01*
X63229000Y-48877400D01*
X63231000Y-48872400D01*
X63232000Y-48866400D01*
X63234000Y-48861400D01*
X63237000Y-48855400D01*
X63239000Y-48850400D01*
X63242000Y-48845400D01*
X63245000Y-48840400D01*
X63248000Y-48835400D01*
X63252000Y-48831400D01*
X63255000Y-48826400D01*
X63259000Y-48822400D01*
X63263000Y-48818400D01*
X63268000Y-48815400D01*
X63272000Y-48811400D01*
X63277000Y-48808400D01*
X63282000Y-48805400D01*
X63287000Y-48802400D01*
X63292000Y-48800400D01*
X63298000Y-48797400D01*
X63303000Y-48795400D01*
X63309000Y-48794400D01*
X63314000Y-48792400D01*
X63320000Y-48791400D01*
X63326000Y-48791400D01*
X63331000Y-48790400D01*
X63337000Y-48790400D01*
X64587000Y-48790400D01*
X64593000Y-48790400D01*
X64598000Y-48791400D01*
G37*
X64598000Y-49441400D02*
X64604000Y-49441400D01*
X64610000Y-49442400D01*
X64615000Y-49444400D01*
X64621000Y-49445400D01*
X64626000Y-49447400D01*
X64632000Y-49450400D01*
X64637000Y-49452400D01*
X64642000Y-49455400D01*
X64647000Y-49458400D01*
X64652000Y-49461400D01*
X64656000Y-49465400D01*
X64661000Y-49468400D01*
X64665000Y-49472400D01*
X64669000Y-49476400D01*
X64672000Y-49481400D01*
X64676000Y-49485400D01*
X64679000Y-49490400D01*
X64682000Y-49495400D01*
X64685000Y-49500400D01*
X64687000Y-49505400D01*
X64690000Y-49511400D01*
X64692000Y-49516400D01*
X64693000Y-49522400D01*
X64695000Y-49527400D01*
X64696000Y-49533400D01*
X64696000Y-49539400D01*
X64697000Y-49544400D01*
X64697000Y-49550400D01*
X64697000Y-49910400D01*
X64697000Y-49916400D01*
X64696000Y-49921400D01*
X64696000Y-49927400D01*
X64695000Y-49933400D01*
X64693000Y-49938400D01*
X64692000Y-49944400D01*
X64690000Y-49949400D01*
X64687000Y-49955400D01*
X64685000Y-49960400D01*
X64682000Y-49965400D01*
X64679000Y-49970400D01*
X64676000Y-49975400D01*
X64672000Y-49979400D01*
X64669000Y-49984400D01*
X64665000Y-49988400D01*
X64661000Y-49992400D01*
X64656000Y-49995400D01*
X64652000Y-49999400D01*
X64647000Y-50002400D01*
X64642000Y-50005400D01*
X64637000Y-50008400D01*
X64632000Y-50010400D01*
X64626000Y-50013400D01*
X64621000Y-50015400D01*
X64615000Y-50016400D01*
X64610000Y-50018400D01*
X64604000Y-50019400D01*
X64598000Y-50019400D01*
X64593000Y-50020400D01*
X64587000Y-50020400D01*
X63337000Y-50020400D01*
X63331000Y-50020400D01*
X63326000Y-50019400D01*
X63320000Y-50019400D01*
X63314000Y-50018400D01*
X63309000Y-50016400D01*
X63303000Y-50015400D01*
X63298000Y-50013400D01*
X63292000Y-50010400D01*
X63287000Y-50008400D01*
X63282000Y-50005400D01*
X63277000Y-50002400D01*
X63272000Y-49999400D01*
X63268000Y-49995400D01*
X63263000Y-49992400D01*
X63259000Y-49988400D01*
X63255000Y-49984400D01*
X63252000Y-49979400D01*
X63248000Y-49975400D01*
X63245000Y-49970400D01*
X63242000Y-49965400D01*
X63239000Y-49960400D01*
X63237000Y-49955400D01*
X63234000Y-49949400D01*
X63232000Y-49944400D01*
X63231000Y-49938400D01*
X63229000Y-49933400D01*
X63228000Y-49927400D01*
X63228000Y-49921400D01*
X63227000Y-49916400D01*
X63227000Y-49910400D01*
X63227000Y-49550400D01*
X63227000Y-49544400D01*
X63228000Y-49539400D01*
X63228000Y-49533400D01*
X63229000Y-49527400D01*
X63231000Y-49522400D01*
X63232000Y-49516400D01*
X63234000Y-49511400D01*
X63237000Y-49505400D01*
X63239000Y-49500400D01*
X63242000Y-49495400D01*
X63245000Y-49490400D01*
X63248000Y-49485400D01*
X63252000Y-49481400D01*
X63255000Y-49476400D01*
X63259000Y-49472400D01*
X63263000Y-49468400D01*
X63268000Y-49465400D01*
X63272000Y-49461400D01*
X63277000Y-49458400D01*
X63282000Y-49455400D01*
X63287000Y-49452400D01*
X63292000Y-49450400D01*
X63298000Y-49447400D01*
X63303000Y-49445400D01*
X63309000Y-49444400D01*
X63314000Y-49442400D01*
X63320000Y-49441400D01*
X63326000Y-49441400D01*
X63331000Y-49440400D01*
X63337000Y-49440400D01*
X64587000Y-49440400D01*
X64593000Y-49440400D01*
X64598000Y-49441400D01*
G36*
X64598000Y-49441400D02*
G01*
X64604000Y-49441400D01*
X64610000Y-49442400D01*
X64615000Y-49444400D01*
X64621000Y-49445400D01*
X64626000Y-49447400D01*
X64632000Y-49450400D01*
X64637000Y-49452400D01*
X64642000Y-49455400D01*
X64647000Y-49458400D01*
X64652000Y-49461400D01*
X64656000Y-49465400D01*
X64661000Y-49468400D01*
X64665000Y-49472400D01*
X64669000Y-49476400D01*
X64672000Y-49481400D01*
X64676000Y-49485400D01*
X64679000Y-49490400D01*
X64682000Y-49495400D01*
X64685000Y-49500400D01*
X64687000Y-49505400D01*
X64690000Y-49511400D01*
X64692000Y-49516400D01*
X64693000Y-49522400D01*
X64695000Y-49527400D01*
X64696000Y-49533400D01*
X64696000Y-49539400D01*
X64697000Y-49544400D01*
X64697000Y-49550400D01*
X64697000Y-49910400D01*
X64697000Y-49916400D01*
X64696000Y-49921400D01*
X64696000Y-49927400D01*
X64695000Y-49933400D01*
X64693000Y-49938400D01*
X64692000Y-49944400D01*
X64690000Y-49949400D01*
X64687000Y-49955400D01*
X64685000Y-49960400D01*
X64682000Y-49965400D01*
X64679000Y-49970400D01*
X64676000Y-49975400D01*
X64672000Y-49979400D01*
X64669000Y-49984400D01*
X64665000Y-49988400D01*
X64661000Y-49992400D01*
X64656000Y-49995400D01*
X64652000Y-49999400D01*
X64647000Y-50002400D01*
X64642000Y-50005400D01*
X64637000Y-50008400D01*
X64632000Y-50010400D01*
X64626000Y-50013400D01*
X64621000Y-50015400D01*
X64615000Y-50016400D01*
X64610000Y-50018400D01*
X64604000Y-50019400D01*
X64598000Y-50019400D01*
X64593000Y-50020400D01*
X64587000Y-50020400D01*
X63337000Y-50020400D01*
X63331000Y-50020400D01*
X63326000Y-50019400D01*
X63320000Y-50019400D01*
X63314000Y-50018400D01*
X63309000Y-50016400D01*
X63303000Y-50015400D01*
X63298000Y-50013400D01*
X63292000Y-50010400D01*
X63287000Y-50008400D01*
X63282000Y-50005400D01*
X63277000Y-50002400D01*
X63272000Y-49999400D01*
X63268000Y-49995400D01*
X63263000Y-49992400D01*
X63259000Y-49988400D01*
X63255000Y-49984400D01*
X63252000Y-49979400D01*
X63248000Y-49975400D01*
X63245000Y-49970400D01*
X63242000Y-49965400D01*
X63239000Y-49960400D01*
X63237000Y-49955400D01*
X63234000Y-49949400D01*
X63232000Y-49944400D01*
X63231000Y-49938400D01*
X63229000Y-49933400D01*
X63228000Y-49927400D01*
X63228000Y-49921400D01*
X63227000Y-49916400D01*
X63227000Y-49910400D01*
X63227000Y-49550400D01*
X63227000Y-49544400D01*
X63228000Y-49539400D01*
X63228000Y-49533400D01*
X63229000Y-49527400D01*
X63231000Y-49522400D01*
X63232000Y-49516400D01*
X63234000Y-49511400D01*
X63237000Y-49505400D01*
X63239000Y-49500400D01*
X63242000Y-49495400D01*
X63245000Y-49490400D01*
X63248000Y-49485400D01*
X63252000Y-49481400D01*
X63255000Y-49476400D01*
X63259000Y-49472400D01*
X63263000Y-49468400D01*
X63268000Y-49465400D01*
X63272000Y-49461400D01*
X63277000Y-49458400D01*
X63282000Y-49455400D01*
X63287000Y-49452400D01*
X63292000Y-49450400D01*
X63298000Y-49447400D01*
X63303000Y-49445400D01*
X63309000Y-49444400D01*
X63314000Y-49442400D01*
X63320000Y-49441400D01*
X63326000Y-49441400D01*
X63331000Y-49440400D01*
X63337000Y-49440400D01*
X64587000Y-49440400D01*
X64593000Y-49440400D01*
X64598000Y-49441400D01*
G37*
X64598000Y-50091400D02*
X64604000Y-50091400D01*
X64610000Y-50092400D01*
X64615000Y-50094400D01*
X64621000Y-50095400D01*
X64626000Y-50097400D01*
X64632000Y-50100400D01*
X64637000Y-50102400D01*
X64642000Y-50105400D01*
X64647000Y-50108400D01*
X64652000Y-50111400D01*
X64656000Y-50115400D01*
X64661000Y-50118400D01*
X64665000Y-50122400D01*
X64669000Y-50126400D01*
X64672000Y-50131400D01*
X64676000Y-50135400D01*
X64679000Y-50140400D01*
X64682000Y-50145400D01*
X64685000Y-50150400D01*
X64687000Y-50155400D01*
X64690000Y-50161400D01*
X64692000Y-50166400D01*
X64693000Y-50172400D01*
X64695000Y-50177400D01*
X64696000Y-50183400D01*
X64696000Y-50189400D01*
X64697000Y-50194400D01*
X64697000Y-50200400D01*
X64697000Y-50560400D01*
X64697000Y-50566400D01*
X64696000Y-50571400D01*
X64696000Y-50577400D01*
X64695000Y-50583400D01*
X64693000Y-50588400D01*
X64692000Y-50594400D01*
X64690000Y-50599400D01*
X64687000Y-50605400D01*
X64685000Y-50610400D01*
X64682000Y-50615400D01*
X64679000Y-50620400D01*
X64676000Y-50625400D01*
X64672000Y-50629400D01*
X64669000Y-50634400D01*
X64665000Y-50638400D01*
X64661000Y-50642400D01*
X64656000Y-50645400D01*
X64652000Y-50649400D01*
X64647000Y-50652400D01*
X64642000Y-50655400D01*
X64637000Y-50658400D01*
X64632000Y-50660400D01*
X64626000Y-50663400D01*
X64621000Y-50665400D01*
X64615000Y-50666400D01*
X64610000Y-50668400D01*
X64604000Y-50669400D01*
X64598000Y-50669400D01*
X64593000Y-50670400D01*
X64587000Y-50670400D01*
X63337000Y-50670400D01*
X63331000Y-50670400D01*
X63326000Y-50669400D01*
X63320000Y-50669400D01*
X63314000Y-50668400D01*
X63309000Y-50666400D01*
X63303000Y-50665400D01*
X63298000Y-50663400D01*
X63292000Y-50660400D01*
X63287000Y-50658400D01*
X63282000Y-50655400D01*
X63277000Y-50652400D01*
X63272000Y-50649400D01*
X63268000Y-50645400D01*
X63263000Y-50642400D01*
X63259000Y-50638400D01*
X63255000Y-50634400D01*
X63252000Y-50629400D01*
X63248000Y-50625400D01*
X63245000Y-50620400D01*
X63242000Y-50615400D01*
X63239000Y-50610400D01*
X63237000Y-50605400D01*
X63234000Y-50599400D01*
X63232000Y-50594400D01*
X63231000Y-50588400D01*
X63229000Y-50583400D01*
X63228000Y-50577400D01*
X63228000Y-50571400D01*
X63227000Y-50566400D01*
X63227000Y-50560400D01*
X63227000Y-50200400D01*
X63227000Y-50194400D01*
X63228000Y-50189400D01*
X63228000Y-50183400D01*
X63229000Y-50177400D01*
X63231000Y-50172400D01*
X63232000Y-50166400D01*
X63234000Y-50161400D01*
X63237000Y-50155400D01*
X63239000Y-50150400D01*
X63242000Y-50145400D01*
X63245000Y-50140400D01*
X63248000Y-50135400D01*
X63252000Y-50131400D01*
X63255000Y-50126400D01*
X63259000Y-50122400D01*
X63263000Y-50118400D01*
X63268000Y-50115400D01*
X63272000Y-50111400D01*
X63277000Y-50108400D01*
X63282000Y-50105400D01*
X63287000Y-50102400D01*
X63292000Y-50100400D01*
X63298000Y-50097400D01*
X63303000Y-50095400D01*
X63309000Y-50094400D01*
X63314000Y-50092400D01*
X63320000Y-50091400D01*
X63326000Y-50091400D01*
X63331000Y-50090400D01*
X63337000Y-50090400D01*
X64587000Y-50090400D01*
X64593000Y-50090400D01*
X64598000Y-50091400D01*
G36*
X64598000Y-50091400D02*
G01*
X64604000Y-50091400D01*
X64610000Y-50092400D01*
X64615000Y-50094400D01*
X64621000Y-50095400D01*
X64626000Y-50097400D01*
X64632000Y-50100400D01*
X64637000Y-50102400D01*
X64642000Y-50105400D01*
X64647000Y-50108400D01*
X64652000Y-50111400D01*
X64656000Y-50115400D01*
X64661000Y-50118400D01*
X64665000Y-50122400D01*
X64669000Y-50126400D01*
X64672000Y-50131400D01*
X64676000Y-50135400D01*
X64679000Y-50140400D01*
X64682000Y-50145400D01*
X64685000Y-50150400D01*
X64687000Y-50155400D01*
X64690000Y-50161400D01*
X64692000Y-50166400D01*
X64693000Y-50172400D01*
X64695000Y-50177400D01*
X64696000Y-50183400D01*
X64696000Y-50189400D01*
X64697000Y-50194400D01*
X64697000Y-50200400D01*
X64697000Y-50560400D01*
X64697000Y-50566400D01*
X64696000Y-50571400D01*
X64696000Y-50577400D01*
X64695000Y-50583400D01*
X64693000Y-50588400D01*
X64692000Y-50594400D01*
X64690000Y-50599400D01*
X64687000Y-50605400D01*
X64685000Y-50610400D01*
X64682000Y-50615400D01*
X64679000Y-50620400D01*
X64676000Y-50625400D01*
X64672000Y-50629400D01*
X64669000Y-50634400D01*
X64665000Y-50638400D01*
X64661000Y-50642400D01*
X64656000Y-50645400D01*
X64652000Y-50649400D01*
X64647000Y-50652400D01*
X64642000Y-50655400D01*
X64637000Y-50658400D01*
X64632000Y-50660400D01*
X64626000Y-50663400D01*
X64621000Y-50665400D01*
X64615000Y-50666400D01*
X64610000Y-50668400D01*
X64604000Y-50669400D01*
X64598000Y-50669400D01*
X64593000Y-50670400D01*
X64587000Y-50670400D01*
X63337000Y-50670400D01*
X63331000Y-50670400D01*
X63326000Y-50669400D01*
X63320000Y-50669400D01*
X63314000Y-50668400D01*
X63309000Y-50666400D01*
X63303000Y-50665400D01*
X63298000Y-50663400D01*
X63292000Y-50660400D01*
X63287000Y-50658400D01*
X63282000Y-50655400D01*
X63277000Y-50652400D01*
X63272000Y-50649400D01*
X63268000Y-50645400D01*
X63263000Y-50642400D01*
X63259000Y-50638400D01*
X63255000Y-50634400D01*
X63252000Y-50629400D01*
X63248000Y-50625400D01*
X63245000Y-50620400D01*
X63242000Y-50615400D01*
X63239000Y-50610400D01*
X63237000Y-50605400D01*
X63234000Y-50599400D01*
X63232000Y-50594400D01*
X63231000Y-50588400D01*
X63229000Y-50583400D01*
X63228000Y-50577400D01*
X63228000Y-50571400D01*
X63227000Y-50566400D01*
X63227000Y-50560400D01*
X63227000Y-50200400D01*
X63227000Y-50194400D01*
X63228000Y-50189400D01*
X63228000Y-50183400D01*
X63229000Y-50177400D01*
X63231000Y-50172400D01*
X63232000Y-50166400D01*
X63234000Y-50161400D01*
X63237000Y-50155400D01*
X63239000Y-50150400D01*
X63242000Y-50145400D01*
X63245000Y-50140400D01*
X63248000Y-50135400D01*
X63252000Y-50131400D01*
X63255000Y-50126400D01*
X63259000Y-50122400D01*
X63263000Y-50118400D01*
X63268000Y-50115400D01*
X63272000Y-50111400D01*
X63277000Y-50108400D01*
X63282000Y-50105400D01*
X63287000Y-50102400D01*
X63292000Y-50100400D01*
X63298000Y-50097400D01*
X63303000Y-50095400D01*
X63309000Y-50094400D01*
X63314000Y-50092400D01*
X63320000Y-50091400D01*
X63326000Y-50091400D01*
X63331000Y-50090400D01*
X63337000Y-50090400D01*
X64587000Y-50090400D01*
X64593000Y-50090400D01*
X64598000Y-50091400D01*
G37*
X66898000Y-48141400D02*
X66904000Y-48141400D01*
X66910000Y-48142400D01*
X66915000Y-48144400D01*
X66921000Y-48145400D01*
X66926000Y-48147400D01*
X66932000Y-48150400D01*
X66937000Y-48152400D01*
X66942000Y-48155400D01*
X66947000Y-48158400D01*
X66952000Y-48161400D01*
X66956000Y-48165400D01*
X66961000Y-48168400D01*
X66965000Y-48172400D01*
X66969000Y-48176400D01*
X66972000Y-48181400D01*
X66976000Y-48185400D01*
X66979000Y-48190400D01*
X66982000Y-48195400D01*
X66985000Y-48200400D01*
X66987000Y-48205400D01*
X66990000Y-48211400D01*
X66992000Y-48216400D01*
X66993000Y-48222400D01*
X66995000Y-48227400D01*
X66996000Y-48233400D01*
X66996000Y-48239400D01*
X66997000Y-48244400D01*
X66997000Y-48250400D01*
X66997000Y-48610400D01*
X66997000Y-48616400D01*
X66996000Y-48621400D01*
X66996000Y-48627400D01*
X66995000Y-48633400D01*
X66993000Y-48638400D01*
X66992000Y-48644400D01*
X66990000Y-48649400D01*
X66987000Y-48655400D01*
X66985000Y-48660400D01*
X66982000Y-48665400D01*
X66979000Y-48670400D01*
X66976000Y-48675400D01*
X66972000Y-48679400D01*
X66969000Y-48684400D01*
X66965000Y-48688400D01*
X66961000Y-48692400D01*
X66956000Y-48695400D01*
X66952000Y-48699400D01*
X66947000Y-48702400D01*
X66942000Y-48705400D01*
X66937000Y-48708400D01*
X66932000Y-48710400D01*
X66926000Y-48713400D01*
X66921000Y-48715400D01*
X66915000Y-48716400D01*
X66910000Y-48718400D01*
X66904000Y-48719400D01*
X66898000Y-48719400D01*
X66893000Y-48720400D01*
X66887000Y-48720400D01*
X65637000Y-48720400D01*
X65631000Y-48720400D01*
X65626000Y-48719400D01*
X65620000Y-48719400D01*
X65614000Y-48718400D01*
X65609000Y-48716400D01*
X65603000Y-48715400D01*
X65598000Y-48713400D01*
X65592000Y-48710400D01*
X65587000Y-48708400D01*
X65582000Y-48705400D01*
X65577000Y-48702400D01*
X65572000Y-48699400D01*
X65568000Y-48695400D01*
X65563000Y-48692400D01*
X65559000Y-48688400D01*
X65555000Y-48684400D01*
X65552000Y-48679400D01*
X65548000Y-48675400D01*
X65545000Y-48670400D01*
X65542000Y-48665400D01*
X65539000Y-48660400D01*
X65537000Y-48655400D01*
X65534000Y-48649400D01*
X65532000Y-48644400D01*
X65531000Y-48638400D01*
X65529000Y-48633400D01*
X65528000Y-48627400D01*
X65528000Y-48621400D01*
X65527000Y-48616400D01*
X65527000Y-48610400D01*
X65527000Y-48250400D01*
X65527000Y-48244400D01*
X65528000Y-48239400D01*
X65528000Y-48233400D01*
X65529000Y-48227400D01*
X65531000Y-48222400D01*
X65532000Y-48216400D01*
X65534000Y-48211400D01*
X65537000Y-48205400D01*
X65539000Y-48200400D01*
X65542000Y-48195400D01*
X65545000Y-48190400D01*
X65548000Y-48185400D01*
X65552000Y-48181400D01*
X65555000Y-48176400D01*
X65559000Y-48172400D01*
X65563000Y-48168400D01*
X65568000Y-48165400D01*
X65572000Y-48161400D01*
X65577000Y-48158400D01*
X65582000Y-48155400D01*
X65587000Y-48152400D01*
X65592000Y-48150400D01*
X65598000Y-48147400D01*
X65603000Y-48145400D01*
X65609000Y-48144400D01*
X65614000Y-48142400D01*
X65620000Y-48141400D01*
X65626000Y-48141400D01*
X65631000Y-48140400D01*
X65637000Y-48140400D01*
X66887000Y-48140400D01*
X66893000Y-48140400D01*
X66898000Y-48141400D01*
G36*
X66898000Y-48141400D02*
G01*
X66904000Y-48141400D01*
X66910000Y-48142400D01*
X66915000Y-48144400D01*
X66921000Y-48145400D01*
X66926000Y-48147400D01*
X66932000Y-48150400D01*
X66937000Y-48152400D01*
X66942000Y-48155400D01*
X66947000Y-48158400D01*
X66952000Y-48161400D01*
X66956000Y-48165400D01*
X66961000Y-48168400D01*
X66965000Y-48172400D01*
X66969000Y-48176400D01*
X66972000Y-48181400D01*
X66976000Y-48185400D01*
X66979000Y-48190400D01*
X66982000Y-48195400D01*
X66985000Y-48200400D01*
X66987000Y-48205400D01*
X66990000Y-48211400D01*
X66992000Y-48216400D01*
X66993000Y-48222400D01*
X66995000Y-48227400D01*
X66996000Y-48233400D01*
X66996000Y-48239400D01*
X66997000Y-48244400D01*
X66997000Y-48250400D01*
X66997000Y-48610400D01*
X66997000Y-48616400D01*
X66996000Y-48621400D01*
X66996000Y-48627400D01*
X66995000Y-48633400D01*
X66993000Y-48638400D01*
X66992000Y-48644400D01*
X66990000Y-48649400D01*
X66987000Y-48655400D01*
X66985000Y-48660400D01*
X66982000Y-48665400D01*
X66979000Y-48670400D01*
X66976000Y-48675400D01*
X66972000Y-48679400D01*
X66969000Y-48684400D01*
X66965000Y-48688400D01*
X66961000Y-48692400D01*
X66956000Y-48695400D01*
X66952000Y-48699400D01*
X66947000Y-48702400D01*
X66942000Y-48705400D01*
X66937000Y-48708400D01*
X66932000Y-48710400D01*
X66926000Y-48713400D01*
X66921000Y-48715400D01*
X66915000Y-48716400D01*
X66910000Y-48718400D01*
X66904000Y-48719400D01*
X66898000Y-48719400D01*
X66893000Y-48720400D01*
X66887000Y-48720400D01*
X65637000Y-48720400D01*
X65631000Y-48720400D01*
X65626000Y-48719400D01*
X65620000Y-48719400D01*
X65614000Y-48718400D01*
X65609000Y-48716400D01*
X65603000Y-48715400D01*
X65598000Y-48713400D01*
X65592000Y-48710400D01*
X65587000Y-48708400D01*
X65582000Y-48705400D01*
X65577000Y-48702400D01*
X65572000Y-48699400D01*
X65568000Y-48695400D01*
X65563000Y-48692400D01*
X65559000Y-48688400D01*
X65555000Y-48684400D01*
X65552000Y-48679400D01*
X65548000Y-48675400D01*
X65545000Y-48670400D01*
X65542000Y-48665400D01*
X65539000Y-48660400D01*
X65537000Y-48655400D01*
X65534000Y-48649400D01*
X65532000Y-48644400D01*
X65531000Y-48638400D01*
X65529000Y-48633400D01*
X65528000Y-48627400D01*
X65528000Y-48621400D01*
X65527000Y-48616400D01*
X65527000Y-48610400D01*
X65527000Y-48250400D01*
X65527000Y-48244400D01*
X65528000Y-48239400D01*
X65528000Y-48233400D01*
X65529000Y-48227400D01*
X65531000Y-48222400D01*
X65532000Y-48216400D01*
X65534000Y-48211400D01*
X65537000Y-48205400D01*
X65539000Y-48200400D01*
X65542000Y-48195400D01*
X65545000Y-48190400D01*
X65548000Y-48185400D01*
X65552000Y-48181400D01*
X65555000Y-48176400D01*
X65559000Y-48172400D01*
X65563000Y-48168400D01*
X65568000Y-48165400D01*
X65572000Y-48161400D01*
X65577000Y-48158400D01*
X65582000Y-48155400D01*
X65587000Y-48152400D01*
X65592000Y-48150400D01*
X65598000Y-48147400D01*
X65603000Y-48145400D01*
X65609000Y-48144400D01*
X65614000Y-48142400D01*
X65620000Y-48141400D01*
X65626000Y-48141400D01*
X65631000Y-48140400D01*
X65637000Y-48140400D01*
X66887000Y-48140400D01*
X66893000Y-48140400D01*
X66898000Y-48141400D01*
G37*
X66898000Y-48791400D02*
X66904000Y-48791400D01*
X66910000Y-48792400D01*
X66915000Y-48794400D01*
X66921000Y-48795400D01*
X66926000Y-48797400D01*
X66932000Y-48800400D01*
X66937000Y-48802400D01*
X66942000Y-48805400D01*
X66947000Y-48808400D01*
X66952000Y-48811400D01*
X66956000Y-48815400D01*
X66961000Y-48818400D01*
X66965000Y-48822400D01*
X66969000Y-48826400D01*
X66972000Y-48831400D01*
X66976000Y-48835400D01*
X66979000Y-48840400D01*
X66982000Y-48845400D01*
X66985000Y-48850400D01*
X66987000Y-48855400D01*
X66990000Y-48861400D01*
X66992000Y-48866400D01*
X66993000Y-48872400D01*
X66995000Y-48877400D01*
X66996000Y-48883400D01*
X66996000Y-48889400D01*
X66997000Y-48894400D01*
X66997000Y-48900400D01*
X66997000Y-49260400D01*
X66997000Y-49266400D01*
X66996000Y-49271400D01*
X66996000Y-49277400D01*
X66995000Y-49283400D01*
X66993000Y-49288400D01*
X66992000Y-49294400D01*
X66990000Y-49299400D01*
X66987000Y-49305400D01*
X66985000Y-49310400D01*
X66982000Y-49315400D01*
X66979000Y-49320400D01*
X66976000Y-49325400D01*
X66972000Y-49329400D01*
X66969000Y-49334400D01*
X66965000Y-49338400D01*
X66961000Y-49342400D01*
X66956000Y-49345400D01*
X66952000Y-49349400D01*
X66947000Y-49352400D01*
X66942000Y-49355400D01*
X66937000Y-49358400D01*
X66932000Y-49360400D01*
X66926000Y-49363400D01*
X66921000Y-49365400D01*
X66915000Y-49366400D01*
X66910000Y-49368400D01*
X66904000Y-49369400D01*
X66898000Y-49369400D01*
X66893000Y-49370400D01*
X66887000Y-49370400D01*
X65637000Y-49370400D01*
X65631000Y-49370400D01*
X65626000Y-49369400D01*
X65620000Y-49369400D01*
X65614000Y-49368400D01*
X65609000Y-49366400D01*
X65603000Y-49365400D01*
X65598000Y-49363400D01*
X65592000Y-49360400D01*
X65587000Y-49358400D01*
X65582000Y-49355400D01*
X65577000Y-49352400D01*
X65572000Y-49349400D01*
X65568000Y-49345400D01*
X65563000Y-49342400D01*
X65559000Y-49338400D01*
X65555000Y-49334400D01*
X65552000Y-49329400D01*
X65548000Y-49325400D01*
X65545000Y-49320400D01*
X65542000Y-49315400D01*
X65539000Y-49310400D01*
X65537000Y-49305400D01*
X65534000Y-49299400D01*
X65532000Y-49294400D01*
X65531000Y-49288400D01*
X65529000Y-49283400D01*
X65528000Y-49277400D01*
X65528000Y-49271400D01*
X65527000Y-49266400D01*
X65527000Y-49260400D01*
X65527000Y-48900400D01*
X65527000Y-48894400D01*
X65528000Y-48889400D01*
X65528000Y-48883400D01*
X65529000Y-48877400D01*
X65531000Y-48872400D01*
X65532000Y-48866400D01*
X65534000Y-48861400D01*
X65537000Y-48855400D01*
X65539000Y-48850400D01*
X65542000Y-48845400D01*
X65545000Y-48840400D01*
X65548000Y-48835400D01*
X65552000Y-48831400D01*
X65555000Y-48826400D01*
X65559000Y-48822400D01*
X65563000Y-48818400D01*
X65568000Y-48815400D01*
X65572000Y-48811400D01*
X65577000Y-48808400D01*
X65582000Y-48805400D01*
X65587000Y-48802400D01*
X65592000Y-48800400D01*
X65598000Y-48797400D01*
X65603000Y-48795400D01*
X65609000Y-48794400D01*
X65614000Y-48792400D01*
X65620000Y-48791400D01*
X65626000Y-48791400D01*
X65631000Y-48790400D01*
X65637000Y-48790400D01*
X66887000Y-48790400D01*
X66893000Y-48790400D01*
X66898000Y-48791400D01*
G36*
X66898000Y-48791400D02*
G01*
X66904000Y-48791400D01*
X66910000Y-48792400D01*
X66915000Y-48794400D01*
X66921000Y-48795400D01*
X66926000Y-48797400D01*
X66932000Y-48800400D01*
X66937000Y-48802400D01*
X66942000Y-48805400D01*
X66947000Y-48808400D01*
X66952000Y-48811400D01*
X66956000Y-48815400D01*
X66961000Y-48818400D01*
X66965000Y-48822400D01*
X66969000Y-48826400D01*
X66972000Y-48831400D01*
X66976000Y-48835400D01*
X66979000Y-48840400D01*
X66982000Y-48845400D01*
X66985000Y-48850400D01*
X66987000Y-48855400D01*
X66990000Y-48861400D01*
X66992000Y-48866400D01*
X66993000Y-48872400D01*
X66995000Y-48877400D01*
X66996000Y-48883400D01*
X66996000Y-48889400D01*
X66997000Y-48894400D01*
X66997000Y-48900400D01*
X66997000Y-49260400D01*
X66997000Y-49266400D01*
X66996000Y-49271400D01*
X66996000Y-49277400D01*
X66995000Y-49283400D01*
X66993000Y-49288400D01*
X66992000Y-49294400D01*
X66990000Y-49299400D01*
X66987000Y-49305400D01*
X66985000Y-49310400D01*
X66982000Y-49315400D01*
X66979000Y-49320400D01*
X66976000Y-49325400D01*
X66972000Y-49329400D01*
X66969000Y-49334400D01*
X66965000Y-49338400D01*
X66961000Y-49342400D01*
X66956000Y-49345400D01*
X66952000Y-49349400D01*
X66947000Y-49352400D01*
X66942000Y-49355400D01*
X66937000Y-49358400D01*
X66932000Y-49360400D01*
X66926000Y-49363400D01*
X66921000Y-49365400D01*
X66915000Y-49366400D01*
X66910000Y-49368400D01*
X66904000Y-49369400D01*
X66898000Y-49369400D01*
X66893000Y-49370400D01*
X66887000Y-49370400D01*
X65637000Y-49370400D01*
X65631000Y-49370400D01*
X65626000Y-49369400D01*
X65620000Y-49369400D01*
X65614000Y-49368400D01*
X65609000Y-49366400D01*
X65603000Y-49365400D01*
X65598000Y-49363400D01*
X65592000Y-49360400D01*
X65587000Y-49358400D01*
X65582000Y-49355400D01*
X65577000Y-49352400D01*
X65572000Y-49349400D01*
X65568000Y-49345400D01*
X65563000Y-49342400D01*
X65559000Y-49338400D01*
X65555000Y-49334400D01*
X65552000Y-49329400D01*
X65548000Y-49325400D01*
X65545000Y-49320400D01*
X65542000Y-49315400D01*
X65539000Y-49310400D01*
X65537000Y-49305400D01*
X65534000Y-49299400D01*
X65532000Y-49294400D01*
X65531000Y-49288400D01*
X65529000Y-49283400D01*
X65528000Y-49277400D01*
X65528000Y-49271400D01*
X65527000Y-49266400D01*
X65527000Y-49260400D01*
X65527000Y-48900400D01*
X65527000Y-48894400D01*
X65528000Y-48889400D01*
X65528000Y-48883400D01*
X65529000Y-48877400D01*
X65531000Y-48872400D01*
X65532000Y-48866400D01*
X65534000Y-48861400D01*
X65537000Y-48855400D01*
X65539000Y-48850400D01*
X65542000Y-48845400D01*
X65545000Y-48840400D01*
X65548000Y-48835400D01*
X65552000Y-48831400D01*
X65555000Y-48826400D01*
X65559000Y-48822400D01*
X65563000Y-48818400D01*
X65568000Y-48815400D01*
X65572000Y-48811400D01*
X65577000Y-48808400D01*
X65582000Y-48805400D01*
X65587000Y-48802400D01*
X65592000Y-48800400D01*
X65598000Y-48797400D01*
X65603000Y-48795400D01*
X65609000Y-48794400D01*
X65614000Y-48792400D01*
X65620000Y-48791400D01*
X65626000Y-48791400D01*
X65631000Y-48790400D01*
X65637000Y-48790400D01*
X66887000Y-48790400D01*
X66893000Y-48790400D01*
X66898000Y-48791400D01*
G37*
X66898000Y-49441400D02*
X66904000Y-49441400D01*
X66910000Y-49442400D01*
X66915000Y-49444400D01*
X66921000Y-49445400D01*
X66926000Y-49447400D01*
X66932000Y-49450400D01*
X66937000Y-49452400D01*
X66942000Y-49455400D01*
X66947000Y-49458400D01*
X66952000Y-49461400D01*
X66956000Y-49465400D01*
X66961000Y-49468400D01*
X66965000Y-49472400D01*
X66969000Y-49476400D01*
X66972000Y-49481400D01*
X66976000Y-49485400D01*
X66979000Y-49490400D01*
X66982000Y-49495400D01*
X66985000Y-49500400D01*
X66987000Y-49505400D01*
X66990000Y-49511400D01*
X66992000Y-49516400D01*
X66993000Y-49522400D01*
X66995000Y-49527400D01*
X66996000Y-49533400D01*
X66996000Y-49539400D01*
X66997000Y-49544400D01*
X66997000Y-49550400D01*
X66997000Y-49910400D01*
X66997000Y-49916400D01*
X66996000Y-49921400D01*
X66996000Y-49927400D01*
X66995000Y-49933400D01*
X66993000Y-49938400D01*
X66992000Y-49944400D01*
X66990000Y-49949400D01*
X66987000Y-49955400D01*
X66985000Y-49960400D01*
X66982000Y-49965400D01*
X66979000Y-49970400D01*
X66976000Y-49975400D01*
X66972000Y-49979400D01*
X66969000Y-49984400D01*
X66965000Y-49988400D01*
X66961000Y-49992400D01*
X66956000Y-49995400D01*
X66952000Y-49999400D01*
X66947000Y-50002400D01*
X66942000Y-50005400D01*
X66937000Y-50008400D01*
X66932000Y-50010400D01*
X66926000Y-50013400D01*
X66921000Y-50015400D01*
X66915000Y-50016400D01*
X66910000Y-50018400D01*
X66904000Y-50019400D01*
X66898000Y-50019400D01*
X66893000Y-50020400D01*
X66887000Y-50020400D01*
X65637000Y-50020400D01*
X65631000Y-50020400D01*
X65626000Y-50019400D01*
X65620000Y-50019400D01*
X65614000Y-50018400D01*
X65609000Y-50016400D01*
X65603000Y-50015400D01*
X65598000Y-50013400D01*
X65592000Y-50010400D01*
X65587000Y-50008400D01*
X65582000Y-50005400D01*
X65577000Y-50002400D01*
X65572000Y-49999400D01*
X65568000Y-49995400D01*
X65563000Y-49992400D01*
X65559000Y-49988400D01*
X65555000Y-49984400D01*
X65552000Y-49979400D01*
X65548000Y-49975400D01*
X65545000Y-49970400D01*
X65542000Y-49965400D01*
X65539000Y-49960400D01*
X65537000Y-49955400D01*
X65534000Y-49949400D01*
X65532000Y-49944400D01*
X65531000Y-49938400D01*
X65529000Y-49933400D01*
X65528000Y-49927400D01*
X65528000Y-49921400D01*
X65527000Y-49916400D01*
X65527000Y-49910400D01*
X65527000Y-49550400D01*
X65527000Y-49544400D01*
X65528000Y-49539400D01*
X65528000Y-49533400D01*
X65529000Y-49527400D01*
X65531000Y-49522400D01*
X65532000Y-49516400D01*
X65534000Y-49511400D01*
X65537000Y-49505400D01*
X65539000Y-49500400D01*
X65542000Y-49495400D01*
X65545000Y-49490400D01*
X65548000Y-49485400D01*
X65552000Y-49481400D01*
X65555000Y-49476400D01*
X65559000Y-49472400D01*
X65563000Y-49468400D01*
X65568000Y-49465400D01*
X65572000Y-49461400D01*
X65577000Y-49458400D01*
X65582000Y-49455400D01*
X65587000Y-49452400D01*
X65592000Y-49450400D01*
X65598000Y-49447400D01*
X65603000Y-49445400D01*
X65609000Y-49444400D01*
X65614000Y-49442400D01*
X65620000Y-49441400D01*
X65626000Y-49441400D01*
X65631000Y-49440400D01*
X65637000Y-49440400D01*
X66887000Y-49440400D01*
X66893000Y-49440400D01*
X66898000Y-49441400D01*
G36*
X66898000Y-49441400D02*
G01*
X66904000Y-49441400D01*
X66910000Y-49442400D01*
X66915000Y-49444400D01*
X66921000Y-49445400D01*
X66926000Y-49447400D01*
X66932000Y-49450400D01*
X66937000Y-49452400D01*
X66942000Y-49455400D01*
X66947000Y-49458400D01*
X66952000Y-49461400D01*
X66956000Y-49465400D01*
X66961000Y-49468400D01*
X66965000Y-49472400D01*
X66969000Y-49476400D01*
X66972000Y-49481400D01*
X66976000Y-49485400D01*
X66979000Y-49490400D01*
X66982000Y-49495400D01*
X66985000Y-49500400D01*
X66987000Y-49505400D01*
X66990000Y-49511400D01*
X66992000Y-49516400D01*
X66993000Y-49522400D01*
X66995000Y-49527400D01*
X66996000Y-49533400D01*
X66996000Y-49539400D01*
X66997000Y-49544400D01*
X66997000Y-49550400D01*
X66997000Y-49910400D01*
X66997000Y-49916400D01*
X66996000Y-49921400D01*
X66996000Y-49927400D01*
X66995000Y-49933400D01*
X66993000Y-49938400D01*
X66992000Y-49944400D01*
X66990000Y-49949400D01*
X66987000Y-49955400D01*
X66985000Y-49960400D01*
X66982000Y-49965400D01*
X66979000Y-49970400D01*
X66976000Y-49975400D01*
X66972000Y-49979400D01*
X66969000Y-49984400D01*
X66965000Y-49988400D01*
X66961000Y-49992400D01*
X66956000Y-49995400D01*
X66952000Y-49999400D01*
X66947000Y-50002400D01*
X66942000Y-50005400D01*
X66937000Y-50008400D01*
X66932000Y-50010400D01*
X66926000Y-50013400D01*
X66921000Y-50015400D01*
X66915000Y-50016400D01*
X66910000Y-50018400D01*
X66904000Y-50019400D01*
X66898000Y-50019400D01*
X66893000Y-50020400D01*
X66887000Y-50020400D01*
X65637000Y-50020400D01*
X65631000Y-50020400D01*
X65626000Y-50019400D01*
X65620000Y-50019400D01*
X65614000Y-50018400D01*
X65609000Y-50016400D01*
X65603000Y-50015400D01*
X65598000Y-50013400D01*
X65592000Y-50010400D01*
X65587000Y-50008400D01*
X65582000Y-50005400D01*
X65577000Y-50002400D01*
X65572000Y-49999400D01*
X65568000Y-49995400D01*
X65563000Y-49992400D01*
X65559000Y-49988400D01*
X65555000Y-49984400D01*
X65552000Y-49979400D01*
X65548000Y-49975400D01*
X65545000Y-49970400D01*
X65542000Y-49965400D01*
X65539000Y-49960400D01*
X65537000Y-49955400D01*
X65534000Y-49949400D01*
X65532000Y-49944400D01*
X65531000Y-49938400D01*
X65529000Y-49933400D01*
X65528000Y-49927400D01*
X65528000Y-49921400D01*
X65527000Y-49916400D01*
X65527000Y-49910400D01*
X65527000Y-49550400D01*
X65527000Y-49544400D01*
X65528000Y-49539400D01*
X65528000Y-49533400D01*
X65529000Y-49527400D01*
X65531000Y-49522400D01*
X65532000Y-49516400D01*
X65534000Y-49511400D01*
X65537000Y-49505400D01*
X65539000Y-49500400D01*
X65542000Y-49495400D01*
X65545000Y-49490400D01*
X65548000Y-49485400D01*
X65552000Y-49481400D01*
X65555000Y-49476400D01*
X65559000Y-49472400D01*
X65563000Y-49468400D01*
X65568000Y-49465400D01*
X65572000Y-49461400D01*
X65577000Y-49458400D01*
X65582000Y-49455400D01*
X65587000Y-49452400D01*
X65592000Y-49450400D01*
X65598000Y-49447400D01*
X65603000Y-49445400D01*
X65609000Y-49444400D01*
X65614000Y-49442400D01*
X65620000Y-49441400D01*
X65626000Y-49441400D01*
X65631000Y-49440400D01*
X65637000Y-49440400D01*
X66887000Y-49440400D01*
X66893000Y-49440400D01*
X66898000Y-49441400D01*
G37*
X66898000Y-50091400D02*
X66904000Y-50091400D01*
X66910000Y-50092400D01*
X66915000Y-50094400D01*
X66921000Y-50095400D01*
X66926000Y-50097400D01*
X66932000Y-50100400D01*
X66937000Y-50102400D01*
X66942000Y-50105400D01*
X66947000Y-50108400D01*
X66952000Y-50111400D01*
X66956000Y-50115400D01*
X66961000Y-50118400D01*
X66965000Y-50122400D01*
X66969000Y-50126400D01*
X66972000Y-50131400D01*
X66976000Y-50135400D01*
X66979000Y-50140400D01*
X66982000Y-50145400D01*
X66985000Y-50150400D01*
X66987000Y-50155400D01*
X66990000Y-50161400D01*
X66992000Y-50166400D01*
X66993000Y-50172400D01*
X66995000Y-50177400D01*
X66996000Y-50183400D01*
X66996000Y-50189400D01*
X66997000Y-50194400D01*
X66997000Y-50200400D01*
X66997000Y-50560400D01*
X66997000Y-50566400D01*
X66996000Y-50571400D01*
X66996000Y-50577400D01*
X66995000Y-50583400D01*
X66993000Y-50588400D01*
X66992000Y-50594400D01*
X66990000Y-50599400D01*
X66987000Y-50605400D01*
X66985000Y-50610400D01*
X66982000Y-50615400D01*
X66979000Y-50620400D01*
X66976000Y-50625400D01*
X66972000Y-50629400D01*
X66969000Y-50634400D01*
X66965000Y-50638400D01*
X66961000Y-50642400D01*
X66956000Y-50645400D01*
X66952000Y-50649400D01*
X66947000Y-50652400D01*
X66942000Y-50655400D01*
X66937000Y-50658400D01*
X66932000Y-50660400D01*
X66926000Y-50663400D01*
X66921000Y-50665400D01*
X66915000Y-50666400D01*
X66910000Y-50668400D01*
X66904000Y-50669400D01*
X66898000Y-50669400D01*
X66893000Y-50670400D01*
X66887000Y-50670400D01*
X65637000Y-50670400D01*
X65631000Y-50670400D01*
X65626000Y-50669400D01*
X65620000Y-50669400D01*
X65614000Y-50668400D01*
X65609000Y-50666400D01*
X65603000Y-50665400D01*
X65598000Y-50663400D01*
X65592000Y-50660400D01*
X65587000Y-50658400D01*
X65582000Y-50655400D01*
X65577000Y-50652400D01*
X65572000Y-50649400D01*
X65568000Y-50645400D01*
X65563000Y-50642400D01*
X65559000Y-50638400D01*
X65555000Y-50634400D01*
X65552000Y-50629400D01*
X65548000Y-50625400D01*
X65545000Y-50620400D01*
X65542000Y-50615400D01*
X65539000Y-50610400D01*
X65537000Y-50605400D01*
X65534000Y-50599400D01*
X65532000Y-50594400D01*
X65531000Y-50588400D01*
X65529000Y-50583400D01*
X65528000Y-50577400D01*
X65528000Y-50571400D01*
X65527000Y-50566400D01*
X65527000Y-50560400D01*
X65527000Y-50200400D01*
X65527000Y-50194400D01*
X65528000Y-50189400D01*
X65528000Y-50183400D01*
X65529000Y-50177400D01*
X65531000Y-50172400D01*
X65532000Y-50166400D01*
X65534000Y-50161400D01*
X65537000Y-50155400D01*
X65539000Y-50150400D01*
X65542000Y-50145400D01*
X65545000Y-50140400D01*
X65548000Y-50135400D01*
X65552000Y-50131400D01*
X65555000Y-50126400D01*
X65559000Y-50122400D01*
X65563000Y-50118400D01*
X65568000Y-50115400D01*
X65572000Y-50111400D01*
X65577000Y-50108400D01*
X65582000Y-50105400D01*
X65587000Y-50102400D01*
X65592000Y-50100400D01*
X65598000Y-50097400D01*
X65603000Y-50095400D01*
X65609000Y-50094400D01*
X65614000Y-50092400D01*
X65620000Y-50091400D01*
X65626000Y-50091400D01*
X65631000Y-50090400D01*
X65637000Y-50090400D01*
X66887000Y-50090400D01*
X66893000Y-50090400D01*
X66898000Y-50091400D01*
G36*
X66898000Y-50091400D02*
G01*
X66904000Y-50091400D01*
X66910000Y-50092400D01*
X66915000Y-50094400D01*
X66921000Y-50095400D01*
X66926000Y-50097400D01*
X66932000Y-50100400D01*
X66937000Y-50102400D01*
X66942000Y-50105400D01*
X66947000Y-50108400D01*
X66952000Y-50111400D01*
X66956000Y-50115400D01*
X66961000Y-50118400D01*
X66965000Y-50122400D01*
X66969000Y-50126400D01*
X66972000Y-50131400D01*
X66976000Y-50135400D01*
X66979000Y-50140400D01*
X66982000Y-50145400D01*
X66985000Y-50150400D01*
X66987000Y-50155400D01*
X66990000Y-50161400D01*
X66992000Y-50166400D01*
X66993000Y-50172400D01*
X66995000Y-50177400D01*
X66996000Y-50183400D01*
X66996000Y-50189400D01*
X66997000Y-50194400D01*
X66997000Y-50200400D01*
X66997000Y-50560400D01*
X66997000Y-50566400D01*
X66996000Y-50571400D01*
X66996000Y-50577400D01*
X66995000Y-50583400D01*
X66993000Y-50588400D01*
X66992000Y-50594400D01*
X66990000Y-50599400D01*
X66987000Y-50605400D01*
X66985000Y-50610400D01*
X66982000Y-50615400D01*
X66979000Y-50620400D01*
X66976000Y-50625400D01*
X66972000Y-50629400D01*
X66969000Y-50634400D01*
X66965000Y-50638400D01*
X66961000Y-50642400D01*
X66956000Y-50645400D01*
X66952000Y-50649400D01*
X66947000Y-50652400D01*
X66942000Y-50655400D01*
X66937000Y-50658400D01*
X66932000Y-50660400D01*
X66926000Y-50663400D01*
X66921000Y-50665400D01*
X66915000Y-50666400D01*
X66910000Y-50668400D01*
X66904000Y-50669400D01*
X66898000Y-50669400D01*
X66893000Y-50670400D01*
X66887000Y-50670400D01*
X65637000Y-50670400D01*
X65631000Y-50670400D01*
X65626000Y-50669400D01*
X65620000Y-50669400D01*
X65614000Y-50668400D01*
X65609000Y-50666400D01*
X65603000Y-50665400D01*
X65598000Y-50663400D01*
X65592000Y-50660400D01*
X65587000Y-50658400D01*
X65582000Y-50655400D01*
X65577000Y-50652400D01*
X65572000Y-50649400D01*
X65568000Y-50645400D01*
X65563000Y-50642400D01*
X65559000Y-50638400D01*
X65555000Y-50634400D01*
X65552000Y-50629400D01*
X65548000Y-50625400D01*
X65545000Y-50620400D01*
X65542000Y-50615400D01*
X65539000Y-50610400D01*
X65537000Y-50605400D01*
X65534000Y-50599400D01*
X65532000Y-50594400D01*
X65531000Y-50588400D01*
X65529000Y-50583400D01*
X65528000Y-50577400D01*
X65528000Y-50571400D01*
X65527000Y-50566400D01*
X65527000Y-50560400D01*
X65527000Y-50200400D01*
X65527000Y-50194400D01*
X65528000Y-50189400D01*
X65528000Y-50183400D01*
X65529000Y-50177400D01*
X65531000Y-50172400D01*
X65532000Y-50166400D01*
X65534000Y-50161400D01*
X65537000Y-50155400D01*
X65539000Y-50150400D01*
X65542000Y-50145400D01*
X65545000Y-50140400D01*
X65548000Y-50135400D01*
X65552000Y-50131400D01*
X65555000Y-50126400D01*
X65559000Y-50122400D01*
X65563000Y-50118400D01*
X65568000Y-50115400D01*
X65572000Y-50111400D01*
X65577000Y-50108400D01*
X65582000Y-50105400D01*
X65587000Y-50102400D01*
X65592000Y-50100400D01*
X65598000Y-50097400D01*
X65603000Y-50095400D01*
X65609000Y-50094400D01*
X65614000Y-50092400D01*
X65620000Y-50091400D01*
X65626000Y-50091400D01*
X65631000Y-50090400D01*
X65637000Y-50090400D01*
X66887000Y-50090400D01*
X66893000Y-50090400D01*
X66898000Y-50091400D01*
G37*
%TD*%
D11*
%TO.C,J14*%
X99550000Y-72050000D03*
D12*
X102900000Y-73900000D03*
X102900000Y-75150000D03*
D11*
X99550000Y-77000000D03*
%TD*%
%TO.C,J13*%
X99550000Y-52550000D03*
D12*
X102900000Y-54400000D03*
X102900000Y-55650000D03*
D11*
X99550000Y-57500000D03*
%TD*%
%TO.C,J12*%
X99550000Y-33150000D03*
D12*
X102900000Y-35000000D03*
X102900000Y-36250000D03*
D11*
X99550000Y-38100000D03*
%TD*%
D13*
%TO.C,R11*%
X48942000Y-73324000D03*
X48942000Y-74344000D03*
%TD*%
D14*
%TO.C,C29*%
X88169800Y-83652300D03*
X87209800Y-83652300D03*
%TD*%
D15*
%TO.C,FB1*%
X50437200Y-53397200D03*
X48887200Y-53397200D03*
%TD*%
D13*
%TO.C,R21*%
X55038000Y-67482000D03*
X55038000Y-68502000D03*
%TD*%
D16*
%TO.C,R8*%
X107860000Y-70550000D03*
X106840000Y-70550000D03*
%TD*%
D17*
%TO.C,J8*%
X101659000Y-27772000D03*
D18*
X104199000Y-27772000D03*
X106739000Y-27772000D03*
%TD*%
D19*
%TO.C,REF\u002A\u002A*%
X28250000Y-28250000D03*
%TD*%
D20*
%TO.C,R29*%
X59255000Y-29560000D03*
X59255000Y-28540000D03*
%TD*%
D13*
%TO.C,R9*%
X42846000Y-73324000D03*
X42846000Y-74344000D03*
%TD*%
D21*
%TO.C,SW10*%
X79739800Y-74446800D03*
X92939800Y-74446800D03*
D22*
X83799800Y-81946800D03*
X88879800Y-81946800D03*
X86339800Y-81946800D03*
%TD*%
D23*
%TO.C,C22*%
X67632000Y-43630400D03*
X68592000Y-43630400D03*
%TD*%
D24*
%TO.C,C19*%
X70150000Y-83580000D03*
X70150000Y-82620000D03*
%TD*%
D25*
%TO.C,SW5*%
X50700000Y-83003000D03*
X50700000Y-78853000D03*
%TD*%
%TO.C,SW6*%
X56200000Y-83017000D03*
X56200000Y-78867000D03*
%TD*%
D26*
%TO.C,U3*%
X40842900Y-52289800D03*
X40842900Y-50389800D03*
X38567900Y-51339800D03*
%TD*%
D27*
%TO.C,J16*%
X28500000Y-34800000D03*
D28*
X31000000Y-34800000D03*
%TD*%
D23*
%TO.C,C28*%
X84409800Y-83652300D03*
X85369800Y-83652300D03*
%TD*%
D13*
%TO.C,R17*%
X42846000Y-67482000D03*
X42846000Y-68502000D03*
%TD*%
D29*
%TO.C,D9*%
X41576000Y-66722000D03*
X41576000Y-68297000D03*
%TD*%
D30*
%TO.C,C12*%
X43225000Y-28270000D03*
X43225000Y-29230000D03*
%TD*%
D31*
%TO.C,F1*%
X34023200Y-52698200D03*
X35898200Y-52698200D03*
%TD*%
D24*
%TO.C,C13*%
X36200000Y-83430000D03*
X36200000Y-82470000D03*
%TD*%
D29*
%TO.C,D7*%
X59864000Y-72538500D03*
X59864000Y-74113500D03*
%TD*%
D16*
%TO.C,R2*%
X34147600Y-54196800D03*
X33127600Y-54196800D03*
%TD*%
D14*
%TO.C,C4*%
X48465800Y-51085800D03*
X47505800Y-51085800D03*
%TD*%
D17*
%TO.C,J7*%
X46955000Y-33050000D03*
D18*
X49495000Y-33050000D03*
X52035000Y-33050000D03*
%TD*%
D30*
%TO.C,C10*%
X42296200Y-50998100D03*
X42296200Y-51958100D03*
%TD*%
D13*
%TO.C,R10*%
X45894000Y-73324000D03*
X45894000Y-74344000D03*
%TD*%
D25*
%TO.C,SW9*%
X73950000Y-83125000D03*
X73950000Y-78975000D03*
%TD*%
D29*
%TO.C,D16*%
X62912000Y-66696500D03*
X62912000Y-68271500D03*
%TD*%
D32*
%TO.C,IC1*%
X41555000Y-63337500D03*
X42825000Y-63337500D03*
X44095000Y-63337500D03*
X45365000Y-63337500D03*
X46635000Y-63337500D03*
X47905000Y-63337500D03*
X49175000Y-63337500D03*
X50445000Y-63337500D03*
X50445000Y-57913500D03*
X49175000Y-57913500D03*
X47905000Y-57913500D03*
X46635000Y-57913500D03*
X45365000Y-57913500D03*
X44095000Y-57913500D03*
X42825000Y-57913500D03*
X41555000Y-57913500D03*
%TD*%
D13*
%TO.C,R22*%
X58086000Y-67482000D03*
X58086000Y-68502000D03*
%TD*%
%TO.C,R23*%
X61134000Y-67482000D03*
X61134000Y-68502000D03*
%TD*%
D24*
%TO.C,C8*%
X50886998Y-40406338D03*
X50886998Y-39446338D03*
%TD*%
D20*
%TO.C,R35*%
X37151600Y-51291000D03*
X37151600Y-50271000D03*
%TD*%
D33*
%TO.C,R1*%
X33178400Y-57549600D03*
X34198400Y-57549600D03*
%TD*%
D32*
%TO.C,IC2*%
X52130000Y-63337500D03*
X53400000Y-63337500D03*
X54670000Y-63337500D03*
X55940000Y-63337500D03*
X57210000Y-63337500D03*
X58480000Y-63337500D03*
X59750000Y-63337500D03*
X61020000Y-63337500D03*
X61020000Y-57913500D03*
X59750000Y-57913500D03*
X58480000Y-57913500D03*
X57210000Y-57913500D03*
X55940000Y-57913500D03*
X54670000Y-57913500D03*
X53400000Y-57913500D03*
X52130000Y-57913500D03*
%TD*%
D16*
%TO.C,R6*%
X108010000Y-30950000D03*
X106990000Y-30950000D03*
%TD*%
D33*
%TO.C,R5*%
X55782800Y-41992600D03*
X56802800Y-41992600D03*
%TD*%
D25*
%TO.C,SW8*%
X67850000Y-83139000D03*
X67850000Y-78989000D03*
%TD*%
D34*
%TO.C,J1*%
X119179000Y-41828000D03*
X119179000Y-29128000D03*
D35*
X116639000Y-31922000D03*
X114861000Y-32938000D03*
X116639000Y-33954000D03*
X114861000Y-34970000D03*
X116639000Y-35986000D03*
X114861000Y-37002000D03*
X116639000Y-38018000D03*
X114861000Y-39034000D03*
X110035000Y-28620000D03*
X110035000Y-30906000D03*
X110035000Y-40050000D03*
X110035000Y-42336000D03*
D36*
X115750000Y-43606000D03*
X115750000Y-27350000D03*
%TD*%
D37*
%TO.C,J11*%
X30798600Y-52539200D03*
X30798600Y-58319200D03*
D38*
X31937600Y-52224200D03*
D39*
X31937600Y-53024200D03*
D40*
X31863600Y-54174200D03*
X31863600Y-55174200D03*
X31863600Y-55684200D03*
X31863600Y-56684200D03*
D41*
X31933600Y-58629200D03*
D42*
X31938600Y-57829200D03*
D40*
X31863600Y-57184200D03*
X31863600Y-56184200D03*
X31863600Y-54674200D03*
X31863600Y-53674200D03*
D43*
X31298600Y-51109200D03*
X31298600Y-59749200D03*
D44*
X27118600Y-51109200D03*
X27118600Y-59749200D03*
%TD*%
D33*
%TO.C,R4*%
X44165000Y-30750000D03*
X45185000Y-30750000D03*
%TD*%
D45*
%TO.C,U2*%
X47940000Y-27130000D03*
X47940000Y-29670000D03*
X57470000Y-29670000D03*
X57470000Y-27130000D03*
%TD*%
D16*
%TO.C,R25*%
X105366400Y-30130800D03*
X104346400Y-30130800D03*
%TD*%
D19*
%TO.C,REF\u002A\u002A*%
X28250000Y-81750000D03*
%TD*%
D14*
%TO.C,C25*%
X62592000Y-49730400D03*
X61632000Y-49730400D03*
%TD*%
D13*
%TO.C,R16*%
X64182000Y-73324000D03*
X64182000Y-74344000D03*
%TD*%
D16*
%TO.C,R33*%
X38712400Y-42653000D03*
X37692400Y-42653000D03*
%TD*%
D34*
%TO.C,J2*%
X119163000Y-61350000D03*
X119163000Y-48650000D03*
D35*
X116623000Y-51444000D03*
X114845000Y-52460000D03*
X116623000Y-53476000D03*
X114845000Y-54492000D03*
X116623000Y-55508000D03*
X114845000Y-56524000D03*
X116623000Y-57540000D03*
X114845000Y-58556000D03*
X110019000Y-48142000D03*
X110019000Y-50428000D03*
X110019000Y-59572000D03*
X110019000Y-61858000D03*
D36*
X115734000Y-63128000D03*
X115734000Y-46872000D03*
%TD*%
D29*
%TO.C,D11*%
X47672000Y-66696500D03*
X47672000Y-68271500D03*
%TD*%
D14*
%TO.C,C23*%
X62612000Y-46305400D03*
X61652000Y-46305400D03*
%TD*%
D24*
%TO.C,C15*%
X47450000Y-83480000D03*
X47450000Y-82520000D03*
%TD*%
D29*
%TO.C,D2*%
X44624000Y-72538500D03*
X44624000Y-74113500D03*
%TD*%
%TO.C,D14*%
X56816000Y-66696500D03*
X56816000Y-68271500D03*
%TD*%
D30*
%TO.C,C9*%
X37151600Y-52206000D03*
X37151600Y-53166000D03*
%TD*%
D29*
%TO.C,D3*%
X47672000Y-72538500D03*
X47672000Y-74113500D03*
%TD*%
D30*
%TO.C,C11*%
X44225000Y-28270000D03*
X44225000Y-29230000D03*
%TD*%
D17*
%TO.C,J5*%
X72900000Y-27125000D03*
D18*
X70360000Y-27125000D03*
X67820000Y-27125000D03*
X65280000Y-27125000D03*
%TD*%
D24*
%TO.C,C14*%
X41800000Y-83430000D03*
X41800000Y-82470000D03*
%TD*%
D20*
%TO.C,R28*%
X59255000Y-27610000D03*
X59255000Y-26590000D03*
%TD*%
D19*
%TO.C,REF\u002A\u002A*%
X95800000Y-28250000D03*
%TD*%
D16*
%TO.C,R27*%
X105290200Y-69475400D03*
X104270200Y-69475400D03*
%TD*%
D29*
%TO.C,D10*%
X44624000Y-66696500D03*
X44624000Y-68271500D03*
%TD*%
D46*
%TO.C,U4*%
X35985400Y-74276000D03*
X35985400Y-73006000D03*
X35985400Y-71736000D03*
X35985400Y-70466000D03*
X35985400Y-69196000D03*
X35985400Y-67926000D03*
X35985400Y-66656000D03*
X35985400Y-65386000D03*
X30561400Y-65386000D03*
X30561400Y-66656000D03*
X30561400Y-67926000D03*
X30561400Y-69196000D03*
X30561400Y-70466000D03*
X30561400Y-71736000D03*
X30561400Y-73006000D03*
X30561400Y-74276000D03*
%TD*%
D34*
%TO.C,J3*%
X119168000Y-80856000D03*
X119168000Y-68156000D03*
D35*
X116628000Y-70950000D03*
X114850000Y-71966000D03*
X116628000Y-72982000D03*
X114850000Y-73998000D03*
X116628000Y-75014000D03*
X114850000Y-76030000D03*
X116628000Y-77046000D03*
X114850000Y-78062000D03*
X110024000Y-67648000D03*
X110024000Y-69934000D03*
X110024000Y-79078000D03*
X110024000Y-81364000D03*
D36*
X115739000Y-82634000D03*
X115739000Y-66378000D03*
%TD*%
D25*
%TO.C,SW7*%
X62100000Y-83103000D03*
X62100000Y-78953000D03*
%TD*%
D13*
%TO.C,R14*%
X58086000Y-73326000D03*
X58086000Y-74346000D03*
%TD*%
D29*
%TO.C,D12*%
X50720000Y-66696500D03*
X50720000Y-68271500D03*
%TD*%
D24*
%TO.C,C16*%
X53000000Y-83530000D03*
X53000000Y-82570000D03*
%TD*%
D13*
%TO.C,R19*%
X48942000Y-67482000D03*
X48942000Y-68502000D03*
%TD*%
D17*
%TO.C,J10*%
X101648000Y-67140000D03*
D18*
X104188000Y-67140000D03*
X106728000Y-67140000D03*
%TD*%
D13*
%TO.C,R24*%
X64182000Y-67482000D03*
X64182000Y-68502000D03*
%TD*%
D29*
%TO.C,D5*%
X53768000Y-72540500D03*
X53768000Y-74115500D03*
%TD*%
D13*
%TO.C,R12*%
X51990000Y-73326000D03*
X51990000Y-74346000D03*
%TD*%
D16*
%TO.C,R32*%
X108088000Y-78400000D03*
X107068000Y-78400000D03*
%TD*%
D24*
%TO.C,C3*%
X53736998Y-40406338D03*
X53736998Y-39446338D03*
%TD*%
D16*
%TO.C,R31*%
X108084200Y-61950000D03*
X107064200Y-61950000D03*
%TD*%
D47*
%TO.C,U1*%
X51338210Y-41888462D03*
X50984656Y-42242016D03*
X50631103Y-42595569D03*
X50277549Y-42949123D03*
X49923996Y-43302676D03*
X49570443Y-43656229D03*
X49216889Y-44009783D03*
X48863336Y-44363336D03*
X48509783Y-44716889D03*
X48156229Y-45070443D03*
X47802676Y-45423996D03*
X47449122Y-45777550D03*
D48*
X47449122Y-47775126D03*
X47802676Y-48128680D03*
X48156229Y-48482233D03*
X48509783Y-48835787D03*
X48863336Y-49189340D03*
X49216889Y-49542893D03*
X49570443Y-49896447D03*
X49923996Y-50250000D03*
X50277549Y-50603553D03*
X50631103Y-50957107D03*
X50984656Y-51310660D03*
X51338210Y-51664214D03*
D47*
X53335786Y-51664214D03*
X53689340Y-51310660D03*
X54042893Y-50957107D03*
X54396447Y-50603553D03*
X54750000Y-50250000D03*
X55103553Y-49896447D03*
X55457107Y-49542893D03*
X55810660Y-49189340D03*
X56164213Y-48835787D03*
X56517767Y-48482233D03*
X56871320Y-48128680D03*
X57224874Y-47775126D03*
D48*
X57224874Y-45777550D03*
X56871320Y-45423996D03*
X56517767Y-45070443D03*
X56164213Y-44716889D03*
X55810660Y-44363336D03*
X55457107Y-44009783D03*
X55103553Y-43656229D03*
X54750000Y-43302676D03*
X54396447Y-42949123D03*
X54042893Y-42595569D03*
X53689340Y-42242016D03*
X53335786Y-41888462D03*
%TD*%
D30*
%TO.C,C27*%
X65800000Y-69300200D03*
X65800000Y-70260200D03*
%TD*%
D23*
%TO.C,C1*%
X58706998Y-48226338D03*
X59666998Y-48226338D03*
%TD*%
D49*
%TO.C,J6*%
X38825000Y-30500000D03*
D50*
X38825000Y-28000000D03*
%TD*%
D30*
%TO.C,C2*%
X51636998Y-52896338D03*
X51636998Y-53856338D03*
%TD*%
D14*
%TO.C,C21*%
X62592000Y-42880400D03*
X61632000Y-42880400D03*
%TD*%
D16*
%TO.C,R26*%
X105264800Y-49765000D03*
X104244800Y-49765000D03*
%TD*%
D29*
%TO.C,D13*%
X53768000Y-66671000D03*
X53768000Y-68246000D03*
%TD*%
D23*
%TO.C,C24*%
X67702000Y-47055400D03*
X68662000Y-47055400D03*
%TD*%
D25*
%TO.C,SW4*%
X45150000Y-83003000D03*
X45150000Y-78853000D03*
%TD*%
D13*
%TO.C,R13*%
X55038000Y-73326000D03*
X55038000Y-74346000D03*
%TD*%
D19*
%TO.C,REF\u002A\u002A*%
X104650000Y-81750000D03*
%TD*%
D30*
%TO.C,C7*%
X33548500Y-44456400D03*
X33548500Y-45416400D03*
%TD*%
D29*
%TO.C,D8*%
X62912000Y-72538500D03*
X62912000Y-74113500D03*
%TD*%
D25*
%TO.C,SW2*%
X33886000Y-82939000D03*
X33886000Y-78789000D03*
%TD*%
D13*
%TO.C,R20*%
X51990000Y-67482000D03*
X51990000Y-68502000D03*
%TD*%
D51*
%TO.C,D17*%
X40464900Y-42653000D03*
X42039900Y-42653000D03*
%TD*%
D52*
%TO.C,SW1*%
X33198500Y-46839400D03*
X27198500Y-46839400D03*
X33198500Y-43089400D03*
X27198500Y-43089400D03*
%TD*%
D17*
%TO.C,J4*%
X79650000Y-35425000D03*
D18*
X82190000Y-35425000D03*
X84730000Y-35425000D03*
X87270000Y-35425000D03*
%TD*%
D14*
%TO.C,C5*%
X49380200Y-52025600D03*
X48420200Y-52025600D03*
%TD*%
D17*
%TO.C,J15*%
X68561000Y-73575200D03*
D18*
X68561000Y-71035200D03*
X68561000Y-68495200D03*
%TD*%
D24*
%TO.C,C17*%
X58500000Y-83500000D03*
X58500000Y-82540000D03*
%TD*%
D29*
%TO.C,D6*%
X56816000Y-72540500D03*
X56816000Y-74115500D03*
%TD*%
D14*
%TO.C,C30*%
X30230000Y-39215000D03*
X29270000Y-39215000D03*
%TD*%
D16*
%TO.C,R30*%
X108110000Y-42700000D03*
X107090000Y-42700000D03*
%TD*%
D24*
%TO.C,C18*%
X64400000Y-83580000D03*
X64400000Y-82620000D03*
%TD*%
D13*
%TO.C,R18*%
X45894000Y-67482000D03*
X45894000Y-68502000D03*
%TD*%
D53*
%TO.C,D19*%
X35735700Y-50948200D03*
X34160700Y-50948200D03*
%TD*%
D16*
%TO.C,R34*%
X38666000Y-45116800D03*
X37646000Y-45116800D03*
%TD*%
D24*
%TO.C,C20*%
X76250000Y-83650000D03*
X76250000Y-82690000D03*
%TD*%
D33*
%TO.C,R3*%
X45165000Y-28300000D03*
X46185000Y-28300000D03*
%TD*%
D29*
%TO.C,D4*%
X50720000Y-72506500D03*
X50720000Y-74081500D03*
%TD*%
D30*
%TO.C,C6*%
X43286800Y-50998100D03*
X43286800Y-51958100D03*
%TD*%
D29*
%TO.C,D15*%
X59864000Y-66696500D03*
X59864000Y-68271500D03*
%TD*%
D31*
%TO.C,D18*%
X40342700Y-45116800D03*
X42217700Y-45116800D03*
%TD*%
D16*
%TO.C,R7*%
X107960000Y-51900000D03*
X106940000Y-51900000D03*
%TD*%
D17*
%TO.C,J9*%
X101682000Y-47398000D03*
D18*
X104222000Y-47398000D03*
X106762000Y-47398000D03*
%TD*%
D25*
%TO.C,SW3*%
X39500000Y-82953000D03*
X39500000Y-78803000D03*
%TD*%
D13*
%TO.C,R15*%
X61134000Y-73324000D03*
X61134000Y-74344000D03*
%TD*%
D23*
%TO.C,C26*%
X67632000Y-50480400D03*
X68592000Y-50480400D03*
%TD*%
D29*
%TO.C,D1*%
X41576000Y-72564000D03*
X41576000Y-74139000D03*
%TD*%
M02*
