%TF.GenerationSoftware,KiCad,Pcbnew,8.0.8*%
%TF.CreationDate,2026-01-13T22:41:42+09:00*%
%TF.ProjectId,robomas_f103_bridge_NHK2026,726f626f-6d61-4735-9f66-3130335f6272,rev?*%
%TF.SameCoordinates,Original*%
%TF.FileFunction,Soldermask,Bot*%
%TF.FilePolarity,Negative*%
%FSLAX46Y46*%
G04 Gerber Fmt 4.6, Leading zero omitted, Abs format (unit mm)*
G04 Created by KiCad (PCBNEW 8.0.8) date 2026-01-13 22:41:42*
%MOMM*%
%LPD*%
G01*
G04 APERTURE LIST*
G04 Aperture macros list*
%AMRoundRect*
0 Rectangle with rounded corners*
0 $1 Rounding radius*
0 $2 $3 $4 $5 $6 $7 $8 $9 X,Y pos of 4 corners*
0 Add a 4 corners polygon primitive as box body*
4,1,4,$2,$3,$4,$5,$6,$7,$8,$9,$2,$3,0*
0 Add four circle primitives for the rounded corners*
1,1,$1+$1,$2,$3*
1,1,$1+$1,$4,$5*
1,1,$1+$1,$6,$7*
1,1,$1+$1,$8,$9*
0 Add four rect primitives between the rounded corners*
20,1,$1+$1,$2,$3,$4,$5,0*
20,1,$1+$1,$4,$5,$6,$7,0*
20,1,$1+$1,$6,$7,$8,$9,0*
20,1,$1+$1,$8,$9,$2,$3,0*%
G04 Aperture macros list end*
%ADD10R,1.700000X1.700000*%
%ADD11O,1.700000X1.700000*%
%ADD12C,3.000000*%
%ADD13RoundRect,0.250000X-0.750000X-1.500000X0.750000X-1.500000X0.750000X1.500000X-0.750000X1.500000X0*%
%ADD14C,2.000000*%
%ADD15RoundRect,0.250000X-0.600000X-0.750000X0.600000X-0.750000X0.600000X0.750000X-0.600000X0.750000X0*%
%ADD16O,1.700000X2.000000*%
%ADD17C,3.251200*%
%ADD18C,1.397000*%
%ADD19C,2.133600*%
%ADD20C,0.650000*%
%ADD21O,2.354000X1.254000*%
%ADD22O,2.054000X1.254000*%
%ADD23RoundRect,0.250000X0.750000X-0.600000X0.750000X0.600000X-0.750000X0.600000X-0.750000X-0.600000X0*%
%ADD24O,2.000000X1.700000*%
G04 APERTURE END LIST*
D10*
%TO.C,J8*%
X101659000Y-27772000D03*
D11*
X104199000Y-27772000D03*
X106739000Y-27772000D03*
%TD*%
D12*
%TO.C,REF\u002A\u002A*%
X28250000Y-28250000D03*
%TD*%
D13*
%TO.C,SW10*%
X79739800Y-74446800D03*
X92939800Y-74446800D03*
D14*
X83799800Y-81946800D03*
X88879800Y-81946800D03*
X86339800Y-81946800D03*
%TD*%
D15*
%TO.C,J16*%
X28500000Y-34800000D03*
D16*
X31000000Y-34800000D03*
%TD*%
D10*
%TO.C,J7*%
X46955000Y-33050000D03*
D11*
X49495000Y-33050000D03*
X52035000Y-33050000D03*
%TD*%
D17*
%TO.C,J1*%
X119179000Y-41828000D03*
X119179000Y-29128000D03*
D18*
X116639000Y-31922000D03*
X114861000Y-32938000D03*
X116639000Y-33954000D03*
X114861000Y-34970000D03*
X116639000Y-35986000D03*
X114861000Y-37002000D03*
X116639000Y-38018000D03*
X114861000Y-39034000D03*
X110035000Y-28620000D03*
X110035000Y-30906000D03*
X110035000Y-40050000D03*
X110035000Y-42336000D03*
D19*
X115750000Y-43606000D03*
X115750000Y-27350000D03*
%TD*%
D20*
%TO.C,J11*%
X30798600Y-52539200D03*
X30798600Y-58319200D03*
D21*
X31298600Y-51109200D03*
X31298600Y-59749200D03*
D22*
X27118600Y-51109200D03*
X27118600Y-59749200D03*
%TD*%
D12*
%TO.C,REF\u002A\u002A*%
X28250000Y-81750000D03*
%TD*%
D17*
%TO.C,J2*%
X119163000Y-61350000D03*
X119163000Y-48650000D03*
D18*
X116623000Y-51444000D03*
X114845000Y-52460000D03*
X116623000Y-53476000D03*
X114845000Y-54492000D03*
X116623000Y-55508000D03*
X114845000Y-56524000D03*
X116623000Y-57540000D03*
X114845000Y-58556000D03*
X110019000Y-48142000D03*
X110019000Y-50428000D03*
X110019000Y-59572000D03*
X110019000Y-61858000D03*
D19*
X115734000Y-63128000D03*
X115734000Y-46872000D03*
%TD*%
D10*
%TO.C,J5*%
X72900000Y-27125000D03*
D11*
X70360000Y-27125000D03*
X67820000Y-27125000D03*
X65280000Y-27125000D03*
%TD*%
D12*
%TO.C,REF\u002A\u002A*%
X95800000Y-28250000D03*
%TD*%
D17*
%TO.C,J3*%
X119168000Y-80856000D03*
X119168000Y-68156000D03*
D18*
X116628000Y-70950000D03*
X114850000Y-71966000D03*
X116628000Y-72982000D03*
X114850000Y-73998000D03*
X116628000Y-75014000D03*
X114850000Y-76030000D03*
X116628000Y-77046000D03*
X114850000Y-78062000D03*
X110024000Y-67648000D03*
X110024000Y-69934000D03*
X110024000Y-79078000D03*
X110024000Y-81364000D03*
D19*
X115739000Y-82634000D03*
X115739000Y-66378000D03*
%TD*%
D10*
%TO.C,J10*%
X101648000Y-67140000D03*
D11*
X104188000Y-67140000D03*
X106728000Y-67140000D03*
%TD*%
D23*
%TO.C,J6*%
X38825000Y-30500000D03*
D24*
X38825000Y-28000000D03*
%TD*%
D12*
%TO.C,REF\u002A\u002A*%
X104650000Y-81750000D03*
%TD*%
D10*
%TO.C,J4*%
X79650000Y-35425000D03*
D11*
X82190000Y-35425000D03*
X84730000Y-35425000D03*
X87270000Y-35425000D03*
%TD*%
D10*
%TO.C,J15*%
X68561000Y-73575200D03*
D11*
X68561000Y-71035200D03*
X68561000Y-68495200D03*
%TD*%
D10*
%TO.C,J9*%
X101682000Y-47398000D03*
D11*
X104222000Y-47398000D03*
X106762000Y-47398000D03*
%TD*%
M02*
