M48
; DRILL file {KiCad 8.0.8} date 2026-01-13T22:42:22+0900
; FORMAT={-:-/ absolute / metric / decimal}
; #@! TF.CreationDate,2026-01-13T22:42:22+09:00
; #@! TF.GenerationSoftware,Kicad,Pcbnew,8.0.8
; #@! TF.FileFunction,Plated,1,2,PTH
FMAT,2
METRIC
; #@! TA.AperFunction,Plated,PTH,ViaDrill
T1C0.300
; #@! TA.AperFunction,Plated,PTH,ComponentDrill
T2C0.650
; #@! TA.AperFunction,Plated,PTH,ComponentDrill
T3C0.889
; #@! TA.AperFunction,Plated,PTH,ComponentDrill
T4C1.000
; #@! TA.AperFunction,Plated,PTH,ComponentDrill
T5C1.626
%
G90
G05
T1
X26.574Y-30.029
X26.65Y-69.171
X26.65Y-74.911
X26.65Y-26.65
X26.65Y-83.35
X27.005Y-61.601
X27.336Y-55.455
X27.412Y-65.234
X29.799Y-52.711
X30.003Y-40.697
X30.003Y-62.617
X30.104Y-44.329
X30.206Y-48.266
X31.222Y-75.495
X32.06Y-84.182
X32.111Y-68.815
X32.238Y-44.05
X32.238Y-79.661
X32.263Y-63.151
X32.466Y-36.252
X33.432Y-26.041
X33.432Y-31.096
X33.939Y-55.977
X34.069Y-55.187
X34.422Y-60.839
X34.524Y-74.301
X34.6Y-43.11
X34.676Y-72.981
X35.108Y-44.05
X35.133Y-56.928
X35.21Y-49.663
X35.337Y-54.718
X35.667Y-78.01
X36.048Y-39.351
X36.2Y-59.112
X36.327Y-47.352
X36.962Y-63.964
X37.115Y-48.114
X37.191Y-80.88
X37.394Y-54.667
X37.47Y-73.819
X37.572Y-84.182
X37.775Y-43.872
X37.953Y-56.953
X38.715Y-46.488
X38.74Y-61.576
X38.943Y-52.788
X39.02Y-41.561
X39.197Y-75.698
X39.223Y-68.459
X39.248Y-32.95
X39.299Y-43.847
X39.477Y-49.79
X39.756Y-54.667
X40.29Y-26.143
X40.315Y-56.953
X40.62Y-59.849
X41.204Y-53.677
X41.204Y-77.857
X41.28Y-43.745
X41.57Y-64.651
X41.712Y-48.52
X42.195Y-65.488
X42.601Y-61.576
X42.677Y-54.439
X42.703Y-70.441
X42.82Y-59.451
X42.82Y-64.602
X42.83Y-46.311
X42.83Y-50.146
X42.83Y-80.651
X42.85Y-72.31
X43.058Y-30.334
X43.084Y-41.535
X43.109Y-84.182
X43.199Y-37.65
X43.338Y-45.193
X43.465Y-65.386
X43.642Y-35.566
X43.922Y-59.29
X44.12Y-64.651
X44.379Y-65.64
X45.014Y-77.375
X45.166Y-32.188
X45.37Y-64.651
X45.573Y-37.598
X45.6Y-34.85
X45.751Y-70.618
X45.776Y-61.652
X45.894Y-72.31
X46.106Y-25.864
X46.194Y-43.68
X46.242Y-42.48
X46.62Y-64.651
X46.894Y-44.28
X47.059Y-43.08
X47.427Y-59.366
X47.452Y-51.822
X47.478Y-39.453
X47.579Y-31.325
X47.656Y-69.577
X47.92Y-64.651
X48.087Y-37.471
X48.316Y-80.753
X48.773Y-84.182
X48.942Y-72.31
X49.17Y-64.651
X49.281Y-31.35
X49.662Y-48.165
X49.916Y-25.889
X50.246Y-52.356
X50.246Y-77.019
X50.399Y-61.678
X50.78Y-48.241
X50.881Y-31.426
X51.339Y-46.061
X51.367Y-45.261
X51.375Y-46.874
X51.796Y-29.064
X51.99Y-72.312
X52.304Y-41.027
X52.685Y-52.889
X52.964Y-43.72
X53.2Y-34.8
X53.345Y-53.727
X53.371Y-59.214
X53.472Y-37.751
X53.828Y-80.575
X53.879Y-44.533
X53.955Y-48.8
X54.031Y-25.965
X54.26Y-84.182
X54.412Y-59.315
X54.717Y-32.849
X55.0Y-47.863
X55.038Y-72.312
X55.047Y-64.98
X55.124Y-47.073
X55.149Y-76.587
X55.53Y-53.854
X55.555Y-71.304
X55.657Y-36.024
X56.19Y-47.073
X56.241Y-50.552
X56.876Y-59.29
X57.104Y-64.929
X57.13Y-43.567
X57.46Y-49.816
X57.536Y-34.525
X57.587Y-38.792
X57.663Y-70.568
X57.714Y-41.408
X57.739Y-42.967
X58.086Y-72.312
X58.4Y-53.677
X58.832Y-52.051
X58.908Y-65.361
X58.933Y-32.595
X59.066Y-42.1
X59.111Y-55.937
X59.467Y-46.234
X59.568Y-80.651
X59.632Y-42.665
X59.687Y-43.463
X59.822Y-39.326
X59.898Y-30.385
X59.898Y-69.577
X60.025Y-84.182
X60.102Y-34.386
X60.127Y-44.38
X60.533Y-59.569
X60.584Y-25.914
X60.686Y-35.795
X60.762Y-76.257
X60.864Y-31.909
X60.94Y-47.53
X61.041Y-56.344
X61.134Y-72.31
X61.27Y-41.688
X61.27Y-45.65
X61.905Y-65.798
X62.362Y-48.089
X62.591Y-63.989
X62.672Y-50.54
X62.87Y-44.304
X62.997Y-39.91
X63.35Y-35.5
X63.48Y-29.293
X63.556Y-32.468
X63.632Y-70.39
X63.988Y-51.391
X64.182Y-72.31
X64.242Y-40.519
X64.343Y-55.963
X65.105Y-80.448
X65.385Y-73.946
X65.5Y-68.15
X65.817Y-84.182
X66.147Y-75.876
X66.401Y-40.113
X66.858Y-32.29
X66.9Y-62.0
X66.909Y-35.211
X66.95Y-70.25
X66.96Y-51.492
X67.493Y-36.303
X67.7Y-55.85
X67.722Y-48.139
X67.849Y-44.71
X67.95Y-41.205
X69.6Y-54.2
X69.749Y-34.4
X70.109Y-32.417
X70.211Y-47.885
X70.312Y-73.819
X70.414Y-68.307
X71.25Y-61.65
X71.481Y-36.405
X71.608Y-80.753
X71.76Y-47.225
X71.963Y-84.182
X72.802Y-30.359
X73.386Y-38.665
X73.792Y-77.299
X74.351Y-50.908
X74.554Y-47.098
X74.649Y-34.4
X75.011Y-73.311
X75.316Y-80.347
X75.342Y-41.154
X75.723Y-48.292
X76.027Y-43.618
X76.84Y-69.45
X76.993Y-44.253
X77.272Y-32.036
X77.526Y-84.055
X78.796Y-59.188
X78.8Y-50.85
X79.099Y-37.55
X79.55Y-45.055
X80.1Y-41.05
X80.295Y-27.692
X80.422Y-77.426
X80.8Y-43.45
X81.65Y-47.5
X81.717Y-38.03
X82.7Y-52.0
X82.809Y-70.999
X82.835Y-41.256
X83.165Y-83.953
X83.952Y-50.044
X84.435Y-37.014
X84.663Y-71.965
X85.324Y-51.746
X85.35Y-54.5
X85.55Y-43.6
X86.1Y-48.25
X86.67Y-66.935
X87.051Y-37.116
X87.889Y-75.343
X87.915Y-49.968
X88.05Y-60.05
X88.3Y-54.75
X88.524Y-47.098
X88.753Y-34.601
X89.413Y-84.106
X89.693Y-51.822
X89.896Y-48.419
X89.921Y-74.53
X90.302Y-27.87
X90.582Y-31.858
X91.344Y-49.892
X91.55Y-41.2
X91.572Y-38.081
X92.08Y-43.669
X92.1Y-46.35
X92.791Y-79.559
X93.096Y-51.746
X93.7Y-59.7
X94.0Y-29.4
X94.163Y-71.126
X94.55Y-65.15
X94.8Y-43.7
X95.45Y-32.45
X95.9Y-41.7
X97.313Y-46.006
X97.349Y-63.65
X97.4Y-33.75
X97.45Y-51.55
X97.6Y-70.65
X98.1Y-56.15
X98.557Y-40.113
X98.659Y-29.42
X98.8Y-73.05
X99.05Y-36.9
X99.25Y-31.8
X99.345Y-25.94
X99.35Y-53.65
X99.5Y-75.75
X99.55Y-34.3
X99.903Y-66.173
X100.75Y-58.9
X100.767Y-29.496
X100.843Y-82.252
X101.2Y-62.45
X101.4Y-70.6
X101.6Y-76.15
X101.65Y-33.95
X101.75Y-56.7
X102.951Y-69.171
X103.104Y-49.054
X103.18Y-29.166
X103.256Y-31.172
X103.8Y-72.75
X104.171Y-43.466
X104.7Y-78.45
X105.364Y-33.56
X105.4Y-48.55
X105.491Y-29.166
X105.9Y-61.95
X105.949Y-63.075
X106.0Y-31.15
X106.0Y-50.9
X106.0Y-76.8
X106.0Y-78.3
X106.2Y-42.7
X106.228Y-49.765
X106.685Y-30.131
X106.685Y-69.425
X107.15Y-68.637
X107.55Y-53.25
X107.65Y-72.8
X107.701Y-32.544
X107.75Y-58.35
X107.904Y-30.004
X108.133Y-38.233
X108.4Y-67.5
X108.45Y-81.4
X108.489Y-27.565
X108.5Y-47.7
X108.946Y-60.687
X108.971Y-41.154
X109.555Y-72.879
X109.632Y-83.318
X110.038Y-51.772
X110.775Y-32.061
X111.029Y-71.076
X111.15Y-27.45
X111.156Y-60.763
X111.181Y-80.245
X111.232Y-41.256
X111.384Y-76.054
X111.55Y-67.8
X111.6Y-48.35
X111.649Y-56.1
X111.765Y-30.994
X112.197Y-33.89
X112.629Y-53.423
X113.315Y-29.039
X113.543Y-73.057
X113.75Y-25.922
X114.356Y-70.06
X114.407Y-50.578
X114.559Y-31.121
X115.931Y-41.561
X116.159Y-61.195
X116.337Y-49.943
X116.413Y-69.425
X117.506Y-73.844
X117.753Y-76.149
X118.09Y-66.046
X118.166Y-58.96
X118.549Y-53.15
X118.899Y-31.45
X118.928Y-34.246
X119.284Y-71.812
X119.512Y-38.081
X119.817Y-45.193
X120.149Y-54.65
X120.199Y-50.7
X120.199Y-59.35
X120.199Y-63.45
X120.199Y-66.15
X120.55Y-83.25
X120.75Y-26.75
X120.949Y-78.3
X121.099Y-36.55
X121.149Y-73.25
T3
X110.019Y-48.142
X110.019Y-50.428
X110.019Y-59.572
X110.019Y-61.858
X110.024Y-67.648
X110.024Y-69.934
X110.024Y-79.078
X110.024Y-81.364
X110.035Y-28.62
X110.035Y-30.906
X110.035Y-40.05
X110.035Y-42.336
X114.845Y-52.46
X114.845Y-54.492
X114.845Y-56.524
X114.845Y-58.556
X114.85Y-71.966
X114.85Y-73.998
X114.85Y-76.03
X114.85Y-78.062
X114.861Y-32.938
X114.861Y-34.97
X114.861Y-37.002
X114.861Y-39.034
X116.623Y-51.444
X116.623Y-53.476
X116.623Y-55.508
X116.623Y-57.54
X116.628Y-70.95
X116.628Y-72.982
X116.628Y-75.014
X116.628Y-77.046
X116.639Y-31.922
X116.639Y-33.954
X116.639Y-35.986
X116.639Y-38.018
T4
X28.5Y-34.8
X31.0Y-34.8
X38.825Y-28.0
X38.825Y-30.5
X46.955Y-33.05
X49.495Y-33.05
X52.035Y-33.05
X65.28Y-27.125
X67.82Y-27.125
X68.561Y-68.495
X68.561Y-71.035
X68.561Y-73.575
X70.36Y-27.125
X72.9Y-27.125
X79.65Y-35.425
X82.19Y-35.425
X83.8Y-81.947
X84.73Y-35.425
X86.34Y-81.947
X87.27Y-35.425
X88.88Y-81.947
X101.648Y-67.14
X101.659Y-27.772
X101.682Y-47.398
X104.188Y-67.14
X104.199Y-27.772
X104.222Y-47.398
X106.728Y-67.14
X106.739Y-27.772
X106.762Y-47.398
T5
X115.734Y-46.872
X115.734Y-63.128
X115.739Y-66.378
X115.739Y-82.634
X115.75Y-27.35
X115.75Y-43.606
T2
X27.519Y-51.109G85X26.719Y-51.109
G05
X27.519Y-59.749G85X26.719Y-59.749
G05
X31.849Y-51.109G85X30.749Y-51.109
G05
X31.849Y-59.749G85X30.749Y-59.749
G05
T4
X79.74Y-73.847G85X79.74Y-75.047
G05
X92.94Y-73.847G85X92.94Y-75.047
G05
M30
