%TF.GenerationSoftware,KiCad,Pcbnew,8.0.8*%
%TF.CreationDate,2026-01-13T22:42:22+09:00*%
%TF.ProjectId,robomas_f103_bridge_NHK2026,726f626f-6d61-4735-9f66-3130335f6272,rev?*%
%TF.SameCoordinates,Original*%
%TF.FileFunction,Drillmap*%
%TF.FilePolarity,Positive*%
%FSLAX45Y45*%
G04 Gerber Fmt 4.5, Leading zero omitted, Abs format (unit mm)*
G04 Created by KiCad (PCBNEW 8.0.8) date 2026-01-13 22:42:22*
%MOMM*%
%LPD*%
G01*
G04 APERTURE LIST*
%ADD10C,0.050000*%
%ADD11C,0.200000*%
%ADD12C,0.100000*%
%ADD13C,0.300000*%
%ADD14C,0.325120*%
G04 APERTURE END LIST*
D10*
X12220190Y-8175190D02*
G75*
G02*
X11895190Y-8500190I-325000J0D01*
G01*
X2825000Y-2500000D02*
X11895190Y-2499810D01*
X11895190Y-8500190D02*
X2825000Y-8500000D01*
X2825000Y-8500000D02*
G75*
G02*
X2500000Y-8175000I0J325000D01*
G01*
X11895190Y-2499810D02*
G75*
G02*
X12220190Y-2824810I0J-325000D01*
G01*
X12220190Y-2824810D02*
X12220190Y-8175190D01*
X2500000Y-8175000D02*
X2500000Y-2825000D01*
X2500000Y-2825000D02*
G75*
G02*
X2825000Y-2500000I325000J0D01*
G01*
D11*
D12*
X3047360Y-5221420D02*
X3112360Y-5286420D01*
X3112360Y-5221420D02*
X3047360Y-5286420D01*
X3047360Y-5799420D02*
X3112360Y-5864420D01*
X3112360Y-5799420D02*
X3047360Y-5864420D01*
D13*
X2975000Y-2825000D02*
G75*
G02*
X2675000Y-2825000I-150000J0D01*
G01*
X2675000Y-2825000D02*
G75*
G02*
X2975000Y-2825000I150000J0D01*
G01*
X2975000Y-8175000D02*
G75*
G02*
X2675000Y-8175000I-150000J0D01*
G01*
X2675000Y-8175000D02*
G75*
G02*
X2975000Y-8175000I150000J0D01*
G01*
X9730000Y-2825000D02*
G75*
G02*
X9430000Y-2825000I-150000J0D01*
G01*
X9430000Y-2825000D02*
G75*
G02*
X9730000Y-2825000I150000J0D01*
G01*
X10615000Y-8175000D02*
G75*
G02*
X10315000Y-8175000I-150000J0D01*
G01*
X10315000Y-8175000D02*
G75*
G02*
X10615000Y-8175000I150000J0D01*
G01*
D14*
X11916300Y-4702440D02*
X11916300Y-5027560D01*
X11753740Y-4865000D02*
X12078860Y-4865000D01*
X11916300Y-5972440D02*
X11916300Y-6297560D01*
X11753740Y-6135000D02*
X12078860Y-6135000D01*
X11916800Y-6653040D02*
X11916800Y-6978160D01*
X11754240Y-6815600D02*
X12079360Y-6815600D01*
X11916800Y-7923040D02*
X11916800Y-8248160D01*
X11754240Y-8085600D02*
X12079360Y-8085600D01*
X11917900Y-2750240D02*
X11917900Y-3075360D01*
X11755340Y-2912800D02*
X12080460Y-2912800D01*
X11917900Y-4020240D02*
X11917900Y-4345360D01*
X11755340Y-4182800D02*
X12080460Y-4182800D01*
D11*
X2758277Y-8814174D02*
X2758277Y-8614174D01*
X2758277Y-8614174D02*
X2805896Y-8614174D01*
X2805896Y-8614174D02*
X2834467Y-8623698D01*
X2834467Y-8623698D02*
X2853515Y-8642746D01*
X2853515Y-8642746D02*
X2863039Y-8661793D01*
X2863039Y-8661793D02*
X2872562Y-8699888D01*
X2872562Y-8699888D02*
X2872562Y-8728460D01*
X2872562Y-8728460D02*
X2863039Y-8766555D01*
X2863039Y-8766555D02*
X2853515Y-8785603D01*
X2853515Y-8785603D02*
X2834467Y-8804650D01*
X2834467Y-8804650D02*
X2805896Y-8814174D01*
X2805896Y-8814174D02*
X2758277Y-8814174D01*
X2958277Y-8814174D02*
X2958277Y-8680841D01*
X2958277Y-8718936D02*
X2967801Y-8699888D01*
X2967801Y-8699888D02*
X2977324Y-8690365D01*
X2977324Y-8690365D02*
X2996372Y-8680841D01*
X2996372Y-8680841D02*
X3015420Y-8680841D01*
X3082086Y-8814174D02*
X3082086Y-8680841D01*
X3082086Y-8614174D02*
X3072562Y-8623698D01*
X3072562Y-8623698D02*
X3082086Y-8633222D01*
X3082086Y-8633222D02*
X3091610Y-8623698D01*
X3091610Y-8623698D02*
X3082086Y-8614174D01*
X3082086Y-8614174D02*
X3082086Y-8633222D01*
X3205896Y-8814174D02*
X3186848Y-8804650D01*
X3186848Y-8804650D02*
X3177324Y-8785603D01*
X3177324Y-8785603D02*
X3177324Y-8614174D01*
X3310658Y-8814174D02*
X3291610Y-8804650D01*
X3291610Y-8804650D02*
X3282086Y-8785603D01*
X3282086Y-8785603D02*
X3282086Y-8614174D01*
X3539229Y-8814174D02*
X3539229Y-8614174D01*
X3539229Y-8614174D02*
X3605896Y-8757031D01*
X3605896Y-8757031D02*
X3672562Y-8614174D01*
X3672562Y-8614174D02*
X3672562Y-8814174D01*
X3853515Y-8814174D02*
X3853515Y-8709412D01*
X3853515Y-8709412D02*
X3843991Y-8690365D01*
X3843991Y-8690365D02*
X3824943Y-8680841D01*
X3824943Y-8680841D02*
X3786848Y-8680841D01*
X3786848Y-8680841D02*
X3767801Y-8690365D01*
X3853515Y-8804650D02*
X3834467Y-8814174D01*
X3834467Y-8814174D02*
X3786848Y-8814174D01*
X3786848Y-8814174D02*
X3767801Y-8804650D01*
X3767801Y-8804650D02*
X3758277Y-8785603D01*
X3758277Y-8785603D02*
X3758277Y-8766555D01*
X3758277Y-8766555D02*
X3767801Y-8747507D01*
X3767801Y-8747507D02*
X3786848Y-8737984D01*
X3786848Y-8737984D02*
X3834467Y-8737984D01*
X3834467Y-8737984D02*
X3853515Y-8728460D01*
X3948753Y-8680841D02*
X3948753Y-8880841D01*
X3948753Y-8690365D02*
X3967801Y-8680841D01*
X3967801Y-8680841D02*
X4005896Y-8680841D01*
X4005896Y-8680841D02*
X4024943Y-8690365D01*
X4024943Y-8690365D02*
X4034467Y-8699888D01*
X4034467Y-8699888D02*
X4043991Y-8718936D01*
X4043991Y-8718936D02*
X4043991Y-8776079D01*
X4043991Y-8776079D02*
X4034467Y-8795126D01*
X4034467Y-8795126D02*
X4024943Y-8804650D01*
X4024943Y-8804650D02*
X4005896Y-8814174D01*
X4005896Y-8814174D02*
X3967801Y-8814174D01*
X3967801Y-8814174D02*
X3948753Y-8804650D01*
X4129705Y-8795126D02*
X4139229Y-8804650D01*
X4139229Y-8804650D02*
X4129705Y-8814174D01*
X4129705Y-8814174D02*
X4120182Y-8804650D01*
X4120182Y-8804650D02*
X4129705Y-8795126D01*
X4129705Y-8795126D02*
X4129705Y-8814174D01*
X4129705Y-8690365D02*
X4139229Y-8699888D01*
X4139229Y-8699888D02*
X4129705Y-8709412D01*
X4129705Y-8709412D02*
X4120182Y-8699888D01*
X4120182Y-8699888D02*
X4129705Y-8690365D01*
X4129705Y-8690365D02*
X4129705Y-8709412D01*
D12*
X2432500Y-9110190D02*
X2497500Y-9175190D01*
X2497500Y-9110190D02*
X2432500Y-9175190D01*
D11*
X2796372Y-9034174D02*
X2815420Y-9034174D01*
X2815420Y-9034174D02*
X2834467Y-9043698D01*
X2834467Y-9043698D02*
X2843991Y-9053222D01*
X2843991Y-9053222D02*
X2853515Y-9072269D01*
X2853515Y-9072269D02*
X2863039Y-9110365D01*
X2863039Y-9110365D02*
X2863039Y-9157984D01*
X2863039Y-9157984D02*
X2853515Y-9196079D01*
X2853515Y-9196079D02*
X2843991Y-9215126D01*
X2843991Y-9215126D02*
X2834467Y-9224650D01*
X2834467Y-9224650D02*
X2815420Y-9234174D01*
X2815420Y-9234174D02*
X2796372Y-9234174D01*
X2796372Y-9234174D02*
X2777324Y-9224650D01*
X2777324Y-9224650D02*
X2767801Y-9215126D01*
X2767801Y-9215126D02*
X2758277Y-9196079D01*
X2758277Y-9196079D02*
X2748753Y-9157984D01*
X2748753Y-9157984D02*
X2748753Y-9110365D01*
X2748753Y-9110365D02*
X2758277Y-9072269D01*
X2758277Y-9072269D02*
X2767801Y-9053222D01*
X2767801Y-9053222D02*
X2777324Y-9043698D01*
X2777324Y-9043698D02*
X2796372Y-9034174D01*
X2948753Y-9215126D02*
X2958277Y-9224650D01*
X2958277Y-9224650D02*
X2948753Y-9234174D01*
X2948753Y-9234174D02*
X2939229Y-9224650D01*
X2939229Y-9224650D02*
X2948753Y-9215126D01*
X2948753Y-9215126D02*
X2948753Y-9234174D01*
X3129705Y-9034174D02*
X3091610Y-9034174D01*
X3091610Y-9034174D02*
X3072562Y-9043698D01*
X3072562Y-9043698D02*
X3063039Y-9053222D01*
X3063039Y-9053222D02*
X3043991Y-9081793D01*
X3043991Y-9081793D02*
X3034467Y-9119888D01*
X3034467Y-9119888D02*
X3034467Y-9196079D01*
X3034467Y-9196079D02*
X3043991Y-9215126D01*
X3043991Y-9215126D02*
X3053515Y-9224650D01*
X3053515Y-9224650D02*
X3072562Y-9234174D01*
X3072562Y-9234174D02*
X3110658Y-9234174D01*
X3110658Y-9234174D02*
X3129705Y-9224650D01*
X3129705Y-9224650D02*
X3139229Y-9215126D01*
X3139229Y-9215126D02*
X3148753Y-9196079D01*
X3148753Y-9196079D02*
X3148753Y-9148460D01*
X3148753Y-9148460D02*
X3139229Y-9129412D01*
X3139229Y-9129412D02*
X3129705Y-9119888D01*
X3129705Y-9119888D02*
X3110658Y-9110365D01*
X3110658Y-9110365D02*
X3072562Y-9110365D01*
X3072562Y-9110365D02*
X3053515Y-9119888D01*
X3053515Y-9119888D02*
X3043991Y-9129412D01*
X3043991Y-9129412D02*
X3034467Y-9148460D01*
X3329705Y-9034174D02*
X3234467Y-9034174D01*
X3234467Y-9034174D02*
X3224943Y-9129412D01*
X3224943Y-9129412D02*
X3234467Y-9119888D01*
X3234467Y-9119888D02*
X3253515Y-9110365D01*
X3253515Y-9110365D02*
X3301134Y-9110365D01*
X3301134Y-9110365D02*
X3320182Y-9119888D01*
X3320182Y-9119888D02*
X3329705Y-9129412D01*
X3329705Y-9129412D02*
X3339229Y-9148460D01*
X3339229Y-9148460D02*
X3339229Y-9196079D01*
X3339229Y-9196079D02*
X3329705Y-9215126D01*
X3329705Y-9215126D02*
X3320182Y-9224650D01*
X3320182Y-9224650D02*
X3301134Y-9234174D01*
X3301134Y-9234174D02*
X3253515Y-9234174D01*
X3253515Y-9234174D02*
X3234467Y-9224650D01*
X3234467Y-9224650D02*
X3224943Y-9215126D01*
X3463039Y-9034174D02*
X3482086Y-9034174D01*
X3482086Y-9034174D02*
X3501134Y-9043698D01*
X3501134Y-9043698D02*
X3510658Y-9053222D01*
X3510658Y-9053222D02*
X3520182Y-9072269D01*
X3520182Y-9072269D02*
X3529705Y-9110365D01*
X3529705Y-9110365D02*
X3529705Y-9157984D01*
X3529705Y-9157984D02*
X3520182Y-9196079D01*
X3520182Y-9196079D02*
X3510658Y-9215126D01*
X3510658Y-9215126D02*
X3501134Y-9224650D01*
X3501134Y-9224650D02*
X3482086Y-9234174D01*
X3482086Y-9234174D02*
X3463039Y-9234174D01*
X3463039Y-9234174D02*
X3443991Y-9224650D01*
X3443991Y-9224650D02*
X3434467Y-9215126D01*
X3434467Y-9215126D02*
X3424943Y-9196079D01*
X3424943Y-9196079D02*
X3415420Y-9157984D01*
X3415420Y-9157984D02*
X3415420Y-9110365D01*
X3415420Y-9110365D02*
X3424943Y-9072269D01*
X3424943Y-9072269D02*
X3434467Y-9053222D01*
X3434467Y-9053222D02*
X3443991Y-9043698D01*
X3443991Y-9043698D02*
X3463039Y-9034174D01*
X3615420Y-9234174D02*
X3615420Y-9100841D01*
X3615420Y-9119888D02*
X3624943Y-9110365D01*
X3624943Y-9110365D02*
X3643991Y-9100841D01*
X3643991Y-9100841D02*
X3672563Y-9100841D01*
X3672563Y-9100841D02*
X3691610Y-9110365D01*
X3691610Y-9110365D02*
X3701134Y-9129412D01*
X3701134Y-9129412D02*
X3701134Y-9234174D01*
X3701134Y-9129412D02*
X3710658Y-9110365D01*
X3710658Y-9110365D02*
X3729705Y-9100841D01*
X3729705Y-9100841D02*
X3758277Y-9100841D01*
X3758277Y-9100841D02*
X3777324Y-9110365D01*
X3777324Y-9110365D02*
X3786848Y-9129412D01*
X3786848Y-9129412D02*
X3786848Y-9234174D01*
X3882086Y-9234174D02*
X3882086Y-9100841D01*
X3882086Y-9119888D02*
X3891610Y-9110365D01*
X3891610Y-9110365D02*
X3910658Y-9100841D01*
X3910658Y-9100841D02*
X3939229Y-9100841D01*
X3939229Y-9100841D02*
X3958277Y-9110365D01*
X3958277Y-9110365D02*
X3967801Y-9129412D01*
X3967801Y-9129412D02*
X3967801Y-9234174D01*
X3967801Y-9129412D02*
X3977324Y-9110365D01*
X3977324Y-9110365D02*
X3996372Y-9100841D01*
X3996372Y-9100841D02*
X4024943Y-9100841D01*
X4024943Y-9100841D02*
X4043991Y-9110365D01*
X4043991Y-9110365D02*
X4053515Y-9129412D01*
X4053515Y-9129412D02*
X4053515Y-9234174D01*
X4443991Y-9024650D02*
X4272563Y-9281793D01*
X4701134Y-9034174D02*
X4720182Y-9034174D01*
X4720182Y-9034174D02*
X4739229Y-9043698D01*
X4739229Y-9043698D02*
X4748753Y-9053222D01*
X4748753Y-9053222D02*
X4758277Y-9072269D01*
X4758277Y-9072269D02*
X4767801Y-9110365D01*
X4767801Y-9110365D02*
X4767801Y-9157984D01*
X4767801Y-9157984D02*
X4758277Y-9196079D01*
X4758277Y-9196079D02*
X4748753Y-9215126D01*
X4748753Y-9215126D02*
X4739229Y-9224650D01*
X4739229Y-9224650D02*
X4720182Y-9234174D01*
X4720182Y-9234174D02*
X4701134Y-9234174D01*
X4701134Y-9234174D02*
X4682087Y-9224650D01*
X4682087Y-9224650D02*
X4672563Y-9215126D01*
X4672563Y-9215126D02*
X4663039Y-9196079D01*
X4663039Y-9196079D02*
X4653515Y-9157984D01*
X4653515Y-9157984D02*
X4653515Y-9110365D01*
X4653515Y-9110365D02*
X4663039Y-9072269D01*
X4663039Y-9072269D02*
X4672563Y-9053222D01*
X4672563Y-9053222D02*
X4682087Y-9043698D01*
X4682087Y-9043698D02*
X4701134Y-9034174D01*
X4853515Y-9215126D02*
X4863039Y-9224650D01*
X4863039Y-9224650D02*
X4853515Y-9234174D01*
X4853515Y-9234174D02*
X4843991Y-9224650D01*
X4843991Y-9224650D02*
X4853515Y-9215126D01*
X4853515Y-9215126D02*
X4853515Y-9234174D01*
X4986848Y-9034174D02*
X5005896Y-9034174D01*
X5005896Y-9034174D02*
X5024944Y-9043698D01*
X5024944Y-9043698D02*
X5034468Y-9053222D01*
X5034468Y-9053222D02*
X5043991Y-9072269D01*
X5043991Y-9072269D02*
X5053515Y-9110365D01*
X5053515Y-9110365D02*
X5053515Y-9157984D01*
X5053515Y-9157984D02*
X5043991Y-9196079D01*
X5043991Y-9196079D02*
X5034468Y-9215126D01*
X5034468Y-9215126D02*
X5024944Y-9224650D01*
X5024944Y-9224650D02*
X5005896Y-9234174D01*
X5005896Y-9234174D02*
X4986848Y-9234174D01*
X4986848Y-9234174D02*
X4967801Y-9224650D01*
X4967801Y-9224650D02*
X4958277Y-9215126D01*
X4958277Y-9215126D02*
X4948753Y-9196079D01*
X4948753Y-9196079D02*
X4939229Y-9157984D01*
X4939229Y-9157984D02*
X4939229Y-9110365D01*
X4939229Y-9110365D02*
X4948753Y-9072269D01*
X4948753Y-9072269D02*
X4958277Y-9053222D01*
X4958277Y-9053222D02*
X4967801Y-9043698D01*
X4967801Y-9043698D02*
X4986848Y-9034174D01*
X5129706Y-9053222D02*
X5139229Y-9043698D01*
X5139229Y-9043698D02*
X5158277Y-9034174D01*
X5158277Y-9034174D02*
X5205896Y-9034174D01*
X5205896Y-9034174D02*
X5224944Y-9043698D01*
X5224944Y-9043698D02*
X5234468Y-9053222D01*
X5234468Y-9053222D02*
X5243991Y-9072269D01*
X5243991Y-9072269D02*
X5243991Y-9091317D01*
X5243991Y-9091317D02*
X5234468Y-9119888D01*
X5234468Y-9119888D02*
X5120182Y-9234174D01*
X5120182Y-9234174D02*
X5243991Y-9234174D01*
X5424944Y-9034174D02*
X5329706Y-9034174D01*
X5329706Y-9034174D02*
X5320182Y-9129412D01*
X5320182Y-9129412D02*
X5329706Y-9119888D01*
X5329706Y-9119888D02*
X5348753Y-9110365D01*
X5348753Y-9110365D02*
X5396372Y-9110365D01*
X5396372Y-9110365D02*
X5415420Y-9119888D01*
X5415420Y-9119888D02*
X5424944Y-9129412D01*
X5424944Y-9129412D02*
X5434468Y-9148460D01*
X5434468Y-9148460D02*
X5434468Y-9196079D01*
X5434468Y-9196079D02*
X5424944Y-9215126D01*
X5424944Y-9215126D02*
X5415420Y-9224650D01*
X5415420Y-9224650D02*
X5396372Y-9234174D01*
X5396372Y-9234174D02*
X5348753Y-9234174D01*
X5348753Y-9234174D02*
X5329706Y-9224650D01*
X5329706Y-9224650D02*
X5320182Y-9215126D01*
X5605896Y-9034174D02*
X5567801Y-9034174D01*
X5567801Y-9034174D02*
X5548753Y-9043698D01*
X5548753Y-9043698D02*
X5539229Y-9053222D01*
X5539229Y-9053222D02*
X5520182Y-9081793D01*
X5520182Y-9081793D02*
X5510658Y-9119888D01*
X5510658Y-9119888D02*
X5510658Y-9196079D01*
X5510658Y-9196079D02*
X5520182Y-9215126D01*
X5520182Y-9215126D02*
X5529706Y-9224650D01*
X5529706Y-9224650D02*
X5548753Y-9234174D01*
X5548753Y-9234174D02*
X5586849Y-9234174D01*
X5586849Y-9234174D02*
X5605896Y-9224650D01*
X5605896Y-9224650D02*
X5615420Y-9215126D01*
X5615420Y-9215126D02*
X5624944Y-9196079D01*
X5624944Y-9196079D02*
X5624944Y-9148460D01*
X5624944Y-9148460D02*
X5615420Y-9129412D01*
X5615420Y-9129412D02*
X5605896Y-9119888D01*
X5605896Y-9119888D02*
X5586849Y-9110365D01*
X5586849Y-9110365D02*
X5548753Y-9110365D01*
X5548753Y-9110365D02*
X5529706Y-9119888D01*
X5529706Y-9119888D02*
X5520182Y-9129412D01*
X5520182Y-9129412D02*
X5510658Y-9148460D01*
X5701134Y-9034174D02*
X5701134Y-9072269D01*
X5777325Y-9034174D02*
X5777325Y-9072269D01*
X6072563Y-9310365D02*
X6063039Y-9300841D01*
X6063039Y-9300841D02*
X6043991Y-9272269D01*
X6043991Y-9272269D02*
X6034468Y-9253222D01*
X6034468Y-9253222D02*
X6024944Y-9224650D01*
X6024944Y-9224650D02*
X6015420Y-9177031D01*
X6015420Y-9177031D02*
X6015420Y-9138936D01*
X6015420Y-9138936D02*
X6024944Y-9091317D01*
X6024944Y-9091317D02*
X6034468Y-9062746D01*
X6034468Y-9062746D02*
X6043991Y-9043698D01*
X6043991Y-9043698D02*
X6063039Y-9015126D01*
X6063039Y-9015126D02*
X6072563Y-9005603D01*
X6139229Y-9053222D02*
X6148753Y-9043698D01*
X6148753Y-9043698D02*
X6167801Y-9034174D01*
X6167801Y-9034174D02*
X6215420Y-9034174D01*
X6215420Y-9034174D02*
X6234468Y-9043698D01*
X6234468Y-9043698D02*
X6243991Y-9053222D01*
X6243991Y-9053222D02*
X6253515Y-9072269D01*
X6253515Y-9072269D02*
X6253515Y-9091317D01*
X6253515Y-9091317D02*
X6243991Y-9119888D01*
X6243991Y-9119888D02*
X6129706Y-9234174D01*
X6129706Y-9234174D02*
X6253515Y-9234174D01*
X6491610Y-9234174D02*
X6491610Y-9034174D01*
X6577325Y-9234174D02*
X6577325Y-9129412D01*
X6577325Y-9129412D02*
X6567801Y-9110365D01*
X6567801Y-9110365D02*
X6548753Y-9100841D01*
X6548753Y-9100841D02*
X6520182Y-9100841D01*
X6520182Y-9100841D02*
X6501134Y-9110365D01*
X6501134Y-9110365D02*
X6491610Y-9119888D01*
X6701134Y-9234174D02*
X6682087Y-9224650D01*
X6682087Y-9224650D02*
X6672563Y-9215126D01*
X6672563Y-9215126D02*
X6663039Y-9196079D01*
X6663039Y-9196079D02*
X6663039Y-9138936D01*
X6663039Y-9138936D02*
X6672563Y-9119888D01*
X6672563Y-9119888D02*
X6682087Y-9110365D01*
X6682087Y-9110365D02*
X6701134Y-9100841D01*
X6701134Y-9100841D02*
X6729706Y-9100841D01*
X6729706Y-9100841D02*
X6748753Y-9110365D01*
X6748753Y-9110365D02*
X6758277Y-9119888D01*
X6758277Y-9119888D02*
X6767801Y-9138936D01*
X6767801Y-9138936D02*
X6767801Y-9196079D01*
X6767801Y-9196079D02*
X6758277Y-9215126D01*
X6758277Y-9215126D02*
X6748753Y-9224650D01*
X6748753Y-9224650D02*
X6729706Y-9234174D01*
X6729706Y-9234174D02*
X6701134Y-9234174D01*
X6882087Y-9234174D02*
X6863039Y-9224650D01*
X6863039Y-9224650D02*
X6853515Y-9205603D01*
X6853515Y-9205603D02*
X6853515Y-9034174D01*
X7034468Y-9224650D02*
X7015420Y-9234174D01*
X7015420Y-9234174D02*
X6977325Y-9234174D01*
X6977325Y-9234174D02*
X6958277Y-9224650D01*
X6958277Y-9224650D02*
X6948753Y-9205603D01*
X6948753Y-9205603D02*
X6948753Y-9129412D01*
X6948753Y-9129412D02*
X6958277Y-9110365D01*
X6958277Y-9110365D02*
X6977325Y-9100841D01*
X6977325Y-9100841D02*
X7015420Y-9100841D01*
X7015420Y-9100841D02*
X7034468Y-9110365D01*
X7034468Y-9110365D02*
X7043991Y-9129412D01*
X7043991Y-9129412D02*
X7043991Y-9148460D01*
X7043991Y-9148460D02*
X6948753Y-9167507D01*
X7120182Y-9224650D02*
X7139230Y-9234174D01*
X7139230Y-9234174D02*
X7177325Y-9234174D01*
X7177325Y-9234174D02*
X7196372Y-9224650D01*
X7196372Y-9224650D02*
X7205896Y-9205603D01*
X7205896Y-9205603D02*
X7205896Y-9196079D01*
X7205896Y-9196079D02*
X7196372Y-9177031D01*
X7196372Y-9177031D02*
X7177325Y-9167507D01*
X7177325Y-9167507D02*
X7148753Y-9167507D01*
X7148753Y-9167507D02*
X7129706Y-9157984D01*
X7129706Y-9157984D02*
X7120182Y-9138936D01*
X7120182Y-9138936D02*
X7120182Y-9129412D01*
X7120182Y-9129412D02*
X7129706Y-9110365D01*
X7129706Y-9110365D02*
X7148753Y-9100841D01*
X7148753Y-9100841D02*
X7177325Y-9100841D01*
X7177325Y-9100841D02*
X7196372Y-9110365D01*
X7272563Y-9310365D02*
X7282087Y-9300841D01*
X7282087Y-9300841D02*
X7301134Y-9272269D01*
X7301134Y-9272269D02*
X7310658Y-9253222D01*
X7310658Y-9253222D02*
X7320182Y-9224650D01*
X7320182Y-9224650D02*
X7329706Y-9177031D01*
X7329706Y-9177031D02*
X7329706Y-9138936D01*
X7329706Y-9138936D02*
X7320182Y-9091317D01*
X7320182Y-9091317D02*
X7310658Y-9062746D01*
X7310658Y-9062746D02*
X7301134Y-9043698D01*
X7301134Y-9043698D02*
X7282087Y-9015126D01*
X7282087Y-9015126D02*
X7272563Y-9005603D01*
X7634468Y-9310365D02*
X7624944Y-9300841D01*
X7624944Y-9300841D02*
X7605896Y-9272269D01*
X7605896Y-9272269D02*
X7596372Y-9253222D01*
X7596372Y-9253222D02*
X7586849Y-9224650D01*
X7586849Y-9224650D02*
X7577325Y-9177031D01*
X7577325Y-9177031D02*
X7577325Y-9138936D01*
X7577325Y-9138936D02*
X7586849Y-9091317D01*
X7586849Y-9091317D02*
X7596372Y-9062746D01*
X7596372Y-9062746D02*
X7605896Y-9043698D01*
X7605896Y-9043698D02*
X7624944Y-9015126D01*
X7624944Y-9015126D02*
X7634468Y-9005603D01*
X7710658Y-9100841D02*
X7710658Y-9234174D01*
X7710658Y-9119888D02*
X7720182Y-9110365D01*
X7720182Y-9110365D02*
X7739230Y-9100841D01*
X7739230Y-9100841D02*
X7767801Y-9100841D01*
X7767801Y-9100841D02*
X7786849Y-9110365D01*
X7786849Y-9110365D02*
X7796372Y-9129412D01*
X7796372Y-9129412D02*
X7796372Y-9234174D01*
X7920182Y-9234174D02*
X7901134Y-9224650D01*
X7901134Y-9224650D02*
X7891611Y-9215126D01*
X7891611Y-9215126D02*
X7882087Y-9196079D01*
X7882087Y-9196079D02*
X7882087Y-9138936D01*
X7882087Y-9138936D02*
X7891611Y-9119888D01*
X7891611Y-9119888D02*
X7901134Y-9110365D01*
X7901134Y-9110365D02*
X7920182Y-9100841D01*
X7920182Y-9100841D02*
X7948753Y-9100841D01*
X7948753Y-9100841D02*
X7967801Y-9110365D01*
X7967801Y-9110365D02*
X7977325Y-9119888D01*
X7977325Y-9119888D02*
X7986849Y-9138936D01*
X7986849Y-9138936D02*
X7986849Y-9196079D01*
X7986849Y-9196079D02*
X7977325Y-9215126D01*
X7977325Y-9215126D02*
X7967801Y-9224650D01*
X7967801Y-9224650D02*
X7948753Y-9234174D01*
X7948753Y-9234174D02*
X7920182Y-9234174D01*
X8043992Y-9100841D02*
X8120182Y-9100841D01*
X8072563Y-9034174D02*
X8072563Y-9205603D01*
X8072563Y-9205603D02*
X8082087Y-9224650D01*
X8082087Y-9224650D02*
X8101134Y-9234174D01*
X8101134Y-9234174D02*
X8120182Y-9234174D01*
X8339230Y-9100841D02*
X8339230Y-9300841D01*
X8339230Y-9110365D02*
X8358277Y-9100841D01*
X8358277Y-9100841D02*
X8396373Y-9100841D01*
X8396373Y-9100841D02*
X8415420Y-9110365D01*
X8415420Y-9110365D02*
X8424944Y-9119888D01*
X8424944Y-9119888D02*
X8434468Y-9138936D01*
X8434468Y-9138936D02*
X8434468Y-9196079D01*
X8434468Y-9196079D02*
X8424944Y-9215126D01*
X8424944Y-9215126D02*
X8415420Y-9224650D01*
X8415420Y-9224650D02*
X8396373Y-9234174D01*
X8396373Y-9234174D02*
X8358277Y-9234174D01*
X8358277Y-9234174D02*
X8339230Y-9224650D01*
X8548754Y-9234174D02*
X8529706Y-9224650D01*
X8529706Y-9224650D02*
X8520182Y-9205603D01*
X8520182Y-9205603D02*
X8520182Y-9034174D01*
X8710658Y-9234174D02*
X8710658Y-9129412D01*
X8710658Y-9129412D02*
X8701135Y-9110365D01*
X8701135Y-9110365D02*
X8682087Y-9100841D01*
X8682087Y-9100841D02*
X8643992Y-9100841D01*
X8643992Y-9100841D02*
X8624944Y-9110365D01*
X8710658Y-9224650D02*
X8691611Y-9234174D01*
X8691611Y-9234174D02*
X8643992Y-9234174D01*
X8643992Y-9234174D02*
X8624944Y-9224650D01*
X8624944Y-9224650D02*
X8615420Y-9205603D01*
X8615420Y-9205603D02*
X8615420Y-9186555D01*
X8615420Y-9186555D02*
X8624944Y-9167507D01*
X8624944Y-9167507D02*
X8643992Y-9157984D01*
X8643992Y-9157984D02*
X8691611Y-9157984D01*
X8691611Y-9157984D02*
X8710658Y-9148460D01*
X8777325Y-9100841D02*
X8853515Y-9100841D01*
X8805896Y-9034174D02*
X8805896Y-9205603D01*
X8805896Y-9205603D02*
X8815420Y-9224650D01*
X8815420Y-9224650D02*
X8834468Y-9234174D01*
X8834468Y-9234174D02*
X8853515Y-9234174D01*
X8996373Y-9224650D02*
X8977325Y-9234174D01*
X8977325Y-9234174D02*
X8939230Y-9234174D01*
X8939230Y-9234174D02*
X8920182Y-9224650D01*
X8920182Y-9224650D02*
X8910658Y-9205603D01*
X8910658Y-9205603D02*
X8910658Y-9129412D01*
X8910658Y-9129412D02*
X8920182Y-9110365D01*
X8920182Y-9110365D02*
X8939230Y-9100841D01*
X8939230Y-9100841D02*
X8977325Y-9100841D01*
X8977325Y-9100841D02*
X8996373Y-9110365D01*
X8996373Y-9110365D02*
X9005896Y-9129412D01*
X9005896Y-9129412D02*
X9005896Y-9148460D01*
X9005896Y-9148460D02*
X8910658Y-9167507D01*
X9177325Y-9234174D02*
X9177325Y-9034174D01*
X9177325Y-9224650D02*
X9158277Y-9234174D01*
X9158277Y-9234174D02*
X9120182Y-9234174D01*
X9120182Y-9234174D02*
X9101135Y-9224650D01*
X9101135Y-9224650D02*
X9091611Y-9215126D01*
X9091611Y-9215126D02*
X9082087Y-9196079D01*
X9082087Y-9196079D02*
X9082087Y-9138936D01*
X9082087Y-9138936D02*
X9091611Y-9119888D01*
X9091611Y-9119888D02*
X9101135Y-9110365D01*
X9101135Y-9110365D02*
X9120182Y-9100841D01*
X9120182Y-9100841D02*
X9158277Y-9100841D01*
X9158277Y-9100841D02*
X9177325Y-9110365D01*
X9253516Y-9310365D02*
X9263039Y-9300841D01*
X9263039Y-9300841D02*
X9282087Y-9272269D01*
X9282087Y-9272269D02*
X9291611Y-9253222D01*
X9291611Y-9253222D02*
X9301135Y-9224650D01*
X9301135Y-9224650D02*
X9310658Y-9177031D01*
X9310658Y-9177031D02*
X9310658Y-9138936D01*
X9310658Y-9138936D02*
X9301135Y-9091317D01*
X9301135Y-9091317D02*
X9291611Y-9062746D01*
X9291611Y-9062746D02*
X9282087Y-9043698D01*
X9282087Y-9043698D02*
X9263039Y-9015126D01*
X9263039Y-9015126D02*
X9253516Y-9005603D01*
X2497500Y-9406690D02*
G75*
G02*
X2297500Y-9406690I-100000J0D01*
G01*
X2297500Y-9406690D02*
G75*
G02*
X2497500Y-9406690I100000J0D01*
G01*
X2739229Y-9298174D02*
X2863039Y-9298174D01*
X2863039Y-9298174D02*
X2796372Y-9374365D01*
X2796372Y-9374365D02*
X2824943Y-9374365D01*
X2824943Y-9374365D02*
X2843991Y-9383888D01*
X2843991Y-9383888D02*
X2853515Y-9393412D01*
X2853515Y-9393412D02*
X2863039Y-9412460D01*
X2863039Y-9412460D02*
X2863039Y-9460079D01*
X2863039Y-9460079D02*
X2853515Y-9479126D01*
X2853515Y-9479126D02*
X2843991Y-9488650D01*
X2843991Y-9488650D02*
X2824943Y-9498174D01*
X2824943Y-9498174D02*
X2767801Y-9498174D01*
X2767801Y-9498174D02*
X2748753Y-9488650D01*
X2748753Y-9488650D02*
X2739229Y-9479126D01*
X2948753Y-9479126D02*
X2958277Y-9488650D01*
X2958277Y-9488650D02*
X2948753Y-9498174D01*
X2948753Y-9498174D02*
X2939229Y-9488650D01*
X2939229Y-9488650D02*
X2948753Y-9479126D01*
X2948753Y-9479126D02*
X2948753Y-9498174D01*
X3082086Y-9298174D02*
X3101134Y-9298174D01*
X3101134Y-9298174D02*
X3120182Y-9307698D01*
X3120182Y-9307698D02*
X3129705Y-9317222D01*
X3129705Y-9317222D02*
X3139229Y-9336269D01*
X3139229Y-9336269D02*
X3148753Y-9374365D01*
X3148753Y-9374365D02*
X3148753Y-9421984D01*
X3148753Y-9421984D02*
X3139229Y-9460079D01*
X3139229Y-9460079D02*
X3129705Y-9479126D01*
X3129705Y-9479126D02*
X3120182Y-9488650D01*
X3120182Y-9488650D02*
X3101134Y-9498174D01*
X3101134Y-9498174D02*
X3082086Y-9498174D01*
X3082086Y-9498174D02*
X3063039Y-9488650D01*
X3063039Y-9488650D02*
X3053515Y-9479126D01*
X3053515Y-9479126D02*
X3043991Y-9460079D01*
X3043991Y-9460079D02*
X3034467Y-9421984D01*
X3034467Y-9421984D02*
X3034467Y-9374365D01*
X3034467Y-9374365D02*
X3043991Y-9336269D01*
X3043991Y-9336269D02*
X3053515Y-9317222D01*
X3053515Y-9317222D02*
X3063039Y-9307698D01*
X3063039Y-9307698D02*
X3082086Y-9298174D01*
X3272562Y-9298174D02*
X3291610Y-9298174D01*
X3291610Y-9298174D02*
X3310658Y-9307698D01*
X3310658Y-9307698D02*
X3320182Y-9317222D01*
X3320182Y-9317222D02*
X3329705Y-9336269D01*
X3329705Y-9336269D02*
X3339229Y-9374365D01*
X3339229Y-9374365D02*
X3339229Y-9421984D01*
X3339229Y-9421984D02*
X3329705Y-9460079D01*
X3329705Y-9460079D02*
X3320182Y-9479126D01*
X3320182Y-9479126D02*
X3310658Y-9488650D01*
X3310658Y-9488650D02*
X3291610Y-9498174D01*
X3291610Y-9498174D02*
X3272562Y-9498174D01*
X3272562Y-9498174D02*
X3253515Y-9488650D01*
X3253515Y-9488650D02*
X3243991Y-9479126D01*
X3243991Y-9479126D02*
X3234467Y-9460079D01*
X3234467Y-9460079D02*
X3224943Y-9421984D01*
X3224943Y-9421984D02*
X3224943Y-9374365D01*
X3224943Y-9374365D02*
X3234467Y-9336269D01*
X3234467Y-9336269D02*
X3243991Y-9317222D01*
X3243991Y-9317222D02*
X3253515Y-9307698D01*
X3253515Y-9307698D02*
X3272562Y-9298174D01*
X3463039Y-9298174D02*
X3482086Y-9298174D01*
X3482086Y-9298174D02*
X3501134Y-9307698D01*
X3501134Y-9307698D02*
X3510658Y-9317222D01*
X3510658Y-9317222D02*
X3520182Y-9336269D01*
X3520182Y-9336269D02*
X3529705Y-9374365D01*
X3529705Y-9374365D02*
X3529705Y-9421984D01*
X3529705Y-9421984D02*
X3520182Y-9460079D01*
X3520182Y-9460079D02*
X3510658Y-9479126D01*
X3510658Y-9479126D02*
X3501134Y-9488650D01*
X3501134Y-9488650D02*
X3482086Y-9498174D01*
X3482086Y-9498174D02*
X3463039Y-9498174D01*
X3463039Y-9498174D02*
X3443991Y-9488650D01*
X3443991Y-9488650D02*
X3434467Y-9479126D01*
X3434467Y-9479126D02*
X3424943Y-9460079D01*
X3424943Y-9460079D02*
X3415420Y-9421984D01*
X3415420Y-9421984D02*
X3415420Y-9374365D01*
X3415420Y-9374365D02*
X3424943Y-9336269D01*
X3424943Y-9336269D02*
X3434467Y-9317222D01*
X3434467Y-9317222D02*
X3443991Y-9307698D01*
X3443991Y-9307698D02*
X3463039Y-9298174D01*
X3615420Y-9498174D02*
X3615420Y-9364841D01*
X3615420Y-9383888D02*
X3624943Y-9374365D01*
X3624943Y-9374365D02*
X3643991Y-9364841D01*
X3643991Y-9364841D02*
X3672563Y-9364841D01*
X3672563Y-9364841D02*
X3691610Y-9374365D01*
X3691610Y-9374365D02*
X3701134Y-9393412D01*
X3701134Y-9393412D02*
X3701134Y-9498174D01*
X3701134Y-9393412D02*
X3710658Y-9374365D01*
X3710658Y-9374365D02*
X3729705Y-9364841D01*
X3729705Y-9364841D02*
X3758277Y-9364841D01*
X3758277Y-9364841D02*
X3777324Y-9374365D01*
X3777324Y-9374365D02*
X3786848Y-9393412D01*
X3786848Y-9393412D02*
X3786848Y-9498174D01*
X3882086Y-9498174D02*
X3882086Y-9364841D01*
X3882086Y-9383888D02*
X3891610Y-9374365D01*
X3891610Y-9374365D02*
X3910658Y-9364841D01*
X3910658Y-9364841D02*
X3939229Y-9364841D01*
X3939229Y-9364841D02*
X3958277Y-9374365D01*
X3958277Y-9374365D02*
X3967801Y-9393412D01*
X3967801Y-9393412D02*
X3967801Y-9498174D01*
X3967801Y-9393412D02*
X3977324Y-9374365D01*
X3977324Y-9374365D02*
X3996372Y-9364841D01*
X3996372Y-9364841D02*
X4024943Y-9364841D01*
X4024943Y-9364841D02*
X4043991Y-9374365D01*
X4043991Y-9374365D02*
X4053515Y-9393412D01*
X4053515Y-9393412D02*
X4053515Y-9498174D01*
X4443991Y-9288650D02*
X4272563Y-9545793D01*
X4701134Y-9298174D02*
X4720182Y-9298174D01*
X4720182Y-9298174D02*
X4739229Y-9307698D01*
X4739229Y-9307698D02*
X4748753Y-9317222D01*
X4748753Y-9317222D02*
X4758277Y-9336269D01*
X4758277Y-9336269D02*
X4767801Y-9374365D01*
X4767801Y-9374365D02*
X4767801Y-9421984D01*
X4767801Y-9421984D02*
X4758277Y-9460079D01*
X4758277Y-9460079D02*
X4748753Y-9479126D01*
X4748753Y-9479126D02*
X4739229Y-9488650D01*
X4739229Y-9488650D02*
X4720182Y-9498174D01*
X4720182Y-9498174D02*
X4701134Y-9498174D01*
X4701134Y-9498174D02*
X4682087Y-9488650D01*
X4682087Y-9488650D02*
X4672563Y-9479126D01*
X4672563Y-9479126D02*
X4663039Y-9460079D01*
X4663039Y-9460079D02*
X4653515Y-9421984D01*
X4653515Y-9421984D02*
X4653515Y-9374365D01*
X4653515Y-9374365D02*
X4663039Y-9336269D01*
X4663039Y-9336269D02*
X4672563Y-9317222D01*
X4672563Y-9317222D02*
X4682087Y-9307698D01*
X4682087Y-9307698D02*
X4701134Y-9298174D01*
X4853515Y-9479126D02*
X4863039Y-9488650D01*
X4863039Y-9488650D02*
X4853515Y-9498174D01*
X4853515Y-9498174D02*
X4843991Y-9488650D01*
X4843991Y-9488650D02*
X4853515Y-9479126D01*
X4853515Y-9479126D02*
X4853515Y-9498174D01*
X5053515Y-9498174D02*
X4939229Y-9498174D01*
X4996372Y-9498174D02*
X4996372Y-9298174D01*
X4996372Y-9298174D02*
X4977325Y-9326746D01*
X4977325Y-9326746D02*
X4958277Y-9345793D01*
X4958277Y-9345793D02*
X4939229Y-9355317D01*
X5243991Y-9498174D02*
X5129706Y-9498174D01*
X5186848Y-9498174D02*
X5186848Y-9298174D01*
X5186848Y-9298174D02*
X5167801Y-9326746D01*
X5167801Y-9326746D02*
X5148753Y-9345793D01*
X5148753Y-9345793D02*
X5129706Y-9355317D01*
X5358277Y-9383888D02*
X5339229Y-9374365D01*
X5339229Y-9374365D02*
X5329706Y-9364841D01*
X5329706Y-9364841D02*
X5320182Y-9345793D01*
X5320182Y-9345793D02*
X5320182Y-9336269D01*
X5320182Y-9336269D02*
X5329706Y-9317222D01*
X5329706Y-9317222D02*
X5339229Y-9307698D01*
X5339229Y-9307698D02*
X5358277Y-9298174D01*
X5358277Y-9298174D02*
X5396372Y-9298174D01*
X5396372Y-9298174D02*
X5415420Y-9307698D01*
X5415420Y-9307698D02*
X5424944Y-9317222D01*
X5424944Y-9317222D02*
X5434468Y-9336269D01*
X5434468Y-9336269D02*
X5434468Y-9345793D01*
X5434468Y-9345793D02*
X5424944Y-9364841D01*
X5424944Y-9364841D02*
X5415420Y-9374365D01*
X5415420Y-9374365D02*
X5396372Y-9383888D01*
X5396372Y-9383888D02*
X5358277Y-9383888D01*
X5358277Y-9383888D02*
X5339229Y-9393412D01*
X5339229Y-9393412D02*
X5329706Y-9402936D01*
X5329706Y-9402936D02*
X5320182Y-9421984D01*
X5320182Y-9421984D02*
X5320182Y-9460079D01*
X5320182Y-9460079D02*
X5329706Y-9479126D01*
X5329706Y-9479126D02*
X5339229Y-9488650D01*
X5339229Y-9488650D02*
X5358277Y-9498174D01*
X5358277Y-9498174D02*
X5396372Y-9498174D01*
X5396372Y-9498174D02*
X5415420Y-9488650D01*
X5415420Y-9488650D02*
X5424944Y-9479126D01*
X5424944Y-9479126D02*
X5434468Y-9460079D01*
X5434468Y-9460079D02*
X5434468Y-9421984D01*
X5434468Y-9421984D02*
X5424944Y-9402936D01*
X5424944Y-9402936D02*
X5415420Y-9393412D01*
X5415420Y-9393412D02*
X5396372Y-9383888D01*
X5624944Y-9498174D02*
X5510658Y-9498174D01*
X5567801Y-9498174D02*
X5567801Y-9298174D01*
X5567801Y-9298174D02*
X5548753Y-9326746D01*
X5548753Y-9326746D02*
X5529706Y-9345793D01*
X5529706Y-9345793D02*
X5510658Y-9355317D01*
X5701134Y-9298174D02*
X5701134Y-9336269D01*
X5777325Y-9298174D02*
X5777325Y-9336269D01*
X6072563Y-9574365D02*
X6063039Y-9564841D01*
X6063039Y-9564841D02*
X6043991Y-9536269D01*
X6043991Y-9536269D02*
X6034468Y-9517222D01*
X6034468Y-9517222D02*
X6024944Y-9488650D01*
X6024944Y-9488650D02*
X6015420Y-9441031D01*
X6015420Y-9441031D02*
X6015420Y-9402936D01*
X6015420Y-9402936D02*
X6024944Y-9355317D01*
X6024944Y-9355317D02*
X6034468Y-9326746D01*
X6034468Y-9326746D02*
X6043991Y-9307698D01*
X6043991Y-9307698D02*
X6063039Y-9279126D01*
X6063039Y-9279126D02*
X6072563Y-9269603D01*
X6234468Y-9364841D02*
X6234468Y-9498174D01*
X6186848Y-9288650D02*
X6139229Y-9431507D01*
X6139229Y-9431507D02*
X6263039Y-9431507D01*
X6491610Y-9498174D02*
X6491610Y-9298174D01*
X6577325Y-9498174D02*
X6577325Y-9393412D01*
X6577325Y-9393412D02*
X6567801Y-9374365D01*
X6567801Y-9374365D02*
X6548753Y-9364841D01*
X6548753Y-9364841D02*
X6520182Y-9364841D01*
X6520182Y-9364841D02*
X6501134Y-9374365D01*
X6501134Y-9374365D02*
X6491610Y-9383888D01*
X6701134Y-9498174D02*
X6682087Y-9488650D01*
X6682087Y-9488650D02*
X6672563Y-9479126D01*
X6672563Y-9479126D02*
X6663039Y-9460079D01*
X6663039Y-9460079D02*
X6663039Y-9402936D01*
X6663039Y-9402936D02*
X6672563Y-9383888D01*
X6672563Y-9383888D02*
X6682087Y-9374365D01*
X6682087Y-9374365D02*
X6701134Y-9364841D01*
X6701134Y-9364841D02*
X6729706Y-9364841D01*
X6729706Y-9364841D02*
X6748753Y-9374365D01*
X6748753Y-9374365D02*
X6758277Y-9383888D01*
X6758277Y-9383888D02*
X6767801Y-9402936D01*
X6767801Y-9402936D02*
X6767801Y-9460079D01*
X6767801Y-9460079D02*
X6758277Y-9479126D01*
X6758277Y-9479126D02*
X6748753Y-9488650D01*
X6748753Y-9488650D02*
X6729706Y-9498174D01*
X6729706Y-9498174D02*
X6701134Y-9498174D01*
X6882087Y-9498174D02*
X6863039Y-9488650D01*
X6863039Y-9488650D02*
X6853515Y-9469603D01*
X6853515Y-9469603D02*
X6853515Y-9298174D01*
X7034468Y-9488650D02*
X7015420Y-9498174D01*
X7015420Y-9498174D02*
X6977325Y-9498174D01*
X6977325Y-9498174D02*
X6958277Y-9488650D01*
X6958277Y-9488650D02*
X6948753Y-9469603D01*
X6948753Y-9469603D02*
X6948753Y-9393412D01*
X6948753Y-9393412D02*
X6958277Y-9374365D01*
X6958277Y-9374365D02*
X6977325Y-9364841D01*
X6977325Y-9364841D02*
X7015420Y-9364841D01*
X7015420Y-9364841D02*
X7034468Y-9374365D01*
X7034468Y-9374365D02*
X7043991Y-9393412D01*
X7043991Y-9393412D02*
X7043991Y-9412460D01*
X7043991Y-9412460D02*
X6948753Y-9431507D01*
X7120182Y-9488650D02*
X7139230Y-9498174D01*
X7139230Y-9498174D02*
X7177325Y-9498174D01*
X7177325Y-9498174D02*
X7196372Y-9488650D01*
X7196372Y-9488650D02*
X7205896Y-9469603D01*
X7205896Y-9469603D02*
X7205896Y-9460079D01*
X7205896Y-9460079D02*
X7196372Y-9441031D01*
X7196372Y-9441031D02*
X7177325Y-9431507D01*
X7177325Y-9431507D02*
X7148753Y-9431507D01*
X7148753Y-9431507D02*
X7129706Y-9421984D01*
X7129706Y-9421984D02*
X7120182Y-9402936D01*
X7120182Y-9402936D02*
X7120182Y-9393412D01*
X7120182Y-9393412D02*
X7129706Y-9374365D01*
X7129706Y-9374365D02*
X7148753Y-9364841D01*
X7148753Y-9364841D02*
X7177325Y-9364841D01*
X7177325Y-9364841D02*
X7196372Y-9374365D01*
X7272563Y-9574365D02*
X7282087Y-9564841D01*
X7282087Y-9564841D02*
X7301134Y-9536269D01*
X7301134Y-9536269D02*
X7310658Y-9517222D01*
X7310658Y-9517222D02*
X7320182Y-9488650D01*
X7320182Y-9488650D02*
X7329706Y-9441031D01*
X7329706Y-9441031D02*
X7329706Y-9402936D01*
X7329706Y-9402936D02*
X7320182Y-9355317D01*
X7320182Y-9355317D02*
X7310658Y-9326746D01*
X7310658Y-9326746D02*
X7301134Y-9307698D01*
X7301134Y-9307698D02*
X7282087Y-9279126D01*
X7282087Y-9279126D02*
X7272563Y-9269603D01*
X7634468Y-9574365D02*
X7624944Y-9564841D01*
X7624944Y-9564841D02*
X7605896Y-9536269D01*
X7605896Y-9536269D02*
X7596372Y-9517222D01*
X7596372Y-9517222D02*
X7586849Y-9488650D01*
X7586849Y-9488650D02*
X7577325Y-9441031D01*
X7577325Y-9441031D02*
X7577325Y-9402936D01*
X7577325Y-9402936D02*
X7586849Y-9355317D01*
X7586849Y-9355317D02*
X7596372Y-9326746D01*
X7596372Y-9326746D02*
X7605896Y-9307698D01*
X7605896Y-9307698D02*
X7624944Y-9279126D01*
X7624944Y-9279126D02*
X7634468Y-9269603D01*
X7710658Y-9364841D02*
X7710658Y-9498174D01*
X7710658Y-9383888D02*
X7720182Y-9374365D01*
X7720182Y-9374365D02*
X7739230Y-9364841D01*
X7739230Y-9364841D02*
X7767801Y-9364841D01*
X7767801Y-9364841D02*
X7786849Y-9374365D01*
X7786849Y-9374365D02*
X7796372Y-9393412D01*
X7796372Y-9393412D02*
X7796372Y-9498174D01*
X7920182Y-9498174D02*
X7901134Y-9488650D01*
X7901134Y-9488650D02*
X7891611Y-9479126D01*
X7891611Y-9479126D02*
X7882087Y-9460079D01*
X7882087Y-9460079D02*
X7882087Y-9402936D01*
X7882087Y-9402936D02*
X7891611Y-9383888D01*
X7891611Y-9383888D02*
X7901134Y-9374365D01*
X7901134Y-9374365D02*
X7920182Y-9364841D01*
X7920182Y-9364841D02*
X7948753Y-9364841D01*
X7948753Y-9364841D02*
X7967801Y-9374365D01*
X7967801Y-9374365D02*
X7977325Y-9383888D01*
X7977325Y-9383888D02*
X7986849Y-9402936D01*
X7986849Y-9402936D02*
X7986849Y-9460079D01*
X7986849Y-9460079D02*
X7977325Y-9479126D01*
X7977325Y-9479126D02*
X7967801Y-9488650D01*
X7967801Y-9488650D02*
X7948753Y-9498174D01*
X7948753Y-9498174D02*
X7920182Y-9498174D01*
X8043992Y-9364841D02*
X8120182Y-9364841D01*
X8072563Y-9298174D02*
X8072563Y-9469603D01*
X8072563Y-9469603D02*
X8082087Y-9488650D01*
X8082087Y-9488650D02*
X8101134Y-9498174D01*
X8101134Y-9498174D02*
X8120182Y-9498174D01*
X8339230Y-9364841D02*
X8339230Y-9564841D01*
X8339230Y-9374365D02*
X8358277Y-9364841D01*
X8358277Y-9364841D02*
X8396373Y-9364841D01*
X8396373Y-9364841D02*
X8415420Y-9374365D01*
X8415420Y-9374365D02*
X8424944Y-9383888D01*
X8424944Y-9383888D02*
X8434468Y-9402936D01*
X8434468Y-9402936D02*
X8434468Y-9460079D01*
X8434468Y-9460079D02*
X8424944Y-9479126D01*
X8424944Y-9479126D02*
X8415420Y-9488650D01*
X8415420Y-9488650D02*
X8396373Y-9498174D01*
X8396373Y-9498174D02*
X8358277Y-9498174D01*
X8358277Y-9498174D02*
X8339230Y-9488650D01*
X8548754Y-9498174D02*
X8529706Y-9488650D01*
X8529706Y-9488650D02*
X8520182Y-9469603D01*
X8520182Y-9469603D02*
X8520182Y-9298174D01*
X8710658Y-9498174D02*
X8710658Y-9393412D01*
X8710658Y-9393412D02*
X8701135Y-9374365D01*
X8701135Y-9374365D02*
X8682087Y-9364841D01*
X8682087Y-9364841D02*
X8643992Y-9364841D01*
X8643992Y-9364841D02*
X8624944Y-9374365D01*
X8710658Y-9488650D02*
X8691611Y-9498174D01*
X8691611Y-9498174D02*
X8643992Y-9498174D01*
X8643992Y-9498174D02*
X8624944Y-9488650D01*
X8624944Y-9488650D02*
X8615420Y-9469603D01*
X8615420Y-9469603D02*
X8615420Y-9450555D01*
X8615420Y-9450555D02*
X8624944Y-9431507D01*
X8624944Y-9431507D02*
X8643992Y-9421984D01*
X8643992Y-9421984D02*
X8691611Y-9421984D01*
X8691611Y-9421984D02*
X8710658Y-9412460D01*
X8777325Y-9364841D02*
X8853515Y-9364841D01*
X8805896Y-9298174D02*
X8805896Y-9469603D01*
X8805896Y-9469603D02*
X8815420Y-9488650D01*
X8815420Y-9488650D02*
X8834468Y-9498174D01*
X8834468Y-9498174D02*
X8853515Y-9498174D01*
X8996373Y-9488650D02*
X8977325Y-9498174D01*
X8977325Y-9498174D02*
X8939230Y-9498174D01*
X8939230Y-9498174D02*
X8920182Y-9488650D01*
X8920182Y-9488650D02*
X8910658Y-9469603D01*
X8910658Y-9469603D02*
X8910658Y-9393412D01*
X8910658Y-9393412D02*
X8920182Y-9374365D01*
X8920182Y-9374365D02*
X8939230Y-9364841D01*
X8939230Y-9364841D02*
X8977325Y-9364841D01*
X8977325Y-9364841D02*
X8996373Y-9374365D01*
X8996373Y-9374365D02*
X9005896Y-9393412D01*
X9005896Y-9393412D02*
X9005896Y-9412460D01*
X9005896Y-9412460D02*
X8910658Y-9431507D01*
X9177325Y-9498174D02*
X9177325Y-9298174D01*
X9177325Y-9488650D02*
X9158277Y-9498174D01*
X9158277Y-9498174D02*
X9120182Y-9498174D01*
X9120182Y-9498174D02*
X9101135Y-9488650D01*
X9101135Y-9488650D02*
X9091611Y-9479126D01*
X9091611Y-9479126D02*
X9082087Y-9460079D01*
X9082087Y-9460079D02*
X9082087Y-9402936D01*
X9082087Y-9402936D02*
X9091611Y-9383888D01*
X9091611Y-9383888D02*
X9101135Y-9374365D01*
X9101135Y-9374365D02*
X9120182Y-9364841D01*
X9120182Y-9364841D02*
X9158277Y-9364841D01*
X9158277Y-9364841D02*
X9177325Y-9374365D01*
X9253516Y-9574365D02*
X9263039Y-9564841D01*
X9263039Y-9564841D02*
X9282087Y-9536269D01*
X9282087Y-9536269D02*
X9291611Y-9517222D01*
X9291611Y-9517222D02*
X9301135Y-9488650D01*
X9301135Y-9488650D02*
X9310658Y-9441031D01*
X9310658Y-9441031D02*
X9310658Y-9402936D01*
X9310658Y-9402936D02*
X9301135Y-9355317D01*
X9301135Y-9355317D02*
X9291611Y-9326746D01*
X9291611Y-9326746D02*
X9282087Y-9307698D01*
X9282087Y-9307698D02*
X9263039Y-9279126D01*
X9263039Y-9279126D02*
X9253516Y-9269603D01*
X2397500Y-9626690D02*
X2397500Y-9826690D01*
X2297500Y-9726690D02*
X2497500Y-9726690D01*
X2739229Y-9618174D02*
X2863039Y-9618174D01*
X2863039Y-9618174D02*
X2796372Y-9694365D01*
X2796372Y-9694365D02*
X2824943Y-9694365D01*
X2824943Y-9694365D02*
X2843991Y-9703888D01*
X2843991Y-9703888D02*
X2853515Y-9713412D01*
X2853515Y-9713412D02*
X2863039Y-9732460D01*
X2863039Y-9732460D02*
X2863039Y-9780079D01*
X2863039Y-9780079D02*
X2853515Y-9799126D01*
X2853515Y-9799126D02*
X2843991Y-9808650D01*
X2843991Y-9808650D02*
X2824943Y-9818174D01*
X2824943Y-9818174D02*
X2767801Y-9818174D01*
X2767801Y-9818174D02*
X2748753Y-9808650D01*
X2748753Y-9808650D02*
X2739229Y-9799126D01*
X2948753Y-9799126D02*
X2958277Y-9808650D01*
X2958277Y-9808650D02*
X2948753Y-9818174D01*
X2948753Y-9818174D02*
X2939229Y-9808650D01*
X2939229Y-9808650D02*
X2948753Y-9799126D01*
X2948753Y-9799126D02*
X2948753Y-9818174D01*
X3034467Y-9637222D02*
X3043991Y-9627698D01*
X3043991Y-9627698D02*
X3063039Y-9618174D01*
X3063039Y-9618174D02*
X3110658Y-9618174D01*
X3110658Y-9618174D02*
X3129705Y-9627698D01*
X3129705Y-9627698D02*
X3139229Y-9637222D01*
X3139229Y-9637222D02*
X3148753Y-9656269D01*
X3148753Y-9656269D02*
X3148753Y-9675317D01*
X3148753Y-9675317D02*
X3139229Y-9703888D01*
X3139229Y-9703888D02*
X3024943Y-9818174D01*
X3024943Y-9818174D02*
X3148753Y-9818174D01*
X3329705Y-9618174D02*
X3234467Y-9618174D01*
X3234467Y-9618174D02*
X3224943Y-9713412D01*
X3224943Y-9713412D02*
X3234467Y-9703888D01*
X3234467Y-9703888D02*
X3253515Y-9694365D01*
X3253515Y-9694365D02*
X3301134Y-9694365D01*
X3301134Y-9694365D02*
X3320182Y-9703888D01*
X3320182Y-9703888D02*
X3329705Y-9713412D01*
X3329705Y-9713412D02*
X3339229Y-9732460D01*
X3339229Y-9732460D02*
X3339229Y-9780079D01*
X3339229Y-9780079D02*
X3329705Y-9799126D01*
X3329705Y-9799126D02*
X3320182Y-9808650D01*
X3320182Y-9808650D02*
X3301134Y-9818174D01*
X3301134Y-9818174D02*
X3253515Y-9818174D01*
X3253515Y-9818174D02*
X3234467Y-9808650D01*
X3234467Y-9808650D02*
X3224943Y-9799126D01*
X3529705Y-9818174D02*
X3415420Y-9818174D01*
X3472562Y-9818174D02*
X3472562Y-9618174D01*
X3472562Y-9618174D02*
X3453515Y-9646746D01*
X3453515Y-9646746D02*
X3434467Y-9665793D01*
X3434467Y-9665793D02*
X3415420Y-9675317D01*
X3615420Y-9818174D02*
X3615420Y-9684841D01*
X3615420Y-9703888D02*
X3624943Y-9694365D01*
X3624943Y-9694365D02*
X3643991Y-9684841D01*
X3643991Y-9684841D02*
X3672563Y-9684841D01*
X3672563Y-9684841D02*
X3691610Y-9694365D01*
X3691610Y-9694365D02*
X3701134Y-9713412D01*
X3701134Y-9713412D02*
X3701134Y-9818174D01*
X3701134Y-9713412D02*
X3710658Y-9694365D01*
X3710658Y-9694365D02*
X3729705Y-9684841D01*
X3729705Y-9684841D02*
X3758277Y-9684841D01*
X3758277Y-9684841D02*
X3777324Y-9694365D01*
X3777324Y-9694365D02*
X3786848Y-9713412D01*
X3786848Y-9713412D02*
X3786848Y-9818174D01*
X3882086Y-9818174D02*
X3882086Y-9684841D01*
X3882086Y-9703888D02*
X3891610Y-9694365D01*
X3891610Y-9694365D02*
X3910658Y-9684841D01*
X3910658Y-9684841D02*
X3939229Y-9684841D01*
X3939229Y-9684841D02*
X3958277Y-9694365D01*
X3958277Y-9694365D02*
X3967801Y-9713412D01*
X3967801Y-9713412D02*
X3967801Y-9818174D01*
X3967801Y-9713412D02*
X3977324Y-9694365D01*
X3977324Y-9694365D02*
X3996372Y-9684841D01*
X3996372Y-9684841D02*
X4024943Y-9684841D01*
X4024943Y-9684841D02*
X4043991Y-9694365D01*
X4043991Y-9694365D02*
X4053515Y-9713412D01*
X4053515Y-9713412D02*
X4053515Y-9818174D01*
X4443991Y-9608650D02*
X4272563Y-9865793D01*
X4701134Y-9618174D02*
X4720182Y-9618174D01*
X4720182Y-9618174D02*
X4739229Y-9627698D01*
X4739229Y-9627698D02*
X4748753Y-9637222D01*
X4748753Y-9637222D02*
X4758277Y-9656269D01*
X4758277Y-9656269D02*
X4767801Y-9694365D01*
X4767801Y-9694365D02*
X4767801Y-9741984D01*
X4767801Y-9741984D02*
X4758277Y-9780079D01*
X4758277Y-9780079D02*
X4748753Y-9799126D01*
X4748753Y-9799126D02*
X4739229Y-9808650D01*
X4739229Y-9808650D02*
X4720182Y-9818174D01*
X4720182Y-9818174D02*
X4701134Y-9818174D01*
X4701134Y-9818174D02*
X4682087Y-9808650D01*
X4682087Y-9808650D02*
X4672563Y-9799126D01*
X4672563Y-9799126D02*
X4663039Y-9780079D01*
X4663039Y-9780079D02*
X4653515Y-9741984D01*
X4653515Y-9741984D02*
X4653515Y-9694365D01*
X4653515Y-9694365D02*
X4663039Y-9656269D01*
X4663039Y-9656269D02*
X4672563Y-9637222D01*
X4672563Y-9637222D02*
X4682087Y-9627698D01*
X4682087Y-9627698D02*
X4701134Y-9618174D01*
X4853515Y-9799126D02*
X4863039Y-9808650D01*
X4863039Y-9808650D02*
X4853515Y-9818174D01*
X4853515Y-9818174D02*
X4843991Y-9808650D01*
X4843991Y-9808650D02*
X4853515Y-9799126D01*
X4853515Y-9799126D02*
X4853515Y-9818174D01*
X5053515Y-9818174D02*
X4939229Y-9818174D01*
X4996372Y-9818174D02*
X4996372Y-9618174D01*
X4996372Y-9618174D02*
X4977325Y-9646746D01*
X4977325Y-9646746D02*
X4958277Y-9665793D01*
X4958277Y-9665793D02*
X4939229Y-9675317D01*
X5129706Y-9637222D02*
X5139229Y-9627698D01*
X5139229Y-9627698D02*
X5158277Y-9618174D01*
X5158277Y-9618174D02*
X5205896Y-9618174D01*
X5205896Y-9618174D02*
X5224944Y-9627698D01*
X5224944Y-9627698D02*
X5234468Y-9637222D01*
X5234468Y-9637222D02*
X5243991Y-9656269D01*
X5243991Y-9656269D02*
X5243991Y-9675317D01*
X5243991Y-9675317D02*
X5234468Y-9703888D01*
X5234468Y-9703888D02*
X5120182Y-9818174D01*
X5120182Y-9818174D02*
X5243991Y-9818174D01*
X5358277Y-9703888D02*
X5339229Y-9694365D01*
X5339229Y-9694365D02*
X5329706Y-9684841D01*
X5329706Y-9684841D02*
X5320182Y-9665793D01*
X5320182Y-9665793D02*
X5320182Y-9656269D01*
X5320182Y-9656269D02*
X5329706Y-9637222D01*
X5329706Y-9637222D02*
X5339229Y-9627698D01*
X5339229Y-9627698D02*
X5358277Y-9618174D01*
X5358277Y-9618174D02*
X5396372Y-9618174D01*
X5396372Y-9618174D02*
X5415420Y-9627698D01*
X5415420Y-9627698D02*
X5424944Y-9637222D01*
X5424944Y-9637222D02*
X5434468Y-9656269D01*
X5434468Y-9656269D02*
X5434468Y-9665793D01*
X5434468Y-9665793D02*
X5424944Y-9684841D01*
X5424944Y-9684841D02*
X5415420Y-9694365D01*
X5415420Y-9694365D02*
X5396372Y-9703888D01*
X5396372Y-9703888D02*
X5358277Y-9703888D01*
X5358277Y-9703888D02*
X5339229Y-9713412D01*
X5339229Y-9713412D02*
X5329706Y-9722936D01*
X5329706Y-9722936D02*
X5320182Y-9741984D01*
X5320182Y-9741984D02*
X5320182Y-9780079D01*
X5320182Y-9780079D02*
X5329706Y-9799126D01*
X5329706Y-9799126D02*
X5339229Y-9808650D01*
X5339229Y-9808650D02*
X5358277Y-9818174D01*
X5358277Y-9818174D02*
X5396372Y-9818174D01*
X5396372Y-9818174D02*
X5415420Y-9808650D01*
X5415420Y-9808650D02*
X5424944Y-9799126D01*
X5424944Y-9799126D02*
X5434468Y-9780079D01*
X5434468Y-9780079D02*
X5434468Y-9741984D01*
X5434468Y-9741984D02*
X5424944Y-9722936D01*
X5424944Y-9722936D02*
X5415420Y-9713412D01*
X5415420Y-9713412D02*
X5396372Y-9703888D01*
X5558277Y-9618174D02*
X5577325Y-9618174D01*
X5577325Y-9618174D02*
X5596372Y-9627698D01*
X5596372Y-9627698D02*
X5605896Y-9637222D01*
X5605896Y-9637222D02*
X5615420Y-9656269D01*
X5615420Y-9656269D02*
X5624944Y-9694365D01*
X5624944Y-9694365D02*
X5624944Y-9741984D01*
X5624944Y-9741984D02*
X5615420Y-9780079D01*
X5615420Y-9780079D02*
X5605896Y-9799126D01*
X5605896Y-9799126D02*
X5596372Y-9808650D01*
X5596372Y-9808650D02*
X5577325Y-9818174D01*
X5577325Y-9818174D02*
X5558277Y-9818174D01*
X5558277Y-9818174D02*
X5539229Y-9808650D01*
X5539229Y-9808650D02*
X5529706Y-9799126D01*
X5529706Y-9799126D02*
X5520182Y-9780079D01*
X5520182Y-9780079D02*
X5510658Y-9741984D01*
X5510658Y-9741984D02*
X5510658Y-9694365D01*
X5510658Y-9694365D02*
X5520182Y-9656269D01*
X5520182Y-9656269D02*
X5529706Y-9637222D01*
X5529706Y-9637222D02*
X5539229Y-9627698D01*
X5539229Y-9627698D02*
X5558277Y-9618174D01*
X5701134Y-9618174D02*
X5701134Y-9656269D01*
X5777325Y-9618174D02*
X5777325Y-9656269D01*
X6072563Y-9894365D02*
X6063039Y-9884841D01*
X6063039Y-9884841D02*
X6043991Y-9856269D01*
X6043991Y-9856269D02*
X6034468Y-9837222D01*
X6034468Y-9837222D02*
X6024944Y-9808650D01*
X6024944Y-9808650D02*
X6015420Y-9761031D01*
X6015420Y-9761031D02*
X6015420Y-9722936D01*
X6015420Y-9722936D02*
X6024944Y-9675317D01*
X6024944Y-9675317D02*
X6034468Y-9646746D01*
X6034468Y-9646746D02*
X6043991Y-9627698D01*
X6043991Y-9627698D02*
X6063039Y-9599126D01*
X6063039Y-9599126D02*
X6072563Y-9589603D01*
X6234468Y-9618174D02*
X6196372Y-9618174D01*
X6196372Y-9618174D02*
X6177325Y-9627698D01*
X6177325Y-9627698D02*
X6167801Y-9637222D01*
X6167801Y-9637222D02*
X6148753Y-9665793D01*
X6148753Y-9665793D02*
X6139229Y-9703888D01*
X6139229Y-9703888D02*
X6139229Y-9780079D01*
X6139229Y-9780079D02*
X6148753Y-9799126D01*
X6148753Y-9799126D02*
X6158277Y-9808650D01*
X6158277Y-9808650D02*
X6177325Y-9818174D01*
X6177325Y-9818174D02*
X6215420Y-9818174D01*
X6215420Y-9818174D02*
X6234468Y-9808650D01*
X6234468Y-9808650D02*
X6243991Y-9799126D01*
X6243991Y-9799126D02*
X6253515Y-9780079D01*
X6253515Y-9780079D02*
X6253515Y-9732460D01*
X6253515Y-9732460D02*
X6243991Y-9713412D01*
X6243991Y-9713412D02*
X6234468Y-9703888D01*
X6234468Y-9703888D02*
X6215420Y-9694365D01*
X6215420Y-9694365D02*
X6177325Y-9694365D01*
X6177325Y-9694365D02*
X6158277Y-9703888D01*
X6158277Y-9703888D02*
X6148753Y-9713412D01*
X6148753Y-9713412D02*
X6139229Y-9732460D01*
X6491610Y-9818174D02*
X6491610Y-9618174D01*
X6577325Y-9818174D02*
X6577325Y-9713412D01*
X6577325Y-9713412D02*
X6567801Y-9694365D01*
X6567801Y-9694365D02*
X6548753Y-9684841D01*
X6548753Y-9684841D02*
X6520182Y-9684841D01*
X6520182Y-9684841D02*
X6501134Y-9694365D01*
X6501134Y-9694365D02*
X6491610Y-9703888D01*
X6701134Y-9818174D02*
X6682087Y-9808650D01*
X6682087Y-9808650D02*
X6672563Y-9799126D01*
X6672563Y-9799126D02*
X6663039Y-9780079D01*
X6663039Y-9780079D02*
X6663039Y-9722936D01*
X6663039Y-9722936D02*
X6672563Y-9703888D01*
X6672563Y-9703888D02*
X6682087Y-9694365D01*
X6682087Y-9694365D02*
X6701134Y-9684841D01*
X6701134Y-9684841D02*
X6729706Y-9684841D01*
X6729706Y-9684841D02*
X6748753Y-9694365D01*
X6748753Y-9694365D02*
X6758277Y-9703888D01*
X6758277Y-9703888D02*
X6767801Y-9722936D01*
X6767801Y-9722936D02*
X6767801Y-9780079D01*
X6767801Y-9780079D02*
X6758277Y-9799126D01*
X6758277Y-9799126D02*
X6748753Y-9808650D01*
X6748753Y-9808650D02*
X6729706Y-9818174D01*
X6729706Y-9818174D02*
X6701134Y-9818174D01*
X6882087Y-9818174D02*
X6863039Y-9808650D01*
X6863039Y-9808650D02*
X6853515Y-9789603D01*
X6853515Y-9789603D02*
X6853515Y-9618174D01*
X7034468Y-9808650D02*
X7015420Y-9818174D01*
X7015420Y-9818174D02*
X6977325Y-9818174D01*
X6977325Y-9818174D02*
X6958277Y-9808650D01*
X6958277Y-9808650D02*
X6948753Y-9789603D01*
X6948753Y-9789603D02*
X6948753Y-9713412D01*
X6948753Y-9713412D02*
X6958277Y-9694365D01*
X6958277Y-9694365D02*
X6977325Y-9684841D01*
X6977325Y-9684841D02*
X7015420Y-9684841D01*
X7015420Y-9684841D02*
X7034468Y-9694365D01*
X7034468Y-9694365D02*
X7043991Y-9713412D01*
X7043991Y-9713412D02*
X7043991Y-9732460D01*
X7043991Y-9732460D02*
X6948753Y-9751507D01*
X7120182Y-9808650D02*
X7139230Y-9818174D01*
X7139230Y-9818174D02*
X7177325Y-9818174D01*
X7177325Y-9818174D02*
X7196372Y-9808650D01*
X7196372Y-9808650D02*
X7205896Y-9789603D01*
X7205896Y-9789603D02*
X7205896Y-9780079D01*
X7205896Y-9780079D02*
X7196372Y-9761031D01*
X7196372Y-9761031D02*
X7177325Y-9751507D01*
X7177325Y-9751507D02*
X7148753Y-9751507D01*
X7148753Y-9751507D02*
X7129706Y-9741984D01*
X7129706Y-9741984D02*
X7120182Y-9722936D01*
X7120182Y-9722936D02*
X7120182Y-9713412D01*
X7120182Y-9713412D02*
X7129706Y-9694365D01*
X7129706Y-9694365D02*
X7148753Y-9684841D01*
X7148753Y-9684841D02*
X7177325Y-9684841D01*
X7177325Y-9684841D02*
X7196372Y-9694365D01*
X7272563Y-9894365D02*
X7282087Y-9884841D01*
X7282087Y-9884841D02*
X7301134Y-9856269D01*
X7301134Y-9856269D02*
X7310658Y-9837222D01*
X7310658Y-9837222D02*
X7320182Y-9808650D01*
X7320182Y-9808650D02*
X7329706Y-9761031D01*
X7329706Y-9761031D02*
X7329706Y-9722936D01*
X7329706Y-9722936D02*
X7320182Y-9675317D01*
X7320182Y-9675317D02*
X7310658Y-9646746D01*
X7310658Y-9646746D02*
X7301134Y-9627698D01*
X7301134Y-9627698D02*
X7282087Y-9599126D01*
X7282087Y-9599126D02*
X7272563Y-9589603D01*
X7634468Y-9894365D02*
X7624944Y-9884841D01*
X7624944Y-9884841D02*
X7605896Y-9856269D01*
X7605896Y-9856269D02*
X7596372Y-9837222D01*
X7596372Y-9837222D02*
X7586849Y-9808650D01*
X7586849Y-9808650D02*
X7577325Y-9761031D01*
X7577325Y-9761031D02*
X7577325Y-9722936D01*
X7577325Y-9722936D02*
X7586849Y-9675317D01*
X7586849Y-9675317D02*
X7596372Y-9646746D01*
X7596372Y-9646746D02*
X7605896Y-9627698D01*
X7605896Y-9627698D02*
X7624944Y-9599126D01*
X7624944Y-9599126D02*
X7634468Y-9589603D01*
X7710658Y-9684841D02*
X7710658Y-9818174D01*
X7710658Y-9703888D02*
X7720182Y-9694365D01*
X7720182Y-9694365D02*
X7739230Y-9684841D01*
X7739230Y-9684841D02*
X7767801Y-9684841D01*
X7767801Y-9684841D02*
X7786849Y-9694365D01*
X7786849Y-9694365D02*
X7796372Y-9713412D01*
X7796372Y-9713412D02*
X7796372Y-9818174D01*
X7920182Y-9818174D02*
X7901134Y-9808650D01*
X7901134Y-9808650D02*
X7891611Y-9799126D01*
X7891611Y-9799126D02*
X7882087Y-9780079D01*
X7882087Y-9780079D02*
X7882087Y-9722936D01*
X7882087Y-9722936D02*
X7891611Y-9703888D01*
X7891611Y-9703888D02*
X7901134Y-9694365D01*
X7901134Y-9694365D02*
X7920182Y-9684841D01*
X7920182Y-9684841D02*
X7948753Y-9684841D01*
X7948753Y-9684841D02*
X7967801Y-9694365D01*
X7967801Y-9694365D02*
X7977325Y-9703888D01*
X7977325Y-9703888D02*
X7986849Y-9722936D01*
X7986849Y-9722936D02*
X7986849Y-9780079D01*
X7986849Y-9780079D02*
X7977325Y-9799126D01*
X7977325Y-9799126D02*
X7967801Y-9808650D01*
X7967801Y-9808650D02*
X7948753Y-9818174D01*
X7948753Y-9818174D02*
X7920182Y-9818174D01*
X8043992Y-9684841D02*
X8120182Y-9684841D01*
X8072563Y-9618174D02*
X8072563Y-9789603D01*
X8072563Y-9789603D02*
X8082087Y-9808650D01*
X8082087Y-9808650D02*
X8101134Y-9818174D01*
X8101134Y-9818174D02*
X8120182Y-9818174D01*
X8339230Y-9684841D02*
X8339230Y-9884841D01*
X8339230Y-9694365D02*
X8358277Y-9684841D01*
X8358277Y-9684841D02*
X8396373Y-9684841D01*
X8396373Y-9684841D02*
X8415420Y-9694365D01*
X8415420Y-9694365D02*
X8424944Y-9703888D01*
X8424944Y-9703888D02*
X8434468Y-9722936D01*
X8434468Y-9722936D02*
X8434468Y-9780079D01*
X8434468Y-9780079D02*
X8424944Y-9799126D01*
X8424944Y-9799126D02*
X8415420Y-9808650D01*
X8415420Y-9808650D02*
X8396373Y-9818174D01*
X8396373Y-9818174D02*
X8358277Y-9818174D01*
X8358277Y-9818174D02*
X8339230Y-9808650D01*
X8548754Y-9818174D02*
X8529706Y-9808650D01*
X8529706Y-9808650D02*
X8520182Y-9789603D01*
X8520182Y-9789603D02*
X8520182Y-9618174D01*
X8710658Y-9818174D02*
X8710658Y-9713412D01*
X8710658Y-9713412D02*
X8701135Y-9694365D01*
X8701135Y-9694365D02*
X8682087Y-9684841D01*
X8682087Y-9684841D02*
X8643992Y-9684841D01*
X8643992Y-9684841D02*
X8624944Y-9694365D01*
X8710658Y-9808650D02*
X8691611Y-9818174D01*
X8691611Y-9818174D02*
X8643992Y-9818174D01*
X8643992Y-9818174D02*
X8624944Y-9808650D01*
X8624944Y-9808650D02*
X8615420Y-9789603D01*
X8615420Y-9789603D02*
X8615420Y-9770555D01*
X8615420Y-9770555D02*
X8624944Y-9751507D01*
X8624944Y-9751507D02*
X8643992Y-9741984D01*
X8643992Y-9741984D02*
X8691611Y-9741984D01*
X8691611Y-9741984D02*
X8710658Y-9732460D01*
X8777325Y-9684841D02*
X8853515Y-9684841D01*
X8805896Y-9618174D02*
X8805896Y-9789603D01*
X8805896Y-9789603D02*
X8815420Y-9808650D01*
X8815420Y-9808650D02*
X8834468Y-9818174D01*
X8834468Y-9818174D02*
X8853515Y-9818174D01*
X8996373Y-9808650D02*
X8977325Y-9818174D01*
X8977325Y-9818174D02*
X8939230Y-9818174D01*
X8939230Y-9818174D02*
X8920182Y-9808650D01*
X8920182Y-9808650D02*
X8910658Y-9789603D01*
X8910658Y-9789603D02*
X8910658Y-9713412D01*
X8910658Y-9713412D02*
X8920182Y-9694365D01*
X8920182Y-9694365D02*
X8939230Y-9684841D01*
X8939230Y-9684841D02*
X8977325Y-9684841D01*
X8977325Y-9684841D02*
X8996373Y-9694365D01*
X8996373Y-9694365D02*
X9005896Y-9713412D01*
X9005896Y-9713412D02*
X9005896Y-9732460D01*
X9005896Y-9732460D02*
X8910658Y-9751507D01*
X9177325Y-9818174D02*
X9177325Y-9618174D01*
X9177325Y-9808650D02*
X9158277Y-9818174D01*
X9158277Y-9818174D02*
X9120182Y-9818174D01*
X9120182Y-9818174D02*
X9101135Y-9808650D01*
X9101135Y-9808650D02*
X9091611Y-9799126D01*
X9091611Y-9799126D02*
X9082087Y-9780079D01*
X9082087Y-9780079D02*
X9082087Y-9722936D01*
X9082087Y-9722936D02*
X9091611Y-9703888D01*
X9091611Y-9703888D02*
X9101135Y-9694365D01*
X9101135Y-9694365D02*
X9120182Y-9684841D01*
X9120182Y-9684841D02*
X9158277Y-9684841D01*
X9158277Y-9684841D02*
X9177325Y-9694365D01*
X9253516Y-9894365D02*
X9263039Y-9884841D01*
X9263039Y-9884841D02*
X9282087Y-9856269D01*
X9282087Y-9856269D02*
X9291611Y-9837222D01*
X9291611Y-9837222D02*
X9301135Y-9808650D01*
X9301135Y-9808650D02*
X9310658Y-9761031D01*
X9310658Y-9761031D02*
X9310658Y-9722936D01*
X9310658Y-9722936D02*
X9301135Y-9675317D01*
X9301135Y-9675317D02*
X9291611Y-9646746D01*
X9291611Y-9646746D02*
X9282087Y-9627698D01*
X9282087Y-9627698D02*
X9263039Y-9599126D01*
X9263039Y-9599126D02*
X9253516Y-9589603D01*
M02*
